<svg width="457" height="249" viewBox="0 0 457 249" fill="none" xmlns="http://www.w3.org/2000/svg">
<path d="M375.447 69.8163C367.57 42.2163 350.071 21.6123 325.493 11.8503C300.915 2.08826 265.753 11.7483 248.747 30.8163C236.306 44.7603 232.475 64.3263 218.559 77.0163C205.839 88.6203 186.819 92.3343 168.949 91.9503C151.08 91.5663 133.521 87.6483 115.703 86.3583C97.8854 85.0683 78.8792 86.7243 64.269 96.2403C45.0939 108.732 33.672 139.218 35.8732 160.8C38.9122 190.572 60.3924 220.698 89.9115 227.124L283.416 229.632C308.818 229.032 336.662 206.688 350.096 185.1C357.239 173.556 363.583 170.892 370.272 149.826C381.148 115.554 382.271 93.7203 375.447 69.8163Z" fill="#EBEBEB"/>
<path d="M457 247.5C457 247.788 353.987 248 226.958 248C99.9291 248 -3.12314 247.788 -3.12314 247.5C-3.12314 247.212 99.8699 247 226.958 247C354.046 247 457 247.231 457 247.5Z" fill="#263238"/>
<path d="M67.3533 244.602C76.1065 238.992 78.1259 228.54 77.8142 219.138C77.7623 217.572 77.9571 215.916 77.1649 214.536C76.3727 213.156 74.4831 212.214 72.9572 212.868C71.6974 213.414 71.139 214.764 70.4312 215.868C69.4843 217.361 68.0999 218.576 66.4378 219.372C65.3534 219.882 64.0157 220.194 62.9443 219.648C61.4833 218.898 61.3209 217.026 61.3339 215.448C61.3686 212.54 61.3989 209.632 61.4248 206.724C61.5339 205.179 61.3739 203.627 60.9508 202.128C60.4313 200.646 59.2755 199.266 57.6651 198.84C56.0548 198.414 54.0743 199.272 53.7301 200.796C53.6618 201.442 53.6423 202.092 53.6717 202.74C53.6811 203.064 53.5869 203.383 53.4009 203.657C53.2149 203.931 52.9454 204.149 52.6262 204.282C51.9769 204.462 51.2756 204.018 50.7756 203.562C49.0354 201.978 47.8601 199.962 46.7627 197.922C45.6653 195.882 44.6004 193.83 43.0225 192.108C41.4446 190.386 39.2628 189.012 36.8472 188.88C34.4317 188.748 31.8473 190.116 31.2239 192.306C30.6006 194.496 31.9836 196.746 33.4901 198.528C35.7122 201.177 38.3367 203.515 41.2822 205.47C41.8542 205.768 42.309 206.226 42.5809 206.778C42.9381 207.822 41.8731 208.848 40.7563 209.178C39.4965 209.562 38.1589 209.436 36.8148 209.574C35.4706 209.712 34.068 210.246 33.568 211.374C32.8732 212.97 34.3083 214.644 35.7239 215.742C38.5618 217.948 41.7911 219.683 45.2692 220.872C46.5467 221.205 47.7481 221.75 48.8146 222.48C49.8146 223.29 50.412 224.694 49.8016 225.792C49.1912 226.89 47.6393 227.238 46.3341 226.992C45.0289 226.746 43.8731 226.11 42.6329 225.672C40.3147 224.856 37.3148 224.994 35.8213 226.842C35.3659 227.479 35.0762 228.205 34.9748 228.963C34.8734 229.721 34.9631 230.49 35.2369 231.21C35.7975 232.642 36.663 233.956 37.7823 235.074C41.4462 239.169 46.2215 242.292 51.6198 244.122C56.9963 245.868 62.0092 246.348 67.3403 244.56" fill="#EA1D2C"/>
<path d="M66.7949 247.248C66.4442 243.522 66.2624 243.444 64.7689 238.698C63.1017 233.571 61.1158 228.536 58.821 223.62C58.2149 222.312 57.6218 221.02 57.0418 219.744C56.4509 218.472 55.8729 217.212 55.2171 216.012C53.9542 213.714 52.5538 211.482 51.0224 209.328C49.5873 207.252 48.1393 205.338 46.7692 203.55C45.3991 201.762 44.0874 200.13 42.8212 198.684C40.8424 196.394 38.6712 194.251 36.3277 192.276C35.4966 191.574 34.8343 191.076 34.3797 190.704L33.8602 190.314C33.7434 190.224 33.6784 190.182 33.6719 190.188C33.7253 190.241 33.7817 190.291 33.8408 190.338L34.3408 190.752C34.7823 191.112 35.4317 191.646 36.2498 192.36C38.5614 194.361 40.708 196.519 42.6718 198.816C43.9251 200.262 45.2237 201.906 46.5679 203.694C47.912 205.482 49.36 207.402 50.7951 209.472C52.3047 211.629 53.6855 213.86 54.9314 216.156C55.5807 217.356 56.1587 218.604 56.7431 219.876C57.3275 221.148 57.9184 222.444 58.5223 223.752C60.8112 228.66 62.8013 233.681 64.4832 238.794C65.9832 243.522 66.1845 243.594 66.5676 247.284" fill="#263238"/>
<path d="M55.1067 216C55.1866 215.784 55.2411 215.561 55.2691 215.334C55.36 214.902 55.4704 214.278 55.5937 213.498C55.834 211.944 56.0937 209.79 56.3729 207.414C56.6522 205.038 56.9379 202.89 57.2041 201.342C57.3405 200.568 57.4509 199.944 57.5418 199.512C57.6018 199.29 57.6323 199.063 57.6327 198.834C57.5402 199.046 57.4685 199.265 57.4184 199.488C57.3015 199.914 57.1522 200.538 56.9898 201.288C56.6651 202.83 56.3405 204.984 56.0613 207.36C55.782 209.736 55.5548 211.83 55.373 213.456C55.2885 214.188 55.2106 214.806 55.1522 215.298C55.1037 215.529 55.0884 215.765 55.1067 216Z" fill="#263238"/>
<path d="M33.4057 212.178C33.6914 212.238 33.9829 212.273 34.2758 212.28C34.8278 212.328 35.6395 212.388 36.6329 212.502C38.6199 212.706 41.3537 213.102 44.3536 213.612C47.3536 214.122 50.0419 214.74 51.9769 215.22C52.9444 215.454 53.7236 215.664 54.2626 215.82C54.5399 215.906 54.8244 215.97 55.1132 216.012C54.8527 215.889 54.5811 215.786 54.3015 215.706C53.7691 215.532 53.0029 215.292 52.0353 215.034C50.0873 214.5 47.4185 213.876 44.4121 213.336C41.8358 212.869 39.2349 212.527 36.62 212.31C35.62 212.226 34.8083 212.19 34.2499 212.178C33.969 212.156 33.6866 212.156 33.4057 212.178Z" fill="#263238"/>
<path d="M64.4832 238.332C64.5467 238.257 64.5991 238.174 64.6391 238.086C64.7365 237.888 64.8599 237.648 65.0092 237.36C65.3339 236.73 65.7689 235.806 66.3079 234.66C67.3598 232.362 68.717 229.152 70.152 225.582C71.587 222.012 72.9117 218.796 73.9117 216.486L75.113 213.75C75.2364 213.45 75.3467 213.204 75.4312 213.006C75.5156 212.808 75.5351 212.742 75.5221 212.736C75.4616 212.812 75.4115 212.895 75.3727 212.982L75.0026 213.702C74.6779 214.338 74.2364 215.262 73.7039 216.408C72.6455 218.7 71.2948 221.916 69.8598 225.48C68.4248 229.044 67.1001 232.266 66.0936 234.582C65.6066 235.704 65.1975 236.628 64.8988 237.312C64.769 237.612 64.6651 237.858 64.5806 238.062C64.5381 238.149 64.5055 238.239 64.4832 238.332Z" fill="#263238"/>
<path d="M35.6589 229.644C35.7497 229.69 35.8455 229.726 35.9446 229.752L36.7823 230.016L39.8732 230.952C42.4705 231.738 46.0614 232.872 50.0224 234.12C53.9834 235.368 57.5872 236.478 60.2106 237.216C61.5092 237.588 62.5872 237.876 63.3274 238.062L64.1845 238.278C64.2822 238.304 64.3821 238.322 64.4832 238.332C64.4832 238.332 64.3923 238.284 64.1975 238.218L63.3664 237.96L60.3015 237.024C57.7041 236.232 54.1132 235.104 50.1458 233.85C46.1783 232.596 42.5874 231.492 39.9641 230.754C38.6654 230.382 37.5875 230.094 36.8472 229.908L35.9901 229.698C35.8845 229.661 35.772 229.642 35.6589 229.644Z" fill="#263238"/>
<path d="M172.794 247.242H82.4246C71.5091 247.2 62.2949 238.596 62.3274 228.504L63.2885 18.1982C63.2987 15.7979 63.8206 13.423 64.8246 11.2092C65.8285 8.99545 67.2947 6.98614 69.1393 5.29614C70.984 3.60614 73.171 2.26857 75.5753 1.35987C77.9796 0.451166 80.5542 -0.0108606 83.1518 0.00019377L173.936 0.390195C176.533 0.400415 179.101 0.883154 181.496 1.81084C183.89 2.73852 186.063 4.09297 187.891 5.79682C189.718 7.50068 191.165 9.52055 192.148 11.7411C193.13 13.9616 193.63 16.3392 193.618 18.7382L192.657 229.044C192.647 231.444 192.125 233.819 191.121 236.033C190.117 238.247 188.651 240.256 186.806 241.946C184.961 243.636 182.774 244.974 180.37 245.883C177.966 246.791 175.391 247.253 172.794 247.242Z" fill="#263238"/>
<path d="M173.813 8.37615L156.209 8.32815C155.635 8.33752 155.069 8.45128 154.543 8.66291C154.016 8.87455 153.54 9.17992 153.142 9.56158C152.743 9.94325 152.43 10.3937 152.22 10.8873C152.01 11.3809 151.907 11.9079 151.917 12.4382V15.3902C151.936 16.4607 151.495 17.4945 150.691 18.265C149.886 19.0355 148.784 19.4797 147.625 19.5002L113.314 19.3502C112.74 19.3362 112.174 19.2178 111.65 19.0018C111.126 18.7859 110.652 18.4765 110.257 18.0915C109.862 17.7065 109.553 17.2533 109.348 16.7579C109.143 16.2624 109.045 15.7345 109.061 15.2042V12.2582C109.089 11.1864 108.656 10.148 107.858 9.36998C107.06 8.59195 105.961 8.13756 104.801 8.10615H98.6127L83.2038 8.04015C81.3849 8.03305 79.5823 8.35704 77.899 8.99365C76.2156 9.63025 74.6844 10.567 73.3929 11.7504C72.1013 12.9338 71.0746 14.3406 70.3715 15.8907C69.6684 17.4407 69.3025 19.1035 69.2949 20.7842L68.3533 226.014C68.3378 229.407 69.7813 232.667 72.3664 235.077C74.9515 237.487 78.4666 238.85 82.1389 238.866L172.742 239.25C174.561 239.259 176.365 238.936 178.049 238.3C179.734 237.664 181.266 236.727 182.559 235.544C183.851 234.36 184.878 232.953 185.581 231.402C186.285 229.851 186.65 228.188 186.657 226.506L187.573 21.2282C187.586 17.8396 186.146 14.5841 183.567 12.175C180.988 9.76602 177.48 8.39995 173.813 8.37615Z" fill="#F5F5F5"/>
<path d="M135.359 200.46C135.255 202.938 135.158 205.26 135.073 207.198H148.06L146.469 199.806L135.359 200.46Z" fill="#F5F5F5"/>
<path d="M82.4635 203.55L82.5739 207.198H133.775C133.859 205.146 133.956 202.878 134.054 200.538L82.4635 203.55Z" fill="#F5F5F5"/>
<path d="M147.151 199.77L148.748 207.192H172.748L172.456 198.294L147.151 199.77Z" fill="#F5F5F5"/>
<path d="M136.658 95.9762L141.197 71.6702L129.314 70.8542V95.9762H136.658Z" fill="#F5F5F5"/>
<path d="M81.3921 190.056L68.4962 194.724L68.4572 203.166L81.7752 202.386L81.3921 190.056Z" fill="#F5F5F5"/>
<path d="M81.3337 188.16L80.6324 165.522H80.6194V157.536L68.6585 158.706L68.5027 192.792L81.3272 188.148L81.3337 188.16Z" fill="#F5F5F5"/>
<path d="M80.6194 139.716L68.7559 138.264L68.6715 156.9L80.6194 155.73V139.716Z" fill="#F5F5F5"/>
<path d="M169.053 157.872L168.553 164.364L154.541 165.756L155.625 170.892L171.527 169.782L171.294 162.42L172.56 157.548L169.053 157.872Z" fill="#F5F5F5"/>
<path d="M143.794 171.714L154.969 170.934L152.534 159.414L142.781 160.326L143.794 171.714Z" fill="#F5F5F5"/>
<path d="M143.904 172.914L144.755 182.52L146.268 195.696L146.891 198.582L172.417 197.094L171.566 170.982L143.904 172.914Z" fill="#F5F5F5"/>
<path d="M99.9698 127.548L100.95 129.102L81.2687 139.728V164.898L102.048 163.536L142.119 159.786L140.651 143.292L102.398 138.672L102.652 136.872L140.489 141.438L138.008 113.52L100.554 116.844L100.431 115.644L137.898 112.32L136.599 97.7522H100.561L68.9312 103.068L68.7754 136.428L80.7428 137.928L99.9698 127.548ZM83.2817 162.474C83.2817 162.474 83.4311 141.726 83.2817 140.952L99.3464 133.056L101.431 161.418L83.2817 162.474Z" fill="#F5F5F5"/>
<path d="M167.735 157.998L153.183 159.354L154.287 164.574L167.333 163.278L167.735 157.998Z" fill="#F5F5F5"/>
<path d="M135.541 196.014C135.495 197.106 135.45 198.186 135.411 199.254L146.242 198.618L145.683 196.038L135.541 196.014Z" fill="#F5F5F5"/>
<path d="M112.21 95.9762L114.119 87.9782H128.664V70.8122L83.1908 67.6982V83.8202L68.9897 86.7902L68.9247 101.262L100.372 95.9762H112.21Z" fill="#F5F5F5"/>
<path d="M142.554 48.1982L142.164 46.7282L159.527 40.3802L148.235 19.4282C148.021 19.4603 147.804 19.4764 147.586 19.4762L128.398 19.3922L128.917 48.7142L142.554 48.1982Z" fill="#F5F5F5"/>
<path d="M168.865 36.9602V8.35825L156.209 8.32825C155.635 8.33762 155.069 8.45137 154.543 8.66301C154.016 8.87464 153.54 9.18001 153.142 9.56168C152.743 9.94334 152.43 10.3938 152.22 10.8874C152.01 11.381 151.907 11.9079 151.917 12.4382V15.3902C151.917 16.0494 151.748 16.6992 151.426 17.2871C151.103 17.8749 150.635 18.3844 150.06 18.7742L161.359 39.7382L168.865 36.9602Z" fill="#F5F5F5"/>
<path d="M103.593 38.1903L102.126 8.07025H98.6127L84.8791 8.01025L79.035 34.9443L103.593 38.1903ZM100.463 11.1243L100.931 35.6523L82.6778 33.1863L86.6713 11.1243H100.463Z" fill="#F5F5F5"/>
<path d="M104.255 38.2802V38.5322C104.255 40.8842 104.333 45.1322 104.372 49.6382L128.288 48.7382L127.768 19.3922L113.294 19.3262C112.72 19.3122 112.155 19.1938 111.631 18.9778C111.106 18.7619 110.633 18.4525 110.238 18.0675C109.843 17.6825 109.534 17.2293 109.329 16.7339C109.123 16.2384 109.026 15.7105 109.041 15.1802V12.2342C109.069 11.1624 108.637 10.124 107.838 9.34598C107.04 8.56795 105.941 8.11356 104.781 8.08215H102.762L104.229 38.2802H104.255Z" fill="#F5F5F5"/>
<path d="M77.1 34.6742L82.8921 8.00415C79.2746 8.0637 75.8261 9.42947 73.2847 11.8091C70.7434 14.1887 69.3113 17.393 69.2949 20.7362L69.2299 34.0321L69.2949 33.6422L77.1 34.6742Z" fill="#F5F5F5"/>
<path d="M81.2428 67.5662L69.0806 66.7322L68.9962 84.9422L81.2428 82.3802V67.5662Z" fill="#F5F5F5"/>
<path d="M76.9701 35.2622L69.2299 34.2362L69.0936 63.7262L70.7624 63.8402L76.9701 35.2622Z" fill="#F5F5F5"/>
<path d="M101.535 187.812L101.736 164.142L81.2752 165.48L82.0025 188.67L101.535 187.812Z" fill="#F5F5F5"/>
<path d="M105.301 182.328L134.275 195.156C134.625 186.756 134.924 178.956 134.924 178.434L135.573 178.404L135.885 177.84C136.294 178.026 136.294 178.026 136.08 183.744C135.956 186.93 135.788 191.172 135.612 195.414H145.632L144.158 182.55L142.21 160.35L104.346 163.878L105.301 182.328Z" fill="#F5F5F5"/>
<path d="M176.332 143.064L176.001 139.938L141.268 143.28L142.729 159.726L172.722 156.93L176.332 143.064Z" fill="#F5F5F5"/>
<path d="M128.664 89.7782H115.684L114.203 95.9762H128.664V89.7782Z" fill="#F5F5F5"/>
<path d="M170.969 91.8721L138.469 89.7961L137.171 96.8881L138.541 112.284L172.813 109.236L170.969 91.8721ZM139.664 96.8761L141.411 92.4001L169.638 94.0501L171.268 106.854L140.619 110.214L139.664 96.8761Z" fill="#F5F5F5"/>
<path d="M174.339 124.05L172.91 110.436L138.619 113.478L139.911 127.968L174.339 124.05Z" fill="#F5F5F5"/>
<path d="M81.8142 203.592L68.5092 204.366L68.4572 203.568L68.4377 207.192H81.9246L81.8142 203.592Z" fill="#F5F5F5"/>
<path d="M187.358 30.1982L187.553 30.6602L187.573 21.2282C187.586 17.8355 186.142 14.5764 183.558 12.1667C180.973 9.75697 177.459 8.39369 173.787 8.37622H169.469V36.7442L187.358 30.1982Z" fill="#F5F5F5"/>
<path d="M134.249 195.834L104.671 182.736L103.626 163.974L102.392 164.088L102.178 188.388L82.0155 189.27V189.81L82.4051 202.338L134.086 199.338C134.151 198.168 134.203 196.998 134.249 195.834ZM83.2817 190.818L111.502 189.018L129.859 196.884L83.2817 199.212V190.818Z" fill="#F5F5F5"/>
<path d="M178.949 61.7282L180.164 55.0982C169.553 51.6002 168.82 41.3762 168.852 38.2982L161.93 40.8302L172.352 60.1682L178.949 61.7282Z" fill="#F5F5F5"/>
<path d="M141.106 141.486L155.528 140.1L152.69 128.328L140.067 129.768L141.106 141.486Z" fill="#F5F5F5"/>
<path d="M171.014 71.8682H144.08L141.846 71.7122L138.8 88.0142L170.774 90.0542L170.034 82.9682L173.183 72.5042L171.014 71.8682Z" fill="#F5F5F5"/>
<path d="M170.358 68.8682L170.696 61.0682L160.112 41.4302L143.697 47.4302L149.339 68.8382L170.358 68.8682ZM159.469 43.8422L169.17 60.8942L167.768 66.2102L151.17 65.6102L147.021 49.4822L159.469 43.8422Z" fill="#F5F5F5"/>
<path d="M174.547 162.732L175.047 178.014L186.715 177.408L186.754 178.008L175.066 178.614L175.657 196.902L186.696 196.254L186.774 197.454L175.696 198.102L175.995 207.192H186.748L186.982 156.204L175.982 157.23L174.547 162.732Z" fill="#F5F5F5"/>
<path d="M103.613 38.7961L78.8986 35.5201L72.7169 63.9721L103.723 66.0961C103.846 61.7281 103.736 48.2761 103.613 38.7961Z" fill="#F5F5F5"/>
<path d="M144.261 68.8682H148.002L142.71 48.7922L128.956 49.3142L129.288 67.8422L144.261 68.8682Z" fill="#F5F5F5"/>
<path d="M104.353 66.1383L128.632 67.8002L128.307 49.3383L104.385 50.2383C104.457 56.4843 104.457 63.1443 104.353 66.1383Z" fill="#F5F5F5"/>
<path d="M174.527 125.844L153.333 128.256L156.183 140.034L175.813 138.15L174.527 125.844Z" fill="#F5F5F5"/>
<path d="M180.274 54.4682L181.631 47.0282L187.475 47.4482L187.553 31.4222L169.508 38.0222C169.138 49.2962 176.806 53.2622 180.274 54.4682Z" fill="#F5F5F5"/>
<path d="M173.326 83.2322L174.06 90.2642L187.28 91.1102L187.345 76.6322L176.281 73.4042L173.326 83.2322Z" fill="#F5F5F5"/>
<path d="M179.612 143.274L176.144 156.612L186.982 155.598L187.047 141.612C183.722 140.802 180.819 140.142 179.255 139.866L179.612 143.274Z" fill="#F5F5F5"/>
<path d="M172.3 69.0961L187.358 73.4941L187.397 65.5801L172.605 62.0461L172.3 69.0961Z" fill="#F5F5F5"/>
<path d="M179.066 138.036C180.28 138.204 182.579 138.636 187.053 139.746L187.196 109.146L176.157 110.13L179.066 138.036Z" fill="#F5F5F5"/>
<path d="M176.021 108.954L187.202 107.958L187.267 92.9162L174.248 92.0822L176.021 108.954Z" fill="#F5F5F5"/>
<path d="M181.521 54.8461C183.466 55.4035 185.44 55.8701 187.436 56.2441V48.6481L182.677 48.3062L181.521 54.8461Z" fill="#F5F5F5"/>
<path d="M180.216 62.0042L187.404 63.7202L187.436 56.8622C185.573 56.5142 183.54 56.0462 181.41 55.4462L180.216 62.0042Z" fill="#F5F5F5"/>
<path d="M81.8142 203.586L81.9246 207.186H82.5739L82.4635 203.538L134.054 200.538C133.956 202.878 133.859 205.146 133.775 207.198H135.073C135.158 205.26 135.255 202.938 135.359 200.46L146.495 199.806L148.086 207.198H148.735L147.138 199.77L172.462 198.294L172.755 207.198H176.001L175.703 198.102L186.78 197.454L186.702 196.254L175.664 196.902L175.073 178.614L186.761 178.014L186.722 177.414L175.034 178.014L174.534 162.732L175.969 157.23L186.969 156.204V155.604L176.131 156.618L179.599 143.28L179.242 139.872C180.806 140.148 183.709 140.808 187.034 141.618V139.728C182.56 138.636 180.261 138.186 179.047 138.018L176.125 110.13L187.163 109.146V107.946L175.982 108.942L174.209 92.0703L187.196 92.9043V91.1043L173.975 90.2583L173.242 83.2262L176.196 73.3982L187.235 76.6263V73.4883L172.177 69.0903L172.482 62.0403L187.274 65.5743V63.7142L180.086 61.9982L181.28 55.4403C183.436 56.0403 185.443 56.5083 187.306 56.8563V56.2563C185.31 55.8822 183.336 55.4156 181.391 54.8583L182.579 48.3182L187.339 48.6603V47.4603L181.495 47.0403L180.138 54.4802C176.67 53.2802 169.001 49.3083 169.372 38.0283L187.417 31.4283V30.6663L187.222 30.2043L169.378 36.7322V8.36425H168.729V36.9663L161.209 39.7203L149.911 18.7563C149.375 19.1134 148.753 19.3459 148.099 19.4343L159.391 40.3863L142.164 46.7283L142.554 48.1982L128.917 48.7142L128.398 19.3923H127.749L128.268 48.7383L104.353 49.6383C104.314 45.1143 104.262 40.8842 104.236 38.5322V38.2803L102.768 8.08225H102.119L103.587 38.2023L79.022 34.9443L84.8661 8.01025H83.1908H82.8791L77.087 34.6803L69.2949 33.6482L69.2299 34.0383V34.2423L76.9701 35.2683L70.7624 63.8462L69.0936 63.7322V66.7322L81.2558 67.5662V82.3802L69.0092 84.9423V86.7903L83.2103 83.7903V67.7282L128.664 70.8423V88.0142H114.119L112.21 96.0063H100.372L68.9247 101.292V103.122L100.561 97.7762H136.586L137.885 112.344L100.418 115.668L100.541 116.868L137.995 113.544L140.476 141.462L102.639 136.896L102.385 138.696L140.638 143.316L142.119 159.786L102.074 163.518L81.2947 164.88V139.728L100.976 129.12L99.9958 127.566L80.7428 137.928L68.7429 136.452V138.252L80.6194 139.728V155.742L68.6715 156.912V158.712L80.6324 157.542V165.528L81.3402 188.166L68.5157 192.81V194.742L81.4116 190.074L81.7947 202.404L68.4767 203.184V203.586L68.5286 204.384L81.8142 203.586ZM135.411 199.254C135.45 198.186 135.495 197.106 135.541 196.014H145.684L146.242 198.594L135.411 199.254ZM146.891 198.582L146.242 195.696L144.729 182.496L143.878 172.896L171.54 170.964L172.391 197.07L146.891 198.582ZM153.157 159.354L167.716 157.998L167.307 163.278L154.261 164.574L153.157 159.354ZM152.508 159.414L154.943 170.934L143.768 171.714L142.755 160.314L152.508 159.414ZM171.501 169.782L155.599 170.892L154.515 165.756L168.527 164.364L169.027 157.872L172.534 157.548L171.268 162.42L171.501 169.782ZM152.67 128.328L155.508 140.1L141.086 141.486L140.047 129.768L152.67 128.328ZM156.164 140.034L153.313 128.256L174.508 125.856L175.807 138.162L156.164 140.034ZM170.755 90.0543L138.781 88.0083L141.826 71.7122L144.06 71.8682H171.001L173.164 72.5043L170.04 82.9682L170.755 90.0543ZM168.807 38.2562C168.774 41.3522 169.508 51.5763 180.118 55.0563L178.949 61.7282L172.352 60.1502L161.93 40.7883L168.807 38.2562ZM160.066 41.4543L170.69 61.0923L170.352 68.8923H149.339L143.697 47.4842L160.066 41.4543ZM142.664 48.7923L147.956 68.8682H144.261L129.288 67.8482L128.956 49.3142L142.664 48.7923ZM128.262 49.3383L128.586 67.8002L104.307 66.1383C104.411 63.1383 104.392 56.4843 104.307 50.2383L128.262 49.3383ZM78.8532 35.5383L103.567 38.8142C103.691 48.2942 103.801 61.7342 103.678 66.1142L72.6715 63.9903L78.8532 35.5383ZM141.151 71.6883L136.606 95.9942H129.314V70.8543L141.151 71.6883ZM115.638 89.8022H128.625V95.9942H114.197L115.638 89.8022ZM137.067 96.9063L138.365 89.8142L170.865 91.8903L172.683 109.254L138.411 112.302L137.067 96.9063ZM172.833 110.454L174.261 124.068L139.846 127.992L138.547 113.496L172.833 110.454ZM141.19 143.298L175.923 139.956L176.255 143.082L172.644 156.948L142.651 159.744L141.19 143.298ZM144.034 182.592L145.508 195.456H135.567C135.742 191.214 135.911 186.972 136.034 183.786C136.249 178.068 136.249 178.068 135.839 177.882L135.528 178.446L134.878 178.476C134.878 178.974 134.599 186.816 134.229 195.198L105.301 182.328L104.275 163.89L142.119 160.386L144.034 182.592ZM101.658 164.16L101.457 187.83L81.9246 188.688L81.1973 165.498L101.658 164.16ZM81.9571 189.84V189.3L102.119 188.418L102.333 164.118L103.567 164.004L104.613 182.766L134.19 195.864C134.145 197.028 134.093 198.198 134.047 199.362L82.3661 202.362L81.9571 189.84Z" fill="white"/>
<path d="M111.502 188.988L83.2817 190.812V199.188L129.866 196.854L111.502 188.988Z" fill="#EBEBEB"/>
<path d="M169.638 94.0501L141.411 92.4001L139.664 96.8762L140.619 110.214L171.268 106.854L169.638 94.0501Z" fill="#EBEBEB"/>
<path d="M82.1389 238.866L172.742 239.25C174.561 239.259 176.365 238.936 178.049 238.3C179.734 237.664 181.266 236.728 182.559 235.544C183.851 234.36 184.878 232.953 185.581 231.402C186.285 229.851 186.65 228.188 186.657 226.506L186.748 207.198H68.4377L68.3728 221.802V226.398C68.4639 229.722 69.9519 232.882 72.5216 235.21C75.0913 237.537 78.5407 238.849 82.1389 238.866Z" fill="#EBEBEB"/>
<path d="M100.931 35.6521L100.463 11.1241H86.6778L82.6778 33.1861L100.931 35.6521Z" fill="#EBEBEB"/>
<path d="M167.768 66.2102L169.17 60.8942L159.469 43.8422L147.021 49.5062L151.17 65.6342L167.768 66.2102Z" fill="#EBEBEB"/>
<path d="M83.2817 140.928C83.431 141.702 83.2817 162.45 83.2817 162.45L101.463 161.394L99.3789 133.032L83.2817 140.928Z" fill="#EBEBEB"/>
<path d="M143.8 157.8L142.839 144.942L173.962 141.246V143.466L170.196 155.292L143.8 157.8Z" fill="#EBEBEB"/>
<path d="M120.781 51.1622C120.781 51.8552 120.559 52.5327 120.142 53.1089C119.725 53.6852 119.133 54.1343 118.44 54.3995C117.747 54.6647 116.985 54.7341 116.249 54.5989C115.514 54.4637 114.838 54.1299 114.308 53.6399C113.777 53.1499 113.416 52.5255 113.27 51.8458C113.123 51.1661 113.199 50.4616 113.486 49.8213C113.773 49.181 114.259 48.6338 114.882 48.2487C115.506 47.8637 116.239 47.6582 116.989 47.6582C117.995 47.6582 118.959 48.0274 119.671 48.6845C120.382 49.3416 120.781 50.2329 120.781 51.1622Z" fill="#EA1D2C"/>
<g opacity="0.6">
<path d="M120.775 51.0122C120.807 51.7048 120.617 52.3909 120.228 52.9835C119.838 53.5761 119.268 54.0487 118.588 54.3414C117.907 54.6342 117.149 54.7339 116.407 54.628C115.666 54.5222 114.975 54.2155 114.422 53.7467C113.869 53.278 113.479 52.6682 113.302 51.9947C113.124 51.3211 113.167 50.614 113.424 49.9628C113.682 49.3117 114.142 48.7457 114.748 48.3365C115.354 47.9274 116.077 47.6934 116.827 47.6642C117.831 47.6252 118.81 47.9558 119.55 48.5836C120.291 49.2113 120.731 50.0848 120.775 51.0122Z" fill="white"/>
</g>
<path d="M116.989 53.3702C118.381 53.3702 119.508 52.328 119.508 51.0422C119.508 49.7565 118.381 48.7142 116.989 48.7142C115.598 48.7142 114.47 49.7565 114.47 51.0422C114.47 52.328 115.598 53.3702 116.989 53.3702Z" fill="#EA1D2C"/>
<path d="M175.579 191.052C175.574 191.347 175.475 191.634 175.294 191.877C175.114 192.12 174.86 192.309 174.564 192.419C174.268 192.529 173.943 192.557 173.631 192.498C173.318 192.439 173.031 192.296 172.806 192.087C172.581 191.878 172.427 191.612 172.364 191.323C172.302 191.034 172.333 190.734 172.453 190.461C172.574 190.188 172.779 189.954 173.043 189.788C173.306 189.622 173.617 189.532 173.936 189.528C174.153 189.526 174.369 189.564 174.57 189.639C174.771 189.715 174.953 189.827 175.106 189.97C175.259 190.112 175.38 190.281 175.461 190.467C175.543 190.653 175.583 190.852 175.579 191.052Z" fill="#EA1D2C"/>
<path d="M172.988 190.566L172.592 182.166L145.242 183.396C144.525 183.427 143.812 183.286 143.171 182.988L104.372 164.88C103.931 164.673 103.556 164.362 103.286 163.979C103.016 163.596 102.86 163.153 102.833 162.696L97.5477 68.0522C97.535 67.828 97.5742 67.6039 97.6627 67.3948C97.7511 67.1858 97.8869 66.9965 98.0608 66.8398C98.2347 66.683 98.4429 66.5624 98.6713 66.4859C98.8997 66.4094 99.1432 66.3788 99.3854 66.3962L116.015 67.5302V50.7302H117.963V67.7582C117.968 67.9757 117.924 68.1918 117.835 68.393C117.745 68.5942 117.612 68.7764 117.444 68.9282C117.269 69.0748 117.063 69.187 116.84 69.2582C116.617 69.3293 116.38 69.3579 116.145 69.3422L99.5282 68.2082L104.794 162.606C104.804 162.746 104.853 162.881 104.936 162.997C105.019 163.114 105.134 163.209 105.268 163.272L144.067 181.392C144.406 181.551 144.784 181.625 145.164 181.608L172.748 180.366C173.204 180.348 173.65 180.497 173.988 180.78C174.158 180.921 174.295 181.092 174.392 181.282C174.489 181.473 174.544 181.68 174.553 181.89L174.949 190.488L172.988 190.566Z" fill="#EA1D2C"/>
<path d="M100.73 113.694C103.441 113.694 105.639 111.663 105.639 109.158C105.639 106.653 103.441 104.622 100.73 104.622C98.0183 104.622 95.8205 106.653 95.8205 109.158C95.8205 111.663 98.0183 113.694 100.73 113.694Z" fill="#EA1D2C"/>
<path d="M100.73 112.308C102.612 112.308 104.139 110.898 104.139 109.158C104.139 107.418 102.612 106.008 100.73 106.008C98.8467 106.008 97.3205 107.418 97.3205 109.158C97.3205 110.898 98.8467 112.308 100.73 112.308Z" fill="#FAFAFA"/>
<path d="M100.73 112.536C100.006 112.537 99.2988 112.34 98.6967 111.97C98.0947 111.599 97.6251 111.072 97.3474 110.455C97.0697 109.838 96.9964 109.158 97.1367 108.503C97.277 107.847 97.6247 107.245 98.1357 106.772C98.6467 106.299 99.2981 105.976 100.007 105.845C100.717 105.715 101.452 105.781 102.121 106.037C102.789 106.292 103.36 106.725 103.762 107.281C104.164 107.836 104.379 108.49 104.379 109.158C104.377 110.053 103.992 110.91 103.308 111.543C102.625 112.176 101.697 112.533 100.73 112.536ZM100.73 106.23C100.103 106.229 99.4892 106.4 98.9673 106.721C98.4453 107.042 98.0381 107.499 97.7973 108.033C97.5565 108.568 97.4928 109.157 97.6143 109.726C97.7359 110.294 98.0372 110.816 98.4801 111.226C98.923 111.637 99.4876 111.916 100.102 112.029C100.717 112.143 101.355 112.085 101.934 111.864C102.514 111.642 103.009 111.267 103.357 110.785C103.706 110.304 103.892 109.738 103.892 109.158C103.89 108.383 103.557 107.64 102.964 107.092C102.372 106.543 101.568 106.233 100.73 106.23Z" fill="#EA1D2C"/>
<path d="M129.645 90.1322H106.268C105.722 90.1322 105.199 90.3326 104.813 90.6893C104.427 91.0459 104.21 91.5297 104.21 92.0342V99.8342C104.21 100.339 104.427 100.822 104.813 101.179C105.199 101.536 105.722 101.736 106.268 101.736H106.541V103.602L108.885 101.736H129.664C130.21 101.736 130.734 101.536 131.12 101.179C131.506 100.822 131.723 100.339 131.723 99.8342V92.0342C131.723 91.7829 131.669 91.5341 131.564 91.3021C131.459 91.0702 131.306 90.8597 131.113 90.6828C130.92 90.506 130.69 90.3663 130.438 90.2717C130.186 90.1772 129.917 90.1298 129.645 90.1322Z" fill="#EA1D2C"/>
<g opacity="0.4">
<path d="M129.645 90.1322H106.268C105.722 90.1322 105.199 90.3326 104.813 90.6893C104.427 91.0459 104.21 91.5297 104.21 92.0342V99.8342C104.21 100.339 104.427 100.822 104.813 101.179C105.199 101.536 105.722 101.736 106.268 101.736H106.541V103.602L108.885 101.736H129.664C130.21 101.736 130.734 101.536 131.12 101.179C131.506 100.822 131.723 100.339 131.723 99.8342V92.0342C131.723 91.7829 131.669 91.5341 131.564 91.3021C131.459 91.0702 131.306 90.8597 131.113 90.6828C130.92 90.506 130.69 90.3663 130.438 90.2717C130.186 90.1772 129.917 90.1298 129.645 90.1322Z" fill="white"/>
</g>
<path d="M109.47 95.8202C109.459 95.5623 109.533 95.3074 109.68 95.0882C109.827 94.869 110.042 94.6954 110.297 94.5898C110.552 94.4841 110.835 94.4512 111.11 94.4951C111.385 94.5391 111.64 94.658 111.842 94.8366C112.043 95.0152 112.183 95.2453 112.242 95.4975C112.301 95.7497 112.278 96.0125 112.174 96.2523C112.071 96.492 111.892 96.6977 111.661 96.8431C111.431 96.9884 111.158 97.0668 110.879 97.0682C110.696 97.0763 110.514 97.05 110.343 96.9909C110.172 96.9318 110.016 96.841 109.884 96.7243C109.752 96.6075 109.647 96.467 109.576 96.3116C109.505 96.1562 109.469 95.989 109.47 95.8202ZM111.898 95.8202C111.9 95.6322 111.84 95.4481 111.728 95.2913C111.616 95.1344 111.456 95.012 111.268 94.9395C111.08 94.867 110.873 94.8477 110.674 94.8841C110.474 94.9205 110.291 95.0109 110.147 95.1439C110.003 95.2768 109.905 95.4463 109.866 95.6307C109.826 95.8152 109.847 96.0063 109.926 96.1797C110.004 96.3532 110.137 96.5012 110.306 96.6049C110.476 96.7086 110.675 96.7634 110.879 96.7622C111.014 96.7664 111.148 96.7448 111.274 96.699C111.4 96.6531 111.514 96.5839 111.61 96.4956C111.705 96.4072 111.78 96.3017 111.83 96.1855C111.879 96.0694 111.903 95.945 111.898 95.8202Z" fill="white"/>
<path d="M114.846 96.1202C114.854 96.2446 114.833 96.3691 114.785 96.4857C114.737 96.6023 114.663 96.7083 114.569 96.797C114.474 96.8857 114.36 96.9551 114.235 97.0008C114.109 97.0465 113.975 97.0674 113.84 97.0622C113.702 97.0685 113.565 97.0433 113.44 96.9889C113.316 96.9344 113.208 96.8524 113.125 96.7501V97.0442H112.775V94.4521H113.138V95.4722C113.222 95.376 113.33 95.2993 113.451 95.2483C113.573 95.1972 113.706 95.1732 113.84 95.1782C113.975 95.1729 114.109 95.1938 114.235 95.2395C114.36 95.2852 114.474 95.3546 114.569 95.4433C114.663 95.532 114.737 95.638 114.785 95.7546C114.833 95.8712 114.854 95.9957 114.846 96.1202ZM114.483 96.1202C114.473 96.004 114.426 95.893 114.349 95.8009C114.272 95.7087 114.167 95.6393 114.048 95.6012C113.929 95.5631 113.8 95.5578 113.678 95.5861C113.555 95.6144 113.445 95.675 113.359 95.7605C113.273 95.846 113.216 95.9527 113.195 96.0676C113.174 96.1825 113.19 96.3006 113.24 96.4075C113.29 96.5144 113.373 96.6054 113.478 96.6694C113.584 96.7335 113.707 96.7678 113.833 96.7681C113.925 96.7718 114.017 96.7574 114.103 96.7258C114.188 96.6942 114.265 96.6462 114.329 96.5849C114.393 96.5236 114.442 96.4505 114.473 96.3704C114.504 96.2902 114.516 96.205 114.509 96.1202H114.483Z" fill="white"/>
<path d="M114.684 97.6262L114.801 97.3682C114.885 97.4306 114.991 97.4625 115.099 97.4583C115.288 97.4583 115.398 97.3442 115.398 97.1342V95.1962H115.755V97.1282C115.763 97.2089 115.752 97.2902 115.722 97.3663C115.692 97.4425 115.645 97.5116 115.583 97.5689C115.521 97.6261 115.446 97.6701 115.364 97.6976C115.281 97.7252 115.193 97.7356 115.106 97.7282C114.957 97.7354 114.81 97.6997 114.684 97.6262ZM115.333 94.6263C115.333 94.5974 115.339 94.5688 115.352 94.5422C115.364 94.5156 115.382 94.4915 115.404 94.4714C115.426 94.4512 115.453 94.4354 115.482 94.4249C115.511 94.4144 115.542 94.4094 115.573 94.4102C115.605 94.4086 115.636 94.4128 115.665 94.4226C115.695 94.4323 115.722 94.4474 115.745 94.467C115.768 94.4866 115.786 94.5103 115.799 94.5366C115.812 94.5629 115.819 94.5914 115.82 94.6203C115.821 94.6502 115.815 94.6799 115.803 94.7076C115.791 94.7354 115.773 94.7605 115.75 94.7813C115.726 94.8022 115.699 94.8184 115.669 94.8289C115.638 94.8394 115.606 94.8439 115.573 94.8423C115.541 94.844 115.509 94.8395 115.479 94.8289C115.449 94.8184 115.422 94.8021 115.399 94.7811C115.377 94.7601 115.359 94.735 115.348 94.7072C115.336 94.6795 115.331 94.6499 115.333 94.6203V94.6263Z" fill="white"/>
<path d="M118.249 96.2282H116.625C116.633 96.3083 116.659 96.3861 116.7 96.4569C116.741 96.5278 116.797 96.5902 116.865 96.6406C116.933 96.691 117.011 96.7282 117.095 96.7502C117.179 96.7721 117.266 96.7782 117.353 96.7682C117.461 96.7717 117.568 96.7536 117.668 96.7153C117.767 96.677 117.857 96.6194 117.931 96.5462L118.132 96.7622C117.983 96.8995 117.795 96.9944 117.59 97.0357C117.385 97.0771 117.171 97.0631 116.974 96.9955C116.777 96.9279 116.605 96.8095 116.479 96.6544C116.353 96.4992 116.277 96.3138 116.262 96.1202C116.256 95.9962 116.279 95.8725 116.327 95.7568C116.376 95.641 116.449 95.5357 116.544 95.4474C116.638 95.3591 116.751 95.2896 116.876 95.2433C117 95.197 117.134 95.1749 117.268 95.1782C117.402 95.1746 117.536 95.1969 117.66 95.2438C117.784 95.2906 117.896 95.3609 117.989 95.4502C118.082 95.5395 118.154 95.6458 118.2 95.7622C118.245 95.8786 118.264 96.0026 118.255 96.1262C118.256 96.1603 118.254 96.1945 118.249 96.2282ZM116.625 95.9882H117.924C117.924 95.8291 117.856 95.6765 117.734 95.564C117.612 95.4515 117.447 95.3882 117.275 95.3882C117.103 95.3882 116.937 95.4515 116.816 95.564C116.694 95.6765 116.625 95.8291 116.625 95.9882Z" fill="white"/>
<path d="M118.573 96.1202C118.571 95.9927 118.596 95.866 118.649 95.7481C118.702 95.6302 118.78 95.5236 118.879 95.4351C118.979 95.3467 119.097 95.2781 119.227 95.2339C119.356 95.1897 119.494 95.1708 119.632 95.1782C119.793 95.1686 119.954 95.1998 120.097 95.2685C120.24 95.3373 120.36 95.4409 120.444 95.5682L120.171 95.7362C120.111 95.6528 120.03 95.5845 119.935 95.5373C119.84 95.4902 119.733 95.4658 119.625 95.4662C119.45 95.4818 119.288 95.5571 119.169 95.6775C119.051 95.7978 118.985 95.9546 118.985 96.1172C118.985 96.2799 119.051 96.4366 119.169 96.557C119.288 96.6774 119.45 96.7527 119.625 96.7682C119.733 96.7694 119.839 96.7459 119.934 96.6998C120.029 96.6537 120.111 96.5865 120.171 96.5042L120.444 96.6662C120.36 96.7942 120.24 96.8987 120.097 96.9684C119.954 97.0382 119.793 97.0706 119.632 97.0622C119.494 97.0688 119.357 97.0492 119.228 97.0047C119.099 96.9602 118.981 96.8916 118.882 96.8033C118.782 96.715 118.704 96.6088 118.651 96.4913C118.598 96.3738 118.571 96.2475 118.573 96.1202Z" fill="white"/>
<path d="M122.067 96.9362C121.939 97.0222 121.784 97.0665 121.625 97.0622C121.537 97.0757 121.446 97.0695 121.361 97.0441C121.275 97.0187 121.197 96.9749 121.134 96.9162C121.07 96.8576 121.023 96.7858 120.996 96.7068C120.968 96.6279 120.961 96.544 120.976 96.4622V95.4422H120.632V95.1722H120.976V94.7642H121.34V95.1722H121.911V95.4422H121.34V96.4442C121.333 96.4845 121.336 96.5259 121.348 96.565C121.361 96.6041 121.383 96.6401 121.413 96.6702C121.443 96.7002 121.48 96.7235 121.522 96.7384C121.563 96.7533 121.607 96.7594 121.651 96.7562C121.752 96.7579 121.85 96.7284 121.931 96.6722L122.067 96.9362Z" fill="white"/>
<path d="M122.437 94.6201C122.438 94.591 122.445 94.5623 122.458 94.5356C122.471 94.509 122.489 94.485 122.512 94.4649C122.535 94.4448 122.562 94.4291 122.591 94.4187C122.621 94.4083 122.652 94.4033 122.684 94.4041C122.715 94.4025 122.746 94.4067 122.776 94.4165C122.805 94.4262 122.832 94.4413 122.855 94.4609C122.878 94.4805 122.897 94.5042 122.91 94.5305C122.923 94.5568 122.93 94.5852 122.931 94.6141C122.931 94.6746 122.905 94.7326 122.858 94.7754C122.812 94.8181 122.749 94.8421 122.684 94.8421C122.618 94.8421 122.556 94.8181 122.509 94.7754C122.463 94.7326 122.437 94.6746 122.437 94.6141V94.6201ZM122.502 95.2201H122.866V97.0681H122.502V95.2201Z" fill="white"/>
<path d="M125.327 95.1962L124.45 97.0442H124.08L123.203 95.1962H123.586L124.236 96.6782L124.937 95.1962H125.327Z" fill="white"/>
<path d="M127.411 96.2282H125.788C125.796 96.3083 125.821 96.3861 125.862 96.4569C125.903 96.5278 125.96 96.5902 126.027 96.6406C126.095 96.691 126.173 96.7282 126.257 96.7502C126.341 96.7721 126.429 96.7782 126.515 96.7682C126.623 96.7717 126.73 96.7536 126.83 96.7153C126.93 96.677 127.019 96.6194 127.093 96.5462L127.288 96.7622C127.189 96.8635 127.068 96.9431 126.932 96.995C126.796 97.0469 126.649 97.0699 126.502 97.0622C126.363 97.0714 126.223 97.0537 126.092 97.0104C125.96 96.967 125.84 96.8988 125.739 96.8103C125.637 96.7217 125.557 96.6146 125.503 96.4958C125.449 96.377 125.422 96.2491 125.424 96.1202C125.419 95.9962 125.441 95.8725 125.489 95.7568C125.538 95.641 125.612 95.5357 125.706 95.4474C125.8 95.3591 125.913 95.2896 126.038 95.2433C126.163 95.197 126.296 95.1749 126.43 95.1782C126.565 95.1746 126.698 95.1969 126.822 95.2438C126.946 95.2906 127.058 95.3609 127.151 95.4502C127.244 95.5395 127.316 95.6458 127.362 95.7622C127.408 95.8786 127.427 96.0026 127.417 96.1262C127.418 96.1603 127.416 96.1945 127.411 96.2282ZM125.788 95.9882H127.086C127.086 95.8291 127.018 95.6765 126.896 95.564C126.774 95.4515 126.609 95.3882 126.437 95.3882C126.265 95.3882 126.1 95.4515 125.978 95.564C125.856 95.6765 125.788 95.8291 125.788 95.9882Z" fill="white"/>
<path d="M121.924 39.3962C121.93 38.7034 121.762 38.0188 121.434 37.396C121.105 36.7732 120.626 36.2291 120.032 35.8063C119.438 35.3834 118.746 35.0934 118.011 34.9588C117.275 34.8242 116.516 34.8488 115.793 35.0306C115.069 35.2124 114.401 35.5464 113.841 36.0066C113.28 36.4668 112.843 37.0406 112.562 37.6831C112.282 38.3256 112.166 39.0194 112.225 39.7101C112.283 40.4007 112.513 41.0695 112.898 41.6642C113.087 41.9522 113.32 42.1622 113.548 42.4682L116.372 45.9182C116.454 46.0188 116.56 46.1004 116.681 46.1566C116.803 46.2129 116.937 46.2422 117.073 46.2422C117.21 46.2422 117.344 46.2129 117.465 46.1566C117.587 46.1004 117.693 46.0188 117.775 45.9182L120.547 42.5222C120.801 42.2467 121.037 41.9583 121.255 41.6582C121.692 40.9725 121.923 40.1917 121.924 39.3962ZM117.067 41.3282C116.643 41.3293 116.228 41.2142 115.875 40.9974C115.521 40.7805 115.246 40.4717 115.083 40.11C114.919 39.7483 114.876 39.35 114.958 38.9656C115.04 38.5811 115.244 38.2277 115.543 37.9502C115.842 37.6727 116.224 37.4835 116.64 37.4067C117.056 37.3298 117.487 37.3686 117.879 37.5183C118.271 37.668 118.606 37.9218 118.842 38.2475C119.077 38.5732 119.203 38.9563 119.203 39.3482C119.203 39.8722 118.978 40.375 118.578 40.7461C118.178 41.1173 117.634 41.3266 117.067 41.3282Z" fill="#EA1D2C"/>
<path d="M90.4569 216.318H89.5544V216.012H91.7361V216.318H90.8206V218.454H90.4439L90.4569 216.318Z" fill="#263238"/>
<path d="M91.7037 217.53C91.7011 217.34 91.7597 217.154 91.872 216.994C91.9843 216.835 92.1453 216.71 92.3345 216.635C92.5237 216.561 92.7327 216.54 92.9349 216.575C93.1371 216.61 93.3234 216.7 93.4702 216.833C93.6171 216.966 93.7179 217.137 93.7597 217.323C93.8016 217.509 93.7827 217.702 93.7055 217.879C93.6283 218.055 93.4961 218.206 93.3259 218.313C93.1556 218.419 92.9549 218.477 92.7491 218.478C92.6116 218.485 92.474 218.465 92.3452 218.42C92.2163 218.375 92.099 218.306 92.0007 218.217C91.9024 218.128 91.8252 218.02 91.7741 217.902C91.723 217.784 91.699 217.657 91.7037 217.53ZM93.4179 217.53C93.4179 217.366 93.3471 217.208 93.2211 217.091C93.0951 216.975 92.9241 216.909 92.7459 216.909C92.5676 216.909 92.3967 216.975 92.2706 217.091C92.1446 217.208 92.0738 217.366 92.0738 217.53C92.0738 217.695 92.1446 217.853 92.2706 217.969C92.3967 218.086 92.5676 218.151 92.7459 218.151C92.9241 218.151 93.0951 218.086 93.2211 217.969C93.3471 217.853 93.4179 217.695 93.4179 217.53Z" fill="#263238"/>
<path d="M95.4114 218.328C95.2886 218.42 95.1339 218.466 94.9764 218.46C94.8881 218.472 94.7979 218.465 94.7131 218.439C94.6283 218.414 94.5513 218.37 94.4882 218.311C94.425 218.253 94.3776 218.182 94.3496 218.103C94.3216 218.025 94.3139 217.942 94.327 217.86V216.846H93.9894V216.57H94.327V216.168H94.7166V216.57H95.288V216.846H94.7166V217.848C94.7096 217.889 94.7126 217.93 94.7254 217.969C94.7382 218.008 94.7604 218.044 94.7904 218.074C94.8204 218.104 94.8574 218.128 94.8986 218.143C94.9399 218.157 94.9842 218.163 95.0283 218.16C95.1315 218.159 95.2315 218.127 95.314 218.07L95.4114 218.328Z" fill="#263238"/>
<path d="M97.4374 217.338V218.454H97.0932V218.214C97.0164 218.304 96.9171 218.375 96.8039 218.421C96.6908 218.467 96.5672 218.486 96.4439 218.478C95.9893 218.478 95.7036 218.256 95.7036 217.932C95.7036 217.608 95.9114 217.392 96.5023 217.392H97.0802V217.326C97.0802 217.044 96.9049 216.876 96.5413 216.876C96.3052 216.869 96.0745 216.942 95.8919 217.08L95.7361 216.828C95.975 216.662 96.2686 216.577 96.5673 216.588C96.6808 216.57 96.7974 216.576 96.9078 216.607C97.0183 216.637 97.1196 216.691 97.2039 216.764C97.2881 216.836 97.3531 216.926 97.3936 217.026C97.4341 217.125 97.4491 217.232 97.4374 217.338ZM97.0737 217.89V217.632H96.5153C96.1582 217.632 96.0543 217.764 96.0543 217.92C96.0543 218.076 96.2166 218.22 96.4958 218.22C96.6175 218.229 96.739 218.201 96.8428 218.142C96.9466 218.083 97.0275 217.995 97.0737 217.89Z" fill="#263238"/>
<path d="M98.1062 215.868H98.4691V218.454H98.1062V215.868Z" fill="#263238"/>
<path d="M102.061 215.868V218.454H101.717V218.16C101.634 218.263 101.526 218.345 101.402 218.401C101.277 218.456 101.14 218.483 101.002 218.478C100.745 218.459 100.505 218.351 100.33 218.176C100.155 218.001 100.058 217.772 100.058 217.533C100.058 217.295 100.155 217.065 100.33 216.89C100.505 216.715 100.745 216.607 101.002 216.588C101.137 216.583 101.27 216.607 101.392 216.66C101.514 216.712 101.621 216.79 101.704 216.888V215.868H102.061ZM101.704 217.53C101.692 217.414 101.645 217.304 101.567 217.213C101.489 217.121 101.384 217.053 101.265 217.016C101.146 216.979 101.017 216.974 100.895 217.003C100.774 217.032 100.663 217.093 100.578 217.179C100.493 217.264 100.437 217.371 100.416 217.486C100.396 217.6 100.411 217.718 100.462 217.825C100.512 217.931 100.595 218.022 100.7 218.086C100.805 218.149 100.928 218.184 101.054 218.184C101.145 218.185 101.234 218.167 101.317 218.134C101.4 218.1 101.474 218.051 101.535 217.99C101.596 217.928 101.643 217.856 101.672 217.776C101.701 217.697 101.712 217.613 101.704 217.53Z" fill="#263238"/>
<path d="M102.684 216.036C102.684 216.006 102.69 215.977 102.703 215.95C102.715 215.922 102.734 215.898 102.757 215.877C102.78 215.856 102.807 215.84 102.837 215.829C102.867 215.819 102.899 215.813 102.931 215.814C102.965 215.809 103 215.811 103.034 215.819C103.068 215.828 103.099 215.843 103.126 215.864C103.152 215.885 103.173 215.911 103.188 215.94C103.203 215.969 103.21 216.001 103.21 216.033C103.21 216.065 103.203 216.097 103.188 216.126C103.173 216.156 103.152 216.182 103.126 216.203C103.099 216.223 103.068 216.239 103.034 216.247C103 216.256 102.965 216.257 102.931 216.252C102.899 216.253 102.868 216.248 102.838 216.238C102.809 216.227 102.782 216.211 102.759 216.191C102.736 216.171 102.718 216.147 102.705 216.121C102.692 216.094 102.685 216.065 102.684 216.036ZM102.749 216.606H103.113V218.454H102.749V216.606Z" fill="#263238"/>
<path d="M103.548 218.262L103.704 217.992C103.912 218.119 104.156 218.186 104.405 218.184C104.742 218.184 104.879 218.094 104.879 217.938C104.879 217.518 103.58 217.878 103.58 217.146C103.58 216.81 103.905 216.588 104.418 216.588C104.672 216.586 104.922 216.644 105.145 216.756L104.989 217.02C104.816 216.922 104.615 216.871 104.411 216.876C104.093 216.876 103.944 216.984 103.944 217.128C103.944 217.566 105.242 217.212 105.242 217.926C105.242 218.262 104.911 218.478 104.379 218.478C104.085 218.484 103.796 218.409 103.548 218.262Z" fill="#263238"/>
<path d="M106.82 218.328C106.696 218.421 106.539 218.468 106.379 218.46C106.29 218.472 106.2 218.465 106.116 218.439C106.031 218.414 105.954 218.37 105.891 218.311C105.827 218.253 105.78 218.182 105.752 218.103C105.724 218.025 105.716 217.942 105.729 217.86V216.846H105.385V216.57H105.755V216.168H106.119V216.57H106.69V216.846H106.119V217.848C106.112 217.889 106.115 217.93 106.128 217.969C106.141 218.008 106.163 218.044 106.193 218.074C106.223 218.104 106.26 218.128 106.301 218.143C106.342 218.157 106.387 218.163 106.431 218.16C106.532 218.16 106.63 218.128 106.71 218.07L106.82 218.328Z" fill="#263238"/>
<path d="M108.846 217.338V218.454H108.502V218.214C108.425 218.303 108.326 218.374 108.213 218.42C108.099 218.466 107.976 218.486 107.853 218.478C107.405 218.478 107.113 218.256 107.113 217.932C107.113 217.608 107.32 217.392 107.918 217.392H108.496V217.326C108.496 217.044 108.314 216.876 107.957 216.876C107.721 216.872 107.491 216.944 107.307 217.08L107.158 216.828C107.397 216.662 107.69 216.577 107.989 216.588C108.102 216.572 108.217 216.58 108.326 216.611C108.434 216.643 108.534 216.697 108.617 216.769C108.699 216.841 108.763 216.93 108.803 217.029C108.843 217.128 108.858 217.233 108.846 217.338ZM108.483 217.89V217.632H107.924C107.561 217.632 107.463 217.764 107.463 217.92C107.463 218.076 107.626 218.22 107.905 218.22C108.026 218.229 108.148 218.201 108.252 218.142C108.356 218.083 108.436 217.995 108.483 217.89Z" fill="#263238"/>
<path d="M111.411 217.392V218.454H111.054V217.428C111.054 217.068 110.853 216.888 110.509 216.888C110.421 216.881 110.333 216.891 110.251 216.919C110.169 216.946 110.094 216.99 110.032 217.048C109.97 217.105 109.922 217.174 109.892 217.25C109.863 217.326 109.851 217.408 109.859 217.488V218.436H109.496V216.588H109.84V216.87C109.926 216.77 110.037 216.69 110.164 216.638C110.29 216.586 110.429 216.563 110.567 216.57C110.685 216.559 110.804 216.572 110.915 216.61C111.027 216.648 111.127 216.709 111.209 216.789C111.29 216.868 111.351 216.964 111.386 217.069C111.421 217.173 111.43 217.284 111.411 217.392Z" fill="#263238"/>
<path d="M111.911 217.53C111.908 217.403 111.934 217.276 111.987 217.158C112.039 217.04 112.118 216.934 112.217 216.845C112.317 216.757 112.435 216.688 112.564 216.644C112.694 216.6 112.832 216.581 112.97 216.588C113.132 216.58 113.294 216.613 113.438 216.682C113.582 216.752 113.703 216.856 113.788 216.984L113.509 217.146C113.448 217.064 113.367 216.997 113.272 216.951C113.177 216.905 113.071 216.881 112.963 216.882C112.788 216.898 112.625 216.973 112.507 217.093C112.389 217.214 112.323 217.371 112.323 217.533C112.323 217.696 112.389 217.853 112.507 217.973C112.625 218.093 112.788 218.169 112.963 218.184C113.071 218.185 113.177 218.162 113.272 218.116C113.367 218.07 113.448 218.003 113.509 217.92L113.788 218.076C113.703 218.205 113.582 218.31 113.438 218.381C113.294 218.452 113.132 218.485 112.97 218.478C112.831 218.485 112.693 218.465 112.564 218.42C112.434 218.375 112.316 218.306 112.217 218.217C112.118 218.128 112.039 218.021 111.987 217.903C111.934 217.785 111.908 217.658 111.911 217.53Z" fill="#263238"/>
<path d="M116.022 217.644H114.398C114.406 217.724 114.432 217.802 114.473 217.873C114.514 217.944 114.57 218.006 114.638 218.057C114.706 218.107 114.784 218.144 114.868 218.166C114.951 218.188 115.039 218.194 115.125 218.184C115.233 218.188 115.341 218.17 115.441 218.131C115.54 218.093 115.63 218.035 115.703 217.962L115.905 218.178C115.804 218.278 115.681 218.356 115.544 218.408C115.407 218.46 115.26 218.484 115.112 218.478C114.973 218.487 114.832 218.47 114.701 218.426C114.569 218.382 114.448 218.313 114.347 218.224C114.245 218.135 114.165 218.027 114.111 217.908C114.058 217.788 114.031 217.66 114.035 217.53C114.029 217.406 114.051 217.282 114.1 217.167C114.148 217.051 114.222 216.946 114.317 216.857C114.411 216.769 114.524 216.7 114.649 216.653C114.773 216.607 114.907 216.585 115.041 216.588C115.176 216.584 115.31 216.607 115.434 216.654C115.559 216.701 115.671 216.772 115.764 216.862C115.857 216.952 115.929 217.059 115.974 217.176C116.02 217.293 116.038 217.418 116.028 217.542C116.029 217.576 116.027 217.61 116.022 217.644ZM114.398 217.404H115.697C115.697 217.245 115.628 217.092 115.507 216.98C115.385 216.867 115.22 216.804 115.048 216.804C114.875 216.804 114.71 216.867 114.588 216.98C114.467 217.092 114.398 217.245 114.398 217.404Z" fill="#263238"/>
<path d="M92.8335 221.196V227.016H91.3725V222.276H90.1128V221.196H92.8335Z" fill="#263238"/>
<path d="M95.6322 226.272C95.6183 226.561 95.5363 226.844 95.3919 227.1L94.8725 228.3H93.9829L94.379 226.98C94.2285 226.923 94.1008 226.825 94.0136 226.698C93.9264 226.571 93.8839 226.422 93.892 226.272C93.892 226.059 93.9836 225.855 94.1468 225.704C94.31 225.553 94.5313 225.468 94.7621 225.468C94.9928 225.468 95.2142 225.553 95.3773 225.704C95.5405 225.855 95.6322 226.059 95.6322 226.272Z" fill="#263238"/>
<path d="M98.6127 221.196V227.016H97.1192V222.276H95.8595V221.196H98.6127Z" fill="#263238"/>
<path d="M99.6776 224.106C99.6776 222.186 100.827 221.106 102.379 221.106C103.931 221.106 105.08 222.198 105.08 224.106C105.08 226.014 103.937 227.106 102.379 227.106C100.82 227.106 99.6776 226.026 99.6776 224.106ZM103.613 224.106C103.613 222.786 103.106 222.234 102.379 222.234C101.652 222.234 101.152 222.786 101.152 224.106C101.152 225.426 101.658 225.978 102.379 225.978C103.1 225.978 103.613 225.432 103.613 224.106Z" fill="#263238"/>
<path d="M105.788 224.106C105.788 222.186 106.944 221.106 108.496 221.106C110.048 221.106 111.197 222.198 111.197 224.106C111.197 226.014 110.054 227.106 108.496 227.106C106.937 227.106 105.788 226.026 105.788 224.106ZM109.729 224.106C109.729 222.786 109.223 222.234 108.496 222.234C107.768 222.234 107.268 222.786 107.268 224.106C107.268 225.426 107.775 225.978 108.496 225.978C109.216 225.978 109.729 225.432 109.729 224.106Z" fill="#263238"/>
<path d="M122.937 224.454V227.016H121.534V224.658C121.534 223.932 121.184 223.596 120.612 223.596C120.041 223.596 119.541 223.974 119.541 224.796V227.04H118.138V224.682C118.138 223.956 117.807 223.62 117.223 223.62C116.638 223.62 116.158 223.998 116.158 224.82V227.064H114.755V222.528H116.093V223.044C116.284 222.847 116.52 222.69 116.783 222.587C117.047 222.483 117.332 222.434 117.619 222.444C117.93 222.429 118.24 222.489 118.519 222.617C118.797 222.745 119.035 222.938 119.21 223.176C119.422 222.94 119.689 222.751 119.992 222.624C120.294 222.497 120.624 222.436 120.957 222.444C122.112 222.474 122.937 223.092 122.937 224.454Z" fill="#263238"/>
<path d="M86.2391 221.875C86.9261 219.175 85.1142 216.472 82.1922 215.837C79.2702 215.202 76.3446 216.877 75.6576 219.576C74.9706 222.276 76.7825 224.98 79.7045 225.615C82.6265 226.249 85.5521 224.575 86.2391 221.875Z" fill="#EA1D2C"/>
<path d="M78.7558 221.652C79.218 221.591 79.685 221.565 80.1519 221.574C81.0415 221.574 82.3142 221.532 83.8337 221.52L83.7233 221.742C83.2882 221.286 82.8272 220.782 82.3337 220.26L82.2493 220.17L82.3337 220.068L83.7038 218.49L83.8337 218.742H83.1843H78.7233L78.8792 218.604C78.8792 220.128 78.8402 221.412 78.8142 222.312C78.825 222.788 78.7946 223.263 78.7233 223.734C78.6561 223.263 78.6257 222.788 78.6324 222.312C78.6324 221.412 78.587 220.128 78.574 218.604V218.466H78.7233H83.1843H84.1518L83.931 218.718L82.5479 220.296V220.104L83.9116 221.604L84.1194 221.826H83.8012C82.2817 221.826 81.009 221.79 80.1194 221.772C79.662 221.768 79.2057 221.728 78.7558 221.652Z" fill="#FAFAFA"/>
<path d="M168.885 212.166H152.456C151.621 212.166 150.82 212.473 150.229 213.019C149.639 213.564 149.307 214.304 149.307 215.076V227.028C149.309 227.799 149.641 228.538 150.232 229.082C150.822 229.626 151.622 229.932 152.456 229.932H152.872V232.782L156.45 229.932H168.885C169.719 229.932 170.519 229.626 171.109 229.082C171.7 228.538 172.032 227.799 172.034 227.028V215.076C172.034 214.304 171.702 213.564 171.111 213.019C170.521 212.473 169.72 212.166 168.885 212.166Z" fill="#EA1D2C"/>
<path d="M154.021 217.65V223.782C154.021 223.846 154.048 223.907 154.097 223.952C154.146 223.997 154.212 224.022 154.281 224.022H168.19C168.224 224.021 168.257 224.014 168.289 224.002C168.32 223.989 168.348 223.971 168.372 223.948C168.395 223.925 168.413 223.898 168.426 223.869C168.438 223.839 168.444 223.808 168.443 223.776L168.41 221.532C168.411 221.483 168.396 221.435 168.365 221.394L166.365 218.928C166.342 218.899 166.312 218.874 166.277 218.858C166.242 218.841 166.203 218.832 166.164 218.832H163.865C163.797 218.832 163.732 218.808 163.684 218.764C163.635 218.72 163.607 218.661 163.605 218.598V217.668C163.606 217.637 163.6 217.606 163.588 217.577C163.576 217.548 163.557 217.521 163.534 217.499C163.51 217.476 163.482 217.459 163.451 217.447C163.419 217.434 163.386 217.428 163.352 217.428H154.261C154.199 217.432 154.141 217.457 154.096 217.498C154.052 217.539 154.026 217.593 154.021 217.65Z" fill="#FAFAFA"/>
<path d="M164.255 219.354V221.328C164.255 221.365 164.27 221.4 164.298 221.426C164.326 221.452 164.364 221.466 164.404 221.466L167.475 221.418C167.502 221.417 167.528 221.41 167.55 221.396C167.573 221.383 167.591 221.364 167.603 221.342C167.615 221.32 167.62 221.295 167.618 221.271C167.616 221.246 167.607 221.223 167.592 221.202L166.144 219.234C166.131 219.215 166.113 219.199 166.091 219.189C166.07 219.178 166.045 219.173 166.021 219.174L164.385 219.216C164.348 219.219 164.314 219.235 164.29 219.261C164.265 219.287 164.253 219.32 164.255 219.354Z" fill="#EA1D2C"/>
<path d="M168.722 224.208H153.742V224.634H168.722V224.208Z" fill="#FAFAFA"/>
<path d="M158.696 224.37C158.698 224.642 158.611 224.909 158.448 225.136C158.286 225.363 158.053 225.54 157.781 225.644C157.509 225.749 157.21 225.777 156.921 225.724C156.632 225.671 156.366 225.54 156.158 225.348C155.95 225.155 155.808 224.91 155.751 224.643C155.693 224.376 155.723 224.099 155.837 223.848C155.95 223.596 156.142 223.382 156.387 223.231C156.633 223.081 156.921 223.001 157.216 223.002C157.608 223.002 157.985 223.146 158.263 223.403C158.54 223.659 158.696 224.007 158.696 224.37Z" fill="#EA1D2C"/>
<path d="M158.086 224.37C158.087 224.531 158.037 224.688 157.941 224.822C157.845 224.957 157.708 225.061 157.548 225.123C157.387 225.185 157.211 225.202 157.04 225.171C156.869 225.14 156.712 225.063 156.59 224.949C156.467 224.835 156.383 224.69 156.349 224.533C156.316 224.375 156.334 224.212 156.401 224.063C156.468 223.915 156.581 223.789 156.726 223.7C156.872 223.612 157.042 223.565 157.216 223.566C157.447 223.566 157.668 223.651 157.831 223.802C157.994 223.952 158.086 224.157 158.086 224.37Z" fill="#FAFAFA"/>
<path d="M163.599 224.022C163.56 224.022 163.527 222.54 163.527 220.716C163.527 218.892 163.527 217.41 163.599 217.41C163.67 217.41 163.664 218.892 163.664 220.716C163.664 222.54 163.631 224.022 163.599 224.022Z" fill="#EA1D2C"/>
<path d="M166.794 224.37C166.794 224.641 166.707 224.905 166.544 225.13C166.381 225.355 166.15 225.531 165.88 225.634C165.609 225.738 165.311 225.765 165.024 225.712C164.737 225.659 164.473 225.529 164.266 225.338C164.059 225.146 163.918 224.902 163.861 224.637C163.804 224.372 163.833 224.097 163.945 223.847C164.057 223.597 164.247 223.383 164.491 223.233C164.734 223.082 165.02 223.002 165.313 223.002C165.706 223.002 166.082 223.146 166.36 223.403C166.638 223.659 166.794 224.007 166.794 224.37Z" fill="#EA1D2C"/>
<path d="M166.144 224.37C166.146 224.531 166.095 224.688 166 224.822C165.904 224.956 165.768 225.061 165.608 225.123C165.448 225.185 165.271 225.202 165.101 225.171C164.93 225.141 164.773 225.064 164.65 224.951C164.527 224.838 164.443 224.694 164.408 224.536C164.374 224.379 164.391 224.216 164.457 224.068C164.523 223.919 164.636 223.792 164.78 223.703C164.924 223.614 165.094 223.566 165.268 223.566C165.499 223.566 165.721 223.651 165.885 223.801C166.049 223.952 166.143 224.156 166.144 224.37Z" fill="#FAFAFA"/>
<path d="M165.294 221.844C165.294 221.88 165.079 221.904 164.82 221.904C164.56 221.904 164.346 221.904 164.346 221.844C164.346 221.784 164.56 221.778 164.82 221.778C165.079 221.778 165.294 221.808 165.294 221.844Z" fill="#EA1D2C"/>
<path d="M320.259 121.206C320.259 121.206 330.733 122.838 331.577 123.048C332.421 123.258 335.739 124.71 335.908 125.646C335.996 126.875 335.996 128.108 335.908 129.336C335.908 129.336 335.304 129.786 334.934 128.886C334.686 128.012 334.579 127.108 334.616 126.204L332.759 125.544L333.772 127.206L333.941 131.1C333.941 131.1 332.642 130.992 332.389 130.062C332.23 129.414 332.147 128.753 332.142 128.088L330.791 127.032L331.804 128.298L332.142 131.1C332.142 131.1 331.155 131.4 330.843 130.776C330.615 129.967 330.502 129.134 330.506 128.298L326.688 127.062L324.162 128.364L319.441 125.928L320.259 121.206Z" fill="#FFBE9D"/>
<path d="M283.584 97.2842C283.636 97.4762 296.207 113.484 296.207 113.484L321.467 120.744L320.318 129.51L289.363 123.75L278.377 112.098L283.584 97.2842Z" fill="#EA1D2C"/>
<g opacity="0.2">
<path d="M283.584 97.2842C283.636 97.4762 296.207 113.484 296.207 113.484L321.467 120.744L320.318 129.51L289.363 123.75L278.377 112.098L283.584 97.2842Z" fill="black"/>
</g>
<path d="M239.585 119.298H187.975C186.881 119.298 185.995 120.118 185.995 121.128V126.762C185.995 127.773 186.881 128.592 187.975 128.592H239.585C240.679 128.592 241.565 127.773 241.565 126.762V121.128C241.565 120.118 240.679 119.298 239.585 119.298Z" fill="#F5F5F5"/>
<path d="M239.591 128.592C239.591 128.592 239.702 128.592 239.916 128.55C240.329 128.48 240.706 128.289 240.992 128.004C241.277 127.72 241.456 127.358 241.5 126.972C241.5 126.408 241.5 125.736 241.5 124.992C241.5 124.248 241.5 123.414 241.5 122.508C241.5 122.052 241.5 121.578 241.5 121.086C241.492 120.843 241.43 120.603 241.318 120.383C241.207 120.162 241.048 119.965 240.851 119.802C240.638 119.636 240.387 119.515 240.117 119.448C239.83 119.39 239.534 119.372 239.241 119.394H237.345H233.221L188.021 119.442C187.768 119.442 187.518 119.49 187.286 119.584C187.055 119.678 186.847 119.816 186.676 119.988C186.508 120.163 186.379 120.367 186.299 120.589C186.219 120.811 186.188 121.045 186.209 121.278C186.209 122.286 186.209 123.288 186.209 124.278V126.528C186.197 126.758 186.218 126.988 186.274 127.212C186.371 127.537 186.57 127.827 186.847 128.046C187.123 128.265 187.464 128.403 187.826 128.442C188.053 128.442 188.332 128.442 188.592 128.442H200.592L220.91 128.478L234.611 128.526L238.338 128.556L234.611 128.586L220.91 128.634L200.592 128.67H188.547C188.28 128.67 188.034 128.67 187.741 128.67C187.459 128.639 187.185 128.557 186.936 128.43C186.688 128.303 186.469 128.131 186.293 127.925C186.117 127.719 185.987 127.483 185.91 127.23C185.84 126.98 185.814 126.72 185.832 126.462V124.236C185.832 123.246 185.832 122.244 185.832 121.236C185.815 120.964 185.856 120.692 185.953 120.434C186.05 120.177 186.201 119.94 186.397 119.736C186.598 119.531 186.844 119.367 187.118 119.255C187.392 119.144 187.689 119.087 187.988 119.088L233.189 119.136H239.208C239.52 119.124 239.832 119.149 240.137 119.208C240.434 119.283 240.709 119.418 240.942 119.604C241.162 119.78 241.339 119.996 241.463 120.239C241.587 120.482 241.655 120.746 241.663 121.014C241.663 121.506 241.663 121.986 241.663 122.442C241.663 123.348 241.663 124.176 241.663 124.926C241.663 125.676 241.663 126.33 241.63 126.918C241.558 127.416 241.276 127.867 240.845 128.172C240.582 128.354 240.274 128.472 239.949 128.514C239.835 128.558 239.714 128.584 239.591 128.592Z" fill="#263238"/>
<path d="M379.722 247.353C394.369 246.702 405.673 235.204 404.969 221.67C404.265 208.136 391.821 197.691 377.174 198.341C362.527 198.991 351.223 210.49 351.927 224.024C352.631 237.558 365.075 248.003 379.722 247.353Z" fill="#263238"/>
<path d="M351.908 222.432C351.908 222.432 351.908 222.474 351.908 222.498C351.849 228.979 354.568 235.218 359.471 239.853C364.374 244.488 371.062 247.142 378.076 247.236C385.089 247.329 391.858 244.855 396.903 240.352C401.949 235.85 404.861 229.686 405.005 223.206C405.005 223.206 405.005 223.164 405.005 223.14L351.908 222.432Z" fill="#263238"/>
<path d="M359.811 222.6C359.757 226.007 360.798 229.352 362.802 232.212C364.806 235.072 367.682 237.319 371.068 238.668C374.454 240.017 378.197 240.409 381.823 239.792C385.45 239.176 388.797 237.58 391.442 235.206C394.086 232.832 395.91 229.786 396.681 226.455C397.453 223.123 397.138 219.655 395.776 216.489C394.414 213.322 392.067 210.6 389.031 208.667C385.995 206.733 382.406 205.675 378.719 205.626C373.776 205.561 369.007 207.312 365.461 210.495C361.915 213.678 359.882 218.033 359.811 222.6Z" fill="#FAFAFA"/>
<path d="M378.719 205.626C373.776 205.561 369.007 207.312 365.461 210.495C361.915 213.678 359.882 218.033 359.811 222.6L397.089 223.098C397.16 218.531 395.265 214.124 391.82 210.847C388.375 207.571 383.663 205.693 378.719 205.626Z" fill="#E0E0E0"/>
<path d="M367.096 222.696C367.063 224.772 367.697 226.81 368.917 228.552C370.138 230.295 371.89 231.664 373.952 232.486C376.015 233.309 378.295 233.548 380.505 233.172C382.714 232.797 384.753 231.825 386.365 230.379C387.976 228.933 389.087 227.078 389.557 225.048C390.028 223.018 389.836 220.905 389.006 218.976C388.177 217.047 386.747 215.389 384.897 214.211C383.048 213.033 380.862 212.388 378.616 212.358C375.605 212.318 372.7 213.385 370.539 215.323C368.379 217.262 367.141 219.914 367.096 222.696Z" fill="#263238"/>
<path d="M365.85 186.876C365.85 186.876 393.031 179.28 404.271 206.568L347.389 222.852L365.85 186.876Z" fill="#EA1D2C"/>
<path d="M215.906 247.355C230.553 246.705 241.857 235.206 241.153 221.672C240.45 208.138 228.006 197.693 213.358 198.344C198.711 198.994 187.408 210.492 188.111 224.026C188.815 237.561 201.259 248.005 215.906 247.355Z" fill="#263238"/>
<path d="M188.086 222.432C188.086 222.432 188.086 222.474 188.086 222.498C188.027 228.979 190.745 235.218 195.648 239.853C200.551 244.488 207.24 247.142 214.253 247.236C221.267 247.329 228.035 244.855 233.081 240.352C238.126 235.85 241.039 229.686 241.182 223.206V223.128L188.086 222.432Z" fill="#263238"/>
<path d="M196.014 222.6C195.96 226.007 197.001 229.352 199.005 232.212C201.009 235.072 203.886 237.319 207.272 238.668C210.657 240.017 214.4 240.409 218.027 239.792C221.653 239.176 225 237.58 227.645 235.206C230.29 232.832 232.113 229.786 232.885 226.455C233.656 223.123 233.341 219.655 231.979 216.489C230.618 213.322 228.27 210.6 225.234 208.667C222.198 206.733 218.61 205.675 214.923 205.626C209.979 205.561 205.21 207.312 201.664 210.495C198.118 213.678 196.086 218.033 196.014 222.6Z" fill="#FAFAFA"/>
<path d="M214.897 205.626C209.958 205.567 205.195 207.321 201.655 210.504C198.115 213.686 196.086 218.037 196.014 222.6L233.293 223.098C233.328 220.835 232.88 218.587 231.974 216.483C231.068 214.379 229.723 212.461 228.014 210.839C226.306 209.216 224.268 207.92 222.017 207.026C219.766 206.132 217.347 205.656 214.897 205.626Z" fill="#E0E0E0"/>
<path d="M203.274 222.696C203.241 224.772 203.874 226.81 205.095 228.552C206.315 230.295 208.067 231.664 210.13 232.486C212.192 233.309 214.473 233.548 216.682 233.172C218.891 232.797 220.931 231.825 222.542 230.379C224.154 228.933 225.265 227.078 225.735 225.048C226.205 223.018 226.013 220.905 225.184 218.976C224.354 217.047 222.924 215.389 221.075 214.211C219.225 213.033 217.039 212.388 214.793 212.358C211.782 212.318 208.877 213.385 206.717 215.323C204.557 217.262 203.318 219.914 203.274 222.696Z" fill="#263238"/>
<path d="M252.396 213C252.247 213.072 238.423 211.026 238.423 211.026C237.675 211.928 236.724 212.668 235.635 213.194C234.546 213.721 233.345 214.021 232.117 214.074C226.143 214.338 220.306 214.584 215.235 214.794C212.969 214.888 210.835 215.807 209.302 217.351C207.768 218.895 206.959 220.938 207.053 223.032C207.144 225.02 208.041 226.903 209.565 228.308C211.089 229.713 213.129 230.537 215.28 230.616L244.715 231.69C249.552 231.864 255.981 229.152 259 225.654L252.396 213Z" fill="#455A64"/>
<path d="M180.157 202.128C180.157 202.128 178.897 178.218 203.215 173.238V170.172H288.396V177.528C288.396 177.528 275.896 191.442 279.954 202.992C284.013 214.542 285.312 215.724 285.312 215.724H333.791C337.617 210.756 339.749 204.846 339.915 198.75C340.174 188.61 335.616 171.276 332.207 160.194C329.129 150.084 327.181 141.66 327.181 141.66L341.726 137.178C341.726 137.178 368.642 169.728 369.739 171.528C370.836 173.328 374.577 177.624 373.7 186.972C372.823 196.32 348.609 225.156 342.259 228.408C335.908 231.66 330.168 231.864 324.447 232.674C319.486 233.382 282.786 232.914 273.182 232.776C269.845 232.757 266.573 231.918 263.701 230.346C260.831 228.738 258.676 226.074 256.292 221.706L251.208 212.562L180.157 202.128Z" fill="#EA1D2C"/>
<path d="M186.676 200.484L175.949 216.012C175.631 216.443 175.473 216.957 175.499 217.478C175.525 217.999 175.734 218.498 176.094 218.899C176.455 219.3 176.946 219.582 177.495 219.702C178.045 219.822 178.621 219.774 179.138 219.564C180.473 219.013 181.692 218.249 182.741 217.308C187.644 212.994 196.378 201.63 196.378 201.63L186.676 200.484Z" fill="#455A64"/>
<path d="M263.617 203.28C263.617 203.28 263.617 203.202 263.682 203.052L263.896 202.398C264.154 201.559 264.343 200.702 264.461 199.836C264.821 196.631 264.247 193.396 262.799 190.464C261.825 188.441 260.488 186.585 258.844 184.974C256.957 183.134 254.765 181.583 252.351 180.378C249.676 179.043 246.813 178.058 243.845 177.45C240.644 176.812 237.378 176.5 234.104 176.52C230.845 176.542 227.591 176.765 224.364 177.186C221.221 177.576 218.209 178.056 215.364 178.656C210.315 179.647 205.448 181.31 200.917 183.594C197.873 185.155 195.093 187.117 192.663 189.42C191.806 190.236 191.189 190.914 190.78 191.376L190.319 191.91C190.27 191.974 190.213 192.032 190.15 192.084C190.867 191.105 191.675 190.185 192.566 189.336C194.975 186.99 197.75 184.989 200.8 183.402C205.339 181.077 210.225 179.383 215.299 178.374C218.144 177.774 221.144 177.276 224.319 176.88C227.572 176.455 230.852 176.23 234.137 176.208C237.428 176.188 240.712 176.504 243.929 177.15C246.927 177.779 249.816 178.789 252.513 180.15C254.961 181.372 257.182 182.948 259.091 184.818C260.747 186.457 262.088 188.344 263.059 190.398C264.501 193.369 265.044 196.645 264.63 199.878C264.494 200.748 264.276 201.605 263.981 202.44C263.877 202.716 263.799 202.926 263.734 203.088C263.701 203.155 263.662 203.219 263.617 203.28Z" fill="#263238"/>
<path d="M258.714 197.928C258.676 197.928 258.851 197.55 259.033 196.866C259.276 195.882 259.309 194.863 259.13 193.866C258.877 192.401 258.341 190.991 257.546 189.702C257.096 188.931 256.57 188.2 255.974 187.518C255.351 186.777 254.643 186.099 253.864 185.496C252.345 184.34 250.635 183.417 248.799 182.76C247.297 182.216 245.739 181.814 244.15 181.56C243.075 181.393 241.991 181.278 240.903 181.218C240.503 181.213 240.104 181.185 239.708 181.134C239.812 181.12 239.917 181.12 240.02 181.134C240.221 181.134 240.52 181.134 240.91 181.134C241.997 181.149 243.081 181.231 244.156 181.38C245.771 181.594 247.357 181.971 248.883 182.502C250.766 183.157 252.521 184.092 254.078 185.268C254.873 185.887 255.596 186.581 256.234 187.338C256.831 188.039 257.359 188.788 257.812 189.576C258.616 190.897 259.14 192.347 259.357 193.848C259.519 194.862 259.45 195.896 259.156 196.884C259.079 197.151 258.975 197.41 258.844 197.658C258.815 197.753 258.771 197.844 258.714 197.928Z" fill="#F5F5F5"/>
<g opacity="0.4">
<path d="M242.033 176.964C246.618 177.738 250.982 179.372 254.857 181.764C258.754 184.155 261.754 187.6 263.448 191.628C265.149 195.672 264.896 201.03 263.104 204.378L269.123 204.84C271.149 198.594 268.948 190.932 264.078 186.042C261.291 183.191 257.891 180.908 254.095 179.341C250.299 177.774 246.191 176.956 242.033 176.94" fill="black"/>
</g>
<path d="M240.111 128.124H187.456C184.379 128.124 181.884 130.429 181.884 133.272V165.042C181.884 167.885 184.379 170.19 187.456 170.19H240.111C243.188 170.19 245.682 167.885 245.682 165.042V133.272C245.682 130.429 243.188 128.124 240.111 128.124Z" fill="#455A64"/>
<path d="M245.682 137.508C245.682 137.598 231.338 137.664 213.65 137.664C195.962 137.664 181.612 137.598 181.612 137.508C181.612 137.418 195.949 137.352 213.65 137.352C231.351 137.352 245.682 137.424 245.682 137.508Z" fill="#263238"/>
<path d="M288.357 172.974C288.357 173.058 269.208 173.13 245.598 173.13C221.988 173.13 202.839 173.058 202.839 172.974C202.839 172.89 221.981 172.818 245.598 172.818C269.214 172.818 288.357 172.89 288.357 172.974Z" fill="#263238"/>
<path d="M288.396 170.19C289.264 169.174 289.8 167.95 289.941 166.662C290.071 164.688 289.097 162.216 286.792 162.216H257.377C255.088 162.216 252.893 163.056 251.275 164.552C249.656 166.047 248.747 168.075 248.747 170.19H288.396Z" fill="#455A64"/>
<path d="M327.181 141.66L322.064 131.802C321.381 130.449 321.269 128.909 321.749 127.483C322.23 126.057 323.268 124.848 324.662 124.092L339.96 115.662C340.758 115.219 341.672 114.984 342.603 114.984H345.908L347.207 134.91L342.116 136.728L345.363 141.576L327.181 141.66Z" fill="#EA1D2C"/>
<path d="M345.954 115.728C345.954 115.728 351.187 116.838 351.843 124.29C352.499 131.742 347.226 134.07 347.226 134.07L345.954 115.728Z" fill="#EBEBEB"/>
<path d="M328.967 127.938C328.967 127.938 318.389 132.57 317.097 133.338C316.201 133.866 315.435 134.79 316.136 136.416C317.331 139.182 322.279 136.578 322.279 136.578L332.129 132.03C332.129 132.03 335.915 130.38 334.512 128.31C332.947 125.994 328.967 127.938 328.967 127.938Z" fill="#263238"/>
<path d="M313.993 126.252C313.993 126.252 323.934 127.824 324.779 128.052C325.623 128.28 328.934 129.714 329.103 130.65C329.191 131.879 329.191 133.112 329.103 134.34C329.103 134.34 328.506 134.79 328.129 133.89C327.884 133.013 327.777 132.108 327.811 131.202L325.954 130.542L326.967 132.204L327.136 136.104C327.136 136.104 325.837 135.996 325.59 135.06C325.431 134.414 325.348 133.755 325.344 133.092L323.986 132.03L324.999 133.296L325.344 136.104C325.344 136.104 324.357 136.398 324.045 135.774C323.816 134.965 323.703 134.132 323.707 133.296L319.889 132.066L317.363 133.368L313.389 131.328L313.993 126.252Z" fill="#FFBE9D"/>
<path d="M329.473 113.46C329.473 117.18 327.623 120.192 325.343 120.192C323.064 120.192 321.214 117.192 321.214 113.46C321.214 109.728 323.058 106.728 325.343 106.728C327.629 106.728 329.473 109.728 329.473 113.46Z" fill="#263238"/>
<path d="M326.019 118.086L328.292 125.358C328.706 125.165 329.037 124.847 329.23 124.456C329.422 124.066 329.465 123.626 329.35 123.21C328.779 120.72 328.454 118.95 327.831 116.766C327.753 116.55 326.019 118.086 326.019 118.086Z" fill="#263238"/>
<g opacity="0.4">
<path d="M281.078 206.07C280.857 205.47 280.623 204.87 280.429 204.228C280.234 203.586 279.987 203.028 279.818 202.428C279.556 201.528 279.365 200.612 279.247 199.686C275.416 214.086 281.266 224.244 291.305 224.958C305.98 226.002 323.869 226.758 331.103 225.006C344.291 221.808 349.129 211.644 350.285 209.97C351.441 208.296 361.927 190.578 355.48 173.52C349.032 156.462 337.85 138.348 337.85 138.348L327.181 141.66C327.181 141.66 329.129 150.06 332.227 160.164C335.636 171.246 340.194 188.58 339.934 198.72C339.769 204.816 337.637 210.726 333.811 215.694H285.338C285.338 215.694 284.299 214.734 281.097 206.094" fill="black"/>
</g>
<path d="M178.222 198.396L178.566 194.976L267.059 204.396C268.241 204.525 269.383 204.875 270.414 205.426C271.445 205.977 272.343 206.717 273.053 207.6C273.763 208.484 274.27 209.492 274.544 210.563C274.817 211.634 274.851 212.745 274.643 213.828L274.247 215.898L182.69 203.604C181.362 203.436 180.155 202.801 179.323 201.83C178.49 200.86 178.096 199.629 178.222 198.396Z" fill="#EA1D2C"/>
<g opacity="0.6">
<path d="M178.222 198.396L178.566 194.976L267.059 204.396C268.241 204.525 269.383 204.875 270.414 205.426C271.445 205.977 272.343 206.717 273.053 207.6C273.763 208.484 274.27 209.492 274.544 210.563C274.817 211.634 274.851 212.745 274.643 213.828L274.247 215.898L182.69 203.604C181.362 203.436 180.155 202.801 179.323 201.83C178.49 200.86 178.096 199.629 178.222 198.396Z" fill="black"/>
</g>
<g opacity="0.3">
<path d="M350.285 221.268C350.285 221.268 369.765 201.468 373.784 185.904C375.804 185.893 377.821 186.032 379.817 186.318C379.817 186.318 368.298 215.256 350.285 221.268Z" fill="black"/>
</g>
<path d="M373.499 178.932C373.549 179.095 373.584 179.262 373.603 179.43C373.655 179.76 373.758 180.246 373.823 180.876C374.013 182.675 373.963 184.489 373.674 186.276C373.216 188.916 372.341 191.48 371.077 193.884C369.534 196.812 367.812 199.656 365.921 202.404C362.527 207.419 358.714 212.181 354.518 216.648C352.934 218.382 351.622 219.762 350.713 220.71L349.661 221.796C349.542 221.925 349.414 222.048 349.278 222.162C349.375 222.019 349.486 221.884 349.609 221.76L350.616 220.632L354.337 216.51C358.466 212.009 362.242 207.241 365.635 202.242C367.529 199.504 369.263 196.674 370.83 193.764C372.078 191.383 372.953 188.85 373.427 186.24C373.726 184.478 373.811 182.691 373.681 180.912C373.635 180.282 373.551 179.796 373.525 179.46C373.497 179.285 373.488 179.109 373.499 178.932Z" fill="#263238"/>
<path d="M339.824 221.124C338.708 220.336 337.664 219.465 336.7 218.52C335.661 217.65 334.697 216.705 333.817 215.694C335.975 217.352 337.983 219.168 339.824 221.124Z" fill="#263238"/>
<path d="M282.006 220.518C282.32 219.594 282.806 218.727 283.441 217.956C283.983 217.127 284.675 216.39 285.487 215.778C285.558 215.844 284.669 216.828 283.721 218.13C282.773 219.432 282.097 220.554 282.006 220.518Z" fill="#263238"/>
<path d="M244.578 231.948C245.644 231.051 246.541 229.996 247.234 228.828C247.961 227.553 248.403 226.155 248.533 224.718C248.73 222.967 248.398 221.199 247.576 219.611C246.753 218.022 245.47 216.675 243.871 215.718C242.581 214.909 241.128 214.347 239.598 214.068C238.18 213.832 236.73 213.813 235.306 214.014C235.397 213.978 235.493 213.952 235.591 213.936C235.873 213.868 236.16 213.816 236.449 213.78C237.511 213.649 238.589 213.673 239.643 213.852C241.216 214.109 242.715 214.662 244.046 215.478C245.71 216.455 247.042 217.844 247.891 219.488C248.739 221.132 249.07 222.963 248.844 224.772C248.696 226.247 248.218 227.677 247.442 228.972C246.932 229.843 246.274 230.633 245.494 231.312C245.29 231.499 245.073 231.673 244.845 231.834C244.761 231.882 244.672 231.92 244.578 231.948Z" fill="#263238"/>
<path d="M212.247 225.678C212.024 224.732 211.918 223.766 211.929 222.798C211.817 221.833 211.817 220.86 211.929 219.894C212.253 221.807 212.353 223.746 212.227 225.678H212.247Z" fill="#263238"/>
<path d="M214.611 225.684C214.125 223.783 213.857 221.841 213.812 219.888C214.108 220.827 214.298 221.793 214.377 222.768C214.566 223.73 214.644 224.707 214.611 225.684Z" fill="#263238"/>
<path d="M251.111 170.19C251.111 170.274 240.351 170.346 227.085 170.346C213.819 170.346 203.059 170.274 203.059 170.19C203.059 170.106 213.819 170.034 227.085 170.034C240.351 170.034 251.111 170.1 251.111 170.19Z" fill="#263238"/>
<path d="M216.267 170.16C216.169 170.16 216.098 158.76 216.098 144.732C216.098 130.704 216.144 119.328 216.267 119.328C216.39 119.328 216.435 130.728 216.435 144.762C216.435 158.796 216.357 170.16 216.267 170.16Z" fill="#263238"/>
<path d="M209.65 170.118C209.559 170.118 210.02 158.718 210.683 144.702C211.345 130.686 211.981 119.292 212.046 119.298C212.111 119.304 211.683 130.698 211.02 144.714C210.358 158.73 209.774 170.124 209.65 170.118Z" fill="#263238"/>
<path d="M194.774 239.508C194.669 239.427 194.574 239.337 194.488 239.238C194.319 239.058 194.04 238.8 193.735 238.434C192.837 237.415 192.036 236.327 191.339 235.182C188.988 231.391 187.761 227.094 187.78 222.725C187.8 218.355 189.065 214.068 191.449 210.294C192.153 209.153 192.964 208.071 193.871 207.06C194.183 206.694 194.462 206.46 194.637 206.256C194.813 206.052 194.917 205.986 194.923 205.998C194.859 206.107 194.78 206.208 194.689 206.298C194.534 206.496 194.267 206.76 193.975 207.138C190.644 211.059 188.637 215.8 188.205 220.768C187.774 225.737 188.936 230.713 191.547 235.074C192.219 236.221 192.985 237.318 193.839 238.356C194.124 238.734 194.384 239.004 194.54 239.202C194.696 239.4 194.787 239.496 194.774 239.508Z" fill="#455A64"/>
<path d="M287.799 193.794L287.597 194.142L283.675 200.928L278.195 205.8L289.149 219.276L298.272 217.878C298.272 217.878 297.253 215.952 292.669 215.58L290.935 207.528L297.37 198.312" fill="#455A64"/>
<path d="M278.208 205.818L289.162 219.294L298.285 217.896L297.032 216.786L289.545 217.542L279.377 204.78L278.208 205.818Z" fill="#E0E0E0"/>
<path d="M291.954 211.896C291.902 211.992 291.305 211.794 290.656 211.926C290.006 212.058 289.48 212.4 289.396 212.328C289.311 212.256 289.721 211.692 290.578 211.554C291.435 211.416 292.026 211.818 291.954 211.896Z" fill="#263238"/>
<path d="M291.467 209.928C291.389 210 290.889 209.568 290.169 209.544C289.448 209.52 288.87 209.922 288.812 209.844C288.753 209.766 288.857 209.658 289.091 209.484C289.407 209.271 289.791 209.161 290.182 209.172C290.573 209.182 290.949 209.315 291.247 209.55C291.422 209.718 291.467 209.88 291.467 209.928Z" fill="#263238"/>
<path d="M291.045 207.318C290.954 207.384 290.552 206.946 289.883 206.838C289.214 206.73 288.675 207.012 288.584 206.922C288.493 206.832 288.643 206.748 288.883 206.622C289.2 206.467 289.564 206.415 289.917 206.473C290.271 206.532 290.592 206.699 290.831 206.946C291.052 207.138 291.091 207.294 291.045 207.318Z" fill="#263238"/>
<path d="M293.123 204.948C293.026 204.996 292.682 204.558 292.052 204.306C291.422 204.054 290.85 204.09 290.824 203.988C290.798 203.886 291.474 203.64 292.221 203.988C292.967 204.336 293.234 204.918 293.123 204.948Z" fill="#263238"/>
<path d="M294.006 203.034C293.961 203.064 293.604 202.776 293.052 202.272L292.117 201.378C291.905 201.203 291.721 201.001 291.571 200.778C291.528 200.698 291.502 200.61 291.495 200.521C291.488 200.431 291.501 200.341 291.532 200.256C291.569 200.159 291.636 200.074 291.725 200.012C291.814 199.95 291.921 199.914 292.032 199.908C292.365 199.912 292.688 200.008 292.961 200.184C293.199 200.325 293.417 200.492 293.61 200.682C293.933 201.011 294.17 201.402 294.305 201.828C294.476 202.213 294.476 202.644 294.305 203.028C294.239 202.657 294.148 202.291 294.032 201.93C293.874 201.561 293.638 201.224 293.337 200.94C293.16 200.778 292.962 200.637 292.747 200.52C292.54 200.395 292.304 200.319 292.058 200.298C292.024 200.299 291.991 200.309 291.963 200.327C291.935 200.345 291.914 200.371 291.902 200.4C291.867 200.479 291.867 200.567 291.902 200.646C292.029 200.839 292.182 201.017 292.357 201.174L293.247 202.128C293.551 202.391 293.807 202.697 294.006 203.034Z" fill="#263238"/>
<path d="M294.376 203.232C294.331 203.232 294.285 202.788 294.688 202.206C294.962 201.822 295.363 201.53 295.831 201.373C296.299 201.216 296.809 201.203 297.285 201.336C297.338 201.368 297.382 201.409 297.416 201.458C297.449 201.507 297.471 201.561 297.48 201.618C297.489 201.716 297.466 201.814 297.415 201.9C297.343 202.02 297.248 202.128 297.136 202.218C296.955 202.38 296.76 202.526 296.552 202.656C296.201 202.874 295.815 203.04 295.409 203.148C295.046 203.284 294.646 203.311 294.266 203.226C294.266 203.166 294.688 203.13 295.318 202.896C295.681 202.763 296.023 202.588 296.337 202.374C296.523 202.248 296.697 202.107 296.857 201.954C296.936 201.89 297.004 201.815 297.058 201.732C297.091 201.648 297.058 201.672 297.058 201.654C296.97 201.619 296.875 201.601 296.779 201.6C296.664 201.591 296.549 201.591 296.435 201.6C296.212 201.618 295.993 201.667 295.785 201.744C295.435 201.87 295.124 202.077 294.883 202.344C294.693 202.629 294.523 202.926 294.376 203.232Z" fill="#263238"/>
<path d="M285.441 204.444C285.477 204.642 285.448 204.845 285.359 205.028C285.27 205.211 285.124 205.365 284.939 205.472C284.755 205.578 284.541 205.631 284.324 205.624C284.106 205.618 283.896 205.552 283.72 205.435C283.543 205.318 283.408 205.156 283.332 204.968C283.255 204.78 283.241 204.575 283.29 204.38C283.34 204.185 283.451 204.007 283.61 203.87C283.768 203.733 283.967 203.643 284.182 203.61C284.468 203.568 284.761 203.633 284.997 203.789C285.232 203.945 285.392 204.18 285.441 204.444Z" fill="#E0E0E0"/>
<path d="M321.045 200.274L323.973 217.842L347.655 214.59C347.174 212.52 334.253 210.006 334.253 210.006L332.876 198.678L321.045 200.274Z" fill="#455A64"/>
<path d="M326.779 210.066C326.561 210.161 326.388 210.326 326.295 210.531C326.201 210.736 326.193 210.966 326.272 211.176C326.368 211.38 326.544 211.542 326.765 211.63C326.986 211.718 327.234 211.725 327.46 211.65C327.695 211.548 327.88 211.368 327.977 211.145C328.075 210.923 328.078 210.675 327.986 210.45C327.864 210.245 327.66 210.092 327.417 210.024C327.175 209.955 326.913 209.977 326.688 210.084" fill="#E0E0E0"/>
<path d="M323.973 217.842L323.753 216.042L346.538 213.588C346.538 213.588 347.661 213.87 347.655 214.572L323.973 217.842Z" fill="#E0E0E0"/>
<path d="M334.616 209.844C334.616 209.952 334.064 210.078 333.545 210.498C333.025 210.918 332.804 211.41 332.688 211.386C332.571 211.362 332.649 210.714 333.279 210.216C333.908 209.718 334.629 209.742 334.616 209.844Z" fill="#263238"/>
<path d="M337.252 210.45C337.298 210.552 336.824 210.798 336.506 211.308C336.188 211.818 336.149 212.304 336.032 212.316C335.915 212.328 335.746 211.716 336.155 211.116C336.564 210.516 337.233 210.348 337.252 210.45Z" fill="#263238"/>
<path d="M339.11 213C339.006 213.042 338.759 212.526 338.96 211.902C339.162 211.278 339.668 210.966 339.733 211.05C339.798 211.134 339.512 211.494 339.35 212.01C339.187 212.526 339.22 212.976 339.11 213Z" fill="#263238"/>
<path d="M333.993 207.294C333.993 207.396 333.408 207.324 332.759 207.45C332.11 207.576 331.636 207.846 331.558 207.762C331.48 207.678 331.915 207.228 332.675 207.084C333.434 206.94 334.038 207.198 333.993 207.294Z" fill="#263238"/>
<path d="M333.025 204.774C332.652 204.925 332.241 204.978 331.837 204.93C331.398 204.919 330.962 204.858 330.538 204.75C330.28 204.693 330.026 204.619 329.778 204.528C329.634 204.48 329.5 204.409 329.382 204.318C329.293 204.254 329.23 204.164 329.204 204.063C329.178 203.961 329.191 203.854 329.24 203.76C329.285 203.677 329.352 203.605 329.433 203.55C329.514 203.495 329.608 203.458 329.707 203.442C329.856 203.421 330.007 203.421 330.155 203.442C330.419 203.46 330.68 203.504 330.934 203.574C331.361 203.686 331.766 203.858 332.136 204.084C332.785 204.48 333.012 204.852 332.973 204.882C332.934 204.912 332.603 204.624 331.986 204.312C331.624 204.132 331.238 203.996 330.837 203.91C330.603 203.854 330.364 203.819 330.123 203.808C329.863 203.808 329.649 203.808 329.603 203.922C329.558 204.036 329.603 203.976 329.649 204.042C329.738 204.105 329.836 204.155 329.941 204.192C330.163 204.285 330.391 204.367 330.623 204.438C331.018 204.555 331.425 204.637 331.837 204.684C332.235 204.688 332.632 204.718 333.025 204.774Z" fill="#263238"/>
<path d="M332.889 204.948C332.85 204.948 332.558 204.618 332.402 203.934C332.331 203.537 332.331 203.132 332.402 202.734C332.444 202.493 332.509 202.256 332.597 202.026C332.636 201.875 332.716 201.736 332.829 201.621C332.943 201.507 333.087 201.421 333.246 201.372C333.352 201.36 333.459 201.375 333.555 201.417C333.652 201.458 333.734 201.524 333.791 201.606C333.873 201.728 333.937 201.859 333.98 201.996C334.059 202.235 334.099 202.484 334.097 202.734C334.097 203.153 333.985 203.565 333.772 203.934C333.402 204.534 332.941 204.756 332.928 204.72C332.915 204.684 333.246 204.414 333.512 203.82C333.667 203.479 333.738 203.11 333.72 202.74C333.714 202.526 333.672 202.313 333.597 202.11C333.525 201.882 333.402 201.708 333.311 201.744C333.22 201.78 333.019 201.96 332.954 202.158C332.866 202.364 332.799 202.577 332.753 202.794C332.679 203.164 332.661 203.542 332.701 203.916C332.759 204.528 332.947 204.924 332.889 204.948Z" fill="#263238"/>
<path d="M302.415 159.006L282.11 199.89L295.519 207.33L323.597 158.136" fill="#263238"/>
<path d="M335.902 208.26L321.337 210.42L312.616 162.336L269.533 165.222C268.393 165.295 267.248 165.196 266.143 164.928C254.046 161.862 255.682 147.606 256.851 145.32L316.467 143.742C319.59 143.658 322.637 144.642 325.024 146.506C327.411 148.369 328.97 150.981 329.402 153.84L335.902 208.26Z" fill="#263238"/>
<path d="M256.247 147.576L256.461 127.248C256.461 127.248 253.624 114.048 252.78 108.834C251.481 100.77 249.689 96.9362 263.987 91.2062L267.117 90.0902L271.955 90.1502C277.721 90.5522 283.799 95.3702 283.941 98.5502L289.519 144.372L256.247 147.576Z" fill="#EA1D2C"/>
<path d="M257.143 95.9282C257.143 95.9282 253.104 103.956 253.896 111.27L268.942 124.614C272.312 128.082 276.532 129.558 281.928 129.858L313.058 133.002L313.922 125.478L284.325 117.726C283.143 117.522 282.552 116.388 281.649 115.656L257.143 95.9282Z" fill="#EA1D2C"/>
<path d="M254.708 98.2442C254.883 98.0898 255.085 97.964 255.305 97.8723C255.946 97.6114 256.624 97.4356 257.318 97.3502C258.432 97.1814 259.568 97.1814 260.682 97.3502C261.026 97.4079 261.359 97.5131 261.669 97.6622C261.986 97.8461 262.292 98.0465 262.585 98.2622C263.182 98.6942 263.786 99.1922 264.403 99.7322C265.649 100.806 266.831 102.168 268.214 103.548C269.597 104.928 271.11 106.41 272.76 107.964C274.409 109.518 276.182 111.144 278.078 112.824C279.032 113.664 280.026 114.516 281.058 115.35C281.584 115.746 282.104 116.214 282.604 116.652C283.075 117.103 283.67 117.426 284.325 117.588L313.98 125.328L314.116 125.364V125.496C314.058 126.03 313.987 126.6 313.922 127.182C313.694 129.18 313.467 131.16 313.272 133.02V133.176H313.103L299.909 131.82L293.675 131.19L287.708 130.632C285.76 130.434 283.883 130.23 282.058 129.984C280.276 129.782 278.521 129.406 276.825 128.862C275.26 128.312 273.78 127.576 272.422 126.672C271.123 125.826 269.903 124.944 268.779 124.074C264.331 120.57 261.065 117.432 258.799 115.296C257.676 114.222 256.812 113.376 256.234 112.8L255.585 112.14L255.37 111.906C255.37 111.906 255.455 111.972 255.611 112.116C255.766 112.26 255.994 112.482 256.26 112.758L258.857 115.218C261.15 117.324 264.442 120.438 268.896 123.912C270.02 124.77 271.221 125.646 272.526 126.48C273.876 127.365 275.342 128.087 276.89 128.628C278.575 129.159 280.316 129.525 282.084 129.72C283.909 129.96 285.792 130.164 287.727 130.356L293.695 130.896L299.928 131.526L313.11 132.852L312.922 132.99C313.136 131.13 313.363 129.15 313.571 127.146C313.642 126.546 313.707 125.994 313.766 125.46L313.889 125.628L284.279 117.858C283.556 117.692 282.899 117.341 282.383 116.844C281.857 116.382 281.383 115.95 280.844 115.536C279.799 114.696 278.818 113.838 277.864 112.998C275.968 111.312 274.201 109.674 272.558 108.114C270.916 106.554 269.409 105.066 268.013 103.668C266.617 102.27 265.474 100.914 264.24 99.8403C263.673 99.32 263.075 98.8293 262.448 98.3703C262.165 98.1506 261.866 97.9501 261.552 97.7703C261.258 97.6225 260.94 97.5192 260.611 97.4642C259.515 97.2788 258.394 97.2626 257.292 97.4162C256.603 97.4877 255.928 97.6473 255.286 97.8903C255.084 97.9945 254.891 98.1128 254.708 98.2442Z" fill="#263238"/>
<path d="M262.481 72.4563L263.987 92.2563C264.107 93.813 264.861 95.2698 266.098 96.3331C267.334 97.3964 268.96 97.9872 270.649 97.9863C271.563 97.9864 272.466 97.8134 273.305 97.4778C274.143 97.1423 274.897 96.6514 275.522 96.0356C276.146 95.4197 276.627 94.692 276.935 93.8975C277.243 93.1029 277.371 92.2584 277.312 91.4163C277.175 89.5323 277.058 87.9903 277.058 87.9903C277.058 87.9903 282.253 87.2463 282.305 82.4523C282.344 79.6863 281.825 73.4103 281.383 68.5983C281.238 67.0264 280.458 65.5625 279.198 64.4976C277.939 63.4326 276.292 62.8446 274.584 62.8503H271.448C270.171 62.9219 268.922 63.2292 267.775 63.7539C266.629 64.2787 265.607 65.0103 264.772 65.9056C263.936 66.8009 263.303 67.8417 262.909 68.9668C262.516 70.0919 262.37 71.2783 262.481 72.4563Z" fill="#FFBE9D"/>
<path d="M277.065 87.9122C274.672 87.9538 272.319 87.3378 270.305 86.1422C270.305 86.1422 271.903 89.5862 277.078 89.1422L277.065 87.9122Z" fill="#EB996E"/>
<path d="M280.221 74.7483C280.223 74.9266 280.149 75.0986 280.015 75.2275C279.882 75.3564 279.699 75.432 279.506 75.4383C279.413 75.4465 279.319 75.4374 279.23 75.4115C279.141 75.3856 279.058 75.3435 278.986 75.2876C278.915 75.2317 278.856 75.1631 278.814 75.0859C278.772 75.0088 278.747 74.9246 278.74 74.8383C278.738 74.6593 278.812 74.4867 278.945 74.3568C279.078 74.227 279.261 74.1501 279.454 74.1423C279.643 74.129 279.829 74.1854 279.973 74.299C280.117 74.4126 280.206 74.5741 280.221 74.7483Z" fill="#263238"/>
<path d="M280.493 73.3982C280.396 73.4882 279.844 73.1042 279.039 73.1042C278.234 73.1042 277.662 73.4762 277.571 73.3862C277.48 73.2962 277.623 73.1822 277.883 73.0142C278.225 72.7921 278.634 72.6746 279.052 72.6782C279.467 72.6773 279.872 72.7992 280.208 73.0262C280.428 73.1942 280.532 73.3562 280.493 73.3982Z" fill="#263238"/>
<path d="M272.74 74.7483C272.744 74.9271 272.671 75.0999 272.537 75.2292C272.403 75.3584 272.219 75.4336 272.026 75.4383C271.933 75.4465 271.839 75.4374 271.75 75.4115C271.66 75.3856 271.577 75.3435 271.506 75.2876C271.435 75.2317 271.376 75.1631 271.334 75.0859C271.291 75.0088 271.266 74.9246 271.26 74.8383C271.258 74.6593 271.331 74.4867 271.465 74.3568C271.598 74.227 271.781 74.1501 271.974 74.1423C272.163 74.129 272.349 74.1854 272.493 74.299C272.636 74.4126 272.725 74.5741 272.74 74.7483Z" fill="#263238"/>
<path d="M272.636 73.5362C272.545 73.6262 271.987 73.2422 271.182 73.2422C270.377 73.2422 269.805 73.6142 269.721 73.5242C269.636 73.4342 269.766 73.3202 270.026 73.1522C270.368 72.9301 270.777 72.8126 271.195 72.8162C271.61 72.8136 272.015 72.9334 272.351 73.1582C272.636 73.3322 272.708 73.4942 272.636 73.5362Z" fill="#263238"/>
<path d="M275.552 78.9963C275.973 78.8747 276.41 78.8021 276.851 78.7803C277.052 78.7803 277.247 78.7203 277.279 78.5943C277.301 78.3995 277.253 78.2036 277.143 78.0363L276.532 76.6083C275.973 75.3964 275.521 74.1442 275.182 72.8643C275.841 74.0324 276.401 75.246 276.857 76.4943L277.429 77.9343C277.558 78.1605 277.597 78.4219 277.539 78.6723C277.509 78.739 277.463 78.7985 277.405 78.8464C277.346 78.8942 277.277 78.929 277.201 78.9483C277.089 78.9751 276.973 78.9892 276.857 78.9903C276.424 79.043 275.986 79.045 275.552 78.9963Z" fill="#263238"/>
<path d="M273.208 79.5062C273.338 79.5062 273.338 80.2982 274.078 80.8622C274.818 81.4262 275.74 81.3422 275.747 81.4622C275.753 81.5822 275.539 81.6122 275.149 81.6242C274.643 81.6296 274.151 81.4703 273.76 81.1742C273.392 80.8858 273.16 80.4773 273.11 80.0342C273.052 79.7282 273.149 79.5002 273.208 79.5062Z" fill="#263238"/>
<path d="M272.864 70.6502C272.786 70.8482 271.994 70.7582 271.059 70.8602C270.123 70.9622 269.364 71.2022 269.24 71.0222C269.117 70.8422 269.318 70.7462 269.623 70.5542C270.029 70.3151 270.489 70.1652 270.968 70.1164C271.446 70.0675 271.931 70.1208 272.383 70.2722C272.727 70.3982 272.903 70.5542 272.864 70.6502Z" fill="#263238"/>
<path d="M280.195 71.2683C280.058 71.4363 279.506 71.2683 278.851 71.2683C278.195 71.2683 277.63 71.3763 277.5 71.2023C277.37 71.0283 277.532 70.9503 277.779 70.7943C278.104 70.5974 278.488 70.5007 278.877 70.5183C279.263 70.5257 279.637 70.6431 279.948 70.8543C280.182 71.0163 280.26 71.1843 280.195 71.2683Z" fill="#263238"/>
<path d="M264.227 76.0562C264.136 76.0202 260.662 75.0782 260.779 78.3542C260.896 81.6302 264.422 80.8502 264.429 80.7542C264.435 80.6582 264.227 76.0562 264.227 76.0562Z" fill="#FFBE9D"/>
<path d="M263.299 79.5482C263.299 79.5482 263.24 79.5902 263.137 79.6382C262.988 79.6903 262.824 79.6903 262.675 79.6382C262.443 79.5108 262.252 79.3287 262.12 79.1105C261.989 78.8922 261.923 78.6458 261.929 78.3962C261.91 78.1158 261.959 77.835 262.072 77.5742C262.101 77.4705 262.157 77.3749 262.235 77.2955C262.313 77.2161 262.411 77.1553 262.52 77.1182C262.591 77.0997 262.666 77.1046 262.734 77.1319C262.801 77.1593 262.856 77.2074 262.89 77.2682C262.942 77.3582 262.922 77.4242 262.942 77.4302C262.961 77.4362 263.013 77.3702 262.981 77.2382C262.959 77.1559 262.906 77.0835 262.831 77.0342C262.782 77.0019 262.726 76.9789 262.667 76.9666C262.608 76.9542 262.547 76.9527 262.487 76.9622C262.338 76.9891 262.199 77.0522 262.085 77.145C261.971 77.2377 261.886 77.3569 261.838 77.4902C261.696 77.7775 261.633 78.093 261.656 78.4082C261.647 78.7001 261.733 78.9878 261.901 79.2347C262.07 79.4815 262.315 79.6763 262.604 79.7942C262.699 79.8175 262.799 79.8204 262.896 79.8028C262.993 79.7851 263.084 79.7473 263.163 79.6922C263.299 79.6262 263.312 79.5542 263.299 79.5482Z" fill="#EB996E"/>
<path d="M262.247 75.9422C262.584 75.922 262.921 75.9866 263.222 76.1293C263.523 76.2719 263.776 76.4872 263.955 76.7522C264.182 77.2202 264.234 77.7482 264.461 78.2162C264.559 78.4567 264.739 78.6618 264.972 78.8011C265.206 78.9404 265.482 79.0067 265.76 78.9902C265.944 78.9369 266.11 78.8393 266.24 78.7076C266.37 78.5758 266.46 78.4145 266.5 78.2402C266.575 77.8916 266.575 77.5328 266.5 77.1842C266.292 75.6542 265.948 74.1422 265.883 72.6002C265.744 71.0531 266.108 69.503 266.929 68.1482C267.344 67.4771 267.949 66.9225 268.679 66.5432C269.408 66.164 270.235 65.9743 271.071 65.9942C272.175 66.0782 273.182 66.5942 274.279 66.7502C274.931 66.829 275.593 66.77 276.216 66.5777C276.839 66.3854 277.407 66.0649 277.877 65.6402C278.084 65.479 278.3 65.3288 278.526 65.1902C278.512 64.828 278.383 64.4775 278.156 64.1822C275.98 62.3222 272.071 61.7822 269.201 62.4722C267.744 62.8041 266.382 63.4253 265.21 64.2925C264.038 65.1597 263.085 66.2522 262.416 67.4942C261.182 69.9782 261.546 73.4282 262.227 75.9422" fill="#263238"/>
<path d="M281.441 67.8542C281.441 67.8542 267.844 63.8102 261.961 74.6822C261.507 73.3149 261.211 71.9071 261.078 70.4822C261.078 69.5102 261.727 63.7082 268.169 61.8842C268.169 61.9082 277.903 58.4762 281.441 67.8542Z" fill="#EA1D2C"/>
<path d="M269.753 68.1242C269.995 68.485 270.324 68.789 270.714 69.0121C271.105 69.2352 271.546 69.3713 272.003 69.4097C272.461 69.4481 272.921 69.3878 273.349 69.2334C273.777 69.079 274.16 68.8349 274.468 68.5202C274.602 68.8327 274.839 69.0984 275.145 69.2801C275.451 69.4617 275.811 69.5501 276.174 69.5329C276.537 69.5157 276.886 69.3937 277.17 69.1841C277.455 68.9744 277.661 68.6877 277.76 68.3642C278.123 68.7403 278.565 69.0445 279.058 69.2582C279.313 69.3582 279.594 69.3836 279.865 69.331C280.135 69.2785 280.382 69.1504 280.571 68.9642C280.726 68.7469 280.801 68.4889 280.783 68.2292C280.765 67.9695 280.657 67.722 280.474 67.5242C280.106 67.1303 279.631 66.8341 279.097 66.6662C277.486 66.012 275.716 65.7636 273.968 65.9462C272.21 66.1413 270.6 66.9507 269.468 68.2082" fill="#263238"/>
<g opacity="0.4">
<path d="M281.441 67.8542C280.308 66.758 278.757 66.1125 277.117 66.0542C273.104 65.8922 265.598 67.9742 261.961 74.6942C261.507 73.3269 261.211 71.9191 261.078 70.4942C261.078 69.5222 261.727 63.7202 268.169 61.8962C268.169 61.9082 277.903 58.4762 281.441 67.8542Z" fill="black"/>
</g>
<path d="M262.526 73.4102C264.588 70.5729 267.291 68.182 270.448 66.4022C273.578 64.6022 278.747 62.8022 282.305 61.9382C283.361 61.6158 284.479 61.5073 285.584 61.6202C286.135 61.6846 286.655 61.891 287.084 62.2157C287.514 62.5404 287.835 62.9703 288.013 63.4562C288.35 64.6982 285.967 66.6122 284.844 67.3622C283.748 68.0395 282.612 68.6605 281.441 69.2222C281.441 69.2222 281.474 66.9182 277.487 66.4442C272.065 65.8022 262.526 73.4102 262.526 73.4102Z" fill="#EA1D2C"/>
<g opacity="0.3">
<path d="M257.74 114.24C259.143 117.366 260.559 121.224 262.591 124.038C264.623 126.852 267.338 129.354 270.714 130.638C274.961 132.282 279.98 132.546 284.201 130.866C284.545 130.728 285.221 130.554 285.156 130.212C285.156 130.212 283.76 130.062 283.325 129.996C274.799 128.688 273.87 127.728 269.786 124.728C267.24 122.874 261.598 117.252 257.74 114.24Z" fill="black"/>
</g>
<path d="M284.857 137.004C284.771 137.261 284.651 137.507 284.5 137.736C284.121 138.385 283.659 138.99 283.123 139.536C281.317 141.287 279.044 142.567 276.532 143.25C274.03 143.909 271.446 144.266 268.844 144.312C267.851 144.348 267.046 144.354 266.494 144.354C266.205 144.365 265.916 144.353 265.63 144.318C265.911 144.258 266.199 144.228 266.487 144.228L268.831 144.09C271.405 143.981 273.956 143.598 276.435 142.95C278.903 142.272 281.149 141.034 282.967 139.35C283.677 138.625 284.309 137.84 284.857 137.004Z" fill="#263238"/>
<path d="M321.59 211.854C321.562 211.795 321.545 211.732 321.538 211.668C321.538 211.53 321.473 211.344 321.422 211.116C321.324 210.612 321.181 209.916 321.006 208.992C320.649 207.12 320.149 204.45 319.525 201.156C318.311 194.52 316.636 185.382 314.785 175.29C313.961 170.718 313.175 166.35 312.454 162.36L312.623 162.486L293.98 163.728L288.63 164.064L287.201 164.142H286.838H286.708H286.831L287.201 164.1L288.623 163.98L293.967 163.56L312.597 162.186H312.74V162.318C313.467 166.308 314.266 170.676 315.097 175.242C316.909 185.34 318.545 194.484 319.74 201.126C320.311 204.426 320.779 207.126 321.11 208.974L321.46 211.116C321.499 211.344 321.525 211.53 321.545 211.668C321.568 211.728 321.584 211.791 321.59 211.854Z" fill="#455A64"/>
<path d="M316.986 158.052C317.045 158.124 315.909 159.024 314.623 160.236C313.337 161.448 312.376 162.51 312.298 162.45C313.496 160.686 315.096 159.185 316.986 158.052Z" fill="#455A64"/>
<path d="M277.182 91.8302C277.182 91.8302 277.221 91.8962 277.26 92.0282C277.324 92.2235 277.366 92.4247 277.383 92.6282C277.459 93.3686 277.352 94.1153 277.071 94.8122C276.652 95.8538 275.906 96.7562 274.929 97.4042C273.709 98.176 272.24 98.5401 270.766 98.4362C269.298 98.344 267.892 97.8559 266.721 97.0322C265.777 96.3623 264.994 95.5184 264.422 94.5542C264.034 93.9121 263.737 93.2264 263.539 92.5142C263.474 92.2622 263.429 92.0642 263.409 91.9142C263.39 91.7642 263.409 91.7042 263.409 91.7042C263.71 92.6506 264.122 93.564 264.636 94.4282C265.224 95.343 265.998 96.1438 266.916 96.7862C268.05 97.5625 269.403 98.0208 270.812 98.1062C272.212 98.2055 273.609 97.8697 274.779 97.1522C275.714 96.5416 276.439 95.6962 276.87 94.7162C277.164 94.0526 277.304 93.339 277.279 92.6222C277.234 92.1182 277.182 91.8422 277.182 91.8302Z" fill="#263238"/>
<path d="M286.344 118.032C286.27 117.838 286.222 117.637 286.201 117.432C286.13 116.958 286.045 116.382 285.941 115.716C285.727 114.186 285.448 112.218 285.143 110.04C284.838 107.862 284.617 105.84 284.493 104.352C284.422 103.626 284.377 103.032 284.351 102.624C284.319 102.413 284.319 102.199 284.351 101.988C284.418 102.183 284.464 102.384 284.487 102.588C284.558 103.062 284.643 103.632 284.74 104.304C284.948 105.834 285.214 107.802 285.506 109.98C285.799 112.158 286.052 114.18 286.208 115.662C286.279 116.394 286.331 116.982 286.364 117.396C286.384 117.608 286.377 117.822 286.344 118.032Z" fill="#263238"/>
</svg>
