<svg width="471" height="300" viewBox="0 0 471 300" fill="none" xmlns="http://www.w3.org/2000/svg">
<g clip-path="url(#clip0_417_511)">
<path d="M377.127 96.8163C369.51 69.2163 352.585 48.6123 328.815 38.8503C305.045 29.0883 271.039 38.7483 254.592 57.8163C242.559 71.7603 238.854 91.3263 225.396 104.016C213.094 115.62 194.7 119.334 177.417 118.95C160.134 118.566 143.153 114.648 125.921 113.358C108.689 112.068 90.3071 113.724 76.1771 123.24C57.6323 135.732 46.5857 166.218 48.7147 187.8C51.6537 217.572 72.4279 247.698 100.977 254.124L288.121 256.632C312.688 256.032 339.617 233.688 352.61 212.1C359.518 200.556 365.654 197.892 372.122 176.826C382.641 142.554 383.728 120.72 377.127 96.8163Z" fill="#EBEBEB"/>
<path d="M456 274.5C456 274.788 350.328 275 220.02 275C89.7122 275 -16 274.788 -16 274.5C-16 274.212 89.6515 274 220.02 274C350.389 274 456 274.231 456 274.5Z" fill="#263238"/>
<path d="M79.1601 271.602C87.6255 265.992 89.5786 255.54 89.2772 246.138C89.2269 244.572 89.4153 242.916 88.6492 241.536C87.883 240.156 86.0555 239.214 84.5797 239.868C83.3614 240.414 82.8213 241.764 82.1368 242.868C81.221 244.361 79.8821 245.576 78.2746 246.372C77.2258 246.882 75.9322 247.194 74.896 246.648C73.483 245.898 73.326 244.026 73.3385 242.448C73.372 239.54 73.4013 236.632 73.4264 233.724C73.5319 232.179 73.3771 230.627 72.968 229.128C72.4656 227.646 71.3478 226.266 69.7903 225.84C68.2329 225.414 66.3175 226.272 65.9846 227.796C65.9186 228.442 65.8997 229.092 65.9281 229.74C65.9372 230.064 65.8461 230.383 65.6662 230.657C65.4864 230.931 65.2257 231.149 64.917 231.282C64.289 231.462 63.6108 231.018 63.1272 230.562C61.4442 228.978 60.3075 226.962 59.2462 224.922C58.1849 222.882 57.155 220.83 55.6289 219.108C54.1029 217.386 51.9928 216.012 49.6566 215.88C47.3205 215.748 44.821 217.116 44.2182 219.306C43.6153 221.496 44.9529 223.746 46.4099 225.528C48.5589 228.177 51.0971 230.515 53.9459 232.47C54.4991 232.768 54.9389 233.226 55.2019 233.778C55.5473 234.822 54.5174 235.848 53.4372 236.178C52.2189 236.562 50.9252 236.436 49.6252 236.574C48.3253 236.712 46.9688 237.246 46.4852 238.374C45.8133 239.97 47.2012 241.644 48.5702 242.742C51.3148 244.948 54.4381 246.683 57.8018 247.872C59.0373 248.205 60.1992 248.75 61.2307 249.48C62.1978 250.29 62.7756 251.694 62.1852 252.792C61.5949 253.89 60.094 254.238 58.8317 253.992C57.5694 253.746 56.4516 253.11 55.2521 252.672C53.0102 251.856 50.1088 251.994 48.6644 253.842C48.224 254.479 47.9438 255.205 47.8457 255.963C47.7477 256.721 47.8344 257.49 48.0992 258.21C48.6414 259.642 49.4785 260.956 50.561 262.074C54.1045 266.169 58.7228 269.292 63.9436 271.122C69.1435 272.868 73.9916 273.348 79.1475 271.56" fill="#EA1D2C"/>
<path d="M78.62 274.248C78.2809 270.522 78.105 270.444 76.6606 265.698C75.0482 260.571 73.1276 255.536 70.9082 250.62C70.322 249.312 69.7484 248.02 69.1874 246.744C68.616 245.472 68.057 244.212 67.4228 243.012C66.2014 240.714 64.847 238.482 63.3659 236.328C61.978 234.252 60.5776 232.338 59.2525 230.55C57.9274 228.762 56.6588 227.13 55.4342 225.684C53.5205 223.394 51.4207 221.251 49.1542 219.276C48.3504 218.574 47.7098 218.076 47.2702 217.704L46.7678 217.314C46.6548 217.224 46.592 217.182 46.5857 217.188C46.6374 217.241 46.6919 217.291 46.749 217.338L47.2326 217.752C47.6596 218.112 48.2876 218.646 49.0789 219.36C51.3145 221.361 53.3906 223.519 55.2898 225.816C56.5018 227.262 57.7578 228.906 59.0578 230.694C60.3578 232.482 61.7582 234.402 63.1461 236.472C64.6061 238.629 65.9415 240.86 67.1464 243.156C67.7744 244.356 68.3334 245.604 68.8986 246.876C69.4638 248.148 70.0352 249.444 70.6193 250.752C72.833 255.66 74.7577 260.681 76.3843 265.794C77.835 270.522 78.0297 270.594 78.4002 274.284" fill="#263238"/>
<path d="M67.316 243C67.3933 242.784 67.4459 242.561 67.473 242.334C67.5609 241.902 67.6677 241.278 67.787 240.498C68.0194 238.944 68.2706 236.79 68.5406 234.414C68.8106 232.038 69.087 229.89 69.3444 228.342C69.4763 227.568 69.5831 226.944 69.671 226.512C69.729 226.29 69.7585 226.063 69.7589 225.834C69.6695 226.046 69.6001 226.265 69.5517 226.488C69.4386 226.914 69.2942 227.538 69.1372 228.288C68.8232 229.83 68.5092 231.984 68.2392 234.36C67.9691 236.736 67.7493 238.83 67.5735 240.456C67.4918 241.188 67.4165 241.806 67.36 242.298C67.3131 242.529 67.2983 242.765 67.316 243Z" fill="#263238"/>
<path d="M46.3282 239.178C46.6046 239.238 46.8864 239.273 47.1698 239.28C47.7036 239.328 48.4886 239.388 49.4494 239.502C51.3711 239.706 54.015 240.102 56.9163 240.612C59.8177 241.122 62.4176 241.74 64.289 242.22C65.2248 242.454 65.9784 242.664 66.4996 242.82C66.7678 242.906 67.0429 242.97 67.3223 243.012C67.0703 242.889 66.8077 242.786 66.5373 242.706C66.0223 242.532 65.2813 242.292 64.3456 242.034C62.4616 241.5 59.8805 240.876 56.9728 240.336C54.4812 239.869 51.9658 239.527 49.4368 239.31C48.4697 239.226 47.6847 239.19 47.1446 239.178C46.873 239.156 46.5999 239.156 46.3282 239.178Z" fill="#263238"/>
<path d="M76.3843 265.332C76.4457 265.257 76.4963 265.174 76.535 265.086C76.6292 264.888 76.7486 264.648 76.893 264.36C77.207 263.73 77.6278 262.806 78.149 261.66C79.1664 259.362 80.4789 256.152 81.8668 252.582C83.2546 249.012 84.5358 245.796 85.5029 243.486L86.6647 240.75C86.784 240.45 86.8908 240.204 86.9724 240.006C87.054 239.808 87.0729 239.742 87.0603 239.736C87.0019 239.812 86.9534 239.895 86.9159 239.982L86.5579 240.702C86.2439 241.338 85.8169 242.262 85.3019 243.408C84.2783 245.7 82.972 248.916 81.5842 252.48C80.1963 256.044 78.9152 259.266 77.9418 261.582C77.4708 262.704 77.0751 263.628 76.7862 264.312C76.6606 264.612 76.5602 264.858 76.4785 265.062C76.4374 265.149 76.4059 265.239 76.3843 265.332Z" fill="#263238"/>
<path d="M48.5074 256.644C48.5952 256.69 48.6878 256.726 48.7837 256.752L49.5938 257.016L52.5831 257.952C55.0951 258.738 58.568 259.872 62.3988 261.12C66.2296 262.368 69.715 263.478 72.2521 264.216C73.5081 264.588 74.5506 264.876 75.2665 265.062L76.0954 265.278C76.1899 265.304 76.2865 265.322 76.3843 265.332C76.3843 265.332 76.2964 265.284 76.108 265.218L75.3042 264.96L72.34 264.024C69.828 263.232 66.3552 262.104 62.5181 260.85C58.681 259.596 55.2082 258.492 52.671 257.754C51.415 257.382 50.3726 257.094 49.6566 256.908L48.8277 256.698C48.7255 256.661 48.6168 256.642 48.5074 256.644Z" fill="#263238"/>
<path d="M181.135 274.242H93.736C83.1793 274.2 74.268 265.596 74.2994 255.504L75.2288 45.1982C75.2387 42.7979 75.7435 40.423 76.7144 38.2092C77.6853 35.9955 79.1033 33.9861 80.8874 32.2961C82.6714 30.6061 84.7865 29.2686 87.1118 28.3599C89.4371 27.4512 91.927 26.9891 94.4393 27.0002L182.24 27.3902C184.751 27.4004 187.235 27.8832 189.551 28.8108C191.866 29.7385 193.968 31.093 195.736 32.7968C197.503 34.5007 198.902 36.5205 199.853 38.7411C200.803 40.9616 201.286 43.3392 201.275 45.7382L200.345 256.044C200.335 258.444 199.831 260.819 198.86 263.033C197.889 265.247 196.471 267.256 194.687 268.946C192.903 270.636 190.788 271.974 188.462 272.883C186.137 273.791 183.647 274.253 181.135 274.242Z" fill="#263238"/>
<path d="M182.121 35.3762L165.096 35.3282C164.541 35.3375 163.993 35.4513 163.484 35.6629C162.975 35.8745 162.514 36.1799 162.129 36.5616C161.743 36.9432 161.44 37.3937 161.237 37.8873C161.034 38.3809 160.935 38.9079 160.945 39.4382V42.3902C160.963 43.4607 160.536 44.4945 159.758 45.265C158.98 46.0355 157.914 46.4797 156.793 46.5002L123.61 46.3502C123.055 46.3362 122.508 46.2178 122.001 46.0018C121.494 45.7859 121.036 45.4765 120.654 45.0915C120.272 44.7065 119.973 44.2533 119.775 43.7579C119.576 43.2624 119.481 42.7345 119.497 42.2042V39.2582C119.524 38.1864 119.105 37.148 118.333 36.37C117.561 35.5919 116.498 35.1376 115.377 35.1062H109.392L94.4896 35.0402C92.7305 35.033 90.9871 35.357 89.3591 35.9936C87.7311 36.6302 86.2502 37.567 85.0011 38.7504C83.752 39.9338 82.7591 41.3406 82.079 42.8907C81.399 44.4407 81.0452 46.1035 81.0378 47.7842L80.1272 253.014C80.1122 256.407 81.5082 259.667 84.0084 262.077C86.5085 264.487 89.9081 265.85 93.4596 265.866L181.084 266.25C182.844 266.259 184.589 265.936 186.218 265.3C187.847 264.664 189.329 263.727 190.579 262.544C191.829 261.36 192.822 259.953 193.502 258.402C194.182 256.851 194.536 255.188 194.543 253.506L195.428 48.2282C195.441 44.8396 194.048 41.5841 191.554 39.175C189.06 36.766 185.667 35.3999 182.121 35.3762Z" fill="#F5F5F5"/>
<path d="M144.931 227.46C144.83 229.938 144.736 232.26 144.654 234.198H157.214L155.676 226.806L144.931 227.46Z" fill="#F5F5F5"/>
<path d="M93.7737 230.55L93.8804 234.198H143.398C143.48 232.146 143.574 229.878 143.668 227.538L93.7737 230.55Z" fill="#F5F5F5"/>
<path d="M156.335 226.77L157.88 234.192H181.091L180.808 225.294L156.335 226.77Z" fill="#F5F5F5"/>
<path d="M146.187 122.976L150.576 98.6702L139.084 97.8542V122.976H146.187Z" fill="#F5F5F5"/>
<path d="M92.7374 217.056L80.2654 221.724L80.2277 230.166L93.108 229.386L92.7374 217.056Z" fill="#F5F5F5"/>
<path d="M92.6809 215.16L92.0027 192.522H91.9901V184.536L80.4224 185.706L80.2716 219.792L92.6746 215.148L92.6809 215.16Z" fill="#F5F5F5"/>
<path d="M91.9901 166.716L80.5166 165.264L80.4349 183.9L91.9901 182.73V166.716Z" fill="#F5F5F5"/>
<path d="M177.517 184.872L177.034 191.364L163.482 192.756L164.53 197.892L179.91 196.782L179.684 189.42L180.909 184.548L177.517 184.872Z" fill="#F5F5F5"/>
<path d="M153.088 198.714L163.896 197.934L161.541 186.414L152.109 187.326L153.088 198.714Z" fill="#F5F5F5"/>
<path d="M153.195 199.914L154.018 209.52L155.481 222.696L156.084 225.582L180.77 224.094L179.948 197.982L153.195 199.914Z" fill="#F5F5F5"/>
<path d="M110.705 154.548L111.653 156.102L92.6181 166.728V191.898L112.714 190.536L151.468 186.786L150.049 170.292L113.053 165.672L113.298 163.872L149.892 168.438L147.493 140.52L111.27 143.844L111.15 142.644L147.386 139.32L146.13 124.752H111.276L80.6861 130.068L80.5354 163.428L92.1094 164.928L110.705 154.548ZM94.5649 189.474C94.5649 189.474 94.7094 168.726 94.5649 167.952L110.102 160.056L112.118 188.418L94.5649 189.474Z" fill="#F5F5F5"/>
<path d="M176.243 184.998L162.169 186.354L163.237 191.574L175.853 190.278L176.243 184.998Z" fill="#F5F5F5"/>
<path d="M145.106 223.014C145.062 224.106 145.018 225.186 144.981 226.254L155.456 225.618L154.916 223.038L145.106 223.014Z" fill="#F5F5F5"/>
<path d="M122.542 122.976L124.389 114.978H138.456V97.8122L94.477 94.6982V110.82L80.7426 113.79L80.6798 128.262L111.094 122.976H122.542Z" fill="#F5F5F5"/>
<path d="M151.889 75.1982L151.512 73.7282L168.305 67.3802L157.384 46.4282C157.176 46.4603 156.966 46.4764 156.756 46.4762L138.198 46.3922L138.701 75.7142L151.889 75.1982Z" fill="#F5F5F5"/>
<path d="M177.335 63.9602V35.3582L165.096 35.3282C164.541 35.3376 163.993 35.4514 163.484 35.663C162.975 35.8746 162.514 36.18 162.129 36.5617C161.743 36.9433 161.44 37.3938 161.237 37.8874C161.034 38.381 160.935 38.9079 160.945 39.4382V42.3902C160.944 43.0494 160.781 43.6992 160.469 44.2871C160.157 44.8749 159.705 45.3844 159.148 45.7742L170.076 66.7382L177.335 63.9602Z" fill="#F5F5F5"/>
<path d="M114.209 65.1903L112.789 35.0703H109.392L96.1098 35.0103L90.4578 61.9443L114.209 65.1903ZM111.182 38.1243L111.634 62.6523L93.9809 60.1863L97.8431 38.1243H111.182Z" fill="#F5F5F5"/>
<path d="M114.849 65.2802V65.5322C114.849 67.8842 114.925 72.1322 114.962 76.6382L138.092 75.7382L137.589 46.3922L123.591 46.3262C123.036 46.3122 122.489 46.1938 121.982 45.9778C121.475 45.7619 121.017 45.4525 120.635 45.0675C120.253 44.6825 119.954 44.2293 119.756 43.7339C119.557 43.2384 119.463 42.7105 119.478 42.1802V39.2342C119.505 38.1624 119.087 37.124 118.315 36.346C117.543 35.5679 116.48 35.1136 115.358 35.0822H113.405L114.824 65.2802H114.849Z" fill="#F5F5F5"/>
<path d="M88.5864 61.6742L94.1881 35.0042C90.6895 35.0637 87.3543 36.4295 84.8965 38.8091C82.4387 41.1887 81.0537 44.393 81.0378 47.7362L80.975 61.0321L81.0378 60.6422L88.5864 61.6742Z" fill="#F5F5F5"/>
<path d="M92.593 94.5662L80.8306 93.7322L80.7489 111.942L92.593 109.38V94.5662Z" fill="#F5F5F5"/>
<path d="M88.4608 62.2622L80.975 61.2362L80.8431 90.7262L82.4571 90.8402L88.4608 62.2622Z" fill="#F5F5F5"/>
<path d="M112.218 214.812L112.413 191.142L92.6244 192.48L93.3278 215.67L112.218 214.812Z" fill="#F5F5F5"/>
<path d="M115.86 209.328L143.882 222.156C144.221 213.756 144.51 205.956 144.51 205.434L145.138 205.404L145.439 204.84C145.835 205.026 145.835 205.026 145.628 210.744C145.508 213.93 145.345 218.172 145.175 222.414H154.865L153.44 209.55L151.556 187.35L114.937 190.878L115.86 209.328Z" fill="#F5F5F5"/>
<path d="M184.557 170.064L184.237 166.938L150.645 170.28L152.058 186.726L181.066 183.93L184.557 170.064Z" fill="#F5F5F5"/>
<path d="M138.456 116.778H125.902L124.47 122.976H138.456V116.778Z" fill="#F5F5F5"/>
<path d="M179.37 118.872L147.939 116.796L146.683 123.888L148.008 139.284L181.154 136.236L179.37 118.872ZM149.094 123.876L150.783 119.4L178.083 121.05L179.659 133.854L150.017 137.214L149.094 123.876Z" fill="#F5F5F5"/>
<path d="M182.629 151.05L181.248 137.436L148.083 140.478L149.333 154.968L182.629 151.05Z" fill="#F5F5F5"/>
<path d="M93.1456 230.592L80.2779 231.366L80.2277 230.568L80.2088 234.192H93.2524L93.1456 230.592Z" fill="#F5F5F5"/>
<path d="M195.221 57.1982L195.409 57.6602L195.428 48.2282C195.441 44.8355 194.045 41.5764 191.545 39.1667C189.045 36.757 185.647 35.3937 182.096 35.3762H177.919V63.7442L195.221 57.1982Z" fill="#F5F5F5"/>
<path d="M143.857 222.834L115.251 209.736L114.24 190.974L113.047 191.088L112.84 215.388L93.3403 216.27V216.81L93.7171 229.338L143.7 226.338C143.762 225.168 143.813 223.998 143.857 222.834ZM94.5649 217.818L121.858 216.018L139.611 223.884L94.5649 226.212V217.818Z" fill="#F5F5F5"/>
<path d="M187.088 88.7282L188.263 82.0982C178.001 78.6002 177.291 68.3762 177.323 65.2982L170.628 67.8302L180.708 87.1682L187.088 88.7282Z" fill="#F5F5F5"/>
<path d="M150.488 168.486L164.436 167.1L161.692 155.328L149.484 156.768L150.488 168.486Z" fill="#F5F5F5"/>
<path d="M179.414 98.8682H153.365L151.204 98.7122L148.259 115.014L179.182 117.054L178.466 109.968L181.512 99.5042L179.414 98.8682Z" fill="#F5F5F5"/>
<path d="M178.78 95.8682L179.106 88.0682L168.87 68.4302L152.994 74.4302L158.451 95.8382L178.78 95.8682ZM168.248 70.8422L177.63 87.8942L176.274 93.2102L160.222 92.6102L156.209 76.4822L168.248 70.8422Z" fill="#F5F5F5"/>
<path d="M182.83 189.732L183.314 205.014L194.599 204.408L194.637 205.008L183.333 205.614L183.904 223.902L194.58 223.254L194.656 224.454L183.942 225.102L184.231 234.192H194.63L194.857 183.204L184.218 184.23L182.83 189.732Z" fill="#F5F5F5"/>
<path d="M114.228 65.7961L90.3259 62.5201L84.3474 90.9721L114.334 93.0961C114.454 88.7281 114.347 75.2761 114.228 65.7961Z" fill="#F5F5F5"/>
<path d="M153.54 95.8682H157.158L152.039 75.7922L138.738 76.3142L139.059 94.8422L153.54 95.8682Z" fill="#F5F5F5"/>
<path d="M114.944 93.1383L138.424 94.8002L138.11 76.3383L114.975 77.2383C115.044 83.4843 115.044 90.1443 114.944 93.1383Z" fill="#F5F5F5"/>
<path d="M182.811 152.844L162.314 155.256L165.07 167.034L184.055 165.15L182.811 152.844Z" fill="#F5F5F5"/>
<path d="M188.369 81.4682L189.682 74.0282L195.334 74.4482L195.409 58.4222L177.957 65.0222C177.599 76.2962 185.016 80.2622 188.369 81.4682Z" fill="#F5F5F5"/>
<path d="M181.65 110.232L182.359 117.264L195.145 118.11L195.208 103.632L184.507 100.404L181.65 110.232Z" fill="#F5F5F5"/>
<path d="M187.729 170.274L184.375 183.612L194.857 182.598L194.919 168.612C191.704 167.802 188.897 167.142 187.383 166.866L187.729 170.274Z" fill="#F5F5F5"/>
<path d="M180.657 96.0961L195.221 100.494L195.258 92.5801L180.953 89.0461L180.657 96.0961Z" fill="#F5F5F5"/>
<path d="M187.201 165.036C188.376 165.204 190.599 165.636 194.926 166.746L195.064 136.146L184.388 137.13L187.201 165.036Z" fill="#F5F5F5"/>
<path d="M184.256 135.954L195.07 134.958L195.133 119.916L182.541 119.082L184.256 135.954Z" fill="#F5F5F5"/>
<path d="M189.575 81.8461C191.456 82.4035 193.366 82.8701 195.296 83.2441V75.6481L190.693 75.3062L189.575 81.8461Z" fill="#F5F5F5"/>
<path d="M188.313 89.0042L195.265 90.7202L195.296 83.8622C193.494 83.5142 191.528 83.0462 189.468 82.4462L188.313 89.0042Z" fill="#F5F5F5"/>
<path d="M93.1456 230.586L93.2524 234.186H93.8804L93.7736 230.538L143.668 227.538C143.574 229.878 143.48 232.146 143.398 234.198H144.654C144.736 232.26 144.83 229.938 144.931 227.46L155.701 226.806L157.239 234.198H157.867L156.322 226.77L180.814 225.294L181.097 234.198H184.237L183.948 225.102L194.662 224.454L194.586 223.254L183.91 223.902L183.339 205.614L194.643 205.014L194.605 204.414L183.301 205.014L182.818 189.732L184.206 184.23L194.844 183.204V182.604L184.363 183.618L187.716 170.28L187.371 166.872C188.884 167.148 191.691 167.808 194.907 168.618V166.728C190.58 165.636 188.357 165.186 187.182 165.018L184.356 137.13L195.032 136.146V134.946L184.218 135.942L182.504 119.07L195.064 119.904V118.104L182.278 117.258L181.568 110.226L184.425 100.398L195.101 103.626V100.488L180.538 96.0903L180.833 89.0403L195.139 92.5743V90.7142L188.187 88.9982L189.343 82.4403C191.428 83.0403 193.368 83.5083 195.171 83.8563V83.2563C193.24 82.8822 191.331 82.4156 189.449 81.8583L190.599 75.3182L195.202 75.6603V74.4603L189.55 74.0403L188.237 81.4802C184.884 80.2802 177.467 76.3083 177.825 65.0283L195.277 58.4283V57.6663L195.089 57.2043L177.831 63.7322V35.3643H177.203V63.9663L169.931 66.7203L159.004 45.7563C158.485 46.1134 157.884 46.3459 157.252 46.4343L168.173 67.3863L151.512 73.7283L151.889 75.1982L138.701 75.7142L138.198 46.3923H137.57L138.073 75.7383L114.944 76.6383C114.906 72.1143 114.856 67.8842 114.83 65.5322V65.2803L113.411 35.0823H112.783L114.202 65.2023L90.4452 61.9443L96.0972 35.0103H94.477H94.1756L88.5738 61.6803L81.0378 60.6482L80.975 61.0383V61.2423L88.4608 62.2683L82.4571 90.8462L80.8431 90.7322V93.7322L92.6056 94.5662V109.38L80.7615 111.942V113.79L94.4958 110.79V94.7282L138.456 97.8423V115.014H124.389L122.542 123.006H111.094L80.6798 128.292V130.122L111.276 124.776H146.117L147.373 139.344L111.138 142.668L111.257 143.868L147.48 140.544L149.879 168.462L113.286 163.896L113.041 165.696L150.036 170.316L151.468 186.786L112.739 190.518L92.6432 191.88V166.728L111.678 156.12L110.73 154.566L92.1094 164.928L80.504 163.452V165.252L91.9901 166.728V182.742L80.4349 183.912V185.712L92.0027 184.542V192.528L92.6872 215.166L80.2842 219.81V221.742L92.7563 217.074L93.1268 229.404L80.2465 230.184V230.586L80.2968 231.384L93.1456 230.586ZM144.981 226.254C145.018 225.186 145.062 224.106 145.106 223.014H154.916L155.456 225.594L144.981 226.254ZM156.084 225.582L155.456 222.696L153.993 209.496L153.17 199.896L179.923 197.964L180.745 224.07L156.084 225.582ZM162.144 186.354L176.224 184.998L175.828 190.278L163.212 191.574L162.144 186.354ZM161.516 186.414L163.871 197.934L153.063 198.714L152.083 187.314L161.516 186.414ZM179.885 196.782L164.505 197.892L163.457 192.756L177.009 191.364L177.492 184.872L180.884 184.548L179.659 189.42L179.885 196.782ZM161.673 155.328L164.417 167.1L150.469 168.486L149.465 156.768L161.673 155.328ZM165.052 167.034L162.295 155.256L182.793 152.856L184.049 165.162L165.052 167.034ZM179.163 117.054L148.24 115.008L151.185 98.7122L153.346 98.8682H179.401L181.493 99.5043L178.472 109.968L179.163 117.054ZM177.279 65.2562C177.247 68.3522 177.957 78.5763 188.219 82.0563L187.088 88.7282L180.708 87.1502L170.628 67.7883L177.279 65.2562ZM168.826 68.4543L179.1 88.0923L178.773 95.8923H158.451L152.994 74.4842L168.826 68.4543ZM151.996 75.7923L157.114 95.8682H153.54L139.059 94.8482L138.738 76.3142L151.996 75.7923ZM138.066 76.3383L138.38 94.8002L114.9 93.1383C115 90.1383 114.981 83.4843 114.9 77.2383L138.066 76.3383ZM90.282 62.5383L114.184 65.8142C114.303 75.2942 114.41 88.7342 114.29 93.1142L84.3034 90.9903L90.282 62.5383ZM150.532 98.6883L146.136 122.994H139.084V97.8543L150.532 98.6883ZM125.858 116.802H138.418V122.994H124.464L125.858 116.802ZM146.582 123.906L147.838 116.814L179.27 118.89L181.028 136.254L147.882 139.302L146.582 123.906ZM181.172 137.454L182.554 151.068L149.27 154.992L148.014 140.496L181.172 137.454ZM150.57 170.298L184.162 166.956L184.482 170.082L180.99 183.948L151.983 186.744L150.57 170.298ZM153.321 209.592L154.746 222.456H145.131C145.301 218.214 145.464 213.972 145.584 210.786C145.791 205.068 145.791 205.068 145.395 204.882L145.094 205.446L144.466 205.476C144.466 205.974 144.196 213.816 143.838 222.198L115.86 209.328L114.868 190.89L151.468 187.386L153.321 209.592ZM112.337 191.16L112.143 214.83L93.2524 215.688L92.549 192.498L112.337 191.16ZM93.2838 216.84V216.3L112.783 215.418L112.99 191.118L114.184 191.004L115.195 209.766L143.8 222.864C143.756 224.028 143.706 225.198 143.662 226.362L93.6794 229.362L93.2838 216.84Z" fill="white"/>
<path d="M121.858 215.988L94.5649 217.812V226.188L139.618 223.854L121.858 215.988Z" fill="#EBEBEB"/>
<path d="M178.083 121.05L150.783 119.4L149.094 123.876L150.017 137.214L179.659 133.854L178.083 121.05Z" fill="#EBEBEB"/>
<path d="M93.4596 265.866L181.084 266.25C182.844 266.259 184.589 265.936 186.218 265.3C187.847 264.664 189.329 263.728 190.579 262.544C191.829 261.36 192.822 259.953 193.502 258.402C194.182 256.851 194.536 255.188 194.543 253.506L194.63 234.198H80.2088L80.146 248.802V253.398C80.2341 256.722 81.6733 259.882 84.1585 262.21C86.6437 264.537 89.9797 265.849 93.4596 265.866Z" fill="#EBEBEB"/>
<path d="M111.634 62.6521L111.182 38.1241H97.8494L93.9809 60.1861L111.634 62.6521Z" fill="#EBEBEB"/>
<path d="M176.274 93.2102L177.63 87.8942L168.248 70.8422L156.209 76.5062L160.222 92.6342L176.274 93.2102Z" fill="#EBEBEB"/>
<path d="M94.5649 167.928C94.7094 168.702 94.5649 189.45 94.5649 189.45L112.149 188.394L110.133 160.032L94.5649 167.928Z" fill="#EBEBEB"/>
<path d="M153.095 184.8L152.165 171.942L182.265 168.246V170.466L178.623 182.292L153.095 184.8Z" fill="#EBEBEB"/>
<path d="M130.832 78.1622C130.832 78.8552 130.617 79.5327 130.214 80.1089C129.811 80.6852 129.238 81.1343 128.568 81.3995C127.898 81.6647 127.16 81.7341 126.449 81.5989C125.737 81.4637 125.084 81.1299 124.571 80.6399C124.058 80.1499 123.709 79.5255 123.567 78.8458C123.426 78.1661 123.498 77.4616 123.776 76.8213C124.054 76.181 124.524 75.6338 125.127 75.2487C125.73 74.8637 126.439 74.6582 127.164 74.6582C128.137 74.6582 129.07 75.0274 129.758 75.6845C130.446 76.3416 130.832 77.2329 130.832 78.1622Z" fill="#EA1D2C"/>
<g opacity="0.6">
<path d="M130.826 78.0122C130.857 78.7048 130.673 79.3909 130.297 79.9835C129.92 80.5761 129.368 81.0487 128.71 81.3414C128.053 81.6342 127.319 81.7339 126.602 81.628C125.884 81.5222 125.216 81.2155 124.682 80.7467C124.147 80.278 123.77 79.6682 123.598 78.9947C123.427 78.3211 123.468 77.614 123.717 76.9628C123.966 76.3117 124.411 75.7457 124.997 75.3365C125.583 74.9274 126.282 74.6934 127.007 74.6642C127.978 74.6252 128.926 74.9558 129.641 75.5836C130.357 76.2113 130.783 77.0848 130.826 78.0122Z" fill="white"/>
</g>
<path d="M127.164 80.3702C128.51 80.3702 129.601 79.328 129.601 78.0422C129.601 76.7565 128.51 75.7142 127.164 75.7142C125.819 75.7142 124.728 76.7565 124.728 78.0422C124.728 79.328 125.819 80.3702 127.164 80.3702Z" fill="#EA1D2C"/>
<path d="M183.829 218.052C183.824 218.347 183.728 218.634 183.553 218.877C183.379 219.12 183.133 219.309 182.847 219.419C182.561 219.529 182.247 219.557 181.944 219.498C181.642 219.439 181.365 219.296 181.147 219.087C180.929 218.878 180.78 218.612 180.72 218.323C180.659 218.034 180.689 217.734 180.806 217.461C180.922 217.188 181.12 216.954 181.376 216.788C181.631 216.622 181.931 216.532 182.24 216.528C182.45 216.526 182.658 216.564 182.852 216.639C183.047 216.715 183.223 216.827 183.371 216.97C183.52 217.112 183.636 217.281 183.715 217.467C183.793 217.653 183.832 217.852 183.829 218.052Z" fill="#EA1D2C"/>
<path d="M181.323 217.566L180.94 209.166L154.489 210.396C153.795 210.427 153.105 210.286 152.485 209.988L114.962 191.88C114.535 191.673 114.173 191.362 113.912 190.979C113.65 190.596 113.499 190.153 113.474 189.696L108.362 95.0522C108.35 94.828 108.388 94.6039 108.473 94.3948C108.559 94.1858 108.69 93.9965 108.858 93.8398C109.026 93.683 109.228 93.5624 109.449 93.4859C109.67 93.4094 109.905 93.3788 110.139 93.3962L126.222 94.5302V77.7302H128.106V94.7582C128.111 94.9757 128.069 95.1918 127.982 95.393C127.896 95.5942 127.767 95.7764 127.604 95.9282C127.435 96.0748 127.236 96.187 127.02 96.2582C126.805 96.3293 126.576 96.3579 126.348 96.3422L110.277 95.2082L115.371 189.606C115.38 189.746 115.427 189.881 115.507 189.997C115.588 190.114 115.699 190.209 115.829 190.272L153.352 208.392C153.68 208.551 154.046 208.625 154.413 208.608L181.091 207.366C181.532 207.348 181.963 207.497 182.29 207.78C182.454 207.921 182.587 208.092 182.681 208.282C182.775 208.473 182.828 208.68 182.837 208.89L183.22 217.488L181.323 217.566Z" fill="#EA1D2C"/>
<path d="M111.439 140.694C114.061 140.694 116.187 138.663 116.187 136.158C116.187 133.653 114.061 131.622 111.439 131.622C108.817 131.622 106.692 133.653 106.692 136.158C106.692 138.663 108.817 140.694 111.439 140.694Z" fill="#EA1D2C"/>
<path d="M111.439 139.308C113.26 139.308 114.736 137.898 114.736 136.158C114.736 134.418 113.26 133.008 111.439 133.008C109.618 133.008 108.142 134.418 108.142 136.158C108.142 137.898 109.618 139.308 111.439 139.308Z" fill="#FAFAFA"/>
<path d="M111.439 139.536C110.74 139.537 110.056 139.34 109.473 138.97C108.891 138.599 108.437 138.072 108.168 137.455C107.9 136.838 107.829 136.158 107.965 135.503C108.1 134.847 108.436 134.245 108.931 133.772C109.425 133.299 110.055 132.976 110.741 132.845C111.427 132.715 112.138 132.781 112.785 133.037C113.431 133.292 113.984 133.725 114.372 134.281C114.761 134.836 114.969 135.49 114.969 136.158C114.967 137.053 114.595 137.91 113.933 138.543C113.272 139.176 112.375 139.533 111.439 139.536ZM111.439 133.23C110.833 133.229 110.24 133.4 109.735 133.721C109.23 134.042 108.836 134.499 108.603 135.033C108.371 135.568 108.309 136.157 108.426 136.726C108.544 137.294 108.835 137.816 109.264 138.226C109.692 138.637 110.238 138.916 110.833 139.029C111.427 139.143 112.044 139.085 112.604 138.864C113.165 138.642 113.644 138.267 113.981 137.785C114.318 137.304 114.498 136.738 114.498 136.158C114.496 135.383 114.173 134.64 113.6 134.092C113.027 133.543 112.25 133.233 111.439 133.23Z" fill="#EA1D2C"/>
<path d="M139.404 117.132H116.796C116.268 117.132 115.762 117.333 115.388 117.689C115.015 118.046 114.805 118.53 114.805 119.034V126.834C114.805 127.339 115.015 127.822 115.388 128.179C115.762 128.536 116.268 128.736 116.796 128.736H117.06V130.602L119.327 128.736H139.423C139.951 128.736 140.457 128.536 140.831 128.179C141.204 127.822 141.414 127.339 141.414 126.834V119.034C141.414 118.783 141.362 118.534 141.26 118.302C141.159 118.07 141.011 117.86 140.824 117.683C140.637 117.506 140.415 117.366 140.172 117.272C139.928 117.177 139.667 117.13 139.404 117.132Z" fill="#EA1D2C"/>
<g opacity="0.4">
<path d="M139.404 117.132H116.796C116.268 117.132 115.762 117.333 115.388 117.689C115.015 118.046 114.805 118.53 114.805 119.034V126.834C114.805 127.339 115.015 127.822 115.388 128.179C115.762 128.536 116.268 128.736 116.796 128.736H117.06V130.602L119.327 128.736H139.423C139.951 128.736 140.457 128.536 140.831 128.179C141.204 127.822 141.414 127.339 141.414 126.834V119.034C141.414 118.783 141.362 118.534 141.26 118.302C141.159 118.07 141.011 117.86 140.824 117.683C140.637 117.506 140.415 117.366 140.172 117.272C139.928 117.177 139.667 117.13 139.404 117.132Z" fill="white"/>
</g>
<path d="M119.892 122.82C119.882 122.562 119.953 122.307 120.096 122.088C120.238 121.869 120.446 121.695 120.692 121.59C120.939 121.484 121.213 121.451 121.479 121.495C121.745 121.539 121.991 121.658 122.186 121.837C122.381 122.015 122.516 122.245 122.573 122.498C122.631 122.75 122.608 123.013 122.508 123.252C122.408 123.492 122.235 123.698 122.012 123.843C121.789 123.988 121.525 124.067 121.255 124.068C121.078 124.076 120.902 124.05 120.737 123.991C120.571 123.932 120.42 123.841 120.293 123.724C120.165 123.607 120.064 123.467 119.995 123.312C119.926 123.156 119.891 122.989 119.892 122.82ZM122.241 122.82C122.242 122.632 122.185 122.448 122.076 122.291C121.968 122.134 121.813 122.012 121.631 121.94C121.45 121.867 121.25 121.848 121.057 121.884C120.864 121.921 120.686 122.011 120.547 122.144C120.408 122.277 120.313 122.446 120.275 122.631C120.237 122.815 120.257 123.006 120.333 123.18C120.409 123.353 120.537 123.501 120.701 123.605C120.865 123.709 121.058 123.763 121.255 123.762C121.386 123.766 121.516 123.745 121.637 123.699C121.759 123.653 121.869 123.584 121.962 123.496C122.054 123.407 122.127 123.302 122.175 123.186C122.223 123.069 122.245 122.945 122.241 122.82Z" fill="white"/>
<path d="M125.092 123.12C125.099 123.245 125.079 123.369 125.033 123.486C124.986 123.602 124.915 123.708 124.824 123.797C124.732 123.886 124.622 123.955 124.5 124.001C124.379 124.046 124.249 124.067 124.119 124.062C123.985 124.068 123.853 124.043 123.732 123.989C123.612 123.934 123.507 123.852 123.428 123.75V124.044H123.089V121.452H123.44V122.472C123.522 122.376 123.625 122.299 123.743 122.248C123.861 122.197 123.989 122.173 124.119 122.178C124.249 122.173 124.379 122.194 124.5 122.24C124.622 122.285 124.732 122.355 124.824 122.443C124.915 122.532 124.986 122.638 125.033 122.755C125.079 122.871 125.099 122.996 125.092 123.12ZM124.74 123.12C124.731 123.004 124.686 122.893 124.611 122.801C124.536 122.709 124.435 122.639 124.32 122.601C124.205 122.563 124.08 122.558 123.962 122.586C123.844 122.614 123.736 122.675 123.654 122.761C123.571 122.846 123.516 122.953 123.495 123.068C123.475 123.183 123.49 123.301 123.538 123.407C123.587 123.514 123.667 123.605 123.769 123.669C123.871 123.733 123.99 123.768 124.112 123.768C124.201 123.772 124.29 123.757 124.373 123.726C124.455 123.694 124.53 123.646 124.592 123.585C124.654 123.524 124.701 123.45 124.731 123.37C124.761 123.29 124.773 123.205 124.765 123.12H124.74Z" fill="white"/>
<path d="M124.935 124.626L125.048 124.368C125.13 124.431 125.232 124.463 125.337 124.458C125.519 124.458 125.626 124.344 125.626 124.134V122.196H125.971V124.128C125.979 124.209 125.968 124.29 125.939 124.366C125.91 124.442 125.864 124.512 125.804 124.569C125.744 124.626 125.672 124.67 125.592 124.698C125.513 124.725 125.428 124.736 125.343 124.728C125.199 124.735 125.057 124.7 124.935 124.626ZM125.563 121.626C125.563 121.597 125.569 121.569 125.581 121.542C125.593 121.516 125.61 121.491 125.631 121.471C125.653 121.451 125.679 121.435 125.707 121.425C125.735 121.414 125.765 121.409 125.795 121.41C125.826 121.409 125.856 121.413 125.884 121.423C125.913 121.432 125.939 121.447 125.961 121.467C125.983 121.487 126.001 121.51 126.014 121.537C126.026 121.563 126.033 121.591 126.034 121.62C126.035 121.65 126.029 121.68 126.018 121.708C126.006 121.735 125.988 121.76 125.966 121.781C125.943 121.802 125.917 121.818 125.887 121.829C125.858 121.839 125.827 121.844 125.795 121.842C125.764 121.844 125.733 121.839 125.704 121.829C125.675 121.818 125.649 121.802 125.627 121.781C125.605 121.76 125.588 121.735 125.577 121.707C125.566 121.68 125.561 121.65 125.563 121.62V121.626Z" fill="white"/>
<path d="M128.383 123.228H126.813C126.82 123.308 126.845 123.386 126.885 123.457C126.925 123.528 126.979 123.59 127.045 123.641C127.11 123.691 127.186 123.728 127.267 123.75C127.348 123.772 127.433 123.778 127.516 123.768C127.62 123.772 127.724 123.754 127.821 123.715C127.917 123.677 128.004 123.619 128.075 123.546L128.27 123.762C128.126 123.899 127.944 123.994 127.746 124.036C127.547 124.077 127.34 124.063 127.15 123.996C126.959 123.928 126.793 123.81 126.671 123.654C126.549 123.499 126.476 123.314 126.461 123.12C126.456 122.996 126.477 122.872 126.524 122.757C126.571 122.641 126.642 122.536 126.734 122.447C126.825 122.359 126.934 122.29 127.055 122.243C127.175 122.197 127.305 122.175 127.434 122.178C127.564 122.175 127.693 122.197 127.813 122.244C127.933 122.291 128.042 122.361 128.132 122.45C128.221 122.54 128.291 122.646 128.335 122.762C128.379 122.879 128.398 123.003 128.389 123.126C128.39 123.16 128.388 123.194 128.383 123.228ZM126.813 122.988H128.069C128.069 122.829 128.003 122.676 127.885 122.564C127.767 122.451 127.607 122.388 127.441 122.388C127.274 122.388 127.114 122.451 126.997 122.564C126.879 122.676 126.813 122.829 126.813 122.988Z" fill="white"/>
<path d="M128.697 123.12C128.694 122.993 128.719 122.866 128.77 122.748C128.821 122.63 128.897 122.524 128.993 122.435C129.089 122.347 129.203 122.278 129.328 122.234C129.454 122.19 129.587 122.171 129.72 122.178C129.876 122.169 130.031 122.2 130.17 122.269C130.308 122.337 130.424 122.441 130.505 122.568L130.242 122.736C130.184 122.653 130.106 122.584 130.014 122.537C129.922 122.49 129.819 122.466 129.714 122.466C129.545 122.482 129.387 122.557 129.273 122.677C129.158 122.798 129.095 122.955 129.095 123.117C129.095 123.28 129.158 123.437 129.273 123.557C129.387 123.677 129.545 123.753 129.714 123.768C129.818 123.769 129.921 123.746 130.013 123.7C130.105 123.654 130.183 123.587 130.242 123.504L130.505 123.666C130.425 123.794 130.309 123.899 130.17 123.968C130.032 124.038 129.877 124.071 129.72 124.062C129.587 124.069 129.454 124.049 129.329 124.005C129.205 123.96 129.091 123.892 128.995 123.803C128.899 123.715 128.823 123.609 128.772 123.491C128.72 123.374 128.695 123.248 128.697 123.12Z" fill="white"/>
<path d="M132.075 123.936C131.952 124.022 131.801 124.067 131.648 124.062C131.563 124.076 131.475 124.069 131.392 124.044C131.31 124.019 131.234 123.975 131.173 123.916C131.112 123.858 131.066 123.786 131.039 123.707C131.013 123.628 131.006 123.544 131.02 123.462V122.442H130.687V122.172H131.02V121.764H131.372V122.172H131.925V122.442H131.372V123.444C131.365 123.485 131.368 123.526 131.38 123.565C131.393 123.604 131.414 123.64 131.443 123.67C131.472 123.7 131.508 123.724 131.548 123.738C131.588 123.753 131.631 123.759 131.673 123.756C131.771 123.758 131.866 123.728 131.943 123.672L132.075 123.936Z" fill="white"/>
<path d="M132.433 121.62C132.434 121.591 132.441 121.562 132.453 121.536C132.466 121.509 132.484 121.485 132.506 121.465C132.528 121.445 132.554 121.429 132.583 121.419C132.611 121.408 132.641 121.403 132.672 121.404C132.702 121.403 132.732 121.407 132.761 121.416C132.789 121.426 132.816 121.441 132.838 121.461C132.86 121.481 132.878 121.504 132.89 121.53C132.903 121.557 132.91 121.585 132.911 121.614C132.911 121.675 132.885 121.733 132.841 121.775C132.796 121.818 132.735 121.842 132.672 121.842C132.609 121.842 132.548 121.818 132.503 121.775C132.458 121.733 132.433 121.675 132.433 121.614V121.62ZM132.496 122.22H132.848V124.068H132.496V122.22Z" fill="white"/>
<path d="M135.228 122.196L134.38 124.044H134.022L133.174 122.196H133.545L134.173 123.678L134.851 122.196H135.228Z" fill="white"/>
<path d="M137.244 123.228H135.674C135.682 123.308 135.706 123.386 135.746 123.457C135.786 123.528 135.84 123.59 135.906 123.641C135.971 123.691 136.047 123.728 136.128 123.75C136.209 123.772 136.294 123.778 136.377 123.768C136.482 123.772 136.585 123.754 136.682 123.715C136.778 123.677 136.865 123.619 136.936 123.546L137.124 123.762C137.03 123.864 136.912 123.943 136.78 123.995C136.649 124.047 136.507 124.07 136.365 124.062C136.23 124.071 136.095 124.054 135.968 124.01C135.841 123.967 135.725 123.899 135.627 123.81C135.529 123.722 135.451 123.615 135.398 123.496C135.346 123.377 135.32 123.249 135.322 123.12C135.317 122.996 135.338 122.872 135.385 122.757C135.432 122.641 135.504 122.536 135.595 122.447C135.686 122.359 135.795 122.29 135.916 122.243C136.036 122.197 136.166 122.175 136.296 122.178C136.425 122.175 136.554 122.197 136.674 122.244C136.794 122.291 136.903 122.361 136.993 122.45C137.083 122.54 137.152 122.646 137.196 122.762C137.241 122.879 137.259 123.003 137.25 123.126C137.251 123.16 137.249 123.194 137.244 123.228ZM135.674 122.988H136.93C136.93 122.829 136.864 122.676 136.746 122.564C136.628 122.451 136.468 122.388 136.302 122.388C136.135 122.388 135.976 122.451 135.858 122.564C135.74 122.676 135.674 122.829 135.674 122.988Z" fill="white"/>
<path d="M131.937 66.3962C131.943 65.7034 131.781 65.0188 131.463 64.396C131.146 63.7732 130.681 63.2291 130.107 62.8063C129.533 62.3834 128.864 62.0934 128.152 61.9588C127.441 61.8242 126.707 61.8488 126.007 62.0306C125.308 62.2124 124.661 62.5464 124.119 63.0066C123.577 63.4668 123.154 64.0406 122.883 64.6831C122.612 65.3256 122.5 66.0194 122.557 66.7101C122.613 67.4007 122.836 68.0695 123.208 68.6642C123.39 68.9522 123.616 69.1622 123.836 69.4682L126.568 72.9182C126.647 73.0188 126.749 73.1004 126.867 73.1566C126.985 73.2129 127.114 73.2422 127.246 73.2422C127.378 73.2422 127.507 73.2129 127.625 73.1566C127.743 73.1004 127.845 73.0188 127.924 72.9182L130.606 69.5222C130.851 69.2467 131.079 68.9583 131.29 68.6582C131.713 67.9725 131.936 67.1917 131.937 66.3962ZM127.24 68.3282C126.83 68.3293 126.428 68.2142 126.087 67.9974C125.745 67.7805 125.478 67.4717 125.321 67.11C125.163 66.7483 125.121 66.35 125.2 65.9656C125.279 65.5811 125.476 65.2277 125.766 64.9502C126.055 64.6727 126.425 64.4835 126.827 64.4067C127.229 64.3298 127.646 64.3686 128.025 64.5183C128.404 64.668 128.728 64.9218 128.956 65.2475C129.184 65.5732 129.306 65.9563 129.306 66.3482C129.306 66.8722 129.088 67.375 128.701 67.7461C128.314 68.1173 127.788 68.3266 127.24 68.3282Z" fill="#EA1D2C"/>
<path d="M101.504 243.318H100.631V243.012H102.741V243.318H101.856V245.454H101.492L101.504 243.318Z" fill="#263238"/>
<path d="M102.71 244.53C102.708 244.34 102.764 244.154 102.873 243.994C102.981 243.835 103.137 243.71 103.32 243.635C103.503 243.561 103.705 243.54 103.901 243.575C104.096 243.61 104.277 243.7 104.419 243.833C104.561 243.966 104.658 244.137 104.699 244.323C104.739 244.509 104.721 244.702 104.646 244.879C104.571 245.055 104.444 245.206 104.279 245.313C104.114 245.419 103.92 245.477 103.721 245.478C103.588 245.485 103.455 245.465 103.33 245.42C103.206 245.375 103.092 245.306 102.997 245.217C102.902 245.128 102.828 245.02 102.778 244.902C102.729 244.784 102.706 244.657 102.71 244.53ZM104.368 244.53C104.368 244.366 104.3 244.208 104.178 244.091C104.056 243.975 103.89 243.909 103.718 243.909C103.546 243.909 103.38 243.975 103.258 244.091C103.137 244.208 103.068 244.366 103.068 244.53C103.068 244.695 103.137 244.853 103.258 244.969C103.38 245.086 103.546 245.151 103.718 245.151C103.89 245.151 104.056 245.086 104.178 244.969C104.3 244.853 104.368 244.695 104.368 244.53Z" fill="#263238"/>
<path d="M106.296 245.328C106.177 245.42 106.028 245.466 105.875 245.46C105.79 245.472 105.703 245.465 105.621 245.439C105.539 245.414 105.464 245.37 105.403 245.311C105.342 245.253 105.296 245.182 105.269 245.103C105.242 245.025 105.234 244.942 105.247 244.86V243.846H104.921V243.57H105.247V243.168H105.624V243.57H106.177V243.846H105.624V244.848C105.617 244.889 105.62 244.93 105.632 244.969C105.645 245.008 105.666 245.044 105.695 245.074C105.724 245.104 105.76 245.128 105.8 245.143C105.84 245.157 105.883 245.163 105.925 245.16C106.025 245.159 106.122 245.127 106.202 245.07L106.296 245.328Z" fill="#263238"/>
<path d="M108.255 244.338V245.454H107.922V245.214C107.848 245.304 107.752 245.375 107.643 245.421C107.533 245.467 107.414 245.486 107.294 245.478C106.855 245.478 106.579 245.256 106.579 244.932C106.579 244.608 106.78 244.392 107.351 244.392H107.91V244.326C107.91 244.044 107.74 243.876 107.389 243.876C107.16 243.869 106.937 243.942 106.761 244.08L106.61 243.828C106.841 243.662 107.125 243.577 107.414 243.588C107.524 243.57 107.636 243.576 107.743 243.607C107.85 243.637 107.948 243.691 108.029 243.764C108.111 243.836 108.174 243.926 108.213 244.026C108.252 244.125 108.267 244.232 108.255 244.338ZM107.904 244.89V244.632H107.364C107.018 244.632 106.918 244.764 106.918 244.92C106.918 245.076 107.075 245.22 107.345 245.22C107.462 245.229 107.58 245.201 107.68 245.142C107.781 245.083 107.859 244.995 107.904 244.89Z" fill="#263238"/>
<path d="M108.902 242.868H109.253V245.454H108.902V242.868Z" fill="#263238"/>
<path d="M112.727 242.868V245.454H112.394V245.16C112.314 245.263 112.21 245.345 112.09 245.401C111.969 245.456 111.837 245.483 111.703 245.478C111.454 245.459 111.222 245.351 111.053 245.176C110.884 245.001 110.79 244.772 110.79 244.533C110.79 244.295 110.884 244.065 111.053 243.89C111.222 243.715 111.454 243.607 111.703 243.588C111.833 243.583 111.962 243.607 112.08 243.66C112.198 243.712 112.301 243.79 112.381 243.888V242.868H112.727ZM112.381 244.53C112.37 244.414 112.324 244.304 112.249 244.213C112.174 244.121 112.072 244.053 111.957 244.016C111.842 243.979 111.718 243.974 111.6 244.003C111.482 244.032 111.375 244.093 111.293 244.179C111.211 244.264 111.156 244.371 111.136 244.486C111.116 244.6 111.132 244.718 111.18 244.825C111.229 244.931 111.309 245.022 111.411 245.086C111.513 245.149 111.632 245.184 111.753 245.184C111.841 245.185 111.927 245.167 112.007 245.134C112.088 245.1 112.159 245.051 112.219 244.99C112.278 244.928 112.323 244.856 112.351 244.776C112.379 244.697 112.389 244.613 112.381 244.53Z" fill="#263238"/>
<path d="M113.33 243.036C113.33 243.006 113.336 242.977 113.348 242.95C113.36 242.922 113.378 242.898 113.4 242.877C113.422 242.856 113.448 242.84 113.477 242.829C113.506 242.819 113.537 242.813 113.568 242.814C113.601 242.809 113.636 242.811 113.668 242.819C113.701 242.828 113.731 242.843 113.757 242.864C113.782 242.885 113.803 242.911 113.817 242.94C113.831 242.969 113.839 243.001 113.839 243.033C113.839 243.065 113.831 243.097 113.817 243.126C113.803 243.156 113.782 243.182 113.757 243.203C113.731 243.223 113.701 243.239 113.668 243.247C113.636 243.256 113.601 243.257 113.568 243.252C113.538 243.253 113.507 243.248 113.479 243.238C113.45 243.227 113.424 243.211 113.402 243.191C113.38 243.171 113.362 243.147 113.35 243.121C113.337 243.094 113.33 243.065 113.33 243.036ZM113.392 243.606H113.744V245.454H113.392V243.606Z" fill="#263238"/>
<path d="M114.165 245.262L114.316 244.992C114.517 245.119 114.753 245.186 114.994 245.184C115.32 245.184 115.452 245.094 115.452 244.938C115.452 244.518 114.196 244.878 114.196 244.146C114.196 243.81 114.51 243.588 115.006 243.588C115.252 243.586 115.494 243.644 115.71 243.756L115.559 244.02C115.391 243.922 115.197 243.871 115 243.876C114.692 243.876 114.548 243.984 114.548 244.128C114.548 244.566 115.804 244.212 115.804 244.926C115.804 245.262 115.484 245.478 114.969 245.478C114.684 245.484 114.404 245.409 114.165 245.262Z" fill="#263238"/>
<path d="M117.33 245.328C117.209 245.421 117.057 245.468 116.903 245.46C116.817 245.472 116.73 245.465 116.648 245.439C116.566 245.414 116.492 245.37 116.431 245.311C116.37 245.253 116.324 245.182 116.297 245.103C116.27 245.025 116.262 244.942 116.275 244.86V243.846H115.942V243.57H116.3V243.168H116.652V243.57H117.204V243.846H116.652V244.848C116.645 244.889 116.648 244.93 116.66 244.969C116.672 245.008 116.694 245.044 116.723 245.074C116.752 245.104 116.788 245.128 116.828 245.143C116.868 245.157 116.91 245.163 116.953 245.16C117.051 245.16 117.146 245.128 117.223 245.07L117.33 245.328Z" fill="#263238"/>
<path d="M119.289 244.338V245.454H118.956V245.214C118.882 245.303 118.786 245.374 118.676 245.42C118.567 245.466 118.448 245.486 118.328 245.478C117.895 245.478 117.613 245.256 117.613 244.932C117.613 244.608 117.813 244.392 118.391 244.392H118.95V244.326C118.95 244.044 118.774 243.876 118.429 243.876C118.201 243.872 117.979 243.944 117.801 244.08L117.656 243.828C117.888 243.662 118.171 243.577 118.46 243.588C118.569 243.572 118.681 243.58 118.786 243.611C118.891 243.643 118.987 243.697 119.067 243.769C119.147 243.841 119.209 243.93 119.247 244.029C119.286 244.128 119.3 244.233 119.289 244.338ZM118.938 244.89V244.632H118.398C118.046 244.632 117.952 244.764 117.952 244.92C117.952 245.076 118.109 245.22 118.379 245.22C118.496 245.229 118.614 245.201 118.714 245.142C118.815 245.083 118.893 244.995 118.938 244.89Z" fill="#263238"/>
<path d="M121.77 244.392V245.454H121.424V244.428C121.424 244.068 121.23 243.888 120.897 243.888C120.813 243.881 120.727 243.891 120.648 243.919C120.568 243.946 120.496 243.99 120.436 244.048C120.376 244.105 120.33 244.174 120.301 244.25C120.272 244.326 120.261 244.408 120.269 244.488V245.436H119.917V243.588H120.25V243.87C120.334 243.77 120.441 243.69 120.563 243.638C120.686 243.586 120.82 243.563 120.953 243.57C121.068 243.559 121.183 243.572 121.29 243.61C121.398 243.648 121.495 243.709 121.574 243.789C121.653 243.868 121.712 243.964 121.746 244.069C121.78 244.173 121.788 244.284 121.77 244.392Z" fill="#263238"/>
<path d="M122.253 244.53C122.251 244.403 122.275 244.276 122.326 244.158C122.377 244.04 122.453 243.934 122.549 243.845C122.646 243.757 122.76 243.688 122.885 243.644C123.01 243.6 123.144 243.581 123.277 243.588C123.434 243.58 123.59 243.613 123.73 243.682C123.869 243.752 123.986 243.856 124.068 243.984L123.798 244.146C123.74 244.064 123.661 243.997 123.569 243.951C123.477 243.905 123.375 243.881 123.271 243.882C123.101 243.898 122.944 243.973 122.83 244.093C122.715 244.214 122.652 244.371 122.652 244.533C122.652 244.696 122.715 244.853 122.83 244.973C122.944 245.093 123.101 245.169 123.271 245.184C123.375 245.185 123.477 245.162 123.569 245.116C123.661 245.07 123.74 245.003 123.798 244.92L124.068 245.076C123.986 245.205 123.87 245.31 123.73 245.381C123.591 245.452 123.435 245.485 123.277 245.478C123.143 245.485 123.01 245.465 122.885 245.42C122.759 245.375 122.645 245.306 122.549 245.217C122.453 245.128 122.377 245.021 122.326 244.903C122.276 244.785 122.251 244.658 122.253 244.53Z" fill="#263238"/>
<path d="M126.229 244.644H124.659C124.666 244.724 124.691 244.802 124.731 244.873C124.771 244.944 124.825 245.006 124.891 245.057C124.956 245.107 125.032 245.144 125.113 245.166C125.194 245.188 125.279 245.194 125.362 245.184C125.466 245.188 125.57 245.17 125.667 245.131C125.763 245.093 125.85 245.035 125.921 244.962L126.116 245.178C126.018 245.278 125.899 245.356 125.767 245.408C125.635 245.46 125.492 245.484 125.349 245.478C125.214 245.487 125.079 245.47 124.951 245.426C124.824 245.382 124.707 245.313 124.609 245.224C124.511 245.135 124.433 245.027 124.381 244.908C124.329 244.788 124.304 244.66 124.307 244.53C124.302 244.406 124.323 244.282 124.37 244.167C124.417 244.051 124.488 243.946 124.58 243.857C124.671 243.769 124.78 243.7 124.901 243.653C125.021 243.607 125.151 243.585 125.28 243.588C125.411 243.584 125.54 243.607 125.661 243.654C125.781 243.701 125.89 243.772 125.98 243.862C126.07 243.952 126.139 244.059 126.183 244.176C126.227 244.293 126.245 244.418 126.235 244.542C126.236 244.576 126.234 244.61 126.229 244.644ZM124.659 244.404H125.915C125.915 244.245 125.849 244.092 125.731 243.98C125.613 243.867 125.453 243.804 125.287 243.804C125.12 243.804 124.96 243.867 124.843 243.98C124.725 244.092 124.659 244.245 124.659 244.404Z" fill="#263238"/>
<path d="M103.803 248.196V254.016H102.39V249.276H101.171V248.196H103.803Z" fill="#263238"/>
<path d="M106.509 253.272C106.496 253.561 106.417 253.844 106.277 254.1L105.775 255.3H104.914L105.297 253.98C105.152 253.923 105.028 253.825 104.944 253.698C104.86 253.571 104.819 253.422 104.826 253.272C104.826 253.059 104.915 252.855 105.073 252.704C105.231 252.553 105.445 252.468 105.668 252.468C105.891 252.468 106.105 252.553 106.263 252.704C106.421 252.855 106.509 253.059 106.509 253.272Z" fill="#263238"/>
<path d="M109.392 248.196V254.016H107.948V249.276H106.729V248.196H109.392Z" fill="#263238"/>
<path d="M110.422 251.106C110.422 249.186 111.533 248.106 113.034 248.106C114.535 248.106 115.647 249.198 115.647 251.106C115.647 253.014 114.542 254.106 113.034 254.106C111.527 254.106 110.422 253.026 110.422 251.106ZM114.228 251.106C114.228 249.786 113.738 249.234 113.034 249.234C112.331 249.234 111.847 249.786 111.847 251.106C111.847 252.426 112.337 252.978 113.034 252.978C113.731 252.978 114.228 252.432 114.228 251.106Z" fill="#263238"/>
<path d="M116.331 251.106C116.331 249.186 117.449 248.106 118.95 248.106C120.451 248.106 121.563 249.198 121.563 251.106C121.563 253.014 120.457 254.106 118.95 254.106C117.443 254.106 116.331 253.026 116.331 251.106ZM120.143 251.106C120.143 249.786 119.654 249.234 118.95 249.234C118.247 249.234 117.763 249.786 117.763 251.106C117.763 252.426 118.253 252.978 118.95 252.978C119.647 252.978 120.143 252.432 120.143 251.106Z" fill="#263238"/>
<path d="M132.917 251.454V254.016H131.56V251.658C131.56 250.932 131.221 250.596 130.669 250.596C130.116 250.596 129.632 250.974 129.632 251.796V254.04H128.276V251.682C128.276 250.956 127.956 250.62 127.39 250.62C126.825 250.62 126.361 250.998 126.361 251.82V254.064H125.004V249.528H126.298V250.044C126.482 249.847 126.71 249.69 126.966 249.587C127.221 249.483 127.497 249.434 127.774 249.444C128.074 249.429 128.374 249.489 128.644 249.617C128.913 249.745 129.144 249.938 129.312 250.176C129.517 249.94 129.776 249.751 130.068 249.624C130.361 249.497 130.68 249.436 131.001 249.444C132.119 249.474 132.917 250.092 132.917 251.454Z" fill="#263238"/>
<path d="M97.4251 248.875C98.0895 246.175 96.3372 243.472 93.5112 242.837C90.6853 242.202 87.8558 243.877 87.1914 246.576C86.527 249.276 88.2793 251.98 91.1053 252.615C93.9312 253.249 96.7607 251.575 97.4251 248.875Z" fill="#EA1D2C"/>
<path d="M90.1878 248.652C90.6348 248.591 91.0864 248.565 91.538 248.574C92.3983 248.574 93.6292 248.532 95.0987 248.52L94.992 248.742C94.5712 248.286 94.1253 247.782 93.648 247.26L93.5664 247.17L93.648 247.068L94.9731 245.49L95.0987 245.742H94.4707H90.1564L90.3071 245.604C90.3071 247.128 90.2694 248.412 90.2443 249.312C90.2547 249.788 90.2253 250.263 90.1564 250.734C90.0914 250.263 90.062 249.788 90.0684 249.312C90.0684 248.412 90.0245 247.128 90.0119 245.604V245.466H90.1564H94.4707H95.4064L95.1929 245.718L93.8553 247.296V247.104L95.1741 248.604L95.375 248.826H95.0673C93.5978 248.826 92.3669 248.79 91.5066 248.772C91.0642 248.768 90.6229 248.728 90.1878 248.652Z" fill="#FAFAFA"/>
<path d="M177.354 239.166H161.466C160.658 239.166 159.883 239.473 159.312 240.019C158.741 240.564 158.42 241.304 158.42 242.076V254.028C158.422 254.799 158.743 255.538 159.314 256.082C159.885 256.626 160.659 256.932 161.466 256.932H161.868V259.782L165.328 256.932H177.354C178.161 256.932 178.935 256.626 179.506 256.082C180.077 255.538 180.398 254.799 180.4 254.028V242.076C180.4 241.304 180.079 240.564 179.508 240.019C178.937 239.473 178.162 239.166 177.354 239.166Z" fill="#EA1D2C"/>
<path d="M162.979 244.65V250.782C162.979 250.846 163.006 250.907 163.053 250.952C163.1 250.997 163.164 251.022 163.23 251.022H176.682C176.715 251.021 176.748 251.014 176.778 251.002C176.808 250.989 176.835 250.971 176.858 250.948C176.881 250.925 176.899 250.898 176.91 250.869C176.922 250.839 176.928 250.808 176.927 250.776L176.896 248.532C176.897 248.483 176.881 248.435 176.852 248.394L174.918 245.928C174.895 245.899 174.866 245.874 174.832 245.858C174.799 245.841 174.761 245.832 174.723 245.832H172.5C172.434 245.832 172.371 245.808 172.324 245.764C172.277 245.72 172.25 245.661 172.249 245.598V244.668C172.249 244.637 172.244 244.606 172.232 244.577C172.22 244.548 172.202 244.521 172.179 244.499C172.156 244.476 172.129 244.459 172.099 244.447C172.069 244.434 172.036 244.428 172.004 244.428H163.212C163.151 244.432 163.095 244.457 163.052 244.498C163.009 244.539 162.984 244.593 162.979 244.65Z" fill="#FAFAFA"/>
<path d="M172.877 246.354V248.328C172.877 248.365 172.892 248.4 172.919 248.426C172.946 248.452 172.983 248.466 173.021 248.466L175.991 248.418C176.017 248.417 176.042 248.41 176.064 248.396C176.086 248.383 176.103 248.364 176.115 248.342C176.126 248.32 176.131 248.295 176.129 248.271C176.128 248.246 176.119 248.223 176.104 248.202L174.704 246.234C174.692 246.215 174.674 246.199 174.653 246.189C174.632 246.178 174.608 246.173 174.585 246.174L173.002 246.216C172.967 246.219 172.934 246.235 172.91 246.261C172.887 246.287 172.875 246.32 172.877 246.354Z" fill="#EA1D2C"/>
<path d="M177.197 251.208H162.709V251.634H177.197V251.208Z" fill="#FAFAFA"/>
<path d="M167.501 251.37C167.502 251.642 167.419 251.909 167.261 252.136C167.104 252.363 166.879 252.54 166.616 252.644C166.353 252.749 166.063 252.777 165.784 252.724C165.504 252.671 165.247 252.54 165.046 252.348C164.844 252.155 164.707 251.91 164.652 251.643C164.597 251.376 164.626 251.099 164.735 250.848C164.845 250.596 165.03 250.382 165.268 250.231C165.505 250.081 165.784 250.001 166.069 250.002C166.449 250.002 166.813 250.146 167.081 250.403C167.35 250.659 167.501 251.007 167.501 251.37Z" fill="#EA1D2C"/>
<path d="M166.911 251.37C166.912 251.531 166.863 251.688 166.77 251.822C166.678 251.957 166.545 252.061 166.39 252.123C166.235 252.185 166.064 252.202 165.899 252.171C165.734 252.14 165.582 252.063 165.463 251.949C165.344 251.835 165.263 251.69 165.231 251.533C165.198 251.375 165.216 251.212 165.281 251.063C165.346 250.915 165.455 250.789 165.596 250.7C165.736 250.612 165.901 250.565 166.069 250.566C166.292 250.566 166.506 250.651 166.664 250.802C166.822 250.952 166.911 251.157 166.911 251.37Z" fill="#FAFAFA"/>
<path d="M172.242 251.022C172.204 251.022 172.173 249.54 172.173 247.716C172.173 245.892 172.173 244.41 172.242 244.41C172.31 244.41 172.304 245.892 172.304 247.716C172.304 249.54 172.273 251.022 172.242 251.022Z" fill="#EA1D2C"/>
<path d="M175.332 251.37C175.332 251.641 175.248 251.905 175.091 252.13C174.933 252.355 174.71 252.531 174.448 252.634C174.186 252.738 173.899 252.765 173.621 252.712C173.343 252.659 173.088 252.529 172.888 252.338C172.687 252.146 172.551 251.902 172.496 251.637C172.441 251.372 172.469 251.097 172.577 250.847C172.686 250.597 172.869 250.383 173.105 250.233C173.34 250.082 173.617 250.002 173.9 250.002C174.28 250.002 174.644 250.146 174.913 250.403C175.181 250.659 175.332 251.007 175.332 251.37Z" fill="#EA1D2C"/>
<path d="M174.704 251.37C174.705 251.531 174.657 251.688 174.564 251.822C174.472 251.956 174.34 252.061 174.185 252.123C174.03 252.185 173.86 252.202 173.695 252.171C173.53 252.141 173.378 252.064 173.259 251.951C173.14 251.838 173.058 251.694 173.025 251.536C172.992 251.379 173.008 251.216 173.072 251.068C173.136 250.919 173.245 250.792 173.385 250.703C173.524 250.614 173.688 250.566 173.856 250.566C174.08 250.566 174.295 250.651 174.453 250.801C174.612 250.952 174.702 251.156 174.704 251.37Z" fill="#FAFAFA"/>
<path d="M173.881 248.844C173.881 248.88 173.674 248.904 173.423 248.904C173.172 248.904 172.964 248.904 172.964 248.844C172.964 248.784 173.172 248.778 173.423 248.778C173.674 248.778 173.881 248.808 173.881 248.844Z" fill="#EA1D2C"/>
<path d="M323.754 148.206C323.754 148.206 333.883 149.838 334.7 150.048C335.516 150.258 338.725 151.71 338.888 152.646C338.973 153.875 338.973 155.108 338.888 156.336C338.888 156.336 338.304 156.786 337.946 155.886C337.706 155.012 337.602 154.108 337.639 153.204L335.843 152.544L336.822 154.206L336.985 158.1C336.985 158.1 335.729 157.992 335.485 157.062C335.331 156.414 335.251 155.753 335.246 155.088L333.94 154.032L334.919 155.298L335.246 158.1C335.246 158.1 334.291 158.4 333.99 157.776C333.769 156.967 333.659 156.134 333.663 155.298L329.971 154.062L327.528 155.364L322.962 152.928L323.754 148.206Z" fill="#FFBE9D"/>
<path d="M288.284 124.284C288.334 124.476 300.492 140.484 300.492 140.484L324.922 147.744L323.81 156.51L293.873 150.75L283.247 139.098L288.284 124.284Z" fill="#EA1D2C"/>
<g opacity="0.2">
<path d="M288.284 124.284C288.334 124.476 300.492 140.484 300.492 140.484L324.922 147.744L323.81 156.51L293.873 150.75L283.247 139.098L288.284 124.284Z" fill="black"/>
</g>
<path d="M245.731 146.298H195.817C194.759 146.298 193.902 147.118 193.902 148.128V153.762C193.902 154.773 194.759 155.592 195.817 155.592H245.731C246.789 155.592 247.646 154.773 247.646 153.762V148.128C247.646 147.118 246.789 146.298 245.731 146.298Z" fill="#F5F5F5"/>
<path d="M245.737 155.592C245.737 155.592 245.844 155.592 246.051 155.55C246.45 155.48 246.815 155.289 247.091 155.004C247.367 154.72 247.54 154.358 247.583 153.972C247.583 153.408 247.583 152.736 247.583 151.992C247.583 151.248 247.583 150.414 247.583 149.508C247.583 149.052 247.583 148.578 247.583 148.086C247.575 147.843 247.515 147.603 247.407 147.383C247.299 147.162 247.146 146.965 246.955 146.802C246.749 146.636 246.507 146.515 246.246 146.448C245.968 146.39 245.682 146.372 245.398 146.394H243.564H239.576L195.861 146.442C195.617 146.442 195.375 146.49 195.151 146.584C194.927 146.678 194.726 146.816 194.561 146.988C194.398 147.163 194.274 147.367 194.196 147.589C194.119 147.811 194.089 148.045 194.109 148.278C194.109 149.286 194.109 150.288 194.109 151.278V153.528C194.097 153.758 194.118 153.988 194.172 154.212C194.266 154.537 194.459 154.827 194.726 155.046C194.993 155.265 195.323 155.403 195.673 155.442C195.893 155.442 196.163 155.442 196.414 155.442H208.019L227.67 155.478L240.92 155.526L244.525 155.556L240.92 155.586L227.67 155.634L208.019 155.67H196.37C196.113 155.67 195.874 155.67 195.591 155.67C195.318 155.639 195.054 155.557 194.813 155.43C194.572 155.303 194.361 155.131 194.191 154.925C194.02 154.719 193.894 154.483 193.82 154.23C193.753 153.98 193.727 153.72 193.745 153.462V151.236C193.745 150.246 193.745 149.244 193.745 148.236C193.728 147.964 193.768 147.692 193.862 147.434C193.955 147.177 194.101 146.94 194.291 146.736C194.486 146.531 194.723 146.367 194.988 146.255C195.253 146.144 195.54 146.087 195.83 146.088L239.545 146.136H245.367C245.668 146.124 245.97 146.149 246.265 146.208C246.552 146.283 246.818 146.418 247.043 146.604C247.256 146.78 247.427 146.996 247.547 147.239C247.667 147.482 247.733 147.746 247.74 148.014C247.74 148.506 247.74 148.986 247.74 149.442C247.74 150.348 247.74 151.176 247.74 151.926C247.74 152.676 247.74 153.33 247.709 153.918C247.639 154.416 247.366 154.867 246.949 155.172C246.695 155.354 246.397 155.472 246.082 155.514C245.972 155.558 245.856 155.584 245.737 155.592Z" fill="#263238"/>
<path d="M381.262 274.353C395.428 273.702 406.36 262.204 405.679 248.67C404.999 235.136 392.964 224.691 378.798 225.341C364.632 225.991 353.7 237.49 354.38 251.024C355.061 264.558 367.096 275.003 381.262 274.353Z" fill="#263238"/>
<path d="M354.362 249.432C354.362 249.432 354.362 249.474 354.362 249.498C354.305 255.979 356.935 262.218 361.676 266.853C366.418 271.488 372.887 274.142 379.67 274.236C386.453 274.329 392.999 271.855 397.878 267.352C402.758 262.85 405.575 256.686 405.714 250.206C405.714 250.206 405.714 250.164 405.714 250.14L354.362 249.432Z" fill="#263238"/>
<path d="M362.005 249.6C361.953 253.007 362.96 256.352 364.898 259.212C366.836 262.072 369.618 264.319 372.893 265.668C376.167 267.017 379.787 267.409 383.294 266.792C386.801 266.176 390.039 264.58 392.596 262.206C395.154 259.832 396.918 256.786 397.664 253.455C398.41 250.123 398.105 246.655 396.788 243.489C395.471 240.322 393.201 237.6 390.265 235.667C387.328 233.733 383.858 232.675 380.292 232.626C375.511 232.561 370.899 234.312 367.47 237.495C364.04 240.678 362.074 245.033 362.005 249.6Z" fill="#FAFAFA"/>
<path d="M380.292 232.626C375.511 232.561 370.899 234.312 367.47 237.495C364.04 240.678 362.074 245.033 362.005 249.6L398.058 250.098C398.127 245.531 396.294 241.124 392.962 237.847C389.631 234.571 385.073 232.693 380.292 232.626Z" fill="#E0E0E0"/>
<path d="M369.051 249.696C369.019 251.772 369.632 253.81 370.812 255.552C371.992 257.295 373.687 258.664 375.682 259.486C377.677 260.309 379.882 260.548 382.019 260.172C384.155 259.797 386.128 258.825 387.686 257.379C389.245 255.933 390.319 254.078 390.774 252.048C391.229 250.018 391.043 247.905 390.241 245.976C389.439 244.047 388.056 242.389 386.267 241.211C384.478 240.033 382.364 239.388 380.192 239.358C377.28 239.318 374.47 240.385 372.381 242.323C370.292 244.262 369.094 246.914 369.051 249.696Z" fill="#263238"/>
<path d="M367.845 213.876C367.845 213.876 394.133 206.28 405.004 233.568L349.991 249.852L367.845 213.876Z" fill="#EA1D2C"/>
<path d="M222.83 274.355C236.996 273.705 247.928 262.206 247.248 248.672C246.567 235.138 234.532 224.693 220.366 225.344C206.201 225.994 195.269 237.492 195.949 251.026C196.629 264.561 208.665 275.005 222.83 274.355Z" fill="#263238"/>
<path d="M195.924 249.432C195.924 249.432 195.924 249.474 195.924 249.498C195.867 255.979 198.497 262.218 203.238 266.853C207.98 271.488 214.449 274.142 221.232 274.236C228.015 274.329 234.561 271.855 239.44 267.352C244.32 262.85 247.137 256.686 247.276 250.206V250.128L195.924 249.432Z" fill="#263238"/>
<path d="M203.592 249.6C203.54 253.007 204.547 256.352 206.485 259.212C208.423 262.072 211.205 264.319 214.48 265.668C217.754 267.017 221.374 267.409 224.881 266.792C228.388 266.176 231.626 264.58 234.183 262.206C236.741 259.832 238.505 256.786 239.251 253.455C239.997 250.123 239.692 246.655 238.375 243.489C237.058 240.322 234.788 237.6 231.852 235.667C228.915 233.733 225.445 232.675 221.879 232.626C217.098 232.561 212.486 234.312 209.057 237.495C205.627 240.678 203.661 245.033 203.592 249.6Z" fill="#FAFAFA"/>
<path d="M221.854 232.626C217.078 232.567 212.472 234.321 209.048 237.504C205.624 240.686 203.661 245.037 203.592 249.6L239.645 250.098C239.68 247.835 239.246 245.587 238.37 243.483C237.494 241.379 236.193 239.461 234.541 237.839C232.888 236.216 230.917 234.92 228.74 234.026C226.564 233.132 224.224 232.656 221.854 232.626Z" fill="#E0E0E0"/>
<path d="M210.613 249.696C210.581 251.772 211.194 253.81 212.374 255.552C213.554 257.295 215.249 258.664 217.244 259.486C219.239 260.309 221.444 260.548 223.581 260.172C225.717 259.797 227.69 258.825 229.248 257.379C230.807 255.933 231.881 254.078 232.336 252.048C232.791 250.018 232.605 247.905 231.803 245.976C231.001 244.047 229.618 242.389 227.829 241.211C226.04 240.033 223.926 239.388 221.754 239.358C218.842 239.318 216.032 240.385 213.943 242.323C211.854 244.262 210.656 246.914 210.613 249.696Z" fill="#263238"/>
<path d="M258.121 240C257.977 240.072 244.607 238.026 244.607 238.026C243.884 238.928 242.964 239.668 241.91 240.194C240.857 240.721 239.696 241.021 238.509 241.074C232.731 241.338 227.085 241.584 222.181 241.794C219.989 241.888 217.926 242.807 216.443 244.351C214.96 245.895 214.178 247.938 214.268 250.032C214.356 252.02 215.223 253.903 216.697 255.308C218.171 256.713 220.144 257.537 222.225 257.616L250.692 258.69C255.371 258.864 261.588 256.152 264.508 252.654L258.121 240Z" fill="#455A64"/>
<path d="M188.256 229.128C188.256 229.128 187.038 205.218 210.557 200.238V197.172H292.938V204.528C292.938 204.528 280.849 218.442 284.774 229.992C288.699 241.542 289.955 242.724 289.955 242.724H336.841C340.541 237.756 342.603 231.846 342.763 225.75C343.014 215.61 338.606 198.276 335.309 187.194C332.332 177.084 330.448 168.66 330.448 168.66L344.515 164.178C344.515 164.178 370.546 196.728 371.607 198.528C372.668 200.328 376.286 204.624 375.438 213.972C374.59 223.32 351.172 252.156 345.03 255.408C338.888 258.66 333.337 258.864 327.804 259.674C323.006 260.382 287.512 259.914 278.224 259.776C274.996 259.757 271.832 258.918 269.055 257.346C266.279 255.738 264.194 253.074 261.889 248.706L256.972 239.562L188.256 229.128Z" fill="#EA1D2C"/>
<path d="M194.561 227.484L184.187 243.012C183.879 243.443 183.726 243.957 183.751 244.478C183.777 244.999 183.979 245.498 184.327 245.899C184.675 246.3 185.151 246.582 185.682 246.702C186.213 246.822 186.771 246.774 187.27 246.564C188.561 246.013 189.741 245.249 190.756 244.308C195.497 239.994 203.944 228.63 203.944 228.63L194.561 227.484Z" fill="#455A64"/>
<path d="M268.973 230.28C268.973 230.28 268.973 230.202 269.036 230.052L269.243 229.398C269.493 228.559 269.675 227.702 269.789 226.836C270.137 223.631 269.582 220.396 268.182 217.464C267.24 215.441 265.947 213.585 264.357 211.974C262.532 210.134 260.412 208.583 258.077 207.378C255.49 206.043 252.721 205.058 249.85 204.45C246.755 203.812 243.597 203.5 240.43 203.52C237.278 203.542 234.131 203.765 231.01 204.186C227.971 204.576 225.057 205.056 222.306 205.656C217.423 206.647 212.716 208.31 208.333 210.594C205.39 212.155 202.701 214.117 200.351 216.42C199.523 217.236 198.926 217.914 198.53 218.376L198.084 218.91C198.037 218.974 197.982 219.032 197.921 219.084C198.614 218.105 199.396 217.185 200.257 216.336C202.587 213.99 205.271 211.989 208.22 210.402C212.611 208.077 217.336 206.383 222.244 205.374C224.994 204.774 227.896 204.276 230.967 203.88C234.112 203.455 237.285 203.23 240.462 203.208C243.645 203.188 246.821 203.504 249.932 204.15C252.831 204.779 255.625 205.789 258.234 207.15C260.602 208.372 262.749 209.948 264.596 211.818C266.197 213.457 267.495 215.344 268.433 217.398C269.828 220.369 270.353 223.645 269.953 226.878C269.821 227.748 269.611 228.605 269.325 229.44C269.224 229.716 269.149 229.926 269.086 230.088C269.054 230.155 269.017 230.219 268.973 230.28Z" fill="#263238"/>
<path d="M264.232 224.928C264.194 224.928 264.364 224.55 264.539 223.866C264.775 222.882 264.807 221.863 264.634 220.866C264.389 219.401 263.87 217.991 263.101 216.702C262.666 215.931 262.157 215.2 261.581 214.518C260.979 213.777 260.294 213.099 259.54 212.496C258.071 211.34 256.417 210.417 254.642 209.76C253.19 209.216 251.683 208.814 250.146 208.56C249.106 208.393 248.058 208.278 247.006 208.218C246.619 208.213 246.233 208.185 245.85 208.134C245.95 208.12 246.052 208.12 246.152 208.134C246.346 208.134 246.635 208.134 247.012 208.134C248.063 208.149 249.112 208.231 250.152 208.38C251.714 208.594 253.247 208.971 254.724 209.502C256.545 210.157 258.242 211.092 259.748 212.268C260.516 212.887 261.215 213.581 261.833 214.338C262.41 215.039 262.921 215.788 263.359 216.576C264.136 217.897 264.643 219.347 264.853 220.848C265.009 221.862 264.943 222.896 264.659 223.884C264.584 224.151 264.483 224.41 264.357 224.658C264.329 224.753 264.287 224.844 264.232 224.928Z" fill="#F5F5F5"/>
<g opacity="0.4">
<path d="M248.098 203.964C252.532 204.738 256.754 206.372 260.501 208.764C264.27 211.155 267.172 214.6 268.81 218.628C270.455 222.672 270.21 228.03 268.477 231.378L274.298 231.84C276.258 225.594 274.129 217.932 269.419 213.042C266.724 210.191 263.436 207.908 259.764 206.341C256.093 204.774 252.119 203.956 248.098 203.94" fill="black"/>
</g>
<path d="M246.239 155.124H195.315C192.339 155.124 189.927 157.429 189.927 160.272V192.042C189.927 194.885 192.339 197.19 195.315 197.19H246.239C249.215 197.19 251.628 194.885 251.628 192.042V160.272C251.628 157.429 249.215 155.124 246.239 155.124Z" fill="#455A64"/>
<path d="M251.628 164.508C251.628 164.598 237.755 164.664 220.648 164.664C203.542 164.664 189.663 164.598 189.663 164.508C189.663 164.418 203.529 164.352 220.648 164.352C237.768 164.352 251.628 164.424 251.628 164.508Z" fill="#263238"/>
<path d="M292.9 199.974C292.9 200.058 274.38 200.13 251.546 200.13C228.712 200.13 210.192 200.058 210.192 199.974C210.192 199.89 228.706 199.818 251.546 199.818C274.386 199.818 292.9 199.89 292.9 199.974Z" fill="#263238"/>
<path d="M292.938 197.19C293.777 196.174 294.295 194.95 294.432 193.662C294.558 191.688 293.616 189.216 291.386 189.216H262.938C260.724 189.216 258.602 190.056 257.036 191.552C255.471 193.047 254.592 195.075 254.592 197.19H292.938Z" fill="#455A64"/>
<path d="M330.448 168.66L325.499 158.802C324.839 157.449 324.73 155.909 325.195 154.483C325.659 153.057 326.664 151.848 328.011 151.092L342.807 142.662C343.579 142.219 344.462 141.984 345.363 141.984H348.56L349.816 161.91L344.892 163.728L348.032 168.576L330.448 168.66Z" fill="#EA1D2C"/>
<path d="M348.603 142.728C348.603 142.728 353.665 143.838 354.299 151.29C354.934 158.742 349.834 161.07 349.834 161.07L348.603 142.728Z" fill="#EBEBEB"/>
<path d="M332.175 154.938C332.175 154.938 321.945 159.57 320.695 160.338C319.828 160.866 319.087 161.79 319.766 163.416C320.921 166.182 325.707 163.578 325.707 163.578L335.233 159.03C335.233 159.03 338.895 157.38 337.538 155.31C336.025 152.994 332.175 154.938 332.175 154.938Z" fill="#263238"/>
<path d="M317.693 153.252C317.693 153.252 327.308 154.824 328.124 155.052C328.941 155.28 332.144 156.714 332.307 157.65C332.392 158.879 332.392 160.112 332.307 161.34C332.307 161.34 331.729 161.79 331.365 160.89C331.128 160.013 331.024 159.108 331.057 158.202L329.261 157.542L330.241 159.204L330.404 163.104C330.404 163.104 329.148 162.996 328.909 162.06C328.755 161.414 328.675 160.755 328.671 160.092L327.358 159.03L328.338 160.296L328.671 163.104C328.671 163.104 327.716 163.398 327.415 162.774C327.194 161.965 327.084 161.132 327.088 160.296L323.396 159.066L320.953 160.368L317.109 158.328L317.693 153.252Z" fill="#FFBE9D"/>
<path d="M332.665 140.46C332.665 144.18 330.875 147.192 328.671 147.192C326.466 147.192 324.677 144.192 324.677 140.46C324.677 136.728 326.46 133.728 328.671 133.728C330.881 133.728 332.665 136.728 332.665 140.46Z" fill="#263238"/>
<path d="M329.324 145.086L331.522 152.358C331.923 152.165 332.243 151.847 332.429 151.456C332.615 151.066 332.657 150.626 332.546 150.21C331.993 147.72 331.679 145.95 331.076 143.766C331.001 143.55 329.324 145.086 329.324 145.086Z" fill="#263238"/>
<g opacity="0.4">
<path d="M285.86 233.07C285.646 232.47 285.42 231.87 285.232 231.228C285.044 230.586 284.805 230.028 284.642 229.428C284.388 228.528 284.204 227.612 284.089 226.686C280.384 241.086 286.042 251.244 295.751 251.958C309.944 253.002 327.245 253.758 334.241 252.006C346.996 248.808 351.674 238.644 352.792 236.97C353.91 235.296 364.052 217.578 357.816 200.52C351.58 183.462 340.766 165.348 340.766 165.348L330.448 168.66C330.448 168.66 332.332 177.06 335.328 187.164C338.625 198.246 343.033 215.58 342.782 225.72C342.622 231.816 340.56 237.726 336.86 242.694H289.98C289.98 242.694 288.975 241.734 285.879 233.094" fill="black"/>
</g>
<path d="M186.385 225.396L186.718 221.976L272.301 231.396C273.445 231.525 274.55 231.875 275.546 232.426C276.543 232.977 277.412 233.717 278.099 234.6C278.786 235.484 279.276 236.492 279.541 237.563C279.805 238.634 279.838 239.745 279.637 240.828L279.253 242.898L190.705 230.604C189.421 230.436 188.254 229.801 187.449 228.83C186.644 227.86 186.263 226.629 186.385 225.396Z" fill="#EA1D2C"/>
<g opacity="0.6">
<path d="M186.385 225.396L186.718 221.976L272.301 231.396C273.445 231.525 274.55 231.875 275.546 232.426C276.543 232.977 277.412 233.717 278.099 234.6C278.786 235.484 279.276 236.492 279.541 237.563C279.805 238.634 279.838 239.745 279.637 240.828L279.253 242.898L190.705 230.604C189.421 230.436 188.254 229.801 187.449 228.83C186.644 227.86 186.263 226.629 186.385 225.396Z" fill="black"/>
</g>
<g opacity="0.3">
<path d="M352.792 248.268C352.792 248.268 371.632 228.468 375.52 212.904C377.473 212.893 379.424 213.032 381.354 213.318C381.354 213.318 370.213 242.256 352.792 248.268Z" fill="black"/>
</g>
<path d="M375.243 205.932C375.292 206.095 375.326 206.262 375.344 206.43C375.394 206.76 375.494 207.246 375.557 207.876C375.741 209.675 375.692 211.489 375.413 213.276C374.97 215.916 374.124 218.48 372.901 220.884C371.408 223.812 369.744 226.656 367.914 229.404C364.632 234.419 360.945 239.181 356.887 243.648C355.354 245.382 354.086 246.762 353.207 247.71L352.189 248.796C352.074 248.925 351.95 249.048 351.819 249.162C351.912 249.019 352.019 248.884 352.139 248.76L353.113 247.632L356.711 243.51C360.705 239.009 364.357 234.241 367.638 229.242C369.469 226.504 371.146 223.674 372.662 220.764C373.869 218.383 374.715 215.85 375.174 213.24C375.463 211.478 375.545 209.691 375.419 207.912C375.375 207.282 375.293 206.796 375.268 206.46C375.242 206.285 375.233 206.109 375.243 205.932Z" fill="#263238"/>
<path d="M342.675 248.124C341.596 247.336 340.586 246.465 339.654 245.52C338.649 244.65 337.716 243.705 336.866 242.694C338.952 244.352 340.895 246.168 342.675 248.124Z" fill="#263238"/>
<path d="M286.758 247.518C287.061 246.594 287.531 245.727 288.146 244.956C288.67 244.127 289.339 243.39 290.124 242.778C290.193 242.844 289.333 243.828 288.416 245.13C287.499 246.432 286.846 247.554 286.758 247.518Z" fill="#263238"/>
<path d="M250.56 258.948C251.59 258.051 252.458 256.996 253.129 255.828C253.832 254.553 254.259 253.155 254.385 251.718C254.575 249.967 254.255 248.199 253.459 246.611C252.663 245.022 251.423 243.675 249.876 242.718C248.628 241.909 247.223 241.347 245.743 241.068C244.372 240.832 242.97 240.813 241.592 241.014C241.681 240.978 241.774 240.952 241.869 240.936C242.141 240.868 242.418 240.816 242.698 240.78C243.725 240.649 244.768 240.673 245.787 240.852C247.309 241.109 248.758 241.662 250.045 242.478C251.654 243.455 252.943 244.844 253.764 246.488C254.584 248.132 254.904 249.963 254.686 251.772C254.542 253.247 254.08 254.677 253.33 255.972C252.836 256.843 252.2 257.633 251.446 258.312C251.248 258.499 251.038 258.673 250.818 258.834C250.737 258.882 250.65 258.92 250.56 258.948Z" fill="#263238"/>
<path d="M219.291 252.678C219.076 251.732 218.973 250.766 218.984 249.798C218.876 248.833 218.876 247.86 218.984 246.894C219.297 248.807 219.394 250.746 219.272 252.678H219.291Z" fill="#263238"/>
<path d="M221.578 252.684C221.108 250.783 220.849 248.841 220.805 246.888C221.092 247.827 221.275 248.793 221.352 249.768C221.534 250.73 221.61 251.707 221.578 252.684Z" fill="#263238"/>
<path d="M256.878 197.19C256.878 197.274 246.472 197.346 233.642 197.346C220.812 197.346 210.406 197.274 210.406 197.19C210.406 197.106 220.812 197.034 233.642 197.034C246.472 197.034 256.878 197.1 256.878 197.19Z" fill="#263238"/>
<path d="M223.179 197.16C223.085 197.16 223.016 185.76 223.016 171.732C223.016 157.704 223.06 146.328 223.179 146.328C223.298 146.328 223.342 157.728 223.342 171.762C223.342 185.796 223.267 197.16 223.179 197.16Z" fill="#263238"/>
<path d="M216.78 197.118C216.692 197.118 217.138 185.718 217.778 171.702C218.419 157.686 219.035 146.292 219.097 146.298C219.16 146.304 218.746 157.698 218.105 171.714C217.464 185.73 216.899 197.124 216.78 197.118Z" fill="#263238"/>
<path d="M202.393 266.508C202.291 266.427 202.199 266.337 202.116 266.238C201.953 266.058 201.683 265.8 201.388 265.434C200.52 264.415 199.744 263.327 199.07 262.182C196.797 258.391 195.61 254.094 195.629 249.725C195.648 245.355 196.872 241.068 199.177 237.294C199.858 236.153 200.642 235.071 201.52 234.06C201.821 233.694 202.091 233.46 202.261 233.256C202.43 233.052 202.531 232.986 202.537 232.998C202.475 233.107 202.399 233.208 202.311 233.298C202.16 233.496 201.903 233.76 201.62 234.138C198.399 238.059 196.458 242.8 196.04 247.768C195.622 252.737 196.746 257.713 199.271 262.074C199.922 263.221 200.663 264.318 201.488 265.356C201.765 265.734 202.016 266.004 202.166 266.202C202.317 266.4 202.405 266.496 202.393 266.508Z" fill="#455A64"/>
<path d="M292.36 220.794L292.165 221.142L288.372 227.928L283.072 232.8L293.666 246.276L302.489 244.878C302.489 244.878 301.503 242.952 297.07 242.58L295.393 234.528L301.617 225.312" fill="#455A64"/>
<path d="M283.084 232.818L293.679 246.294L302.502 244.896L301.29 243.786L294.049 244.542L284.215 231.78L283.084 232.818Z" fill="#E0E0E0"/>
<path d="M296.379 238.896C296.329 238.992 295.751 238.794 295.123 238.926C294.495 239.058 293.986 239.4 293.905 239.328C293.823 239.256 294.219 238.692 295.048 238.554C295.877 238.416 296.448 238.818 296.379 238.896Z" fill="#263238"/>
<path d="M295.908 236.928C295.833 237 295.349 236.568 294.652 236.544C293.955 236.52 293.396 236.922 293.339 236.844C293.283 236.766 293.383 236.658 293.61 236.484C293.915 236.271 294.286 236.161 294.665 236.172C295.043 236.182 295.407 236.315 295.694 236.55C295.864 236.718 295.908 236.88 295.908 236.928Z" fill="#263238"/>
<path d="M295.5 234.318C295.412 234.384 295.022 233.946 294.376 233.838C293.729 233.73 293.208 234.012 293.12 233.922C293.032 233.832 293.176 233.748 293.409 233.622C293.715 233.467 294.068 233.415 294.409 233.473C294.751 233.532 295.062 233.699 295.293 233.946C295.506 234.138 295.544 234.294 295.5 234.318Z" fill="#263238"/>
<path d="M297.509 231.948C297.415 231.996 297.082 231.558 296.473 231.306C295.864 231.054 295.311 231.09 295.286 230.988C295.261 230.886 295.914 230.64 296.636 230.988C297.359 231.336 297.616 231.918 297.509 231.948Z" fill="#263238"/>
<path d="M298.363 230.034C298.319 230.064 297.974 229.776 297.44 229.272L296.536 228.378C296.331 228.203 296.154 228.001 296.008 227.778C295.966 227.698 295.941 227.61 295.935 227.521C295.928 227.431 295.941 227.341 295.971 227.256C296.006 227.159 296.071 227.074 296.158 227.012C296.244 226.95 296.347 226.914 296.454 226.908C296.776 226.912 297.089 227.008 297.352 227.184C297.582 227.325 297.793 227.492 297.98 227.682C298.292 228.011 298.522 228.402 298.652 228.828C298.818 229.213 298.818 229.644 298.652 230.028C298.588 229.657 298.5 229.291 298.389 228.93C298.235 228.561 298.007 228.224 297.717 227.94C297.545 227.778 297.353 227.637 297.145 227.52C296.945 227.395 296.717 227.319 296.479 227.298C296.446 227.299 296.414 227.309 296.388 227.327C296.361 227.345 296.34 227.371 296.329 227.4C296.295 227.479 296.295 227.567 296.329 227.646C296.451 227.839 296.599 228.017 296.768 228.174L297.629 229.128C297.923 229.391 298.171 229.697 298.363 230.034Z" fill="#263238"/>
<path d="M298.721 230.232C298.677 230.232 298.634 229.788 299.023 229.206C299.288 228.822 299.675 228.53 300.128 228.373C300.58 228.216 301.074 228.203 301.535 228.336C301.585 228.368 301.628 228.409 301.661 228.458C301.693 228.507 301.715 228.561 301.723 228.618C301.732 228.716 301.71 228.814 301.66 228.9C301.59 229.02 301.499 229.128 301.39 229.218C301.216 229.38 301.027 229.526 300.825 229.656C300.486 229.874 300.113 230.04 299.72 230.148C299.369 230.284 298.983 230.311 298.615 230.226C298.615 230.166 299.023 230.13 299.632 229.896C299.983 229.763 300.314 229.588 300.618 229.374C300.797 229.248 300.965 229.107 301.12 228.954C301.197 228.89 301.262 228.815 301.315 228.732C301.346 228.648 301.315 228.672 301.315 228.654C301.23 228.619 301.138 228.601 301.045 228.6C300.934 228.591 300.823 228.591 300.712 228.6C300.497 228.618 300.285 228.667 300.084 228.744C299.745 228.87 299.444 229.077 299.211 229.344C299.027 229.629 298.864 229.926 298.721 230.232Z" fill="#263238"/>
<path d="M290.08 231.444C290.115 231.642 290.087 231.845 290 232.028C289.914 232.211 289.773 232.365 289.594 232.472C289.416 232.578 289.209 232.631 288.999 232.624C288.789 232.618 288.586 232.552 288.415 232.435C288.244 232.318 288.114 232.156 288.04 231.968C287.966 231.78 287.952 231.575 288 231.38C288.048 231.185 288.155 231.007 288.309 230.87C288.462 230.733 288.655 230.643 288.862 230.61C289.139 230.568 289.422 230.633 289.65 230.789C289.878 230.945 290.032 231.18 290.08 231.444Z" fill="#E0E0E0"/>
<path d="M324.513 227.274L327.346 244.842L350.249 241.59C349.784 239.52 337.287 237.006 337.287 237.006L335.956 225.678L324.513 227.274Z" fill="#455A64"/>
<path d="M330.059 237.066C329.848 237.161 329.681 237.326 329.591 237.531C329.5 237.736 329.492 237.966 329.569 238.176C329.662 238.38 329.832 238.542 330.046 238.63C330.259 238.718 330.499 238.725 330.718 238.65C330.945 238.548 331.124 238.368 331.218 238.145C331.312 237.923 331.315 237.675 331.227 237.45C331.108 237.245 330.911 237.092 330.676 237.024C330.442 236.955 330.189 236.977 329.971 237.084" fill="#E0E0E0"/>
<path d="M327.346 244.842L327.132 243.042L349.169 240.588C349.169 240.588 350.255 240.87 350.249 241.572L327.346 244.842Z" fill="#E0E0E0"/>
<path d="M337.639 236.844C337.639 236.952 337.105 237.078 336.602 237.498C336.1 237.918 335.886 238.41 335.773 238.386C335.66 238.362 335.736 237.714 336.345 237.216C336.954 236.718 337.651 236.742 337.639 236.844Z" fill="#263238"/>
<path d="M340.188 237.45C340.232 237.552 339.774 237.798 339.466 238.308C339.158 238.818 339.121 239.304 339.008 239.316C338.895 239.328 338.731 238.716 339.127 238.116C339.523 237.516 340.169 237.348 340.188 237.45Z" fill="#263238"/>
<path d="M341.984 240C341.884 240.042 341.645 239.526 341.84 238.902C342.035 238.278 342.524 237.966 342.587 238.05C342.65 238.134 342.374 238.494 342.217 239.01C342.06 239.526 342.091 239.976 341.984 240Z" fill="#263238"/>
<path d="M337.036 234.294C337.036 234.396 336.471 234.324 335.843 234.45C335.215 234.576 334.756 234.846 334.681 234.762C334.605 234.678 335.026 234.228 335.761 234.084C336.496 233.94 337.08 234.198 337.036 234.294Z" fill="#263238"/>
<path d="M336.1 231.774C335.739 231.925 335.342 231.978 334.951 231.93C334.526 231.919 334.104 231.858 333.695 231.75C333.445 231.693 333.199 231.619 332.96 231.528C332.82 231.48 332.691 231.409 332.577 231.318C332.491 231.254 332.43 231.164 332.405 231.063C332.379 230.961 332.391 230.854 332.439 230.76C332.483 230.677 332.547 230.605 332.626 230.55C332.704 230.495 332.795 230.458 332.891 230.442C333.034 230.421 333.181 230.421 333.324 230.442C333.58 230.46 333.832 230.504 334.078 230.574C334.49 230.686 334.882 230.858 335.24 231.084C335.868 231.48 336.087 231.852 336.05 231.882C336.012 231.912 335.692 231.624 335.095 231.312C334.745 231.132 334.371 230.996 333.984 230.91C333.758 230.854 333.526 230.819 333.293 230.808C333.042 230.808 332.834 230.808 332.79 230.922C332.746 231.036 332.79 230.976 332.834 231.042C332.921 231.105 333.016 231.155 333.117 231.192C333.332 231.285 333.552 231.367 333.776 231.438C334.159 231.555 334.552 231.637 334.951 231.684C335.336 231.688 335.72 231.718 336.1 231.774Z" fill="#263238"/>
<path d="M335.968 231.948C335.93 231.948 335.648 231.618 335.497 230.934C335.429 230.537 335.429 230.132 335.497 229.734C335.538 229.493 335.601 229.256 335.686 229.026C335.723 228.875 335.801 228.736 335.911 228.621C336.021 228.507 336.159 228.421 336.314 228.372C336.416 228.36 336.519 228.375 336.613 228.417C336.706 228.458 336.785 228.524 336.841 228.606C336.92 228.728 336.981 228.859 337.023 228.996C337.1 229.235 337.138 229.484 337.136 229.734C337.136 230.153 337.028 230.565 336.822 230.934C336.464 231.534 336.018 231.756 336.006 231.72C335.993 231.684 336.314 231.414 336.571 230.82C336.721 230.479 336.789 230.11 336.772 229.74C336.766 229.526 336.726 229.313 336.653 229.11C336.584 228.882 336.464 228.708 336.376 228.744C336.288 228.78 336.094 228.96 336.031 229.158C335.946 229.364 335.881 229.577 335.836 229.794C335.765 230.164 335.748 230.542 335.786 230.916C335.843 231.528 336.025 231.924 335.968 231.948Z" fill="#263238"/>
<path d="M306.496 186.006L286.859 226.89L299.827 234.33L326.981 185.136" fill="#263238"/>
<path d="M338.882 235.26L324.796 237.42L316.362 189.336L274.694 192.222C273.592 192.295 272.485 192.196 271.416 191.928C259.716 188.862 261.299 174.606 262.429 172.32L320.086 170.742C323.107 170.658 326.054 171.642 328.362 173.506C330.67 175.369 332.178 177.981 332.596 180.84L338.882 235.26Z" fill="#263238"/>
<path d="M261.845 174.576L262.053 154.248C262.053 154.248 259.308 141.048 258.492 135.834C257.236 127.77 255.502 123.936 269.331 118.206L272.358 117.09L277.037 117.15C282.613 117.552 288.491 122.37 288.629 125.55L294.024 171.372L261.845 174.576Z" fill="#EA1D2C"/>
<path d="M262.712 122.928C262.712 122.928 258.806 130.956 259.572 138.27L274.123 151.614C277.382 155.082 281.464 156.558 286.683 156.858L316.789 160.002L317.624 152.478L289 144.726C287.857 144.522 287.286 143.388 286.413 142.656L262.712 122.928Z" fill="#EA1D2C"/>
<path d="M260.357 125.244C260.526 125.09 260.721 124.964 260.935 124.872C261.555 124.611 262.21 124.436 262.881 124.35C263.959 124.181 265.057 124.181 266.135 124.35C266.467 124.408 266.789 124.513 267.089 124.662C267.396 124.846 267.691 125.046 267.975 125.262C268.552 125.694 269.136 126.192 269.733 126.732C270.939 127.806 272.082 129.168 273.419 130.548C274.757 131.928 276.22 133.41 277.815 134.964C279.41 136.518 281.125 138.144 282.959 139.824C283.882 140.664 284.843 141.516 285.841 142.35C286.35 142.746 286.852 143.214 287.336 143.652C287.792 144.103 288.367 144.426 289 144.588L317.681 152.328L317.813 152.364V152.496C317.756 153.03 317.687 153.6 317.624 154.182C317.404 156.18 317.185 158.16 316.996 160.02V160.176H316.833L304.072 158.82L298.043 158.19L292.272 157.632C290.388 157.434 288.573 157.23 286.808 156.984C285.084 156.782 283.388 156.406 281.747 155.862C280.234 155.312 278.802 154.576 277.489 153.672C276.233 152.826 275.052 151.944 273.966 151.074C269.664 147.57 266.505 144.432 264.313 142.296C263.227 141.222 262.392 140.376 261.833 139.8L261.205 139.14L260.997 138.906C260.997 138.906 261.079 138.972 261.23 139.116C261.381 139.26 261.6 139.482 261.858 139.758L264.37 142.218C266.587 144.324 269.771 147.438 274.079 150.912C275.165 151.77 276.327 152.646 277.589 153.48C278.894 154.365 280.313 155.087 281.809 155.628C283.439 156.159 285.123 156.525 286.833 156.72C288.598 156.96 290.419 157.164 292.291 157.356L298.062 157.896L304.091 158.526L316.839 159.852L316.657 159.99C316.864 158.13 317.084 156.15 317.285 154.146C317.354 153.546 317.417 152.994 317.474 152.46L317.593 152.628L288.956 144.858C288.257 144.692 287.621 144.341 287.122 143.844C286.614 143.382 286.155 142.95 285.634 142.536C284.623 141.696 283.675 140.838 282.751 139.998C280.918 138.312 279.209 136.674 277.621 135.114C276.032 133.554 274.575 132.066 273.225 130.668C271.874 129.27 270.769 127.914 269.576 126.84C269.027 126.32 268.448 125.829 267.843 125.37C267.569 125.151 267.28 124.95 266.976 124.77C266.692 124.622 266.384 124.519 266.065 124.464C265.006 124.279 263.921 124.263 262.856 124.416C262.19 124.488 261.537 124.647 260.916 124.89C260.72 124.994 260.534 125.113 260.357 125.244Z" fill="#263238"/>
<path d="M267.874 99.4563L269.331 119.256C269.447 120.813 270.176 122.27 271.372 123.333C272.568 124.396 274.141 124.987 275.774 124.986C276.658 124.986 277.532 124.813 278.342 124.478C279.153 124.142 279.882 123.651 280.486 123.036C281.09 122.42 281.556 121.692 281.853 120.897C282.151 120.103 282.275 119.258 282.218 118.416C282.086 116.532 281.973 114.99 281.973 114.99C281.973 114.99 286.997 114.246 287.047 109.452C287.085 106.686 286.582 100.41 286.155 95.5983C286.015 94.0264 285.261 92.5625 284.042 91.4976C282.824 90.4326 281.231 89.8446 279.58 89.8503H276.547C275.312 89.9219 274.104 90.2292 272.995 90.7539C271.886 91.2787 270.898 92.0103 270.09 92.9056C269.281 93.8009 268.669 94.8417 268.288 95.9668C267.908 97.0919 267.767 98.2783 267.874 99.4563Z" fill="#FFBE9D"/>
<path d="M281.979 114.912C279.664 114.954 277.389 114.338 275.441 113.142C275.441 113.142 276.986 116.586 281.992 116.142L281.979 114.912Z" fill="#EB996E"/>
<path d="M285.031 101.748C285.033 101.927 284.962 102.099 284.832 102.227C284.703 102.356 284.527 102.432 284.34 102.438C284.25 102.447 284.159 102.437 284.073 102.412C283.986 102.386 283.906 102.343 283.837 102.288C283.768 102.232 283.712 102.163 283.671 102.086C283.63 102.009 283.605 101.925 283.599 101.838C283.597 101.659 283.668 101.487 283.797 101.357C283.926 101.227 284.103 101.15 284.29 101.142C284.472 101.129 284.653 101.185 284.792 101.299C284.93 101.413 285.017 101.574 285.031 101.748Z" fill="#263238"/>
<path d="M285.295 100.398C285.201 100.488 284.667 100.104 283.888 100.104C283.109 100.104 282.557 100.476 282.469 100.386C282.381 100.296 282.519 100.182 282.77 100.014C283.101 99.7921 283.496 99.6746 283.901 99.6782C284.303 99.6773 284.694 99.7992 285.018 100.026C285.232 100.194 285.332 100.356 285.295 100.398Z" fill="#263238"/>
<path d="M277.796 101.748C277.8 101.927 277.729 102.1 277.6 102.229C277.47 102.358 277.293 102.434 277.106 102.438C277.016 102.447 276.925 102.437 276.838 102.412C276.752 102.386 276.672 102.343 276.603 102.288C276.534 102.232 276.477 102.163 276.436 102.086C276.395 102.009 276.371 101.925 276.365 101.838C276.363 101.659 276.434 101.487 276.563 101.357C276.692 101.227 276.868 101.15 277.055 101.142C277.238 101.129 277.418 101.185 277.557 101.299C277.696 101.413 277.782 101.574 277.796 101.748Z" fill="#263238"/>
<path d="M277.696 100.536C277.608 100.626 277.068 100.242 276.289 100.242C275.511 100.242 274.958 100.614 274.876 100.524C274.795 100.434 274.92 100.32 275.171 100.152C275.502 99.9301 275.898 99.8126 276.302 99.8162C276.703 99.8136 277.095 99.9334 277.42 100.158C277.696 100.332 277.765 100.494 277.696 100.536Z" fill="#263238"/>
<path d="M280.516 105.996C280.923 105.875 281.345 105.802 281.772 105.78C281.966 105.78 282.155 105.72 282.186 105.594C282.207 105.4 282.161 105.204 282.054 105.036L281.464 103.608C280.922 102.396 280.486 101.144 280.158 99.8643C280.795 101.032 281.337 102.246 281.778 103.494L282.331 104.934C282.456 105.161 282.494 105.422 282.437 105.672C282.409 105.739 282.364 105.799 282.308 105.846C282.251 105.894 282.184 105.929 282.111 105.948C282.002 105.975 281.89 105.989 281.778 105.99C281.359 106.043 280.935 106.045 280.516 105.996Z" fill="#263238"/>
<path d="M278.249 106.506C278.374 106.506 278.374 107.298 279.09 107.862C279.806 108.426 280.698 108.342 280.704 108.462C280.71 108.582 280.503 108.612 280.126 108.624C279.637 108.63 279.161 108.47 278.782 108.174C278.427 107.886 278.202 107.477 278.154 107.034C278.098 106.728 278.192 106.5 278.249 106.506Z" fill="#263238"/>
<path d="M277.916 97.6502C277.84 97.8482 277.074 97.7582 276.17 97.8602C275.266 97.9622 274.531 98.2022 274.412 98.0222C274.292 97.8422 274.487 97.7462 274.782 97.5542C275.175 97.3151 275.619 97.1652 276.082 97.1164C276.545 97.0675 277.013 97.1208 277.451 97.2722C277.784 97.3982 277.953 97.5542 277.916 97.6502Z" fill="#263238"/>
<path d="M285.006 98.2683C284.874 98.4363 284.34 98.2683 283.706 98.2683C283.072 98.2683 282.525 98.3763 282.4 98.2023C282.274 98.0283 282.431 97.9503 282.67 97.7943C282.984 97.5974 283.356 97.5007 283.731 97.5183C284.104 97.5257 284.466 97.6431 284.767 97.8543C284.993 98.0163 285.069 98.1843 285.006 98.2683Z" fill="#263238"/>
<path d="M269.563 103.056C269.475 103.02 266.116 102.078 266.229 105.354C266.342 108.63 269.752 107.85 269.758 107.754C269.764 107.658 269.563 103.056 269.563 103.056Z" fill="#FFBE9D"/>
<path d="M268.665 106.548C268.665 106.548 268.609 106.59 268.508 106.638C268.365 106.69 268.206 106.69 268.062 106.638C267.838 106.511 267.653 106.329 267.526 106.11C267.399 105.892 267.335 105.646 267.34 105.396C267.322 105.116 267.369 104.835 267.478 104.574C267.507 104.47 267.561 104.375 267.637 104.295C267.712 104.216 267.806 104.155 267.912 104.118C267.98 104.1 268.054 104.105 268.119 104.132C268.184 104.159 268.237 104.207 268.27 104.268C268.32 104.358 268.301 104.424 268.32 104.43C268.339 104.436 268.389 104.37 268.358 104.238C268.337 104.156 268.285 104.083 268.213 104.034C268.165 104.002 268.111 103.979 268.054 103.967C267.997 103.954 267.938 103.953 267.88 103.962C267.736 103.989 267.602 104.052 267.492 104.145C267.381 104.238 267.299 104.357 267.252 104.49C267.115 104.777 267.054 105.093 267.077 105.408C267.068 105.7 267.151 105.988 267.314 106.235C267.477 106.482 267.714 106.676 267.993 106.794C268.086 106.818 268.182 106.82 268.276 106.803C268.369 106.785 268.457 106.747 268.533 106.692C268.665 106.626 268.678 106.554 268.665 106.548Z" fill="#EB996E"/>
<path d="M267.648 102.942C267.974 102.922 268.3 102.987 268.591 103.129C268.882 103.272 269.127 103.487 269.3 103.752C269.519 104.22 269.57 104.748 269.789 105.216C269.884 105.457 270.058 105.662 270.284 105.801C270.51 105.94 270.777 106.007 271.045 105.99C271.224 105.937 271.384 105.839 271.509 105.708C271.635 105.576 271.722 105.415 271.761 105.24C271.834 104.892 271.834 104.533 271.761 104.184C271.56 102.654 271.228 101.142 271.165 99.6002C271.031 98.0531 271.383 96.503 272.176 95.1482C272.578 94.4771 273.163 93.9225 273.868 93.5432C274.574 93.164 275.373 92.9743 276.183 92.9942C277.25 93.0782 278.224 93.5942 279.285 93.7502C279.915 93.829 280.555 93.77 281.158 93.5777C281.761 93.3854 282.31 93.0649 282.764 92.6402C282.964 92.479 283.174 92.3288 283.392 92.1902C283.378 91.828 283.254 91.4775 283.034 91.1822C280.93 89.3222 277.15 88.7822 274.374 89.4722C272.964 89.8041 271.647 90.4253 270.514 91.2925C269.38 92.1597 268.458 93.2522 267.811 94.4942C266.618 96.9782 266.97 100.428 267.629 102.942" fill="#263238"/>
<path d="M286.212 94.8542C286.212 94.8542 273.061 90.8102 267.372 101.682C266.933 100.315 266.646 98.9071 266.518 97.4822C266.518 96.5102 267.146 90.7082 273.375 88.8842C273.375 88.9082 282.789 85.4762 286.212 94.8542Z" fill="#EA1D2C"/>
<path d="M274.908 95.1242C275.141 95.485 275.459 95.789 275.837 96.0121C276.215 96.2352 276.642 96.3713 277.084 96.4097C277.526 96.4481 277.972 96.3878 278.385 96.2334C278.799 96.079 279.169 95.8349 279.467 95.5202C279.597 95.8327 279.826 96.0984 280.122 96.2801C280.418 96.4617 280.766 96.5501 281.117 96.5329C281.469 96.5157 281.806 96.3937 282.081 96.1841C282.356 95.9744 282.555 95.6877 282.651 95.3642C283.002 95.7403 283.429 96.0445 283.907 96.2582C284.153 96.3582 284.425 96.3836 284.687 96.331C284.949 96.2785 285.187 96.1504 285.37 95.9642C285.52 95.7469 285.592 95.4889 285.575 95.2292C285.558 94.9695 285.453 94.722 285.276 94.5242C284.92 94.1303 284.46 93.8341 283.945 93.6662C282.386 93.012 280.675 92.7636 278.983 92.9462C277.284 93.1413 275.726 93.9507 274.631 95.2082" fill="#263238"/>
<g opacity="0.4">
<path d="M286.212 94.8542C285.115 93.758 283.615 93.1125 282.029 93.0542C278.148 92.8922 270.888 94.9742 267.372 101.694C266.933 100.327 266.646 98.9191 266.518 97.4942C266.518 96.5222 267.146 90.7202 273.375 88.8962C273.375 88.9082 282.789 85.4762 286.212 94.8542Z" fill="black"/>
</g>
<path d="M267.918 100.41C269.912 97.5729 272.526 95.182 275.58 93.4022C278.607 91.6022 283.605 89.8022 287.047 88.9382C288.068 88.6158 289.15 88.5073 290.218 88.6202C290.751 88.6846 291.253 88.891 291.669 89.2157C292.084 89.5404 292.396 89.9703 292.567 90.4562C292.894 91.6982 290.589 93.6122 289.502 94.3622C288.442 95.0395 287.344 95.6605 286.212 96.2222C286.212 96.2222 286.243 93.9182 282.387 93.4442C277.143 92.8022 267.918 100.41 267.918 100.41Z" fill="#EA1D2C"/>
<g opacity="0.3">
<path d="M263.29 141.24C264.646 144.366 266.015 148.224 267.981 151.038C269.946 153.852 272.572 156.354 275.837 157.638C279.944 159.282 284.799 159.546 288.881 157.866C289.214 157.728 289.867 157.554 289.804 157.212C289.804 157.212 288.454 157.062 288.033 156.996C279.787 155.688 278.889 154.728 274.939 151.728C272.477 149.874 267.02 144.252 263.29 141.24Z" fill="black"/>
</g>
<path d="M289.515 164.004C289.431 164.261 289.315 164.507 289.17 164.736C288.803 165.385 288.356 165.99 287.838 166.536C286.091 168.287 283.893 169.567 281.464 170.25C279.044 170.909 276.544 171.266 274.028 171.312C273.068 171.348 272.289 171.354 271.755 171.354C271.476 171.365 271.197 171.353 270.92 171.318C271.192 171.258 271.47 171.228 271.749 171.228L274.016 171.09C276.505 170.981 278.972 170.598 281.37 169.95C283.757 169.272 285.928 168.034 287.687 166.35C288.373 165.625 288.985 164.84 289.515 164.004Z" fill="#263238"/>
<path d="M325.041 238.854C325.014 238.795 324.997 238.732 324.991 238.668C324.991 238.53 324.928 238.344 324.878 238.116C324.783 237.612 324.645 236.916 324.476 235.992C324.13 234.12 323.647 231.45 323.044 228.156C321.87 221.52 320.249 212.382 318.459 202.29C317.662 197.718 316.902 193.35 316.205 189.36L316.368 189.486L298.338 190.728L293.164 191.064L291.782 191.142H291.43H291.305H291.424L291.782 191.1L293.157 190.98L298.326 190.56L316.343 189.186H316.481V189.318C317.185 193.308 317.957 197.676 318.761 202.242C320.513 212.34 322.096 221.484 323.251 228.126C323.804 231.426 324.256 234.126 324.576 235.974L324.915 238.116C324.953 238.344 324.978 238.53 324.997 238.668C325.02 238.728 325.034 238.791 325.041 238.854Z" fill="#455A64"/>
<path d="M320.588 185.052C320.645 185.124 319.546 186.024 318.302 187.236C317.059 188.448 316.13 189.51 316.054 189.45C317.212 187.686 318.76 186.185 320.588 185.052Z" fill="#455A64"/>
<path d="M282.092 118.83C282.092 118.83 282.13 118.896 282.167 119.028C282.23 119.223 282.27 119.425 282.287 119.628C282.36 120.369 282.257 121.115 281.985 121.812C281.579 122.854 280.858 123.756 279.913 124.404C278.733 125.176 277.313 125.54 275.887 125.436C274.467 125.344 273.107 124.856 271.975 124.032C271.062 123.362 270.305 122.518 269.752 121.554C269.377 120.912 269.09 120.226 268.898 119.514C268.835 119.262 268.791 119.064 268.772 118.914C268.753 118.764 268.772 118.704 268.772 118.704C269.063 119.651 269.461 120.564 269.959 121.428C270.527 122.343 271.276 123.144 272.163 123.786C273.261 124.563 274.569 125.021 275.931 125.106C277.286 125.205 278.636 124.87 279.768 124.152C280.672 123.542 281.374 122.696 281.791 121.716C282.075 121.053 282.21 120.339 282.186 119.622C282.142 119.118 282.092 118.842 282.092 118.83Z" fill="#263238"/>
<path d="M290.953 145.032C290.882 144.838 290.835 144.637 290.815 144.432C290.746 143.958 290.664 143.382 290.564 142.716C290.356 141.186 290.086 139.218 289.791 137.04C289.496 134.862 289.283 132.84 289.163 131.352C289.094 130.626 289.05 130.032 289.025 129.624C288.995 129.413 288.995 129.199 289.025 128.988C289.091 129.183 289.135 129.384 289.157 129.588C289.226 130.062 289.308 130.632 289.402 131.304C289.603 132.834 289.86 134.802 290.143 136.98C290.426 139.158 290.67 141.18 290.821 142.662C290.89 143.394 290.941 143.982 290.972 144.396C290.992 144.608 290.985 144.822 290.953 145.032Z" fill="#263238"/>
</g>
<defs>
<clipPath id="clip0_417_511">
<rect width="471" height="300" fill="white"/>
</clipPath>
</defs>
</svg>
