<svg width="497" height="249" viewBox="0 0 497 249" fill="none" xmlns="http://www.w3.org/2000/svg">
<path d="M405.603 69.9235C397.478 42.2785 379.424 21.6409 354.068 11.863C328.712 2.08511 292.437 11.7609 274.892 30.8599C262.057 44.8267 258.105 64.4246 243.749 77.1352C230.625 88.7582 211.004 92.4782 192.568 92.0936C174.132 91.709 156.018 87.7846 137.636 86.4925C119.254 85.2004 99.6461 86.8591 84.5733 96.3906C64.7911 108.903 53.0075 139.439 55.2785 161.056C58.4136 190.876 80.574 221.051 111.028 227.488L310.658 230C336.865 229.399 365.59 207.019 379.45 185.395C386.819 173.833 393.364 171.164 400.264 150.064C411.485 115.736 412.644 93.8665 405.603 69.9235Z" fill="#EBEBEB"/>
<path d="M87.234 244.91C96.2166 239.282 98.289 228.796 97.9692 219.364C97.9159 217.793 98.1158 216.132 97.3028 214.747C96.4898 213.363 94.5507 212.418 92.9847 213.074C91.692 213.622 91.1189 214.976 90.3926 216.084C89.4208 217.581 88.0001 218.8 86.2944 219.599C85.1816 220.111 83.8088 220.424 82.7093 219.876C81.21 219.123 81.0434 217.245 81.0567 215.662C81.0923 212.745 81.1234 209.828 81.15 206.91C81.262 205.36 81.0977 203.803 80.6636 202.299C80.1305 200.813 78.9443 199.428 77.2918 199.001C75.6392 198.573 73.6067 199.434 73.2536 200.963C73.1835 201.611 73.1634 202.263 73.1936 202.913C73.2032 203.238 73.1065 203.558 72.9157 203.833C72.7248 204.108 72.4483 204.327 72.1207 204.46C71.4544 204.641 70.7347 204.196 70.2216 203.738C68.4357 202.149 67.2296 200.126 66.1034 198.08C64.9773 196.033 63.8844 193.975 62.2651 192.247C60.6459 190.52 58.4069 189.141 55.928 189.009C53.4491 188.876 50.7969 190.249 50.1572 192.446C49.5175 194.643 50.9369 196.9 52.4829 198.688C54.7632 201.345 57.4565 203.691 60.4793 205.652C61.0663 205.951 61.533 206.41 61.812 206.964C62.1785 208.012 61.0857 209.041 59.9395 209.372C58.6468 209.757 57.274 209.631 55.8947 209.769C54.5153 209.908 53.0759 210.444 52.5628 211.575C51.8498 213.176 53.3225 214.856 54.7752 215.957C57.6875 218.17 61.0015 219.911 64.5708 221.104C65.8818 221.438 67.1147 221.984 68.2092 222.717C69.2354 223.53 69.8484 224.938 69.222 226.04C68.5956 227.141 67.003 227.49 65.6636 227.243C64.3242 226.997 63.1381 226.359 61.8653 225.919C59.4864 225.101 56.4078 225.239 54.8751 227.093C54.4078 227.732 54.1105 228.46 54.0064 229.22C53.9024 229.981 53.9944 230.752 54.2754 231.475C54.8507 232.912 55.7389 234.23 56.8876 235.351C60.6476 239.46 65.5481 242.592 71.0879 244.429C76.6054 246.18 81.7498 246.662 87.2206 244.868" fill="#EA1D2C"/>
<path d="M87 246.964C86.6401 243.244 86.4534 243.166 84.9204 238.429C83.2091 233.31 81.1705 228.284 78.8149 223.376C78.1928 222.07 77.5841 220.78 76.9886 219.507C76.3821 218.237 75.7889 216.979 75.1157 215.781C73.8193 213.487 72.3819 211.259 70.8098 209.108C69.3368 207.036 67.8504 205.125 66.444 203.34C65.0376 201.555 63.6912 199.926 62.3915 198.482C60.3603 196.196 58.1316 194.057 55.7261 192.085C54.873 191.384 54.1931 190.887 53.7265 190.516L53.1933 190.126C53.0733 190.036 53.0067 189.995 53 190.001C53.0548 190.053 53.1127 190.103 53.1733 190.15L53.6865 190.564C54.1398 190.923 54.8063 191.456 55.6461 192.169C58.0189 194.167 60.2224 196.321 62.2382 198.614C63.5246 200.058 64.8577 201.699 66.2374 203.484C67.6171 205.269 69.1035 207.185 70.5766 209.252C72.1261 211.405 73.5435 213.633 74.8224 215.925C75.4889 217.123 76.0821 218.368 76.682 219.638C77.2819 220.908 77.8885 222.202 78.5083 223.508C80.8579 228.407 82.9007 233.42 84.6271 238.524C86.1668 243.244 86.3735 243.316 86.7667 247" fill="#263238"/>
<path d="M75.0059 216C75.069 215.786 75.112 215.565 75.1341 215.34C75.2058 214.913 75.293 214.295 75.3904 213.522C75.5801 211.983 75.7851 209.85 76.0055 207.497C76.2259 205.144 76.4515 203.017 76.6617 201.484C76.7693 200.717 76.8565 200.099 76.9282 199.671C76.9756 199.452 76.9997 199.226 77 199C76.927 199.21 76.8704 199.426 76.8308 199.648C76.7386 200.07 76.6207 200.688 76.4925 201.43C76.2362 202.957 75.9799 205.091 75.7595 207.444C75.539 209.797 75.3596 211.87 75.2161 213.481C75.1495 214.206 75.0879 214.818 75.0418 215.305C75.0035 215.534 74.9915 215.767 75.0059 216Z" fill="#263238"/>
<path d="M52 212.018C52.3027 212.08 52.6115 212.116 52.9219 212.124C53.5067 212.173 54.3667 212.236 55.4194 212.354C57.5247 212.566 60.4212 212.977 63.5998 213.507C66.7783 214.037 69.6267 214.679 71.6769 215.177C72.7021 215.42 73.5277 215.639 74.0987 215.801C74.3925 215.89 74.694 215.956 75 216C74.7239 215.872 74.4362 215.766 74.14 215.682C73.5758 215.501 72.764 215.252 71.7389 214.984C69.6748 214.429 66.8471 213.781 63.6617 213.22C60.932 212.735 58.1762 212.38 55.4056 212.155C54.3461 212.067 53.4861 212.03 52.8944 212.018C52.5968 211.994 52.2976 211.994 52 212.018Z" fill="#263238"/>
<path d="M85 238C85.0632 237.926 85.1154 237.846 85.1552 237.76C85.2523 237.566 85.3752 237.332 85.5239 237.051C85.8474 236.435 86.2807 235.533 86.8176 234.414C87.8655 232.169 89.2174 229.034 90.6469 225.547C92.0765 222.06 93.396 218.919 94.3922 216.663L95.5888 213.99C95.7117 213.697 95.8217 213.457 95.9058 213.264C95.9899 213.07 96.0093 213.006 95.9963 213C95.9361 213.074 95.8862 213.155 95.8476 213.24L95.4789 213.944C95.1554 214.565 94.7156 215.467 94.1852 216.586C93.1308 218.825 91.7854 221.966 90.3559 225.447C88.9263 228.928 87.6068 232.075 86.6042 234.337C86.119 235.433 85.7115 236.336 85.414 237.004C85.2846 237.297 85.1811 237.537 85.097 237.736C85.0547 237.821 85.0222 237.909 85 238Z" fill="#263238"/>
<path d="M54.6589 229.644C54.7497 229.69 54.8455 229.726 54.9446 229.752L55.7823 230.016L58.8732 230.952C61.4705 231.738 65.0614 232.872 69.0224 234.12C72.9834 235.368 76.5872 236.478 79.2106 237.216C80.5092 237.588 81.5872 237.876 82.3274 238.062L83.1845 238.278C83.2822 238.304 83.3821 238.322 83.4832 238.332C83.4832 238.332 83.3923 238.284 83.1975 238.218L82.3664 237.96L79.3015 237.024C76.7041 236.232 73.1132 235.104 69.1458 233.85C65.1783 232.596 61.5874 231.492 58.9641 230.754C57.6654 230.382 56.5875 230.094 55.8472 229.908L54.9901 229.698C54.8845 229.661 54.772 229.642 54.6589 229.644Z" fill="#263238"/>
<path d="M196.428 247H102.818C91.5111 246.958 81.9665 238.362 82.0001 228.28L82.9956 18.1804C83.0062 15.7824 83.5469 13.4099 84.5868 11.1983C85.6267 8.98663 87.1455 6.97929 89.0563 5.29095C90.9671 3.60261 93.2326 2.26635 95.7231 1.35854C98.2137 0.450723 100.881 -0.0108499 103.571 0.00019358L197.612 0.389812C200.302 0.400022 202.962 0.882288 205.443 1.80906C207.923 2.73584 210.174 4.08896 212.067 5.79114C213.96 7.49332 215.459 9.51121 216.477 11.7295C217.495 13.9479 218.012 16.3232 218 18.7198L217.004 228.82C216.994 231.218 216.453 233.59 215.413 235.802C214.373 238.013 212.854 240.021 210.944 241.709C209.033 243.397 206.767 244.734 204.277 245.641C201.786 246.549 199.119 247.011 196.428 247Z" fill="#263238"/>
<path d="M196.919 8.33581L178.905 8.28785C178.318 8.29721 177.738 8.41086 177.2 8.62231C176.661 8.83375 176.174 9.13884 175.766 9.52016C175.358 9.90148 175.038 10.3516 174.823 10.8447C174.608 11.3378 174.502 11.8643 174.513 12.3941V15.3434C174.533 16.413 174.081 17.4459 173.258 18.2157C172.434 18.9854 171.306 19.4292 170.121 19.4497L135.009 19.2998C134.422 19.2858 133.843 19.1676 133.307 18.9518C132.77 18.7361 132.286 18.427 131.882 18.0423C131.477 17.6576 131.161 17.2049 130.951 16.7099C130.741 16.2149 130.641 15.6874 130.657 15.1576V12.2143C130.685 11.1435 130.243 10.1061 129.426 9.32873C128.609 8.5514 127.485 8.09743 126.298 8.06605H119.965L104.197 8.00011C102.336 7.99301 100.491 8.31672 98.7684 8.95274C97.0458 9.58876 95.4789 10.5247 94.1572 11.707C92.8355 12.8893 91.7849 14.2949 91.0654 15.8435C90.3458 17.3921 89.9715 19.0534 89.9636 20.7325L89.0001 225.776C88.9842 229.166 90.4614 232.423 93.1068 234.831C95.7522 237.239 99.3493 238.6 103.107 238.616L195.823 239C197.685 239.009 199.531 238.686 201.255 238.051C202.978 237.415 204.546 236.479 205.869 235.297C207.192 234.114 208.243 232.708 208.962 231.159C209.682 229.609 210.056 227.947 210.063 226.267L211 21.1761C211.014 17.7906 209.54 14.5381 206.901 12.1312C204.261 9.72442 200.672 8.35958 196.919 8.33581Z" fill="#F5F5F5"/>
<path d="M157.308 200.619C157.196 202.966 157.091 205.165 157 207H171L169.285 200L157.308 200.619Z" fill="#F5F5F5"/>
<path d="M103 203.714L103.113 207H155.713C155.8 205.151 155.9 203.108 156 201L103 203.714Z" fill="#F5F5F5"/>
<path d="M170 199.493L171.623 207H196L195.703 198L170 199.493Z" fill="#F5F5F5"/>
<path d="M159.034 96L164 71.812L151 71V96H159.034Z" fill="#F5F5F5"/>
<path d="M101.626 190L89.038 194.629L89 203L102 202.227L101.626 190Z" fill="#F5F5F5"/>
<path d="M102 188.402L101.289 165.928H101.276V158L89.1579 159.162L89 193L101.993 188.39L102 188.402Z" fill="#F5F5F5"/>
<path d="M101 139.48L89.0848 138L89 157L101 155.807V139.48Z" fill="#F5F5F5"/>
<path d="M192.303 158.316L191.775 164.64L177 165.996L178.143 171L194.911 169.919L194.665 162.746L196 158L192.303 158.316Z" fill="#F5F5F5"/>
<path d="M166.08 172L178 171.176L175.403 159L165 159.964L166.08 172Z" fill="#F5F5F5"/>
<path d="M166 172.96L166.895 182.705L168.487 196.072L169.143 199L196 197.49L195.105 171L166 172.96Z" fill="#F5F5F5"/>
<path d="M121.324 127.731L122.34 129.282L101.946 139.885V165L123.478 163.641L165 159.899L163.479 143.441L123.841 138.831L124.103 137.035L163.311 141.591L160.741 113.734L121.93 117.05L121.802 115.853L160.626 112.536L159.281 98H121.937L89.1615 103.304L89 136.592L101.401 138.089L121.324 127.731ZM104.032 162.581C104.032 162.581 104.187 141.878 104.032 141.106L120.678 133.227L122.838 161.528L104.032 162.581Z" fill="#F5F5F5"/>
<path d="M191 158L176 159.443L177.138 165L190.585 163.62L191 158Z" fill="#F5F5F5"/>
<path d="M158.132 196C158.086 197.011 158.04 198.011 158 199L169 198.411L168.433 196.022L158.132 196Z" fill="#F5F5F5"/>
<path d="M133.923 95.8028L135.904 87.9392H151V71.0617L103.806 68V83.8511L89.0674 86.7712L89 101L121.638 95.8028H133.923Z" fill="#F5F5F5"/>
<path d="M165.006 48.4721L164.593 46.9681L183 40.4733L171.029 19.0368C170.802 19.0697 170.572 19.0861 170.341 19.0859L150 19L150.551 49L165.006 48.4721Z" fill="#F5F5F5"/>
<path d="M192 37.1698V8.03057L179.213 8C178.633 8.00955 178.061 8.12544 177.529 8.34105C176.997 8.55666 176.516 8.86776 176.114 9.2566C175.711 9.64543 175.394 10.1044 175.182 10.6072C174.97 11.1101 174.866 11.6469 174.876 12.1872V15.1946C174.876 15.8662 174.706 16.5282 174.38 17.1271C174.054 17.726 173.581 18.2451 173 18.6422L184.416 40L192 37.1698Z" fill="#F5F5F5"/>
<path d="M125 38L123.506 8.05964H119.93L105.949 8L100 34.7734L125 38ZM121.814 11.0954L122.29 35.4771L103.708 33.0258L107.774 11.0954H121.814Z" fill="#F5F5F5"/>
<path d="M125.521 38.5206V38.7753C125.521 41.1525 125.601 45.4459 125.64 50L150 49.0904L149.471 19.4308L134.728 19.3641C134.143 19.35 133.568 19.2304 133.033 19.0121C132.499 18.7938 132.017 18.4812 131.615 18.092C131.213 17.7029 130.898 17.2449 130.689 16.7442C130.479 16.2434 130.38 15.7098 130.396 15.1738V12.1964C130.424 11.1132 129.984 10.0637 129.171 9.27733C128.358 8.49098 127.238 8.03174 126.057 8H124L125.495 38.5206H125.521Z" fill="#F5F5F5"/>
<path d="M97.6407 35L104 8C100.028 8.06029 96.242 9.44296 93.4519 11.852C90.6617 14.2611 89.0893 17.5051 89.0713 20.8895L89 34.3501L89.0713 33.9552L97.6407 35Z" fill="#F5F5F5"/>
<path d="M102 67.8244L89.0896 67L89 85L102 82.4675V67.8244Z" fill="#F5F5F5"/>
<path d="M97 35.0397L89.1385 34L89 63.8845L90.695 64L97 35.0397Z" fill="#F5F5F5"/>
<path d="M122.793 188.125L123 164L102 165.364L102.746 189L122.793 188.125Z" fill="#F5F5F5"/>
<path d="M126.971 181.938L156.446 194.742C156.803 186.358 157.107 178.572 157.107 178.051L157.768 178.021L158.085 177.458C158.501 177.644 158.501 177.644 158.283 183.351C158.157 186.531 157.986 190.766 157.807 195H168L166.5 182.159L164.519 160L126 163.522L126.971 181.938Z" fill="#F5F5F5"/>
<path d="M200 143.159L199.66 140L164 143.378L165.5 160L196.293 157.174L200 143.159Z" fill="#F5F5F5"/>
<path d="M151 90H137.536L136 96H151V90Z" fill="#F5F5F5"/>
<path d="M194.086 92.031L160.348 90L159 96.9381L160.422 112L196 109.018L194.086 92.031ZM161.588 96.9264L163.402 92.5475L192.704 94.1617L194.396 106.688L162.579 109.975L161.588 96.9264Z" fill="#F5F5F5"/>
<path d="M198 123.977L196.52 110L161 113.123L162.338 128L198 123.977Z" fill="#F5F5F5"/>
<path d="M102.885 204.02L89.0741 204.661L89.0202 204L89 207H103L102.885 204.02Z" fill="#F5F5F5"/>
<path d="M210.787 30.3082L210.981 30.7805L211 21.1383C211.014 17.67 209.578 14.3383 207.008 11.8749C204.438 9.41151 200.944 8.01785 197.293 8H193V37L210.787 30.3082Z" fill="#F5F5F5"/>
<path d="M156 195.558L125.988 182.584L124.927 164L123.676 164.113L123.458 188.182L103 189.056V189.591L103.395 202L155.835 199.028C155.901 197.87 155.954 196.711 156 195.558ZM104.285 190.589L132.92 188.806L151.546 196.598L104.285 198.904V190.589Z" fill="#F5F5F5"/>
<path d="M202.735 62L204 55.2087C192.944 51.6256 192.179 41.1529 192.213 38L185 40.5936L195.86 60.402L202.735 62Z" fill="#F5F5F5"/>
<path d="M163.075 141L178 139.631L175.063 128L162 129.423L163.075 141Z" fill="#F5F5F5"/>
<path d="M194.729 72.1531H166.527L164.189 72L161 87.998L194.478 90L193.703 83.0461L197 72.7772L194.729 72.1531Z" fill="#F5F5F5"/>
<path d="M193.65 69L194 61.0402L183.024 41L166 47.1229L171.852 68.9694L193.65 69ZM182.357 43.4614L192.418 60.8627L190.963 66.2876L173.751 65.6753L169.448 49.2169L182.357 43.4614Z" fill="#F5F5F5"/>
<path d="M198 162.53L198.523 177.815L210.722 177.209L210.762 177.809L198.543 178.415L199.161 196.708L210.701 196.059L210.783 197.26L199.202 197.908L199.514 207H210.756L211 156L199.5 157.026L198 162.53Z" fill="#F5F5F5"/>
<path d="M124.831 39.2143L99.3688 36L93 63.916L124.944 66C125.072 61.7143 124.958 48.5157 124.831 39.2143Z" fill="#F5F5F5"/>
<path d="M167.072 69H171L165.443 49L151 49.52L151.348 67.9779L167.072 69Z" fill="#F5F5F5"/>
<path d="M126 66.2896L151 68L150.666 49L126.033 49.9262C126.107 56.3542 126.107 63.2083 126 66.2896Z" fill="#F5F5F5"/>
<path d="M197.685 126L176 128.38L178.917 140L199 138.141L197.685 126Z" fill="#F5F5F5"/>
<path d="M203.744 54L205.097 46.5749L210.922 46.994L211 31L193.013 37.5868C192.644 48.8383 200.288 52.7964 203.744 54Z" fill="#F5F5F5"/>
<path d="M197 82.9912L197.733 90.1399L210.935 91L211 76.2816L199.95 73L197 82.9912Z" fill="#F5F5F5"/>
<path d="M203.499 143.46L200 157L210.934 155.971L211 141.772C207.646 140.95 204.717 140.28 203.138 140L203.499 143.46Z" fill="#F5F5F5"/>
<path d="M196 68.7741L210.961 73L211 65.3957L196.303 62L196 68.7741Z" fill="#F5F5F5"/>
<path d="M202.899 138.268C204.109 138.438 206.399 138.875 210.858 140L211 109L200 109.997L202.899 138.268Z" fill="#F5F5F5"/>
<path d="M199.77 109L210.935 107.996L211 92.8403L198 92L199.77 109Z" fill="#F5F5F5"/>
<path d="M205 54.5911C206.973 55.1528 208.976 55.623 211 56V48.3447L206.172 48L205 54.5911Z" fill="#F5F5F5"/>
<path d="M204 62.1334L210.969 64L211 56.5402C209.193 56.1617 207.223 55.6526 205.158 55L204 62.1334Z" fill="#F5F5F5"/>
<path d="M102.681 203.391L102.794 206.988H103.46L103.347 203.343L156.264 200.346C156.164 202.684 156.064 204.95 155.978 207H157.31C157.396 205.064 157.496 202.744 157.603 200.268L169.026 199.615L170.657 207H171.324L169.685 199.579L195.661 198.104L195.961 207H199.291L198.984 197.913L210.347 197.265L210.267 196.066L198.945 196.714L198.338 178.443L210.327 177.844L210.287 177.244L198.298 177.844L197.786 162.576L199.258 157.079L210.54 156.054V155.455L199.424 156.468L202.981 143.142L202.614 139.738C204.22 140.013 207.197 140.673 210.607 141.482V139.594C206.018 138.503 203.66 138.053 202.415 137.885L199.417 110.024L210.74 109.041V107.842L199.271 108.837L197.453 91.9807L210.774 92.8139V91.0156L197.213 90.1704L196.46 83.145L199.491 73.3263L210.814 76.5512V73.4162L195.368 69.0223L195.681 61.979L210.853 65.5097V63.6514L203.48 61.937L204.706 55.3852C206.917 55.9847 208.975 56.4522 210.887 56.7999V56.2005C208.839 55.8268 206.814 55.3606 204.819 54.8038L206.038 48.2699L210.92 48.6116V47.4128L204.926 46.9932L203.534 54.4261C199.977 53.2273 192.111 49.259 192.491 37.9897L211 31.3959V30.6346L210.8 30.173L192.497 36.6949V8.35366H191.831V36.9287L184.118 39.6801L172.529 18.7359C171.979 19.0926 171.342 19.325 170.671 19.4132L182.253 40.3454L164.583 46.6815L164.983 48.1501L150.996 48.6656L150.463 19.3713H149.797L150.33 48.6896L125.799 49.5887C125.759 45.069 125.706 40.843 125.679 38.4932V38.2414L124.174 8.07193H123.508L125.013 38.1635L99.8166 34.9086L105.811 8H104.093H103.773L97.8318 34.6448L89.8392 33.6138L89.7726 34.0034V34.2072L97.7119 35.2323L91.3445 63.7833L89.6327 63.6694V66.6666L102.108 67.4998V82.2998L89.5462 84.8594V86.7056L104.113 83.7085V67.6616L150.736 70.7727V87.9285H135.817L133.858 95.9129H121.716L89.4596 101.194V103.022L121.909 97.6813H158.862L160.194 112.236L121.763 115.556L121.889 116.755L160.307 113.434L162.851 141.326L124.041 136.764L123.781 138.563L163.018 143.178L164.536 159.633L123.461 163.361L102.148 164.722V139.594L122.336 128.996L121.33 127.443L101.582 137.795L89.2731 136.321V138.119L101.455 139.594V155.593L89.1998 156.761V158.56L101.468 157.391V165.369L102.194 187.986L89.04 192.626V194.556L102.268 189.892L102.661 202.211L89 202.99V203.391L89.0533 204.189L102.681 203.391ZM157.656 199.063C157.696 197.996 157.743 196.918 157.789 195.827H168.193L168.766 198.404L157.656 199.063ZM169.432 198.392L168.766 195.509L167.214 182.321L166.341 172.73L194.715 170.8L195.588 196.882L169.432 198.392ZM175.859 159.201L190.792 157.846L190.372 163.121L176.992 164.416L175.859 159.201ZM175.193 159.261L177.691 170.77L166.228 171.549L165.189 160.16L175.193 159.261ZM194.675 169.619L178.364 170.728L177.251 165.597L191.625 164.206L192.138 157.721L195.734 157.397L194.435 162.264L194.675 169.619ZM175.36 128.204L178.27 139.965L163.477 141.35L162.412 129.643L175.36 128.204ZM178.943 139.899L176.019 128.133L197.759 125.735L199.091 138.029L178.943 139.899ZM193.909 89.9666L161.113 87.9225L164.237 71.6419L166.528 71.7977H194.162L196.38 72.4331L193.177 82.8872L193.909 89.9666ZM191.911 38.2174C191.878 41.3105 192.63 51.5249 203.514 55.0016L202.315 61.6673L195.548 60.0908L184.858 40.7471L191.911 38.2174ZM182.946 41.4124L193.843 61.0319L193.496 68.8245H171.943L166.155 47.4367L182.946 41.4124ZM165.096 48.7435L170.524 68.8006H166.734L151.375 67.7815L151.036 49.265L165.096 48.7435ZM150.323 49.289L150.656 67.7336L125.753 66.0731C125.859 63.076 125.839 56.4282 125.753 50.1881L150.323 49.289ZM99.6435 35.502L124.993 38.7749C125.12 48.246 125.233 61.6733 125.106 66.0492L93.3027 63.9272L99.6435 35.502ZM163.544 71.6179L158.882 95.901H151.402V70.7847L163.544 71.6179ZM137.375 89.7148H150.696V95.901H135.896L137.375 89.7148ZM159.355 96.8121L160.687 89.7268L194.022 91.8008L195.887 109.148L160.733 112.194L159.355 96.8121ZM196.041 110.347L197.506 123.948L162.205 127.869L160.873 113.386L196.041 110.347ZM163.584 143.16L199.211 139.821L199.551 142.945L195.847 156.797L165.083 159.591L163.584 143.16ZM166.501 182.417L168.013 195.269H157.816C157.996 191.031 158.169 186.793 158.296 183.61C158.515 177.897 158.515 177.897 158.096 177.712L157.776 178.275L157.11 178.305C157.11 178.803 156.824 186.637 156.444 195.011L126.772 182.153L125.719 163.733L164.536 160.232L166.501 182.417ZM123.035 164.003L122.829 187.65L102.794 188.507L102.048 165.339L123.035 164.003ZM102.827 189.658V189.119L123.508 188.238L123.728 163.961L124.993 163.847L126.066 182.591L156.404 195.677C156.357 196.84 156.304 198.008 156.258 199.171L103.247 202.169L102.827 189.658Z" fill="white"/>
<path d="M133.078 189L104 190.788V199L152 196.712L133.078 189Z" fill="#EBEBEB"/>
<path d="M193.298 93.6672L163.824 92L162 96.5227L162.997 110L195 106.605L193.298 93.6672Z" fill="#EBEBEB"/>
<path d="M103.188 238.616L196.565 239C198.44 239.009 200.299 238.686 202.035 238.051C203.771 237.416 205.35 236.481 206.682 235.3C208.014 234.118 209.073 232.713 209.798 231.164C210.523 229.616 210.899 227.955 210.906 226.277L211 207H89.0669L89 221.58V226.169C89.0939 229.487 90.6275 232.642 93.2758 234.966C95.9242 237.29 99.4792 238.599 103.188 238.616Z" fill="#EBEBEB"/>
<path d="M122 36L121.513 11H107.164L103 33.4865L122 36Z" fill="#EBEBEB"/>
<path d="M190.607 66L192 60.7715L182.364 44L170 49.5708L174.121 65.4335L190.607 66Z" fill="#EBEBEB"/>
<path d="M104 140.784C104.156 141.547 104 162 104 162L123 160.959L120.822 133L104 140.784Z" fill="#EBEBEB"/>
<path d="M165.988 158L165 144.796L197 141V143.28L193.128 155.424L165.988 158Z" fill="#EBEBEB"/>
<path d="M143 51.5C143 52.1922 142.765 52.8689 142.326 53.4445C141.886 54.0201 141.262 54.4687 140.531 54.7336C139.8 54.9985 138.996 55.0678 138.22 54.9327C137.444 54.7977 136.731 54.4644 136.172 53.9749C135.612 53.4854 135.231 52.8617 135.077 52.1828C134.923 51.5039 135.002 50.8002 135.304 50.1606C135.607 49.5211 136.12 48.9744 136.778 48.5899C137.436 48.2053 138.209 48 139 48C140.061 48 141.078 48.3687 141.828 49.0251C142.579 49.6815 143 50.5717 143 51.5Z" fill="#EA1D2C"/>
<g opacity="0.6">
<path d="M142.586 51.0122C142.62 51.7048 142.423 52.3909 142.022 52.9835C141.62 53.5761 141.032 54.0487 140.33 54.3414C139.629 54.6342 138.846 54.7339 138.081 54.628C137.317 54.5222 136.604 54.2155 136.034 53.7467C135.464 53.278 135.062 52.6682 134.879 51.9947C134.696 51.3211 134.74 50.614 135.005 49.9628C135.271 49.3117 135.746 48.7457 136.37 48.3365C136.995 47.9274 137.741 47.6934 138.514 47.6642C139.549 47.6252 140.56 47.9558 141.323 48.5836C142.086 49.2113 142.541 50.0848 142.586 51.0122Z" fill="white"/>
</g>
<path d="M138.5 53C139.881 53 141 52.1046 141 51C141 49.8954 139.881 49 138.5 49C137.119 49 136 49.8954 136 51C136 52.1046 137.119 53 138.5 53Z" fill="#EA1D2C"/>
<path d="M199 191.524C198.995 191.819 198.904 192.106 198.737 192.349C198.57 192.592 198.335 192.781 198.061 192.891C197.788 193.001 197.488 193.029 197.199 192.97C196.91 192.91 196.645 192.767 196.437 192.559C196.229 192.35 196.087 192.084 196.029 191.795C195.971 191.506 196 191.206 196.111 190.933C196.223 190.66 196.412 190.426 196.656 190.26C196.9 190.094 197.187 190.004 197.482 190C197.682 189.998 197.881 190.035 198.067 190.111C198.253 190.187 198.421 190.299 198.563 190.441C198.704 190.584 198.816 190.753 198.891 190.939C198.966 191.124 199.003 191.324 199 191.524Z" fill="#EA1D2C"/>
<path d="M195.999 191L195.594 182.59L167.68 183.822C166.948 183.852 166.22 183.712 165.566 183.413L125.968 165.284C125.517 165.077 125.135 164.765 124.859 164.382C124.583 163.998 124.424 163.555 124.397 163.097L119.002 68.3423C118.989 68.1179 119.029 67.8935 119.12 67.6842C119.21 67.4748 119.349 67.2854 119.526 67.1285C119.704 66.9715 119.916 66.8507 120.149 66.7742C120.382 66.6976 120.631 66.667 120.878 66.6844L137.85 67.8197V51H139.839V68.048C139.843 68.2657 139.799 68.482 139.708 68.6835C139.616 68.885 139.481 69.0674 139.308 69.2193C139.13 69.366 138.92 69.4784 138.693 69.5497C138.465 69.6209 138.223 69.6495 137.983 69.6338L121.024 68.4985L126.398 163.007C126.408 163.147 126.458 163.282 126.543 163.399C126.628 163.516 126.745 163.611 126.882 163.674L166.48 181.815C166.827 181.974 167.213 182.048 167.601 182.031L195.753 180.788C196.219 180.77 196.674 180.919 197.019 181.203C197.192 181.343 197.332 181.514 197.431 181.705C197.53 181.896 197.586 182.103 197.596 182.314L198 190.922L195.999 191Z" fill="#EA1D2C"/>
<path d="M122 114C124.761 114 127 111.985 127 109.5C127 107.015 124.761 105 122 105C119.239 105 117 107.015 117 109.5C117 111.985 119.239 114 122 114Z" fill="#EA1D2C"/>
<path d="M121.5 112C123.433 112 125 110.657 125 109C125 107.343 123.433 106 121.5 106C119.567 106 118 107.343 118 109C118 110.657 119.567 112 121.5 112Z" fill="#FAFAFA"/>
<path d="M122.007 113C121.216 113.001 120.442 112.797 119.783 112.413C119.124 112.029 118.61 111.483 118.307 110.844C118.003 110.204 117.922 109.5 118.076 108.821C118.23 108.142 118.61 107.517 119.169 107.027C119.728 106.537 120.441 106.203 121.217 106.068C121.993 105.932 122.798 106.001 123.529 106.266C124.26 106.531 124.886 106.979 125.325 107.555C125.765 108.131 126 108.808 126 109.5C125.998 110.427 125.577 111.315 124.829 111.971C124.081 112.627 123.066 112.997 122.007 113ZM122.007 106.466C121.321 106.465 120.65 106.642 120.079 106.975C119.508 107.307 119.062 107.78 118.799 108.335C118.535 108.889 118.466 109.499 118.599 110.088C118.732 110.677 119.061 111.218 119.546 111.643C120.03 112.068 120.648 112.357 121.321 112.475C121.994 112.593 122.691 112.533 123.325 112.303C123.959 112.074 124.501 111.685 124.882 111.186C125.264 110.687 125.467 110.1 125.467 109.5C125.465 108.697 125.1 107.927 124.452 107.359C123.804 106.79 122.925 106.47 122.007 106.466Z" fill="#EA1D2C"/>
<path d="M151.885 90.0001H128.095C127.539 90.0001 127.006 90.2084 126.614 90.5791C126.221 90.9498 126 91.4526 126 91.9769V100.084C126 100.608 126.221 101.111 126.614 101.482C127.006 101.852 127.539 102.061 128.095 102.061H128.372V104L130.758 102.061H151.905C152.461 102.061 152.994 101.852 153.386 101.482C153.779 101.111 154 100.608 154 100.084V91.9769C154 91.7157 153.945 91.4571 153.839 91.2161C153.732 90.975 153.576 90.7562 153.379 90.5724C153.183 90.3886 152.95 90.2434 152.693 90.1452C152.437 90.0469 152.162 89.9976 151.885 90.0001Z" fill="#EA1D2C"/>
<g opacity="0.4">
<path d="M151.734 90.1322H127.625C127.062 90.1322 126.522 90.3326 126.124 90.6893C125.726 91.0459 125.502 91.5297 125.502 92.0342V99.8342C125.502 100.339 125.726 100.822 126.124 101.179C126.522 101.536 127.062 101.736 127.625 101.736H127.906V103.602L130.324 101.736H151.754C152.317 101.736 152.857 101.536 153.255 101.179C153.653 100.822 153.877 100.339 153.877 99.8342V92.0342C153.877 91.7829 153.821 91.5341 153.713 91.3021C153.605 91.0702 153.447 90.8597 153.248 90.6828C153.049 90.506 152.812 90.3663 152.552 90.2717C152.293 90.1772 152.014 90.1298 151.734 90.1322Z" fill="white"/>
</g>
<path d="M131.001 95.5547C130.99 95.2564 131.068 94.9615 131.226 94.7079C131.384 94.4544 131.613 94.2536 131.886 94.1314C132.158 94.0092 132.461 93.9711 132.756 94.0219C133.05 94.0728 133.322 94.2103 133.538 94.4169C133.754 94.6235 133.903 94.8897 133.966 95.1814C134.029 95.4732 134.004 95.7772 133.893 96.0545C133.783 96.3318 133.592 96.5698 133.345 96.7379C133.098 96.9061 132.807 96.9967 132.508 96.9983C132.313 97.0078 132.118 96.9773 131.935 96.9089C131.752 96.8405 131.585 96.7356 131.444 96.6005C131.303 96.4654 131.191 96.303 131.115 96.1231C131.039 95.9433 131 95.7499 131.001 95.5547ZM133.598 95.5547C133.6 95.3372 133.536 95.1242 133.416 94.9428C133.296 94.7614 133.125 94.6198 132.924 94.5359C132.723 94.4521 132.502 94.4298 132.289 94.4719C132.075 94.514 131.879 94.6186 131.725 94.7723C131.571 94.9261 131.467 95.1221 131.425 95.3355C131.382 95.5489 131.405 95.7699 131.489 95.9706C131.573 96.1713 131.714 96.3425 131.896 96.4624C132.077 96.5824 132.29 96.6457 132.508 96.6444C132.652 96.6492 132.796 96.6243 132.931 96.5713C133.065 96.5182 133.187 96.4381 133.29 96.3359C133.392 96.2338 133.472 96.1117 133.525 95.9773C133.578 95.8429 133.603 95.6991 133.598 95.5547Z" fill="white"/>
<path d="M135.999 95.9166C136.006 96.0596 135.986 96.2026 135.939 96.3366C135.893 96.4705 135.822 96.5924 135.731 96.6943C135.639 96.7962 135.53 96.876 135.408 96.9284C135.287 96.9809 135.158 97.0049 135.027 96.9989C134.895 97.0062 134.762 96.9772 134.642 96.9147C134.522 96.8522 134.418 96.7579 134.338 96.6404V96.9782H134V94H134.351V95.172C134.432 95.0615 134.535 94.9734 134.653 94.9148C134.77 94.8561 134.899 94.8285 135.027 94.8342C135.158 94.8282 135.287 94.8522 135.408 94.9047C135.53 94.9571 135.639 95.0369 135.731 95.1388C135.822 95.2407 135.893 95.3626 135.939 95.4965C135.986 95.6305 136.006 95.7735 135.999 95.9166ZM135.648 95.9166C135.638 95.7831 135.593 95.6556 135.519 95.5497C135.444 95.4438 135.343 95.3641 135.228 95.3203C135.113 95.2764 134.989 95.2704 134.871 95.3029C134.753 95.3354 134.646 95.4051 134.564 95.5033C134.481 95.6016 134.426 95.7242 134.406 95.8562C134.385 95.9882 134.4 96.1239 134.449 96.2467C134.497 96.3695 134.577 96.4741 134.679 96.5477C134.781 96.6213 134.9 96.6607 135.021 96.6611C135.11 96.6653 135.199 96.6487 135.281 96.6124C135.364 96.5761 135.438 96.521 135.5 96.4505C135.561 96.3801 135.609 96.2961 135.638 96.204C135.668 96.112 135.68 96.014 135.673 95.9166H135.648Z" fill="white"/>
<path d="M136 97.8744L136.103 97.5636C136.177 97.6387 136.271 97.6772 136.366 97.672C136.531 97.672 136.629 97.5347 136.629 97.2817V94.9472H136.943V97.2745C136.95 97.3716 136.94 97.4695 136.914 97.5612C136.887 97.653 136.846 97.7363 136.791 97.8052C136.736 97.8742 136.671 97.9272 136.598 97.9604C136.526 97.9935 136.448 98.0061 136.371 97.9972C136.241 98.0058 136.111 97.9629 136 97.8744ZM136.571 94.2606C136.571 94.2258 136.577 94.1914 136.588 94.1593C136.598 94.1273 136.614 94.0983 136.634 94.074C136.653 94.0498 136.677 94.0307 136.702 94.0181C136.728 94.0055 136.755 93.9994 136.783 94.0004C136.81 93.9985 136.838 94.0035 136.864 94.0153C136.89 94.027 136.913 94.0452 136.934 94.0688C136.954 94.0924 136.97 94.1209 136.982 94.1526C136.993 94.1843 136.999 94.2186 137 94.2534C137.001 94.2894 136.996 94.3252 136.985 94.3587C136.974 94.3921 136.958 94.4223 136.938 94.4474C136.917 94.4726 136.893 94.4921 136.866 94.5047C136.84 94.5173 136.811 94.5228 136.783 94.5208C136.755 94.5229 136.726 94.5174 136.7 94.5047C136.674 94.492 136.65 94.4724 136.63 94.4471C136.61 94.4219 136.594 94.3915 136.584 94.3581C136.574 94.3247 136.57 94.289 136.571 94.2534V94.2606Z" fill="white"/>
<path d="M139.991 96.1167H138.365C138.373 96.2019 138.399 96.2845 138.44 96.3599C138.481 96.4352 138.537 96.5016 138.605 96.5551C138.673 96.6087 138.752 96.6483 138.835 96.6716C138.919 96.6949 139.007 96.7015 139.094 96.6908C139.202 96.6945 139.309 96.6753 139.409 96.6346C139.509 96.5939 139.599 96.5326 139.673 96.4548L139.874 96.6845C139.725 96.8304 139.537 96.9313 139.331 96.9752C139.126 97.0192 138.911 97.0044 138.714 96.9325C138.517 96.8606 138.345 96.7347 138.218 96.5698C138.092 96.4048 138.016 96.2077 138.001 96.0019C137.995 95.8701 138.018 95.7385 138.066 95.6155C138.115 95.4924 138.189 95.3805 138.283 95.2866C138.378 95.1926 138.491 95.1188 138.616 95.0696C138.741 95.0203 138.875 94.9968 139.009 95.0004C139.143 94.9965 139.277 95.0203 139.401 95.0701C139.526 95.1199 139.638 95.1946 139.731 95.2896C139.824 95.3845 139.896 95.4975 139.942 95.6213C139.988 95.745 140.007 95.8769 139.998 96.0083C139.999 96.0446 139.997 96.0808 139.991 96.1167ZM138.365 95.8616H139.666C139.666 95.6924 139.597 95.5301 139.476 95.4105C139.354 95.2909 139.188 95.2237 139.016 95.2237C138.843 95.2237 138.678 95.2909 138.556 95.4105C138.434 95.5301 138.365 95.6924 138.365 95.8616Z" fill="white"/>
<path d="M140 96.0002C139.997 95.8651 140.025 95.7308 140.081 95.6058C140.137 95.4808 140.221 95.3679 140.328 95.2741C140.434 95.1803 140.56 95.1077 140.699 95.0609C140.837 95.014 140.985 94.9939 141.132 95.0018C141.304 94.9916 141.476 95.0247 141.629 95.0975C141.782 95.1704 141.91 95.2803 142 95.4152L141.708 95.5932C141.645 95.5049 141.558 95.4324 141.456 95.3824C141.355 95.3325 141.241 95.3066 141.125 95.3071C140.938 95.3236 140.764 95.4034 140.637 95.5309C140.511 95.6585 140.441 95.8247 140.441 95.997C140.441 96.1694 140.511 96.3356 140.637 96.4631C140.764 96.5907 140.938 96.6705 141.125 96.687C141.24 96.6882 141.353 96.6633 141.455 96.6145C141.557 96.5656 141.644 96.4944 141.708 96.4072L142 96.5789C141.911 96.7145 141.783 96.8252 141.63 96.8992C141.477 96.9732 141.305 97.0075 141.132 96.9986C140.985 97.0056 140.838 96.9848 140.7 96.9376C140.562 96.8904 140.436 96.8178 140.33 96.7242C140.224 96.6306 140.14 96.518 140.083 96.3935C140.026 96.269 139.998 96.1351 140 96.0002Z" fill="white"/>
<path d="M144 96.8846C143.822 96.9593 143.605 96.9978 143.385 96.994C143.261 97.0057 143.135 97.0003 143.016 96.9783C142.896 96.9563 142.788 96.9182 142.7 96.8673C142.611 96.8165 142.545 96.7542 142.507 96.6856C142.469 96.6171 142.459 96.5444 142.48 96.4733V95.5883H142V95.354H142.48V95H142.986V95.354H143.783V95.5883H142.986V96.4577C142.977 96.4928 142.981 96.5286 142.999 96.5626C143.016 96.5965 143.047 96.6277 143.089 96.6538C143.131 96.6799 143.183 96.7001 143.24 96.7131C143.298 96.726 143.359 96.7313 143.421 96.7284C143.561 96.73 143.698 96.7043 143.81 96.6556L144 96.8846Z" fill="white"/>
<path d="M144 94.2436C144.002 94.2108 144.016 94.1784 144.042 94.1484C144.068 94.1184 144.105 94.0914 144.152 94.0688C144.198 94.0462 144.253 94.0285 144.313 94.0168C144.372 94.0051 144.436 93.9995 144.5 94.0004C144.563 93.9986 144.627 94.0033 144.686 94.0143C144.746 94.0252 144.801 94.0423 144.847 94.0643C144.894 94.0864 144.932 94.113 144.958 94.1426C144.984 94.1723 144.998 94.2043 145 94.2368C145 94.3049 144.947 94.3702 144.854 94.4184C144.76 94.4665 144.633 94.4936 144.5 94.4936C144.367 94.4936 144.24 94.4665 144.146 94.4184C144.053 94.3702 144 94.3049 144 94.2368V94.2436ZM144.132 94.9192H144.868V97H144.132V94.9192Z" fill="white"/>
<path d="M147 95L146.174 97H145.826L145 95H145.361L145.972 96.6039L146.633 95H147Z" fill="white"/>
<path d="M148.991 96.1134H147.365C147.373 96.1983 147.399 96.2808 147.44 96.3558C147.481 96.4309 147.537 96.4971 147.605 96.5505C147.673 96.6039 147.752 96.6434 147.835 96.6667C147.919 96.6899 148.007 96.6964 148.094 96.6859C148.202 96.6895 148.309 96.6704 148.409 96.6298C148.509 96.5892 148.599 96.528 148.673 96.4505L148.868 96.6795C148.769 96.7869 148.647 96.8712 148.511 96.9262C148.375 96.9813 148.228 97.0057 148.081 96.9975C147.941 97.0072 147.801 96.9885 147.67 96.9425C147.538 96.8965 147.418 96.8243 147.316 96.7304C147.215 96.6365 147.134 96.523 147.08 96.3971C147.026 96.2712 146.999 96.1356 147.001 95.999C146.995 95.8675 147.018 95.7363 147.066 95.6136C147.115 95.491 147.189 95.3793 147.283 95.2857C147.378 95.1921 147.491 95.1184 147.616 95.0694C147.741 95.0203 147.875 94.9968 148.009 95.0004C148.143 94.9966 148.277 95.0202 148.401 95.0699C148.526 95.1195 148.638 95.1941 148.731 95.2887C148.824 95.3834 148.896 95.496 148.942 95.6194C148.988 95.7428 149.007 95.8743 148.998 96.0053C148.999 96.0415 148.997 96.0776 148.991 96.1134ZM147.365 95.859H148.666C148.666 95.6904 148.597 95.5286 148.476 95.4093C148.354 95.29 148.188 95.223 148.016 95.223C147.843 95.223 147.678 95.29 147.556 95.4093C147.434 95.5286 147.365 95.6904 147.365 95.859Z" fill="white"/>
<path d="M144 39.3761C144.006 38.7059 143.833 38.0435 143.495 37.4409C143.157 36.8383 142.663 36.3118 142.052 35.9027C141.44 35.4936 140.728 35.2129 139.971 35.0827C139.214 34.9525 138.433 34.9763 137.688 35.1522C136.943 35.3281 136.255 35.6513 135.679 36.0966C135.102 36.5418 134.651 37.097 134.363 37.7187C134.074 38.3403 133.955 39.0116 134.015 39.6798C134.075 40.3481 134.312 40.9952 134.708 41.5705C134.902 41.8492 135.143 42.0524 135.377 42.3484L138.285 45.6865C138.369 45.7838 138.478 45.8628 138.603 45.9173C138.728 45.9717 138.866 46 139.007 46C139.147 46 139.285 45.9717 139.41 45.9173C139.535 45.8628 139.644 45.7838 139.728 45.6865L142.583 42.4007C142.844 42.1342 143.087 41.8551 143.311 41.5647C143.761 40.9013 143.998 40.1458 144 39.3761ZM139 41.2454C138.563 41.2466 138.136 41.1352 137.773 40.9254C137.409 40.7156 137.125 40.4168 136.957 40.0668C136.789 39.7169 136.745 39.3315 136.829 38.9595C136.913 38.5875 137.123 38.2456 137.431 37.9771C137.739 37.7086 138.132 37.5256 138.56 37.4512C138.988 37.3768 139.432 37.4144 139.836 37.5592C140.239 37.704 140.584 37.9496 140.827 38.2647C141.07 38.5799 141.199 38.9505 141.199 39.3297C141.199 39.8368 140.968 40.3232 140.555 40.6823C140.143 41.0414 139.584 41.2439 139 41.2454Z" fill="#EA1D2C"/>
<path d="M111.241 216.251H110V216H113V216.251H111.741V218H111.223L111.241 216.251Z" fill="#263238"/>
<path d="M113.001 217.506C112.998 217.407 113.054 217.31 113.163 217.227C113.271 217.144 113.425 217.079 113.608 217.04C113.79 217.001 113.991 216.99 114.185 217.009C114.38 217.027 114.559 217.074 114.7 217.143C114.842 217.212 114.939 217.301 114.979 217.398C115.019 217.495 115.001 217.596 114.927 217.687C114.853 217.779 114.725 217.858 114.562 217.913C114.398 217.969 114.205 217.999 114.007 217.999C113.874 218.003 113.742 217.993 113.618 217.969C113.494 217.946 113.381 217.91 113.286 217.863C113.192 217.817 113.118 217.761 113.068 217.7C113.019 217.638 112.996 217.572 113.001 217.506ZM114.65 217.506C114.65 217.42 114.582 217.338 114.461 217.277C114.339 217.217 114.175 217.183 114.003 217.183C113.832 217.183 113.667 217.217 113.546 217.277C113.425 217.338 113.357 217.42 113.357 217.506C113.357 217.592 113.425 217.674 113.546 217.734C113.667 217.795 113.832 217.829 114.003 217.829C114.175 217.829 114.339 217.795 114.461 217.734C114.582 217.674 114.65 217.592 114.65 217.506Z" fill="#263238"/>
<path d="M116 217.88C115.914 217.96 115.805 218 115.694 217.995C115.632 218.006 115.569 217.999 115.509 217.977C115.449 217.954 115.395 217.916 115.351 217.865C115.306 217.815 115.273 217.753 115.253 217.684C115.234 217.616 115.228 217.544 115.237 217.473V216.59H115V216.35H115.237V216H115.511V216.35H115.913V216.59H115.511V217.462C115.506 217.497 115.509 217.533 115.518 217.567C115.527 217.602 115.542 217.633 115.563 217.659C115.584 217.685 115.61 217.705 115.639 217.718C115.668 217.731 115.7 217.737 115.731 217.734C115.803 217.733 115.873 217.705 115.932 217.656L116 217.88Z" fill="#263238"/>
<path d="M118.996 217.4V217.986H118.599V217.86C118.511 217.907 118.397 217.945 118.266 217.969C118.136 217.993 117.994 218.003 117.852 217.999C117.329 217.999 117 217.882 117 217.712C117 217.542 117.239 217.428 117.919 217.428H118.584V217.393C118.584 217.245 118.383 217.157 117.964 217.157C117.692 217.153 117.427 217.191 117.217 217.264L117.037 217.131C117.312 217.044 117.65 217 117.994 217.005C118.125 216.996 118.259 216.999 118.386 217.015C118.513 217.031 118.63 217.059 118.727 217.098C118.824 217.136 118.899 217.183 118.945 217.235C118.992 217.288 119.009 217.344 118.996 217.4ZM118.577 217.69V217.554H117.934C117.523 217.554 117.404 217.624 117.404 217.706C117.404 217.788 117.59 217.863 117.912 217.863C118.052 217.868 118.192 217.853 118.311 217.822C118.431 217.791 118.524 217.745 118.577 217.69Z" fill="#263238"/>
<path d="M119 216H120V218H119V216Z" fill="#263238"/>
<path d="M123 216V217.981H122.656V217.756C122.574 217.835 122.466 217.898 122.342 217.94C122.218 217.983 122.081 218.003 121.943 218C121.686 217.985 121.447 217.903 121.272 217.768C121.097 217.634 121 217.458 121 217.276C121 217.093 121.097 216.917 121.272 216.783C121.447 216.649 121.686 216.566 121.943 216.552C122.077 216.548 122.211 216.566 122.332 216.606C122.454 216.646 122.561 216.706 122.643 216.781V216H123ZM122.643 217.273C122.632 217.185 122.585 217.1 122.507 217.03C122.429 216.96 122.324 216.908 122.205 216.879C122.086 216.851 121.958 216.847 121.836 216.869C121.715 216.892 121.605 216.938 121.52 217.004C121.435 217.07 121.379 217.151 121.358 217.239C121.337 217.327 121.353 217.417 121.403 217.499C121.454 217.58 121.536 217.65 121.641 217.699C121.747 217.748 121.869 217.774 121.995 217.774C122.085 217.775 122.175 217.762 122.257 217.736C122.34 217.71 122.414 217.673 122.475 217.625C122.536 217.578 122.583 217.523 122.612 217.462C122.641 217.401 122.651 217.337 122.643 217.273Z" fill="#263238"/>
<path d="M125 217.886L125.184 217.743C125.429 217.81 125.717 217.845 126.011 217.844C126.41 217.844 126.571 217.797 126.571 217.714C126.571 217.492 125.038 217.682 125.038 217.295C125.038 217.117 125.421 217 126.027 217C126.327 216.999 126.622 217.029 126.885 217.089L126.701 217.229C126.496 217.176 126.259 217.15 126.019 217.152C125.644 217.152 125.467 217.21 125.467 217.286C125.467 217.517 127 217.33 127 217.708C127 217.886 126.609 218 125.981 218C125.634 218.003 125.292 217.963 125 217.886Z" fill="#263238"/>
<path d="M128 217.88C127.913 217.961 127.804 218.002 127.692 217.995C127.631 218.006 127.568 217.999 127.509 217.977C127.45 217.954 127.396 217.916 127.352 217.865C127.308 217.815 127.275 217.753 127.256 217.684C127.236 217.616 127.231 217.544 127.24 217.473V216.59H127V216.35H127.258V216H127.511V216.35H127.91V216.59H127.511V217.462C127.506 217.497 127.509 217.533 127.517 217.567C127.526 217.602 127.542 217.633 127.563 217.659C127.584 217.685 127.609 217.705 127.638 217.718C127.667 217.731 127.698 217.737 127.729 217.734C127.799 217.734 127.868 217.706 127.923 217.656L128 217.88Z" fill="#263238"/>
<path d="M129.996 217.399V217.987H129.6V217.86C129.511 217.907 129.396 217.944 129.266 217.968C129.136 217.993 128.994 218.003 128.852 217.999C128.336 217.999 128 217.882 128 217.712C128 217.541 128.239 217.427 128.927 217.427H129.592V217.393C129.592 217.244 129.383 217.156 128.972 217.156C128.701 217.154 128.436 217.192 128.224 217.263L128.052 217.131C128.327 217.043 128.665 216.999 129.009 217.004C129.139 216.996 129.271 217 129.396 217.016C129.522 217.033 129.636 217.061 129.731 217.099C129.827 217.138 129.9 217.184 129.946 217.236C129.992 217.288 130.009 217.344 129.996 217.399ZM129.577 217.69V217.554H128.934C128.516 217.554 128.404 217.623 128.404 217.705C128.404 217.788 128.591 217.863 128.912 217.863C129.052 217.868 129.192 217.853 129.311 217.822C129.431 217.791 129.524 217.745 129.577 217.69Z" fill="#263238"/>
<path d="M132.99 217.437V218H132.619V217.457C132.619 217.266 132.41 217.171 132.052 217.171C131.962 217.167 131.87 217.172 131.785 217.187C131.699 217.201 131.621 217.225 131.557 217.255C131.493 217.285 131.443 217.322 131.412 217.362C131.381 217.403 131.369 217.446 131.378 217.488V217.99H131V217.012H131.358V217.161C131.447 217.108 131.563 217.066 131.694 217.038C131.826 217.01 131.969 216.998 132.113 217.002C132.236 216.996 132.359 217.003 132.475 217.023C132.591 217.043 132.695 217.076 132.78 217.118C132.864 217.16 132.927 217.211 132.964 217.266C133 217.322 133.009 217.38 132.99 217.437Z" fill="#263238"/>
<path d="M133 217.499C132.997 217.431 133.024 217.364 133.081 217.302C133.137 217.24 133.22 217.183 133.326 217.137C133.432 217.09 133.558 217.054 133.696 217.03C133.834 217.007 133.981 216.997 134.128 217.001C134.301 216.997 134.473 217.014 134.627 217.05C134.78 217.087 134.909 217.142 135 217.21L134.702 217.296C134.638 217.252 134.552 217.217 134.45 217.192C134.349 217.168 134.236 217.156 134.121 217.156C133.935 217.164 133.761 217.204 133.635 217.268C133.509 217.331 133.439 217.414 133.439 217.5C133.439 217.586 133.509 217.669 133.635 217.732C133.761 217.796 133.935 217.836 134.121 217.844C134.236 217.845 134.349 217.832 134.45 217.808C134.552 217.784 134.638 217.748 134.702 217.705L135 217.787C134.91 217.855 134.781 217.91 134.628 217.948C134.474 217.985 134.302 218.003 134.128 217.999C133.981 218.003 133.834 217.992 133.696 217.969C133.558 217.945 133.432 217.908 133.326 217.861C133.22 217.814 133.137 217.758 133.081 217.696C133.025 217.633 132.997 217.566 133 217.499Z" fill="#263238"/>
<path d="M137.991 217.558H136.365C136.373 217.6 136.398 217.642 136.44 217.679C136.481 217.716 136.537 217.749 136.605 217.776C136.673 217.803 136.751 217.822 136.835 217.834C136.919 217.845 137.007 217.849 137.093 217.843C137.201 217.845 137.309 217.836 137.409 217.815C137.509 217.795 137.599 217.765 137.672 217.726L137.874 217.84C137.773 217.893 137.65 217.934 137.513 217.962C137.376 217.989 137.228 218.002 137.08 217.999C136.94 218.004 136.8 217.994 136.668 217.971C136.536 217.948 136.415 217.912 136.314 217.865C136.212 217.817 136.132 217.76 136.078 217.697C136.024 217.634 135.998 217.566 136.001 217.498C135.995 217.432 136.018 217.367 136.066 217.306C136.115 217.245 136.189 217.189 136.283 217.142C136.378 217.096 136.491 217.059 136.616 217.035C136.741 217.01 136.874 216.998 137.009 217C137.144 216.998 137.278 217.01 137.403 217.035C137.527 217.06 137.64 217.097 137.733 217.145C137.826 217.192 137.898 217.249 137.944 217.311C137.989 217.373 138.007 217.439 137.997 217.504C137.998 217.522 137.996 217.54 137.991 217.558ZM136.365 217.431H137.666C137.666 217.347 137.597 217.267 137.475 217.207C137.353 217.148 137.188 217.114 137.015 217.114C136.843 217.114 136.677 217.148 136.555 217.207C136.433 217.267 136.365 217.347 136.365 217.431Z" fill="#263238"/>
<path d="M115 221V227H113.389V222.113H112V221H115Z" fill="#263238"/>
<path d="M118 225.852C117.984 226.158 117.89 226.457 117.724 226.729L117.127 228H116.106L116.561 226.602C116.388 226.541 116.241 226.437 116.141 226.303C116.041 226.168 115.992 226.011 116.001 225.852C116.001 225.626 116.106 225.409 116.294 225.249C116.481 225.09 116.735 225 117.001 225C117.266 225 117.52 225.09 117.707 225.249C117.895 225.409 118 225.626 118 225.852Z" fill="#263238"/>
<path d="M121 221V227H119.373V222.113H118V221H121Z" fill="#263238"/>
<path d="M122 224C122 222.08 123.064 221 124.5 221C125.936 221 127 222.092 127 224C127 225.908 125.942 227 124.5 227C123.058 227 122 225.92 122 224ZM125.642 224C125.642 222.68 125.173 222.128 124.5 222.128C123.827 222.128 123.364 222.68 123.364 224C123.364 225.32 123.833 225.872 124.5 225.872C125.167 225.872 125.642 225.326 125.642 224Z" fill="#263238"/>
<path d="M128 224C128 222.08 129.282 221 131.004 221C132.725 221 134 222.092 134 224C134 225.908 132.732 227 131.004 227C129.275 227 128 225.92 128 224ZM132.372 224C132.372 222.68 131.81 222.128 131.004 222.128C130.197 222.128 129.642 222.68 129.642 224C129.642 225.32 130.204 225.872 131.004 225.872C131.803 225.872 132.372 225.326 132.372 224Z" fill="#263238"/>
<path d="M146 224.177V226.948H144.457V224.397C144.457 223.612 144.071 223.249 143.443 223.249C142.814 223.249 142.264 223.658 142.264 224.547V226.974H140.721V224.423C140.721 223.638 140.357 223.275 139.714 223.275C139.071 223.275 138.543 223.683 138.543 224.573V227H137V222.093H138.471V222.652C138.681 222.438 138.941 222.269 139.231 222.157C139.521 222.044 139.835 221.992 140.15 222.003C140.492 221.986 140.833 222.05 141.14 222.189C141.446 222.328 141.708 222.536 141.9 222.794C142.133 222.538 142.427 222.334 142.76 222.197C143.093 222.06 143.456 221.993 143.821 222.003C145.093 222.035 146 222.703 146 224.177Z" fill="#263238"/>
<path d="M106.968 221.875C107.676 219.175 105.808 216.472 102.794 215.837C99.7807 215.202 96.7633 216.877 96.0549 219.576C95.3464 222.276 97.215 224.98 100.229 225.615C103.242 226.249 106.259 224.575 106.968 221.875Z" fill="#EA1D2C"/>
<path d="M99.1956 221.629C99.6928 221.559 100.195 221.529 100.697 221.54C101.654 221.54 103.023 221.492 104.658 221.478L104.539 221.731C104.071 221.212 103.575 220.638 103.044 220.043L102.953 219.941L103.044 219.825L104.518 218.027L104.658 218.314H103.959H99.1606L99.3283 218.157C99.3283 219.893 99.2864 221.355 99.2584 222.38C99.2701 222.922 99.2374 223.464 99.1606 224C99.0884 223.463 99.0557 222.922 99.0629 222.38C99.0629 221.355 99.014 219.893 99 218.157V218H99.1606H103.959H105L104.763 218.287L103.275 220.084V219.866L104.742 221.574L104.965 221.827H104.623C102.988 221.827 101.619 221.786 100.662 221.765C100.17 221.761 99.6796 221.715 99.1956 221.629Z" fill="#FAFAFA"/>
<path d="M191.813 212H175.187C174.342 212 173.531 212.312 172.933 212.868C172.336 213.424 172 214.178 172 214.964V227.139C172.002 227.924 172.338 228.676 172.936 229.231C173.533 229.785 174.343 230.097 175.187 230.097H175.608V233L179.229 230.097H191.813C192.657 230.097 193.467 229.785 194.064 229.231C194.662 228.676 194.998 227.924 195 227.139V214.964C195 214.178 194.664 213.424 194.067 212.868C193.469 212.312 192.658 212 191.813 212Z" fill="#EA1D2C"/>
<path d="M177 217.236V223.745C177 223.813 177.028 223.878 177.079 223.925C177.13 223.973 177.199 224 177.27 224H191.737C191.772 223.999 191.807 223.992 191.839 223.978C191.872 223.965 191.901 223.945 191.926 223.921C191.95 223.897 191.969 223.868 191.982 223.837C191.995 223.806 192.001 223.772 192 223.739L191.966 221.357C191.967 221.304 191.951 221.253 191.919 221.21L189.839 218.592C189.815 218.561 189.784 218.535 189.747 218.517C189.711 218.5 189.67 218.49 189.629 218.49H187.239C187.168 218.49 187.1 218.465 187.05 218.418C186.999 218.372 186.97 218.309 186.968 218.242V217.255C186.969 217.222 186.963 217.189 186.95 217.158C186.938 217.127 186.918 217.099 186.894 217.075C186.869 217.051 186.84 217.032 186.807 217.019C186.775 217.007 186.74 217 186.705 217H177.25C177.185 217.004 177.124 217.031 177.078 217.074C177.033 217.117 177.005 217.175 177 217.236Z" fill="#FAFAFA"/>
<path d="M187 219.157V220.88C187 220.912 187.019 220.942 187.052 220.965C187.086 220.987 187.131 221 187.178 221L190.83 220.958C190.862 220.957 190.892 220.951 190.919 220.939C190.946 220.927 190.967 220.911 190.981 220.892C190.995 220.872 191.002 220.851 191 220.829C190.997 220.808 190.987 220.787 190.969 220.77L189.247 219.053C189.232 219.036 189.21 219.022 189.184 219.013C189.158 219.003 189.129 218.999 189.1 219L187.155 219.037C187.111 219.039 187.07 219.053 187.042 219.076C187.013 219.098 186.998 219.127 187 219.157Z" fill="#EA1D2C"/>
<path d="M193 224H178V225H193V224Z" fill="#FAFAFA"/>
<path d="M183 224.493C183.001 224.791 182.914 225.082 182.75 225.329C182.586 225.577 182.351 225.77 182.077 225.885C181.803 225.999 181.501 226.029 181.209 225.971C180.917 225.914 180.65 225.771 180.439 225.561C180.229 225.35 180.086 225.083 180.029 224.791C179.971 224.499 180.001 224.197 180.115 223.923C180.23 223.649 180.423 223.414 180.671 223.25C180.918 223.086 181.209 222.999 181.507 223C181.903 223 182.282 223.157 182.563 223.437C182.843 223.718 183 224.097 183 224.493Z" fill="#EA1D2C"/>
<path d="M182 224.496C182.001 224.596 181.944 224.693 181.835 224.775C181.725 224.858 181.569 224.923 181.386 224.961C181.203 225 181.001 225.01 180.807 224.991C180.612 224.971 180.433 224.924 180.293 224.854C180.153 224.783 180.057 224.694 180.019 224.597C179.981 224.499 180.001 224.398 180.078 224.307C180.154 224.215 180.283 224.137 180.449 224.083C180.615 224.028 180.809 223.999 181.007 224C181.271 224 181.523 224.052 181.709 224.145C181.895 224.238 182 224.365 182 224.496Z" fill="#FAFAFA"/>
<path d="M191 224.5C191 224.797 190.912 225.087 190.747 225.333C190.582 225.58 190.348 225.772 190.074 225.886C189.8 225.999 189.498 226.029 189.207 225.971C188.916 225.913 188.649 225.77 188.439 225.561C188.23 225.351 188.087 225.084 188.029 224.793C187.971 224.502 188.001 224.2 188.114 223.926C188.228 223.652 188.42 223.418 188.667 223.253C188.913 223.088 189.203 223 189.5 223C189.898 223 190.279 223.158 190.561 223.439C190.842 223.721 191 224.102 191 224.5Z" fill="#EA1D2C"/>
<path d="M190 224.496C190.001 224.595 189.972 224.692 189.918 224.775C189.863 224.858 189.785 224.922 189.694 224.961C189.603 224.999 189.502 225.01 189.405 224.991C189.308 224.972 189.218 224.925 189.148 224.855C189.077 224.785 189.029 224.696 189.01 224.599C188.99 224.502 189 224.401 189.038 224.31C189.075 224.218 189.14 224.14 189.222 224.085C189.304 224.029 189.401 224 189.5 224C189.632 224 189.759 224.052 189.852 224.145C189.946 224.238 189.999 224.364 190 224.496Z" fill="#FAFAFA"/>
<path d="M347.891 121C347.891 121 359.294 122.638 360.213 122.848C361.132 123.059 364.745 124.516 364.928 125.455C365.024 126.688 365.024 127.925 364.928 129.158C364.928 129.158 364.271 129.609 363.868 128.706C363.598 127.828 363.481 126.922 363.522 126.015L361.5 125.353L362.603 127.02L362.786 130.928C362.786 130.928 361.372 130.819 361.097 129.886C360.923 129.236 360.833 128.572 360.828 127.905L359.358 126.846L360.46 128.116L360.828 130.928C360.828 130.928 359.754 131.229 359.414 130.603C359.166 129.791 359.042 128.955 359.047 128.116L354.89 126.876L352.14 128.182L347 125.738L347.891 121Z" fill="#FFBE9D"/>
<path d="M310.439 97C310.493 97.1966 323.621 113.589 323.621 113.589L350 121.023L348.8 130L316.474 124.102L305 112.17L310.439 97Z" fill="#EA1D2C"/>
<g opacity="0.2">
<path d="M310.497 97.2842C310.551 97.4762 323.516 113.484 323.516 113.484L349.567 120.744L348.382 129.51L316.458 123.75L305.127 112.098L310.497 97.2842Z" fill="black"/>
</g>
<path d="M264.969 119H212.031C210.909 119 210 119.882 210 120.969V127.031C210 128.118 210.909 129 212.031 129H264.969C266.091 129 267 128.118 267 127.031V120.969C267 119.882 266.091 119 264.969 119Z" fill="#F5F5F5"/>
<path d="M264.885 128.919C264.885 128.919 264.998 128.919 265.217 128.875C265.638 128.802 266.023 128.602 266.315 128.305C266.606 128.008 266.789 127.63 266.834 127.228C266.834 126.639 266.834 125.938 266.834 125.162C266.834 124.385 266.834 123.515 266.834 122.569C266.834 122.093 266.834 121.599 266.834 121.085C266.826 120.831 266.762 120.581 266.648 120.351C266.534 120.121 266.372 119.915 266.171 119.745C265.954 119.571 265.698 119.445 265.422 119.376C265.129 119.315 264.827 119.296 264.527 119.319H262.592H258.383L212.24 119.369C211.982 119.369 211.726 119.42 211.49 119.518C211.254 119.616 211.042 119.759 210.868 119.939C210.695 120.121 210.564 120.335 210.482 120.566C210.4 120.797 210.369 121.042 210.39 121.286C210.39 122.338 210.39 123.383 210.39 124.416V126.765C210.378 127.004 210.4 127.244 210.457 127.478C210.556 127.817 210.759 128.12 211.041 128.349C211.324 128.577 211.672 128.721 212.041 128.762C212.273 128.762 212.558 128.762 212.823 128.762H225.073L245.814 128.8L259.801 128.85L263.606 128.881L259.801 128.912L245.814 128.962L225.073 129H212.777C212.505 129 212.253 129 211.955 129C211.666 128.967 211.387 128.882 211.133 128.75C210.879 128.617 210.656 128.437 210.476 128.222C210.296 128.007 210.164 127.761 210.085 127.497C210.014 127.236 209.987 126.965 210.006 126.696V124.373C210.006 123.339 210.006 122.294 210.006 121.242C209.988 120.958 210.03 120.673 210.129 120.405C210.228 120.136 210.382 119.889 210.582 119.676C210.788 119.462 211.038 119.291 211.318 119.174C211.598 119.058 211.901 118.999 212.207 119L258.349 119.05H264.494C264.812 119.038 265.131 119.063 265.442 119.125C265.746 119.203 266.027 119.344 266.264 119.539C266.488 119.722 266.67 119.948 266.796 120.201C266.923 120.454 266.992 120.73 267 121.01C267 121.523 267 122.024 267 122.5C267 123.446 267 124.31 267 125.093C267 125.875 267 126.558 266.967 127.172C266.893 127.691 266.605 128.162 266.165 128.48C265.897 128.67 265.582 128.793 265.25 128.837C265.134 128.882 265.011 128.91 264.885 128.919Z" fill="#263238"/>
<path d="M409.648 247.353C424.754 246.702 436.412 235.204 435.686 221.67C434.961 208.136 422.126 197.691 407.02 198.341C391.914 198.991 380.256 210.49 380.982 224.024C381.707 237.558 394.542 248.003 409.648 247.353Z" fill="#263238"/>
<path d="M382.001 222C382.001 222 382.001 222.042 382.001 222.067C381.94 228.598 384.756 234.886 389.835 239.557C394.913 244.228 401.841 246.903 409.106 246.997C416.371 247.092 423.382 244.598 428.608 240.06C433.834 235.523 436.851 229.311 437 222.78C437 222.78 437 222.738 437 222.714L382.001 222Z" fill="#263238"/>
<path d="M389.002 222.753C388.946 226.115 390.035 229.416 392.131 232.239C394.227 235.061 397.236 237.278 400.777 238.61C404.319 239.942 408.234 240.328 412.027 239.72C415.82 239.111 419.321 237.536 422.088 235.193C424.854 232.85 426.761 229.845 427.568 226.557C428.375 223.269 428.046 219.846 426.621 216.722C425.197 213.597 422.742 210.911 419.566 209.003C416.39 207.094 412.637 206.05 408.781 206.002C403.61 205.937 398.621 207.665 394.912 210.807C391.203 213.948 389.077 218.245 389.002 222.753Z" fill="#FAFAFA"/>
<path d="M408.781 206.002C403.61 205.938 398.62 207.642 394.911 210.739C391.201 213.835 389.075 218.072 389 222.515L427.998 223C428.072 218.556 426.09 214.269 422.486 211.081C418.882 207.893 413.952 206.066 408.781 206.002Z" fill="#E0E0E0"/>
<path d="M397.001 222.345C396.968 224.422 397.609 226.461 398.845 228.204C400.081 229.948 401.855 231.318 403.944 232.141C406.032 232.964 408.341 233.202 410.578 232.827C412.816 232.452 414.881 231.479 416.512 230.032C418.144 228.585 419.269 226.729 419.745 224.698C420.221 222.667 420.027 220.553 419.187 218.623C418.347 216.693 416.899 215.033 415.027 213.855C413.154 212.676 410.94 212.031 408.666 212.001C405.617 211.961 402.675 213.028 400.488 214.968C398.3 216.908 397.046 219.561 397.001 222.345Z" fill="#263238"/>
<path d="M395.148 186.973C395.148 186.973 423.341 179.366 435 206.693L376 223L395.148 186.973Z" fill="#EA1D2C"/>
<path d="M240.699 247.355C255.805 246.705 267.462 235.206 266.737 221.672C266.011 208.138 253.177 197.693 238.071 198.344C222.965 198.994 211.307 210.492 212.033 224.026C212.758 237.561 225.592 248.005 240.699 247.355Z" fill="#263238"/>
<path d="M213.001 222C213.001 222 213.001 222.042 213.001 222.067C212.94 228.598 215.756 234.886 220.835 239.557C225.913 244.228 232.841 246.903 240.106 246.997C247.371 247.092 254.382 244.598 259.608 240.06C264.834 235.523 267.851 229.311 268 222.78V222.701L213.001 222Z" fill="#263238"/>
<path d="M220.002 222.753C219.946 226.115 221.035 229.416 223.131 232.239C225.227 235.061 228.236 237.278 231.777 238.61C235.319 239.942 239.234 240.328 243.027 239.72C246.82 239.111 250.321 237.536 253.088 235.193C255.854 232.85 257.761 229.845 258.568 226.557C259.375 223.269 259.046 219.846 257.621 216.722C256.197 213.597 253.742 210.911 250.566 209.003C247.39 207.094 243.637 206.05 239.781 206.002C234.61 205.937 229.621 207.665 225.912 210.807C222.203 213.948 220.077 218.245 220.002 222.753Z" fill="#FAFAFA"/>
<path d="M239.754 206.001C234.587 205.944 229.605 207.65 225.901 210.747C222.198 213.843 220.075 218.076 220 222.515L258.998 223C259.035 220.798 258.566 218.611 257.619 216.564C256.671 214.517 255.263 212.651 253.476 211.073C251.689 209.494 249.557 208.233 247.202 207.363C244.848 206.493 242.317 206.03 239.754 206.001Z" fill="#E0E0E0"/>
<path d="M228.001 222.345C227.968 224.422 228.609 226.461 229.845 228.204C231.081 229.948 232.855 231.318 234.944 232.141C237.032 232.964 239.341 233.202 241.578 232.827C243.816 232.452 245.881 231.479 247.512 230.032C249.144 228.585 250.269 226.729 250.745 224.698C251.221 222.667 251.027 220.553 250.187 218.623C249.347 216.693 247.899 215.033 246.027 213.855C244.154 212.676 241.94 212.031 239.666 212.001C236.617 211.961 233.675 213.028 231.488 214.968C229.3 216.908 228.046 219.561 228.001 222.345Z" fill="#263238"/>
<path d="M278.263 213.005C278.111 213.078 264.008 211 264.008 211C263.246 211.916 262.275 212.667 261.164 213.202C260.053 213.737 258.829 214.042 257.576 214.096C251.482 214.365 245.527 214.614 240.354 214.828C238.042 214.923 235.866 215.857 234.302 217.426C232.737 218.994 231.912 221.069 232.007 223.197C232.1 225.216 233.015 227.129 234.57 228.556C236.125 229.983 238.206 230.82 240.4 230.901L270.427 231.992C275.362 232.169 281.92 229.414 285 225.86L278.263 213.005Z" fill="#455A64"/>
<path d="M204.011 202.033C204.011 202.033 202.711 178.092 227.821 173.106V170.036H315.779V177.402C315.779 177.402 302.872 191.333 307.062 202.898C311.253 214.463 312.594 215.646 312.594 215.646H362.654C366.605 210.672 368.806 204.754 368.977 198.651C369.245 188.498 364.538 171.142 361.018 160.045C357.84 149.922 355.828 141.488 355.828 141.488L370.848 137C370.848 137 398.641 169.592 399.774 171.394C400.907 173.196 404.769 177.498 403.864 186.858C402.959 196.217 377.955 225.09 371.398 228.346C364.84 231.603 358.913 231.807 353.006 232.618C347.883 233.327 309.986 232.858 300.069 232.72C296.623 232.701 293.244 231.861 290.279 230.287C287.316 228.677 285.09 226.009 282.629 221.636L277.379 212.48L204.011 202.033Z" fill="#EA1D2C"/>
<path d="M210.779 200L199.477 216.106C199.142 216.552 198.975 217.086 199.003 217.626C199.031 218.166 199.251 218.684 199.63 219.1C200.01 219.516 200.528 219.809 201.106 219.933C201.685 220.058 202.292 220.007 202.836 219.79C204.243 219.218 205.528 218.426 206.633 217.45C211.799 212.976 221 201.189 221 201.189L210.779 200Z" fill="#455A64"/>
<path d="M289.816 203C289.816 203 289.816 202.922 289.883 202.773L290.104 202.12C290.37 201.283 290.565 200.429 290.687 199.565C291.058 196.369 290.465 193.142 288.971 190.219C287.966 188.201 286.587 186.35 284.89 184.743C282.942 182.909 280.68 181.361 278.189 180.16C275.428 178.828 272.474 177.846 269.411 177.24C266.108 176.603 262.738 176.292 259.359 176.312C255.996 176.334 252.638 176.556 249.308 176.976C246.064 177.365 242.955 177.844 240.02 178.442C234.809 179.43 229.787 181.089 225.11 183.367C221.97 184.923 219.1 186.881 216.593 189.177C215.709 189.991 215.072 190.667 214.65 191.128L214.174 191.661C214.123 191.724 214.065 191.782 214 191.834C214.739 190.857 215.573 189.94 216.493 189.094C218.978 186.753 221.842 184.758 224.99 183.176C229.675 180.857 234.717 179.167 239.953 178.161C242.888 177.563 245.984 177.066 249.261 176.671C252.618 176.247 256.003 176.023 259.393 176.001C262.79 175.981 266.179 176.296 269.498 176.94C272.592 177.567 275.573 178.574 278.357 179.932C280.883 181.151 283.174 182.723 285.145 184.588C286.853 186.222 288.238 188.104 289.239 190.153C290.727 193.115 291.288 196.383 290.861 199.607C290.72 200.474 290.496 201.329 290.191 202.162C290.084 202.438 290.003 202.647 289.936 202.809C289.902 202.875 289.862 202.939 289.816 203Z" fill="#263238"/>
<path d="M285.225 198C285.184 198 285.37 197.618 285.564 196.926C285.823 195.93 285.858 194.899 285.668 193.891C285.399 192.409 284.827 190.982 283.982 189.678C283.503 188.898 282.943 188.159 282.309 187.469C281.646 186.719 280.893 186.033 280.064 185.424C278.447 184.254 276.627 183.32 274.674 182.656C273.076 182.105 271.418 181.698 269.726 181.442C268.583 181.272 267.429 181.157 266.271 181.096C265.846 181.091 265.421 181.063 265 181.011C265.11 180.996 265.222 180.996 265.332 181.011C265.546 181.011 265.864 181.011 266.278 181.011C267.435 181.026 268.589 181.109 269.733 181.26C271.452 181.476 273.139 181.857 274.764 182.395C276.767 183.057 278.634 184.003 280.292 185.193C281.138 185.819 281.906 186.521 282.586 187.287C283.221 187.996 283.783 188.754 284.265 189.551C285.12 190.887 285.678 192.353 285.909 193.873C286.081 194.898 286.008 195.944 285.695 196.944C285.613 197.214 285.502 197.476 285.364 197.727C285.332 197.823 285.286 197.915 285.225 198Z" fill="#F5F5F5"/>
<g opacity="0.4">
<path d="M267.644 176.964C272.372 177.738 276.874 179.372 280.87 181.764C284.889 184.155 287.984 187.6 289.73 191.628C291.485 195.672 291.224 201.03 289.375 204.378L295.584 204.84C297.673 198.594 295.403 190.932 290.38 186.042C287.506 183.191 283.999 180.908 280.084 179.341C276.169 177.774 271.932 176.956 267.644 176.94" fill="black"/>
</g>
<path d="M265.324 128H211.676C208.541 128 206 130.301 206 133.14V164.86C206 167.699 208.541 170 211.676 170H265.324C268.459 170 271 167.699 271 164.86V133.14C271 130.301 268.459 128 265.324 128Z" fill="#455A64"/>
<path d="M271 137.5C271 137.788 256.224 138 238.003 138C219.783 138 205 137.788 205 137.5C205 137.212 219.769 137 238.003 137C256.237 137 271 137.231 271 137.5Z" fill="#263238"/>
<path d="M315.413 170C316.298 168.98 316.844 167.753 316.988 166.461C317.121 164.48 316.128 162 313.778 162H283.796C281.463 162 279.226 162.843 277.576 164.343C275.927 165.843 275 167.878 275 170H315.413Z" fill="#455A64"/>
<path d="M355.781 142L350.614 132.022C349.925 130.653 349.811 129.094 350.296 127.651C350.781 126.208 351.83 124.984 353.237 124.219L368.683 115.686C369.489 115.237 370.411 115 371.352 115H374.689L376 135.168L370.86 137.008L374.138 141.915L355.781 142Z" fill="#EA1D2C"/>
<path d="M375 116C375 116 380.281 117.089 380.943 124.402C381.605 131.715 376.284 134 376.284 134L375 116Z" fill="#EBEBEB"/>
<path d="M357.131 127.799C357.131 127.799 346.532 132.645 345.237 133.448C344.339 134.001 343.571 134.967 344.274 136.668C345.471 139.562 350.429 136.838 350.429 136.838L360.3 132.08C360.3 132.08 364.093 130.354 362.688 128.188C361.12 125.765 357.131 127.799 357.131 127.799Z" fill="#263238"/>
<path d="M341.651 126C341.651 126 352.361 127.584 353.27 127.814C354.18 128.044 357.747 129.489 357.929 130.433C358.024 131.671 358.024 132.914 357.929 134.152C357.929 134.152 357.286 134.606 356.88 133.699C356.616 132.814 356.501 131.902 356.537 130.989L354.536 130.324L355.628 131.999L355.81 135.93C355.81 135.93 354.41 135.821 354.145 134.878C353.973 134.227 353.884 133.562 353.879 132.894L352.417 131.824L353.508 133.1L353.879 135.93C353.879 135.93 352.815 136.227 352.48 135.598C352.234 134.782 352.111 133.943 352.116 133.1L348.003 131.86L345.281 133.173L341 131.116L341.651 126Z" fill="#FFBE9D"/>
<path d="M358 113.5C358 117.092 355.983 120 353.5 120C351.016 120 349 117.103 349 113.5C349 109.897 351.009 107 353.5 107C355.991 107 358 109.897 358 113.5Z" fill="#263238"/>
<path d="M354 118.245L356.678 125C357.167 124.821 357.557 124.525 357.784 124.162C358.011 123.799 358.061 123.391 357.926 123.005C357.252 120.692 356.87 119.048 356.135 117.019C356.043 116.819 354 118.245 354 118.245Z" fill="#263238"/>
<g opacity="0.4">
<path d="M307.913 206.07C307.685 205.47 307.444 204.87 307.243 204.228C307.042 203.586 306.787 203.028 306.613 202.428C306.343 201.528 306.146 200.612 306.024 199.686C302.073 214.086 308.107 224.244 318.46 224.958C333.595 226.002 352.045 226.758 359.506 225.006C373.107 221.808 378.096 211.644 379.288 209.97C380.48 208.296 391.296 190.578 384.646 173.52C377.996 156.462 366.464 138.348 366.464 138.348L355.461 141.66C355.461 141.66 357.47 150.06 360.664 160.164C364.18 171.246 368.881 188.58 368.613 198.72C368.443 204.816 366.244 210.726 362.298 215.694H312.306C312.306 215.694 311.234 214.734 307.933 206.094" fill="black"/>
</g>
<path d="M202.024 198.433L202.376 195L293.088 204.455C294.3 204.584 295.47 204.936 296.527 205.489C297.584 206.042 298.504 206.785 299.232 207.671C299.96 208.558 300.48 209.57 300.761 210.644C301.041 211.719 301.075 212.835 300.862 213.922L300.456 216L206.603 203.66C205.242 203.492 204.005 202.854 203.152 201.879C202.298 200.905 201.894 199.67 202.024 198.433Z" fill="#EA1D2C"/>
<g opacity="0.6">
<path d="M201.833 198.396L202.188 194.976L293.454 204.396C294.674 204.525 295.851 204.875 296.914 205.426C297.977 205.977 298.904 206.717 299.636 207.6C300.368 208.484 300.892 209.492 301.174 210.563C301.456 211.634 301.49 212.745 301.276 213.828L300.867 215.898L206.441 203.604C205.071 203.436 203.827 202.801 202.969 201.83C202.11 200.86 201.703 199.629 201.833 198.396Z" fill="black"/>
</g>
<g opacity="0.3">
<path d="M379.288 221.268C379.288 221.268 399.379 201.468 403.524 185.904C405.607 185.893 407.688 186.032 409.746 186.318C409.746 186.318 397.865 215.256 379.288 221.268Z" fill="black"/>
</g>
<path d="M403.539 179C403.592 179.162 403.628 179.328 403.648 179.495C403.703 179.824 403.813 180.307 403.881 180.934C404.081 182.723 404.028 184.527 403.724 186.305C403.241 188.931 402.318 191.481 400.985 193.872C399.358 196.785 397.543 199.614 395.548 202.347C391.969 207.335 387.95 212.072 383.525 216.515C381.855 218.24 380.472 219.613 379.513 220.556L378.404 221.636C378.278 221.764 378.143 221.886 378 222C378.102 221.857 378.219 221.724 378.349 221.6L379.41 220.478L383.334 216.378C387.688 211.901 391.669 207.158 395.247 202.186C397.244 199.462 399.072 196.647 400.725 193.753C402.041 191.385 402.963 188.865 403.463 186.269C403.778 184.517 403.868 182.739 403.73 180.969C403.682 180.343 403.593 179.859 403.566 179.525C403.537 179.351 403.528 179.175 403.539 179Z" fill="#263238"/>
<path d="M368 221C366.886 220.274 365.842 219.472 364.88 218.602C363.841 217.801 362.878 216.93 362 216C364.155 217.526 366.161 219.198 368 221Z" fill="#263238"/>
<path d="M309 220.999C309.27 220.024 309.688 219.11 310.236 218.297C310.702 217.423 311.297 216.646 311.997 216C312.058 216.07 311.292 217.107 310.476 218.481C309.66 219.854 309.078 221.037 309 220.999Z" fill="#263238"/>
<path d="M270.54 232C271.636 231.115 272.559 230.075 273.272 228.923C274.02 227.665 274.475 226.286 274.608 224.87C274.811 223.142 274.47 221.399 273.624 219.832C272.777 218.266 271.458 216.937 269.812 215.993C268.485 215.195 266.99 214.641 265.416 214.366C263.957 214.133 262.465 214.115 261 214.313C261.094 214.277 261.193 214.251 261.294 214.236C261.584 214.169 261.879 214.117 262.176 214.082C263.269 213.952 264.378 213.976 265.463 214.153C267.081 214.406 268.623 214.952 269.992 215.757C271.704 216.72 273.075 218.09 273.948 219.711C274.821 221.332 275.161 223.138 274.929 224.923C274.776 226.377 274.285 227.787 273.486 229.065C272.961 229.924 272.284 230.703 271.482 231.373C271.272 231.557 271.049 231.729 270.814 231.888C270.728 231.935 270.636 231.972 270.54 232Z" fill="#263238"/>
<path d="M234.014 170C233.901 170 234.474 158.56 235.297 144.494C236.12 130.428 236.911 118.994 236.992 119C237.073 119.006 236.54 130.44 235.717 144.506C234.894 158.572 234.168 170.006 234.014 170Z" fill="#263238"/>
<path d="M218.854 240C218.751 239.918 218.657 239.826 218.574 239.726C218.408 239.543 218.135 239.282 217.835 238.91C216.956 237.877 216.17 236.773 215.487 235.611C213.184 231.764 211.981 227.405 212 222.972C212.019 218.538 213.259 214.189 215.596 210.36C216.286 209.202 217.08 208.105 217.969 207.079C218.275 206.708 218.548 206.47 218.72 206.263C218.892 206.056 218.994 205.989 219 206.001C218.937 206.111 218.86 206.214 218.771 206.306C218.618 206.507 218.357 206.774 218.071 207.158C214.807 211.136 212.84 215.946 212.417 220.987C211.994 226.028 213.132 231.076 215.691 235.501C216.35 236.665 217.101 237.778 217.937 238.831C218.217 239.215 218.472 239.489 218.625 239.69C218.777 239.89 218.866 239.988 218.854 240Z" fill="#455A64"/>
<path d="M315.045 194L314.834 194.341L310.732 200.999L305 205.779L316.458 219L326 217.628C326 217.628 324.934 215.739 320.139 215.374L318.325 207.474L325.056 198.433" fill="#455A64"/>
<path d="M305 206.001L316.458 219L326 217.652L324.689 216.581L316.858 217.31L306.223 205L305 206.001Z" fill="#E0E0E0"/>
<path d="M319 209.989C318.913 210.084 318.351 209.519 317.542 209.487C316.732 209.456 316.084 209.982 316.018 209.88C315.952 209.778 316.069 209.636 316.331 209.409C316.686 209.13 317.117 208.987 317.556 209.001C317.996 209.013 318.418 209.188 318.752 209.495C318.949 209.715 319 209.927 319 209.989Z" fill="#263238"/>
<path d="M317.987 206.992C317.914 207.068 317.593 206.567 317.058 206.444C316.524 206.32 316.094 206.643 316.021 206.54C315.949 206.437 316.068 206.341 316.26 206.197C316.513 206.02 316.804 205.96 317.086 206.027C317.368 206.094 317.625 206.284 317.815 206.567C317.992 206.787 318.023 206.965 317.987 206.992Z" fill="#263238"/>
<path d="M319.979 204.997C319.896 205.039 319.599 204.656 319.057 204.435C318.515 204.215 318.023 204.247 318.001 204.157C317.978 204.068 318.56 203.853 319.202 204.157C319.845 204.462 320.074 204.971 319.979 204.997Z" fill="#263238"/>
<path d="M321.564 202.998C321.518 203.027 321.153 202.751 320.59 202.267L319.636 201.41C319.42 201.242 319.233 201.048 319.08 200.834C319.035 200.757 319.009 200.673 319.002 200.588C318.995 200.502 319.008 200.415 319.04 200.334C319.077 200.241 319.146 200.159 319.237 200.1C319.328 200.041 319.436 200.006 319.55 200C319.889 200.004 320.219 200.096 320.497 200.265C320.74 200.4 320.963 200.56 321.16 200.742C321.489 201.057 321.732 201.433 321.869 201.841C322.044 202.21 322.044 202.624 321.869 202.992C321.802 202.636 321.709 202.285 321.591 201.939C321.429 201.585 321.188 201.262 320.882 200.99C320.701 200.834 320.498 200.699 320.279 200.587C320.068 200.467 319.827 200.394 319.576 200.374C319.542 200.374 319.508 200.384 319.479 200.402C319.451 200.419 319.429 200.444 319.417 200.472C319.382 200.547 319.382 200.632 319.417 200.708C319.547 200.893 319.702 201.063 319.881 201.214L320.789 202.129C321.099 202.381 321.361 202.674 321.564 202.998Z" fill="#263238"/>
<path d="M322.103 202.958C322.061 202.958 322.018 202.52 322.394 201.947C322.649 201.568 323.023 201.28 323.46 201.126C323.896 200.972 324.372 200.959 324.817 201.09C324.865 201.121 324.907 201.162 324.938 201.209C324.969 201.257 324.99 201.311 324.998 201.367C325.006 201.464 324.985 201.56 324.938 201.645C324.87 201.764 324.782 201.87 324.677 201.959C324.509 202.118 324.326 202.262 324.132 202.39C323.805 202.605 323.445 202.769 323.066 202.875C322.728 203.009 322.355 203.036 322 202.952C322 202.893 322.394 202.858 322.981 202.627C323.32 202.496 323.639 202.323 323.932 202.112C324.105 201.988 324.267 201.849 324.417 201.699C324.49 201.635 324.554 201.562 324.605 201.48C324.635 201.397 324.605 201.421 324.605 201.403C324.522 201.368 324.434 201.35 324.344 201.35C324.237 201.341 324.13 201.341 324.023 201.35C323.815 201.368 323.611 201.415 323.417 201.492C323.09 201.616 322.8 201.819 322.575 202.083C322.398 202.364 322.24 202.656 322.103 202.958Z" fill="#263238"/>
<path d="M311.986 204.835C312.019 205.03 311.993 205.231 311.911 205.411C311.83 205.592 311.697 205.744 311.529 205.849C311.361 205.953 311.166 206.006 310.968 205.999C310.77 205.993 310.578 205.928 310.418 205.813C310.257 205.697 310.134 205.537 310.064 205.352C309.994 205.166 309.981 204.965 310.026 204.772C310.071 204.579 310.173 204.404 310.317 204.269C310.462 204.134 310.643 204.044 310.838 204.012C311.099 203.971 311.366 204.034 311.581 204.188C311.796 204.342 311.941 204.575 311.986 204.835Z" fill="#E0E0E0"/>
<path d="M349 200.582L352.082 218L377 214.776C376.494 212.724 362.898 210.231 362.898 210.231L361.449 199L349 200.582Z" fill="#455A64"/>
<path d="M354.611 210.095C354.373 210.205 354.185 210.398 354.083 210.637C353.981 210.876 353.973 211.143 354.059 211.388C354.164 211.625 354.356 211.814 354.596 211.916C354.837 212.019 355.108 212.027 355.354 211.94C355.61 211.821 355.811 211.611 355.918 211.352C356.024 211.093 356.027 210.804 355.927 210.542C355.794 210.303 355.572 210.125 355.307 210.046C355.043 209.966 354.758 209.991 354.512 210.116" fill="#E0E0E0"/>
<path d="M352.231 218L352 216.307L375.832 214C375.832 214 377.007 214.265 377 214.925L352.231 218Z" fill="#E0E0E0"/>
<path d="M363 210.037C363 210.105 362.441 210.183 361.914 210.445C361.388 210.707 361.165 211.014 361.046 210.999C360.928 210.984 361.007 210.58 361.645 210.269C362.283 209.959 363.013 209.974 363 210.037Z" fill="#263238"/>
<path d="M365.996 210.029C366.062 210.137 365.365 210.397 364.897 210.935C364.429 211.474 364.372 211.987 364.2 212C364.028 212.012 363.78 211.366 364.381 210.733C364.983 210.099 365.967 209.922 365.996 210.029Z" fill="#263238"/>
<path d="M361.998 207.343C361.998 207.482 361.52 207.384 360.989 207.555C360.459 207.726 360.071 208.092 360.007 207.978C359.944 207.864 360.299 207.254 360.92 207.058C361.542 206.863 362.035 207.213 361.998 207.343Z" fill="#263238"/>
<path d="M361 204.772C360.708 204.97 360.386 205.041 360.07 204.977C359.727 204.963 359.385 204.883 359.054 204.741C358.852 204.666 358.653 204.568 358.46 204.449C358.347 204.386 358.242 204.292 358.15 204.173C358.08 204.089 358.031 203.97 358.01 203.837C357.99 203.703 358 203.563 358.038 203.439C358.074 203.33 358.126 203.235 358.189 203.163C358.253 203.09 358.326 203.042 358.404 203.021C358.52 202.993 358.638 202.993 358.754 203.021C358.961 203.044 359.165 203.103 359.364 203.194C359.698 203.341 360.015 203.568 360.304 203.865C360.812 204.386 360.99 204.875 360.959 204.914C360.929 204.954 360.67 204.575 360.187 204.165C359.904 203.927 359.601 203.749 359.288 203.636C359.105 203.562 358.918 203.517 358.729 203.502C358.526 203.502 358.358 203.502 358.323 203.652C358.287 203.802 358.323 203.723 358.358 203.81C358.428 203.892 358.505 203.958 358.587 204.007C358.761 204.129 358.939 204.237 359.12 204.33C359.43 204.484 359.748 204.592 360.07 204.654C360.382 204.659 360.692 204.699 361 204.772Z" fill="#263238"/>
<path d="M361.618 205C361.573 205 361.239 204.631 361.061 203.867C360.98 203.423 360.98 202.97 361.061 202.526C361.109 202.257 361.183 201.993 361.283 201.735C361.328 201.567 361.42 201.411 361.55 201.283C361.68 201.155 361.844 201.059 362.027 201.005C362.147 200.991 362.27 201.008 362.38 201.054C362.491 201.1 362.584 201.174 362.651 201.266C362.744 201.402 362.817 201.548 362.866 201.702C362.957 201.969 363.002 202.247 363 202.526C363 202.994 362.872 203.454 362.628 203.867C362.205 204.537 361.677 204.785 361.662 204.745C361.648 204.705 362.026 204.403 362.331 203.74C362.508 203.358 362.59 202.946 362.569 202.533C362.562 202.293 362.514 202.056 362.428 201.829C362.346 201.574 362.205 201.38 362.101 201.42C361.997 201.461 361.766 201.662 361.692 201.883C361.592 202.113 361.514 202.351 361.462 202.593C361.378 203.007 361.358 203.429 361.402 203.847C361.469 204.531 361.685 204.973 361.618 205Z" fill="#263238"/>
<path d="M330.046 158.867L309 199.589L322.898 207L352 158" fill="#263238"/>
<path d="M364 207.862L349.043 210L340.088 162.408L295.845 165.265C294.675 165.337 293.499 165.239 292.364 164.974C279.941 161.939 281.622 147.829 282.822 145.567L344.042 144.005C347.25 143.922 350.379 144.896 352.83 146.74C355.281 148.584 356.882 151.169 357.325 153.999L364 207.862Z" fill="#263238"/>
<path d="M282.485 148L282.707 127.49C282.707 127.49 279.764 114.172 278.888 108.912C277.541 100.775 275.682 96.9072 290.514 91.126L293.761 90L298.779 90.0605C304.761 90.4661 311.066 95.3272 311.214 98.5356L317 144.767L282.485 148Z" fill="#EA1D2C"/>
<path d="M283.454 96C283.454 96 279.289 104.012 280.106 111.311L295.62 124.629C299.095 128.09 303.447 129.563 309.011 129.862L341.109 133L342 125.491L311.482 117.754C310.263 117.551 309.654 116.419 308.723 115.689L283.454 96Z" fill="#EA1D2C"/>
<path d="M281 98.022C281.18 97.8673 281.387 97.7414 281.613 97.6495C282.272 97.3882 282.967 97.2123 283.68 97.1268C284.824 96.9577 285.99 96.9577 287.134 97.1268C287.487 97.1845 287.829 97.2899 288.147 97.4392C288.473 97.6233 288.787 97.8239 289.088 98.04C289.701 98.4726 290.321 98.9712 290.954 99.5119C292.235 100.587 293.448 101.951 294.868 103.333C296.288 104.715 297.842 106.199 299.535 107.755C301.229 109.311 303.049 110.939 304.996 112.621C305.976 113.462 306.996 114.315 308.056 115.151C308.596 115.547 309.13 116.016 309.643 116.454C310.127 116.905 310.738 117.229 311.41 117.391L341.86 125.142L342 125.178V125.31C341.94 125.845 341.867 126.415 341.8 126.998C341.567 128.999 341.333 130.981 341.133 132.844V133H340.96L327.412 131.642L321.011 131.011L314.884 130.453C312.883 130.254 310.957 130.05 309.083 129.804C307.253 129.601 305.451 129.225 303.709 128.68C302.103 128.129 300.583 127.392 299.189 126.487C297.855 125.64 296.602 124.757 295.448 123.886C290.881 120.377 287.527 117.235 285.2 115.096C284.047 114.021 283.16 113.174 282.567 112.597L281.9 111.936L281.68 111.702C281.68 111.702 281.767 111.768 281.927 111.912C282.087 112.056 282.32 112.279 282.593 112.555L285.26 115.018C287.614 117.127 290.994 120.245 295.568 123.724C296.722 124.583 297.955 125.46 299.295 126.295C300.681 127.181 302.187 127.904 303.776 128.446C305.506 128.978 307.294 129.344 309.11 129.539C310.983 129.78 312.917 129.984 314.904 130.176L321.031 130.717L327.432 131.348L340.967 132.676L340.773 132.814C340.993 130.951 341.227 128.969 341.44 126.962C341.513 126.361 341.58 125.809 341.64 125.274L341.767 125.442L311.363 117.662C310.621 117.496 309.946 117.144 309.416 116.646C308.876 116.184 308.39 115.751 307.836 115.337C306.763 114.496 305.756 113.637 304.776 112.795C302.829 111.107 301.016 109.467 299.329 107.905C297.642 106.343 296.095 104.853 294.661 103.453C293.228 102.053 292.055 100.695 290.788 99.6201C290.205 99.0992 289.591 98.6078 288.948 98.1481C288.657 97.9282 288.35 97.7274 288.027 97.5473C287.725 97.3994 287.399 97.2959 287.061 97.2409C285.936 97.0553 284.784 97.039 283.654 97.1929C282.946 97.2645 282.252 97.4242 281.593 97.6675C281.386 97.7719 281.187 97.8904 281 98.022Z" fill="#263238"/>
<path d="M289.036 72.5689L290.553 92.2922C290.674 93.8429 291.433 95.2941 292.678 96.3533C293.923 97.4125 295.561 98.0009 297.262 98C298.181 98.0002 299.091 97.8278 299.935 97.4935C300.779 97.1593 301.539 96.6703 302.168 96.0569C302.796 95.4434 303.281 94.7185 303.591 93.927C303.901 93.1356 304.03 92.2943 303.97 91.4554C303.833 89.5787 303.715 88.0427 303.715 88.0427C303.715 88.0427 308.946 87.3016 308.998 82.5261C309.037 79.7709 308.514 73.5192 308.069 68.7258C307.923 67.16 307.138 65.7018 305.87 64.641C304.601 63.5801 302.943 62.9944 301.224 63H298.066C296.78 63.0714 295.522 63.3775 294.368 63.9002C293.213 64.4229 292.185 65.1517 291.343 66.0435C290.501 66.9353 289.864 67.9722 289.468 69.0929C289.071 70.2136 288.925 71.3955 289.036 72.5689Z" fill="#FFBE9D"/>
<path d="M303.987 87.747C301.513 87.7881 299.081 87.18 297 86C297 86 298.651 89.3992 304 88.961L303.987 87.747Z" fill="#EB996E"/>
<path d="M307 74.4673C307.001 74.6044 306.951 74.7366 306.861 74.8357C306.771 74.9348 306.648 74.9929 306.518 74.9977C306.455 75.0041 306.391 74.9971 306.331 74.9772C306.27 74.9573 306.215 74.9249 306.166 74.8819C306.118 74.8389 306.079 74.7862 306.05 74.7269C306.021 74.6676 306.004 74.6028 306 74.5365C305.999 74.3989 306.048 74.2662 306.138 74.1664C306.228 74.0666 306.352 74.0074 306.482 74.0015C306.61 73.9913 306.736 74.0346 306.833 74.1219C306.93 74.2092 306.99 74.3334 307 74.4673Z" fill="#263238"/>
<path d="M299 74.4673C299.002 74.6048 298.953 74.7376 298.863 74.837C298.772 74.9363 298.648 74.9941 298.518 74.9977C298.455 75.0041 298.391 74.9971 298.331 74.9772C298.27 74.9573 298.215 74.9249 298.166 74.8819C298.118 74.8389 298.079 74.7862 298.05 74.7269C298.021 74.6676 298.004 74.6028 298 74.5365C297.999 74.3989 298.048 74.2662 298.138 74.1664C298.228 74.0666 298.352 74.0074 298.482 74.0015C298.61 73.9913 298.736 74.0346 298.833 74.1219C298.93 74.2092 298.99 74.3334 299 74.4673Z" fill="#263238"/>
<path d="M298.974 73.9814C298.882 74.104 298.317 73.5807 297.503 73.5807C296.689 73.5807 296.111 74.0877 296.026 73.965C295.941 73.8424 296.072 73.687 296.335 73.458C296.68 73.1553 297.094 72.9952 297.516 73.0001C297.936 72.9965 298.345 73.1598 298.685 73.4662C298.974 73.7034 299.046 73.9241 298.974 73.9814Z" fill="#263238"/>
<path d="M302.311 78.9659C302.664 78.8476 303.03 78.777 303.4 78.7557C303.569 78.7557 303.733 78.6973 303.76 78.5748C303.778 78.3853 303.738 78.1947 303.645 78.0319L303.133 76.6426C302.663 75.4635 302.284 74.2453 302 73C302.553 74.1365 303.023 75.3172 303.406 76.5317L303.885 77.9326C303.994 78.1528 304.027 78.4071 303.978 78.6506C303.953 78.7156 303.914 78.7735 303.865 78.82C303.816 78.8666 303.758 78.9005 303.694 78.9192C303.6 78.9453 303.503 78.959 303.406 78.96C303.042 79.0113 302.674 79.0133 302.311 78.9659Z" fill="#263238"/>
<path d="M300.087 80.0001C300.185 80.0001 300.185 80.7479 300.743 81.2804C301.3 81.8129 301.995 81.7336 302 81.8469C302.005 81.9602 301.843 81.9885 301.55 81.9999C301.169 82.0049 300.798 81.8545 300.503 81.575C300.226 81.3026 300.051 80.917 300.014 80.4986C299.97 80.2097 300.043 79.9944 300.087 80.0001Z" fill="#263238"/>
<path d="M298.996 70.5579C298.932 70.7582 298.283 70.6671 297.518 70.7703C296.753 70.8735 296.131 71.1163 296.03 70.9342C295.929 70.7521 296.094 70.655 296.344 70.4608C296.676 70.2188 297.052 70.0673 297.444 70.0178C297.836 69.9683 298.232 70.0223 298.602 70.1755C298.884 70.3029 299.028 70.4608 298.996 70.5579Z" fill="#263238"/>
<path d="M290.779 76.1525C290.68 76.1165 286.875 75.1744 287.003 78.4508C287.131 81.7271 290.993 80.947 291 80.851C291.007 80.755 290.779 76.1525 290.779 76.1525Z" fill="#FFBE9D"/>
<path d="M289.995 79.7208C289.995 79.7208 289.924 79.7649 289.799 79.8153C289.619 79.87 289.42 79.87 289.24 79.8153C288.959 79.6816 288.727 79.4904 288.568 79.2614C288.409 79.0323 288.329 78.7736 288.336 78.5116C288.313 78.2173 288.372 77.9226 288.509 77.6488C288.545 77.54 288.612 77.4396 288.707 77.3563C288.801 77.2729 288.92 77.2091 289.052 77.1702C289.137 77.1508 289.229 77.1559 289.311 77.1846C289.393 77.2133 289.459 77.2639 289.5 77.3276C289.563 77.4221 289.539 77.4914 289.563 77.4977C289.586 77.504 289.649 77.4347 289.61 77.2962C289.584 77.2097 289.519 77.1338 289.429 77.082C289.369 77.0481 289.302 77.024 289.23 77.011C289.158 76.9981 289.084 76.9965 289.012 77.0064C288.832 77.0347 288.663 77.1009 288.525 77.1983C288.387 77.2957 288.284 77.4207 288.226 77.5607C288.054 77.8622 287.978 78.1934 288.006 78.5242C287.995 78.8306 288.098 79.1327 288.303 79.3918C288.507 79.6509 288.804 79.8553 289.154 79.9791C289.269 80.0035 289.39 80.0066 289.507 79.988C289.625 79.9695 289.735 79.9298 289.83 79.872C289.995 79.8027 290.011 79.7271 289.995 79.7208Z" fill="#EB996E"/>
<path d="M288.648 75.9148C288.987 75.8944 289.325 75.9598 289.627 76.104C289.929 76.2483 290.184 76.466 290.363 76.734C290.592 77.2073 290.644 77.7414 290.872 78.2147C290.971 78.4579 291.151 78.6653 291.386 78.8063C291.621 78.9472 291.898 79.0142 292.177 78.9975C292.362 78.9435 292.528 78.8449 292.659 78.7116C292.789 78.5784 292.88 78.4153 292.92 78.239C292.995 77.8864 292.995 77.5235 292.92 77.1709C292.712 75.6235 292.366 74.0943 292.301 72.5348C292.161 70.9701 292.527 69.4024 293.351 68.0322C293.768 67.3534 294.376 66.7925 295.109 66.409C295.841 66.0254 296.672 65.8336 297.512 65.8537C298.621 65.9386 299.632 66.4605 300.734 66.6183C301.389 66.698 302.054 66.6383 302.68 66.4439C303.306 66.2494 303.876 65.9252 304.348 65.4957C304.556 65.3327 304.774 65.1807 305 65.0405C304.986 64.6742 304.857 64.3198 304.628 64.0211C302.443 62.1399 298.517 61.5938 295.634 62.2916C294.169 62.6273 292.801 63.2555 291.624 64.1326C290.447 65.0097 289.49 66.1147 288.818 67.3707C287.578 69.883 287.944 73.3722 288.628 75.9148" fill="#263238"/>
<path d="M308 67.8618C308 67.8618 293.978 63.6341 287.911 75C287.443 73.5706 287.137 72.0988 287 70.6092C287 69.593 287.67 63.5274 294.312 61.6205C294.312 61.6456 304.35 58.0577 308 67.8618Z" fill="#EA1D2C"/>
<path d="M296.303 68.4527C296.559 68.8484 296.908 69.1818 297.322 69.4265C297.736 69.6712 298.204 69.8205 298.689 69.8626C299.173 69.9047 299.662 69.8385 300.115 69.6692C300.569 69.4999 300.975 69.2321 301.301 68.887C301.444 69.2297 301.695 69.5211 302.019 69.7204C302.344 69.9196 302.725 70.0166 303.111 69.9977C303.496 69.9788 303.865 69.845 304.167 69.6151C304.468 69.3852 304.687 69.0707 304.792 68.7159C305.177 69.1284 305.645 69.462 306.169 69.6964C306.439 69.8061 306.737 69.834 307.024 69.7763C307.311 69.7186 307.572 69.5782 307.773 69.374C307.937 69.1356 308.016 68.8527 307.997 68.5678C307.979 68.2829 307.864 68.0116 307.67 67.7946C307.279 67.3625 306.775 67.0377 306.21 66.8536C304.502 66.136 302.625 65.8636 300.771 66.0639C298.908 66.2779 297.2 67.1656 296 68.5448" fill="#263238"/>
<g opacity="0.4">
<path d="M308.288 67.8542C307.118 66.758 305.519 66.1125 303.827 66.0542C299.689 65.8922 291.947 67.9742 288.197 74.6942C287.729 73.3269 287.423 71.9191 287.286 70.4942C287.286 69.5222 287.956 63.7202 294.599 61.8962C294.599 61.9082 304.638 58.4762 308.288 67.8542Z" fill="black"/>
</g>
<path d="M289 73C291.101 70.3625 293.854 68.14 297.071 66.4855C300.26 64.8122 305.526 63.139 309.152 62.3358C310.227 62.0362 311.367 61.9353 312.493 62.0402C313.054 62.1001 313.583 62.2919 314.021 62.5938C314.458 62.8956 314.786 63.2953 314.967 63.7469C315.311 64.9015 312.883 66.6807 311.738 67.3779C310.621 68.0075 309.464 68.5848 308.272 69.1069C308.272 69.1069 308.305 66.9652 304.243 66.5245C298.719 65.9277 289 73 289 73Z" fill="#EA1D2C"/>
<g opacity="0.3">
<path d="M283.844 114.24C285.29 117.366 286.75 121.224 288.846 124.038C290.942 126.852 293.742 129.354 297.224 130.638C301.604 132.282 306.781 132.546 311.134 130.866C311.489 130.728 312.185 130.554 312.118 130.212C312.118 130.212 310.678 130.062 310.23 129.996C301.437 128.688 300.479 127.728 296.267 124.728C293.641 122.874 287.822 117.252 283.844 114.24Z" fill="black"/>
</g>
<path d="M312 137C311.91 137.244 311.785 137.478 311.628 137.697C311.235 138.315 310.754 138.89 310.197 139.41C308.317 141.076 305.953 142.295 303.341 142.945C300.738 143.572 298.05 143.912 295.343 143.956C294.31 143.991 293.472 143.996 292.898 143.996C292.598 144.007 292.298 143.995 292 143.962C292.292 143.905 292.592 143.876 292.892 143.876L295.33 143.745C298.007 143.641 300.661 143.276 303.239 142.66C305.807 142.014 308.142 140.836 310.034 139.233C310.772 138.543 311.43 137.795 312 137Z" fill="#263238"/>
<path d="M350 212C349.971 211.941 349.953 211.877 349.946 211.813C349.946 211.674 349.879 211.487 349.826 211.257C349.725 210.75 349.578 210.049 349.397 209.119C349.028 207.234 348.512 204.547 347.869 201.23C346.616 194.55 344.887 185.351 342.977 175.192C342.126 170.589 341.315 166.192 340.571 162.175L340.745 162.302L321.506 163.552L315.984 163.891L314.509 163.969H314.134H314H314.127L314.509 163.927L315.977 163.806L321.492 163.383L340.719 162H340.866V162.133C341.617 166.15 342.441 170.547 343.299 175.143C345.168 185.309 346.857 194.514 348.09 201.2C348.68 204.522 349.162 207.24 349.504 209.101L349.866 211.257C349.906 211.487 349.933 211.674 349.953 211.813C349.977 211.873 349.993 211.936 350 212Z" fill="#455A64"/>
<path d="M344.998 158C345.06 158.065 343.849 158.884 342.478 159.985C341.107 161.087 340.083 162.052 340 161.998C341.276 160.394 342.982 159.03 344.998 158Z" fill="#455A64"/>
<path d="M303.775 92.112C303.775 92.112 303.814 92.1707 303.853 92.288C303.917 92.4616 303.959 92.6405 303.976 92.8214C304.052 93.4796 303.946 94.1434 303.665 94.7629C303.245 95.6888 302.5 96.4911 301.523 97.0671C300.304 97.7532 298.836 98.0769 297.362 97.9846C295.895 97.9026 294.489 97.4687 293.319 96.7364C292.376 96.1409 291.593 95.3907 291.021 94.5336C290.633 93.9627 290.337 93.3532 290.138 92.7201C290.074 92.496 290.028 92.32 290.009 92.1867C289.989 92.0533 290.009 92 290.009 92C290.31 92.8413 290.721 93.6533 291.235 94.4216C291.823 95.2348 292.596 95.9466 293.514 96.5178C294.648 97.2079 296 97.6152 297.408 97.6912C298.808 97.7794 300.204 97.4809 301.374 96.8431C302.308 96.3003 303.033 95.5488 303.464 94.6776C303.758 94.0877 303.897 93.4533 303.872 92.8161C303.827 92.368 303.775 92.1227 303.775 92.112Z" fill="#263238"/>
<path d="M312.97 118C312.897 117.807 312.851 117.606 312.83 117.402C312.76 116.929 312.678 116.355 312.576 115.69C312.367 114.165 312.095 112.202 311.796 110.03C311.498 107.858 311.283 105.841 311.162 104.358C311.093 103.634 311.048 103.041 311.023 102.634C310.992 102.424 310.992 102.21 311.023 102C311.089 102.195 311.134 102.395 311.156 102.598C311.226 103.071 311.308 103.639 311.403 104.31C311.606 105.835 311.866 107.798 312.152 109.97C312.437 112.142 312.684 114.159 312.836 115.637C312.906 116.366 312.957 116.953 312.989 117.366C313.009 117.577 313.002 117.79 312.97 118Z" fill="#263238"/>
<path d="M497 247.5C497 247.788 385.06 248 247.021 248C108.983 248 -3 247.788 -3 247.5C-3 247.212 108.919 247 247.021 247C385.124 247 497 247.231 497 247.5Z" fill="#263238"/>
</svg>
