<svg width="500" height="276" viewBox="0 0 500 276" fill="none" xmlns="http://www.w3.org/2000/svg">
<g clip-path="url(#clip0_417_511)">
<path d="M395.447 96.8163C387.57 69.2163 370.071 48.6123 345.493 38.8503C320.915 29.0883 285.753 38.7483 268.747 57.8163C256.306 71.7603 252.475 91.3263 238.559 104.016C225.839 115.62 206.819 119.334 188.949 118.95C171.08 118.566 153.521 114.648 135.703 113.358C117.885 112.068 98.8792 113.724 84.269 123.24C65.0939 135.732 53.672 166.218 55.8732 187.8C58.9122 217.572 80.3924 247.698 109.912 254.124L303.416 256.632C328.818 256.032 356.662 233.688 370.096 212.1C377.239 200.556 383.583 197.892 390.272 176.826C401.148 142.554 402.271 120.72 395.447 96.8163Z" fill="#EBEBEB"/>
<path d="M87.3533 271.602C96.1065 265.992 98.1259 255.54 97.8142 246.138C97.7623 244.572 97.9571 242.916 97.1649 241.536C96.3727 240.156 94.4831 239.214 92.9572 239.868C91.6974 240.414 91.139 241.764 90.4312 242.868C89.4843 244.361 88.0999 245.576 86.4378 246.372C85.3534 246.882 84.0157 247.194 82.9443 246.648C81.4833 245.898 81.3209 244.026 81.3339 242.448C81.3686 239.54 81.3989 236.632 81.4248 233.724C81.5339 232.179 81.3739 230.627 80.9508 229.128C80.4313 227.646 79.2755 226.266 77.6651 225.84C76.0548 225.414 74.0743 226.272 73.7301 227.796C73.6618 228.442 73.6423 229.092 73.6717 229.74C73.6811 230.064 73.5869 230.383 73.4009 230.657C73.2149 230.931 72.9454 231.149 72.6262 231.282C71.9769 231.462 71.2756 231.018 70.7756 230.562C69.0354 228.978 67.8601 226.962 66.7627 224.922C65.6653 222.882 64.6004 220.83 63.0225 219.108C61.4446 217.386 59.2628 216.012 56.8472 215.88C54.4317 215.748 51.8473 217.116 51.2239 219.306C50.6006 221.496 51.9836 223.746 53.4901 225.528C55.7122 228.177 58.3367 230.515 61.2822 232.47C61.8542 232.768 62.309 233.226 62.5809 233.778C62.9381 234.822 61.8731 235.848 60.7563 236.178C59.4965 236.562 58.1589 236.436 56.8148 236.574C55.4706 236.712 54.068 237.246 53.568 238.374C52.8732 239.97 54.3083 241.644 55.7239 242.742C58.5618 244.948 61.7911 246.683 65.2692 247.872C66.5467 248.205 67.7481 248.75 68.8146 249.48C69.8146 250.29 70.412 251.694 69.8016 252.792C69.1912 253.89 67.6393 254.238 66.3341 253.992C65.0289 253.746 63.8731 253.11 62.6329 252.672C60.3147 251.856 57.3148 251.994 55.8213 253.842C55.3659 254.479 55.0762 255.205 54.9748 255.963C54.8734 256.721 54.9631 257.49 55.2369 258.21C55.7975 259.642 56.663 260.956 57.7823 262.074C61.4462 266.169 66.2215 269.292 71.6198 271.122C76.9963 272.868 82.0092 273.348 87.3403 271.56" fill="#EA1D2C"/>
<path d="M86.7949 274.248C86.4442 270.522 86.2624 270.444 84.7689 265.698C83.1017 260.571 81.1158 255.536 78.821 250.62C78.2149 249.312 77.6218 248.02 77.0418 246.744C76.4509 245.472 75.8729 244.212 75.2171 243.012C73.9542 240.714 72.5538 238.482 71.0224 236.328C69.5873 234.252 68.1393 232.338 66.7692 230.55C65.3991 228.762 64.0874 227.13 62.8212 225.684C60.8424 223.394 58.6712 221.251 56.3277 219.276C55.4966 218.574 54.8343 218.076 54.3797 217.704L53.8602 217.314C53.7434 217.224 53.6784 217.182 53.6719 217.188C53.7253 217.241 53.7817 217.291 53.8408 217.338L54.3408 217.752C54.7823 218.112 55.4317 218.646 56.2498 219.36C58.5614 221.361 60.708 223.519 62.6718 225.816C63.9251 227.262 65.2237 228.906 66.5679 230.694C67.912 232.482 69.36 234.402 70.7951 236.472C72.3047 238.629 73.6855 240.86 74.9314 243.156C75.5807 244.356 76.1587 245.604 76.7431 246.876C77.3275 248.148 77.9184 249.444 78.5223 250.752C80.8112 255.66 82.8013 260.681 84.4832 265.794C85.9832 270.522 86.1845 270.594 86.5676 274.284" fill="#263238"/>
<path d="M75.1067 243C75.1867 242.784 75.2411 242.561 75.2691 242.334C75.36 241.902 75.4704 241.278 75.5937 240.498C75.834 238.944 76.0937 236.79 76.373 234.414C76.6522 232.038 76.9379 229.89 77.2041 228.342C77.3405 227.568 77.4509 226.944 77.5418 226.512C77.6018 226.29 77.6323 226.063 77.6327 225.834C77.5402 226.046 77.4685 226.265 77.4184 226.488C77.3015 226.914 77.1522 227.538 76.9898 228.288C76.6652 229.83 76.3405 231.984 76.0613 234.36C75.7821 236.736 75.5548 238.83 75.373 240.456C75.2886 241.188 75.2106 241.806 75.1522 242.298C75.1037 242.529 75.0884 242.765 75.1067 243Z" fill="#263238"/>
<path d="M53.4057 239.178C53.6914 239.238 53.9829 239.273 54.2758 239.28C54.8278 239.328 55.6395 239.388 56.6329 239.502C58.6199 239.706 61.3537 240.102 64.3536 240.612C67.3536 241.122 70.0419 241.74 71.9769 242.22C72.9444 242.454 73.7236 242.664 74.2626 242.82C74.5399 242.906 74.8244 242.97 75.1132 243.012C74.8527 242.889 74.5811 242.786 74.3015 242.706C73.7691 242.532 73.0029 242.292 72.0353 242.034C70.0873 241.5 67.4185 240.876 64.4121 240.336C61.8358 239.869 59.2349 239.527 56.62 239.31C55.62 239.226 54.8083 239.19 54.2499 239.178C53.969 239.156 53.6866 239.156 53.4057 239.178Z" fill="#263238"/>
<path d="M84.4832 265.332C84.5467 265.257 84.5991 265.174 84.6391 265.086C84.7365 264.888 84.8599 264.648 85.0092 264.36C85.3339 263.73 85.7689 262.806 86.3079 261.66C87.3598 259.362 88.717 256.152 90.152 252.582C91.587 249.012 92.9117 245.796 93.9117 243.486L95.113 240.75C95.2364 240.45 95.3467 240.204 95.4312 240.006C95.5156 239.808 95.5351 239.742 95.5221 239.736C95.4616 239.812 95.4115 239.895 95.3727 239.982L95.0026 240.702C94.6779 241.338 94.2364 242.262 93.7039 243.408C92.6455 245.7 91.2948 248.916 89.8598 252.48C88.4248 256.044 87.1001 259.266 86.0936 261.582C85.6066 262.704 85.1975 263.628 84.8988 264.312C84.769 264.612 84.6651 264.858 84.5806 265.062C84.5381 265.149 84.5055 265.239 84.4832 265.332Z" fill="#263238"/>
<path d="M54.6589 256.644C54.7497 256.69 54.8455 256.726 54.9446 256.752L55.7823 257.016L58.8732 257.952C61.4705 258.738 65.0614 259.872 69.0224 261.12C72.9834 262.368 76.5872 263.478 79.2106 264.216C80.5092 264.588 81.5872 264.876 82.3274 265.062L83.1845 265.278C83.2822 265.304 83.3821 265.322 83.4832 265.332C83.4832 265.332 83.3923 265.284 83.1975 265.218L82.3664 264.96L79.3015 264.024C76.7041 263.232 73.1132 262.104 69.1458 260.85C65.1783 259.596 61.5874 258.492 58.9641 257.754C57.6654 257.382 56.5875 257.094 55.8472 256.908L54.9901 256.698C54.8845 256.661 54.772 256.642 54.6589 256.644Z" fill="#263238"/>
<path d="M192.794 274.242H102.425C91.5091 274.2 82.2949 265.596 82.3274 255.504L83.2885 45.1982C83.2987 42.7979 83.8206 40.423 84.8246 38.2092C85.8285 35.9955 87.2947 33.9861 89.1393 32.2961C90.984 30.6061 93.171 29.2686 95.5753 28.3599C97.9796 27.4512 100.554 26.9891 103.152 27.0002L193.936 27.3902C196.533 27.4004 199.101 27.8832 201.496 28.8108C203.89 29.7385 206.063 31.093 207.891 32.7968C209.718 34.5007 211.165 36.5205 212.148 38.7411C213.13 40.9616 213.63 43.3392 213.618 45.7382L212.657 256.044C212.647 258.444 212.125 260.819 211.121 263.033C210.117 265.247 208.651 267.256 206.806 268.946C204.961 270.636 202.774 271.974 200.37 272.883C197.966 273.791 195.391 274.253 192.794 274.242Z" fill="#263238"/>
<path d="M193.813 35.3762L176.209 35.3282C175.635 35.3375 175.069 35.4513 174.543 35.6629C174.016 35.8745 173.54 36.1799 173.142 36.5616C172.743 36.9432 172.43 37.3937 172.22 37.8873C172.01 38.3809 171.907 38.9079 171.917 39.4382V42.3902C171.936 43.4607 171.495 44.4945 170.691 45.265C169.886 46.0355 168.784 46.4797 167.625 46.5002L133.314 46.3502C132.74 46.3362 132.174 46.2178 131.65 46.0018C131.126 45.7859 130.652 45.4765 130.257 45.0915C129.862 44.7065 129.553 44.2533 129.348 43.7579C129.143 43.2624 129.045 42.7345 129.061 42.2042V39.2582C129.089 38.1864 128.656 37.148 127.858 36.37C127.06 35.5919 125.961 35.1376 124.801 35.1062H118.613L103.204 35.0402C101.385 35.033 99.5823 35.357 97.899 35.9936C96.2156 36.6302 94.6844 37.567 93.3929 38.7504C92.1013 39.9338 91.0746 41.3406 90.3715 42.8907C89.6684 44.4407 89.3025 46.1035 89.2949 47.7842L88.3533 253.014C88.3378 256.407 89.7813 259.667 92.3664 262.077C94.9515 264.487 98.4666 265.85 102.139 265.866L192.742 266.25C194.561 266.259 196.365 265.936 198.049 265.3C199.734 264.664 201.266 263.727 202.559 262.544C203.851 261.36 204.878 259.953 205.581 258.402C206.285 256.851 206.65 255.188 206.657 253.506L207.573 48.2282C207.586 44.8396 206.146 41.5841 203.567 39.175C200.988 36.766 197.48 35.3999 193.813 35.3762Z" fill="#F5F5F5"/>
<path d="M155.359 227.46C155.255 229.938 155.158 232.26 155.073 234.198H168.06L166.469 226.806L155.359 227.46Z" fill="#F5F5F5"/>
<path d="M102.464 230.55L102.574 234.198H153.775C153.859 232.146 153.956 229.878 154.054 227.538L102.464 230.55Z" fill="#F5F5F5"/>
<path d="M167.151 226.77L168.748 234.192H192.748L192.456 225.294L167.151 226.77Z" fill="#F5F5F5"/>
<path d="M156.658 122.976L161.197 98.6702L149.314 97.8542V122.976H156.658Z" fill="#F5F5F5"/>
<path d="M101.392 217.056L88.4962 221.724L88.4572 230.166L101.775 229.386L101.392 217.056Z" fill="#F5F5F5"/>
<path d="M101.334 215.16L100.632 192.522H100.619V184.536L88.6585 185.706L88.5027 219.792L101.327 215.148L101.334 215.16Z" fill="#F5F5F5"/>
<path d="M100.619 166.716L88.7559 165.264L88.6715 183.9L100.619 182.73V166.716Z" fill="#F5F5F5"/>
<path d="M189.053 184.872L188.553 191.364L174.541 192.756L175.625 197.892L191.527 196.782L191.294 189.42L192.56 184.548L189.053 184.872Z" fill="#F5F5F5"/>
<path d="M163.794 198.714L174.969 197.934L172.534 186.414L162.781 187.326L163.794 198.714Z" fill="#F5F5F5"/>
<path d="M163.904 199.914L164.755 209.52L166.268 222.696L166.891 225.582L192.417 224.094L191.566 197.982L163.904 199.914Z" fill="#F5F5F5"/>
<path d="M119.97 154.548L120.95 156.102L101.269 166.728V191.898L122.048 190.536L162.119 186.786L160.651 170.292L122.398 165.672L122.652 163.872L160.489 168.438L158.008 140.52L120.554 143.844L120.431 142.644L157.898 139.32L156.599 124.752H120.561L88.9312 130.068L88.7754 163.428L100.743 164.928L119.97 154.548ZM103.282 189.474C103.282 189.474 103.431 168.726 103.282 167.952L119.346 160.056L121.431 188.418L103.282 189.474Z" fill="#F5F5F5"/>
<path d="M187.735 184.998L173.183 186.354L174.287 191.574L187.333 190.278L187.735 184.998Z" fill="#F5F5F5"/>
<path d="M155.541 223.014C155.495 224.106 155.45 225.186 155.411 226.254L166.242 225.618L165.683 223.038L155.541 223.014Z" fill="#F5F5F5"/>
<path d="M132.21 122.976L134.119 114.978H148.664V97.8122L103.191 94.6982V110.82L88.9897 113.79L88.9247 128.262L120.372 122.976H132.21Z" fill="#F5F5F5"/>
<path d="M162.554 75.1982L162.164 73.7282L179.527 67.3802L168.235 46.4282C168.021 46.4603 167.804 46.4764 167.586 46.4762L148.398 46.3922L148.917 75.7142L162.554 75.1982Z" fill="#F5F5F5"/>
<path d="M188.865 63.9602V35.3582L176.209 35.3282C175.635 35.3376 175.069 35.4514 174.543 35.663C174.016 35.8746 173.54 36.18 173.142 36.5617C172.743 36.9433 172.43 37.3938 172.22 37.8874C172.01 38.381 171.907 38.9079 171.917 39.4382V42.3902C171.917 43.0494 171.748 43.6992 171.426 44.2871C171.103 44.8749 170.635 45.3844 170.06 45.7742L181.359 66.7382L188.865 63.9602Z" fill="#F5F5F5"/>
<path d="M123.593 65.1903L122.126 35.0703H118.613L104.879 35.0103L99.035 61.9443L123.593 65.1903ZM120.463 38.1243L120.931 62.6523L102.678 60.1863L106.671 38.1243H120.463Z" fill="#F5F5F5"/>
<path d="M124.255 65.2802V65.5322C124.255 67.8842 124.333 72.1322 124.372 76.6382L148.288 75.7382L147.768 46.3922L133.294 46.3262C132.72 46.3122 132.155 46.1938 131.631 45.9778C131.106 45.7619 130.633 45.4525 130.238 45.0675C129.843 44.6825 129.534 44.2293 129.329 43.7339C129.123 43.2384 129.026 42.7105 129.041 42.1802V39.2342C129.069 38.1624 128.637 37.124 127.838 36.346C127.04 35.5679 125.941 35.1136 124.781 35.0822H122.762L124.229 65.2802H124.255Z" fill="#F5F5F5"/>
<path d="M97.1 61.6742L102.892 35.0042C99.2746 35.0637 95.8261 36.4295 93.2847 38.8091C90.7434 41.1887 89.3113 44.393 89.2949 47.7362L89.2299 61.0321L89.2949 60.6422L97.1 61.6742Z" fill="#F5F5F5"/>
<path d="M101.243 94.5662L89.0806 93.7322L88.9962 111.942L101.243 109.38V94.5662Z" fill="#F5F5F5"/>
<path d="M96.9701 62.2622L89.2299 61.2362L89.0936 90.7262L90.7624 90.8402L96.9701 62.2622Z" fill="#F5F5F5"/>
<path d="M121.535 214.812L121.736 191.142L101.275 192.48L102.002 215.67L121.535 214.812Z" fill="#F5F5F5"/>
<path d="M125.301 209.328L154.275 222.156C154.625 213.756 154.924 205.956 154.924 205.434L155.573 205.404L155.885 204.84C156.294 205.026 156.294 205.026 156.08 210.744C155.956 213.93 155.788 218.172 155.612 222.414H165.632L164.158 209.55L162.21 187.35L124.346 190.878L125.301 209.328Z" fill="#F5F5F5"/>
<path d="M196.332 170.064L196.001 166.938L161.268 170.28L162.729 186.726L192.722 183.93L196.332 170.064Z" fill="#F5F5F5"/>
<path d="M148.664 116.778H135.684L134.203 122.976H148.664V116.778Z" fill="#F5F5F5"/>
<path d="M190.969 118.872L158.469 116.796L157.171 123.888L158.541 139.284L192.813 136.236L190.969 118.872ZM159.664 123.876L161.411 119.4L189.638 121.05L191.268 133.854L160.619 137.214L159.664 123.876Z" fill="#F5F5F5"/>
<path d="M194.339 151.05L192.91 137.436L158.619 140.478L159.911 154.968L194.339 151.05Z" fill="#F5F5F5"/>
<path d="M101.814 230.592L88.5092 231.366L88.4572 230.568L88.4377 234.192H101.925L101.814 230.592Z" fill="#F5F5F5"/>
<path d="M207.358 57.1982L207.553 57.6602L207.573 48.2282C207.586 44.8355 206.142 41.5764 203.558 39.1667C200.973 36.757 197.459 35.3937 193.787 35.3762H189.469V63.7442L207.358 57.1982Z" fill="#F5F5F5"/>
<path d="M154.249 222.834L124.671 209.736L123.626 190.974L122.392 191.088L122.178 215.388L102.015 216.27V216.81L102.405 229.338L154.086 226.338C154.151 225.168 154.203 223.998 154.249 222.834ZM103.282 217.818L131.502 216.018L149.859 223.884L103.282 226.212V217.818Z" fill="#F5F5F5"/>
<path d="M198.949 88.7282L200.164 82.0982C189.553 78.6002 188.82 68.3762 188.852 65.2982L181.93 67.8302L192.352 87.1682L198.949 88.7282Z" fill="#F5F5F5"/>
<path d="M161.106 168.486L175.528 167.1L172.69 155.328L160.067 156.768L161.106 168.486Z" fill="#F5F5F5"/>
<path d="M191.014 98.8682H164.08L161.846 98.7122L158.8 115.014L190.774 117.054L190.034 109.968L193.183 99.5042L191.014 98.8682Z" fill="#F5F5F5"/>
<path d="M190.358 95.8682L190.696 88.0682L180.112 68.4302L163.697 74.4302L169.339 95.8382L190.358 95.8682ZM179.469 70.8422L189.17 87.8942L187.768 93.2102L171.17 92.6102L167.021 76.4822L179.469 70.8422Z" fill="#F5F5F5"/>
<path d="M194.547 189.732L195.047 205.014L206.715 204.408L206.754 205.008L195.066 205.614L195.657 223.902L206.696 223.254L206.774 224.454L195.696 225.102L195.995 234.192H206.748L206.982 183.204L195.982 184.23L194.547 189.732Z" fill="#F5F5F5"/>
<path d="M123.613 65.7961L98.8986 62.5201L92.7169 90.9721L123.723 93.0961C123.846 88.7281 123.736 75.2761 123.613 65.7961Z" fill="#F5F5F5"/>
<path d="M164.261 95.8682H168.002L162.71 75.7922L148.956 76.3142L149.288 94.8422L164.261 95.8682Z" fill="#F5F5F5"/>
<path d="M124.353 93.1383L148.632 94.8002L148.307 76.3383L124.385 77.2383C124.457 83.4843 124.457 90.1443 124.353 93.1383Z" fill="#F5F5F5"/>
<path d="M194.527 152.844L173.333 155.256L176.183 167.034L195.813 165.15L194.527 152.844Z" fill="#F5F5F5"/>
<path d="M200.274 81.4682L201.631 74.0282L207.475 74.4482L207.553 58.4222L189.508 65.0222C189.138 76.2962 196.806 80.2622 200.274 81.4682Z" fill="#F5F5F5"/>
<path d="M193.326 110.232L194.06 117.264L207.28 118.11L207.345 103.632L196.281 100.404L193.326 110.232Z" fill="#F5F5F5"/>
<path d="M199.612 170.274L196.144 183.612L206.982 182.598L207.047 168.612C203.722 167.802 200.819 167.142 199.255 166.866L199.612 170.274Z" fill="#F5F5F5"/>
<path d="M192.3 96.0961L207.358 100.494L207.397 92.5801L192.605 89.0461L192.3 96.0961Z" fill="#F5F5F5"/>
<path d="M199.066 165.036C200.28 165.204 202.579 165.636 207.053 166.746L207.196 136.146L196.157 137.13L199.066 165.036Z" fill="#F5F5F5"/>
<path d="M196.021 135.954L207.202 134.958L207.267 119.916L194.248 119.082L196.021 135.954Z" fill="#F5F5F5"/>
<path d="M201.521 81.8461C203.466 82.4035 205.44 82.8701 207.436 83.2441V75.6481L202.677 75.3062L201.521 81.8461Z" fill="#F5F5F5"/>
<path d="M200.216 89.0042L207.404 90.7202L207.436 83.8622C205.573 83.5142 203.54 83.0462 201.41 82.4462L200.216 89.0042Z" fill="#F5F5F5"/>
<path d="M101.814 230.586L101.925 234.186H102.574L102.464 230.538L154.054 227.538C153.956 229.878 153.859 232.146 153.775 234.198H155.073C155.158 232.26 155.255 229.938 155.359 227.46L166.495 226.806L168.086 234.198H168.735L167.138 226.77L192.462 225.294L192.755 234.198H196.001L195.703 225.102L206.78 224.454L206.702 223.254L195.664 223.902L195.073 205.614L206.761 205.014L206.722 204.414L195.034 205.014L194.534 189.732L195.969 184.23L206.969 183.204V182.604L196.131 183.618L199.599 170.28L199.242 166.872C200.806 167.148 203.709 167.808 207.034 168.618V166.728C202.56 165.636 200.261 165.186 199.047 165.018L196.125 137.13L207.163 136.146V134.946L195.982 135.942L194.209 119.07L207.196 119.904V118.104L193.975 117.258L193.242 110.226L196.196 100.398L207.235 103.626V100.488L192.177 96.0903L192.482 89.0403L207.274 92.5743V90.7142L200.086 88.9982L201.28 82.4403C203.436 83.0403 205.443 83.5083 207.306 83.8563V83.2563C205.31 82.8822 203.336 82.4156 201.391 81.8583L202.579 75.3182L207.339 75.6603V74.4603L201.495 74.0403L200.138 81.4802C196.67 80.2802 189.001 76.3083 189.372 65.0283L207.417 58.4283V57.6663L207.222 57.2043L189.378 63.7322V35.3643H188.729V63.9663L181.209 66.7203L169.911 45.7563C169.375 46.1134 168.753 46.3459 168.099 46.4343L179.391 67.3863L162.164 73.7283L162.554 75.1982L148.917 75.7142L148.398 46.3923H147.749L148.268 75.7383L124.353 76.6383C124.314 72.1143 124.262 67.8842 124.236 65.5322V65.2803L122.768 35.0823H122.119L123.587 65.2023L99.022 61.9443L104.866 35.0103H103.191H102.879L97.087 61.6803L89.2949 60.6482L89.2299 61.0383V61.2423L96.9701 62.2683L90.7624 90.8462L89.0936 90.7322V93.7322L101.256 94.5662V109.38L89.0092 111.942V113.79L103.21 110.79V94.7282L148.664 97.8423V115.014H134.119L132.21 123.006H120.372L88.9247 128.292V130.122L120.561 124.776H156.586L157.885 139.344L120.418 142.668L120.541 143.868L157.995 140.544L160.476 168.462L122.639 163.896L122.385 165.696L160.638 170.316L162.119 186.786L122.074 190.518L101.295 191.88V166.728L120.976 156.12L119.996 154.566L100.743 164.928L88.7429 163.452V165.252L100.619 166.728V182.742L88.6715 183.912V185.712L100.632 184.542V192.528L101.34 215.166L88.5157 219.81V221.742L101.412 217.074L101.795 229.404L88.4767 230.184V230.586L88.5286 231.384L101.814 230.586ZM155.411 226.254C155.45 225.186 155.495 224.106 155.541 223.014H165.684L166.242 225.594L155.411 226.254ZM166.891 225.582L166.242 222.696L164.729 209.496L163.878 199.896L191.54 197.964L192.391 224.07L166.891 225.582ZM173.157 186.354L187.716 184.998L187.307 190.278L174.261 191.574L173.157 186.354ZM172.508 186.414L174.943 197.934L163.768 198.714L162.755 187.314L172.508 186.414ZM191.501 196.782L175.599 197.892L174.515 192.756L188.527 191.364L189.027 184.872L192.534 184.548L191.268 189.42L191.501 196.782ZM172.67 155.328L175.508 167.1L161.086 168.486L160.047 156.768L172.67 155.328ZM176.164 167.034L173.313 155.256L194.508 152.856L195.807 165.162L176.164 167.034ZM190.755 117.054L158.781 115.008L161.826 98.7122L164.06 98.8682H191.001L193.164 99.5043L190.04 109.968L190.755 117.054ZM188.807 65.2562C188.774 68.3522 189.508 78.5763 200.118 82.0563L198.949 88.7282L192.352 87.1502L181.93 67.7883L188.807 65.2562ZM180.066 68.4543L190.69 88.0923L190.352 95.8923H169.339L163.697 74.4842L180.066 68.4543ZM162.664 75.7923L167.956 95.8682H164.261L149.288 94.8482L148.956 76.3142L162.664 75.7923ZM148.262 76.3383L148.586 94.8002L124.307 93.1383C124.411 90.1383 124.392 83.4843 124.307 77.2383L148.262 76.3383ZM98.8532 62.5383L123.567 65.8142C123.691 75.2942 123.801 88.7342 123.678 93.1142L92.6715 90.9903L98.8532 62.5383ZM161.151 98.6883L156.606 122.994H149.314V97.8543L161.151 98.6883ZM135.638 116.802H148.625V122.994H134.197L135.638 116.802ZM157.067 123.906L158.365 116.814L190.865 118.89L192.683 136.254L158.411 139.302L157.067 123.906ZM192.833 137.454L194.261 151.068L159.846 154.992L158.547 140.496L192.833 137.454ZM161.19 170.298L195.923 166.956L196.255 170.082L192.644 183.948L162.651 186.744L161.19 170.298ZM164.034 209.592L165.508 222.456H155.567C155.742 218.214 155.911 213.972 156.034 210.786C156.249 205.068 156.249 205.068 155.839 204.882L155.528 205.446L154.878 205.476C154.878 205.974 154.599 213.816 154.229 222.198L125.301 209.328L124.275 190.89L162.119 187.386L164.034 209.592ZM121.658 191.16L121.457 214.83L101.925 215.688L101.197 192.498L121.658 191.16ZM101.957 216.84V216.3L122.119 215.418L122.333 191.118L123.567 191.004L124.613 209.766L154.19 222.864C154.145 224.028 154.093 225.198 154.047 226.362L102.366 229.362L101.957 216.84Z" fill="white"/>
<path d="M131.502 215.988L103.282 217.812V226.188L149.866 223.854L131.502 215.988Z" fill="#EBEBEB"/>
<path d="M189.638 121.05L161.411 119.4L159.664 123.876L160.619 137.214L191.268 133.854L189.638 121.05Z" fill="#EBEBEB"/>
<path d="M102.139 265.866L192.742 266.25C194.561 266.259 196.365 265.936 198.049 265.3C199.734 264.664 201.266 263.728 202.559 262.544C203.851 261.36 204.878 259.953 205.581 258.402C206.285 256.851 206.65 255.188 206.657 253.506L206.748 234.198H88.4377L88.3728 248.802V253.398C88.4639 256.722 89.9519 259.882 92.5216 262.21C95.0913 264.537 98.5407 265.849 102.139 265.866Z" fill="#EBEBEB"/>
<path d="M120.931 62.6521L120.463 38.1241H106.678L102.678 60.1861L120.931 62.6521Z" fill="#EBEBEB"/>
<path d="M187.768 93.2102L189.17 87.8942L179.469 70.8422L167.021 76.5062L171.17 92.6342L187.768 93.2102Z" fill="#EBEBEB"/>
<path d="M103.282 167.928C103.431 168.702 103.282 189.45 103.282 189.45L121.463 188.394L119.379 160.032L103.282 167.928Z" fill="#EBEBEB"/>
<path d="M163.8 184.8L162.839 171.942L193.962 168.246V170.466L190.196 182.292L163.8 184.8Z" fill="#EBEBEB"/>
<path d="M140.781 78.1622C140.781 78.8552 140.559 79.5327 140.142 80.1089C139.725 80.6852 139.133 81.1343 138.44 81.3995C137.747 81.6647 136.985 81.7341 136.249 81.5989C135.514 81.4637 134.838 81.1299 134.308 80.6399C133.777 80.1499 133.416 79.5255 133.27 78.8458C133.123 78.1661 133.199 77.4616 133.486 76.8213C133.773 76.181 134.259 75.6338 134.882 75.2487C135.506 74.8637 136.239 74.6582 136.989 74.6582C137.995 74.6582 138.959 75.0274 139.671 75.6845C140.382 76.3416 140.781 77.2329 140.781 78.1622Z" fill="#EA1D2C"/>
<g opacity="0.6">
<path d="M140.775 78.0122C140.807 78.7048 140.617 79.3909 140.228 79.9835C139.838 80.5761 139.268 81.0487 138.588 81.3414C137.907 81.6342 137.149 81.7339 136.407 81.628C135.666 81.5222 134.975 81.2155 134.422 80.7467C133.869 80.278 133.479 79.6682 133.302 78.9947C133.124 78.3211 133.167 77.614 133.424 76.9628C133.682 76.3117 134.142 75.7457 134.748 75.3365C135.354 74.9274 136.077 74.6934 136.827 74.6642C137.831 74.6252 138.81 74.9558 139.55 75.5836C140.291 76.2113 140.731 77.0848 140.775 78.0122Z" fill="white"/>
</g>
<path d="M136.989 80.3702C138.381 80.3702 139.508 79.328 139.508 78.0422C139.508 76.7565 138.381 75.7142 136.989 75.7142C135.598 75.7142 134.47 76.7565 134.47 78.0422C134.47 79.328 135.598 80.3702 136.989 80.3702Z" fill="#EA1D2C"/>
<path d="M195.579 218.052C195.574 218.347 195.475 218.634 195.294 218.877C195.114 219.12 194.86 219.309 194.564 219.419C194.268 219.529 193.943 219.557 193.631 219.498C193.318 219.439 193.031 219.296 192.806 219.087C192.581 218.878 192.427 218.612 192.364 218.323C192.302 218.034 192.333 217.734 192.453 217.461C192.574 217.188 192.779 216.954 193.043 216.788C193.306 216.622 193.617 216.532 193.936 216.528C194.153 216.526 194.369 216.564 194.57 216.639C194.771 216.715 194.953 216.827 195.106 216.97C195.259 217.112 195.38 217.281 195.461 217.467C195.543 217.653 195.583 217.852 195.579 218.052Z" fill="#EA1D2C"/>
<path d="M192.988 217.566L192.592 209.166L165.242 210.396C164.525 210.427 163.812 210.286 163.171 209.988L124.372 191.88C123.931 191.673 123.556 191.362 123.286 190.979C123.016 190.596 122.86 190.153 122.833 189.696L117.548 95.0522C117.535 94.828 117.574 94.6039 117.663 94.3948C117.751 94.1858 117.887 93.9965 118.061 93.8398C118.235 93.683 118.443 93.5624 118.671 93.4859C118.9 93.4094 119.143 93.3788 119.385 93.3962L136.015 94.5302V77.7302H137.963V94.7582C137.968 94.9757 137.924 95.1918 137.835 95.393C137.745 95.5942 137.612 95.7764 137.444 95.9282C137.269 96.0748 137.063 96.187 136.84 96.2582C136.617 96.3293 136.38 96.3579 136.145 96.3422L119.528 95.2082L124.794 189.606C124.804 189.746 124.853 189.881 124.936 189.997C125.019 190.114 125.134 190.209 125.268 190.272L164.067 208.392C164.406 208.551 164.784 208.625 165.164 208.608L192.748 207.366C193.204 207.348 193.65 207.497 193.988 207.78C194.158 207.921 194.295 208.092 194.392 208.282C194.489 208.473 194.544 208.68 194.553 208.89L194.949 217.488L192.988 217.566Z" fill="#EA1D2C"/>
<path d="M120.73 140.694C123.441 140.694 125.639 138.663 125.639 136.158C125.639 133.653 123.441 131.622 120.73 131.622C118.018 131.622 115.82 133.653 115.82 136.158C115.82 138.663 118.018 140.694 120.73 140.694Z" fill="#EA1D2C"/>
<path d="M120.73 139.308C122.612 139.308 124.139 137.898 124.139 136.158C124.139 134.418 122.612 133.008 120.73 133.008C118.847 133.008 117.32 134.418 117.32 136.158C117.32 137.898 118.847 139.308 120.73 139.308Z" fill="#FAFAFA"/>
<path d="M120.73 139.536C120.006 139.537 119.299 139.34 118.697 138.97C118.095 138.599 117.625 138.072 117.347 137.455C117.07 136.838 116.996 136.158 117.137 135.503C117.277 134.847 117.625 134.245 118.136 133.772C118.647 133.299 119.298 132.976 120.007 132.845C120.717 132.715 121.452 132.781 122.121 133.037C122.789 133.292 123.36 133.725 123.762 134.281C124.164 134.836 124.379 135.49 124.379 136.158C124.377 137.053 123.992 137.91 123.308 138.543C122.625 139.176 121.697 139.533 120.73 139.536ZM120.73 133.23C120.103 133.229 119.489 133.4 118.967 133.721C118.445 134.042 118.038 134.499 117.797 135.033C117.556 135.568 117.493 136.157 117.614 136.726C117.736 137.294 118.037 137.816 118.48 138.226C118.923 138.637 119.488 138.916 120.102 139.029C120.717 139.143 121.355 139.085 121.934 138.864C122.514 138.642 123.009 138.267 123.357 137.785C123.706 137.304 123.892 136.738 123.892 136.158C123.89 135.383 123.557 134.64 122.964 134.092C122.372 133.543 121.568 133.233 120.73 133.23Z" fill="#EA1D2C"/>
<path d="M149.645 117.132H126.268C125.722 117.132 125.199 117.333 124.813 117.689C124.427 118.046 124.21 118.53 124.21 119.034V126.834C124.21 127.339 124.427 127.822 124.813 128.179C125.199 128.536 125.722 128.736 126.268 128.736H126.541V130.602L128.885 128.736H149.664C150.21 128.736 150.734 128.536 151.12 128.179C151.506 127.822 151.723 127.339 151.723 126.834V119.034C151.723 118.783 151.669 118.534 151.564 118.302C151.459 118.07 151.306 117.86 151.113 117.683C150.92 117.506 150.69 117.366 150.438 117.272C150.186 117.177 149.917 117.13 149.645 117.132Z" fill="#EA1D2C"/>
<g opacity="0.4">
<path d="M149.645 117.132H126.268C125.722 117.132 125.199 117.333 124.813 117.689C124.427 118.046 124.21 118.53 124.21 119.034V126.834C124.21 127.339 124.427 127.822 124.813 128.179C125.199 128.536 125.722 128.736 126.268 128.736H126.541V130.602L128.885 128.736H149.664C150.21 128.736 150.734 128.536 151.12 128.179C151.506 127.822 151.723 127.339 151.723 126.834V119.034C151.723 118.783 151.669 118.534 151.564 118.302C151.459 118.07 151.306 117.86 151.113 117.683C150.92 117.506 150.69 117.366 150.438 117.272C150.186 117.177 149.917 117.13 149.645 117.132Z" fill="white"/>
</g>
<path d="M129.47 122.82C129.459 122.562 129.533 122.307 129.68 122.088C129.827 121.869 130.042 121.695 130.297 121.59C130.552 121.484 130.835 121.451 131.11 121.495C131.385 121.539 131.64 121.658 131.842 121.837C132.043 122.015 132.183 122.245 132.242 122.498C132.301 122.75 132.278 123.013 132.174 123.252C132.071 123.492 131.892 123.698 131.661 123.843C131.431 123.988 131.158 124.067 130.879 124.068C130.696 124.076 130.514 124.05 130.343 123.991C130.172 123.932 130.016 123.841 129.884 123.724C129.752 123.607 129.647 123.467 129.576 123.312C129.505 123.156 129.469 122.989 129.47 122.82ZM131.898 122.82C131.9 122.632 131.84 122.448 131.728 122.291C131.616 122.134 131.456 122.012 131.268 121.94C131.08 121.867 130.873 121.848 130.674 121.884C130.474 121.921 130.291 122.011 130.147 122.144C130.003 122.277 129.905 122.446 129.866 122.631C129.826 122.815 129.847 123.006 129.926 123.18C130.004 123.353 130.137 123.501 130.306 123.605C130.476 123.709 130.675 123.763 130.879 123.762C131.014 123.766 131.148 123.745 131.274 123.699C131.4 123.653 131.514 123.584 131.61 123.496C131.705 123.407 131.78 123.302 131.83 123.186C131.879 123.069 131.903 122.945 131.898 122.82Z" fill="white"/>
<path d="M134.846 123.12C134.854 123.245 134.833 123.369 134.785 123.486C134.737 123.602 134.663 123.708 134.569 123.797C134.474 123.886 134.36 123.955 134.235 124.001C134.109 124.046 133.975 124.067 133.84 124.062C133.702 124.068 133.565 124.043 133.44 123.989C133.316 123.934 133.208 123.852 133.125 123.75V124.044H132.775V121.452H133.138V122.472C133.222 122.376 133.33 122.299 133.451 122.248C133.573 122.197 133.706 122.173 133.84 122.178C133.975 122.173 134.109 122.194 134.235 122.24C134.36 122.285 134.474 122.355 134.569 122.443C134.663 122.532 134.737 122.638 134.785 122.755C134.833 122.871 134.854 122.996 134.846 123.12ZM134.483 123.12C134.473 123.004 134.426 122.893 134.349 122.801C134.272 122.709 134.167 122.639 134.048 122.601C133.929 122.563 133.8 122.558 133.678 122.586C133.555 122.614 133.445 122.675 133.359 122.761C133.273 122.846 133.216 122.953 133.195 123.068C133.174 123.183 133.19 123.301 133.24 123.407C133.29 123.514 133.373 123.605 133.478 123.669C133.584 123.733 133.707 123.768 133.833 123.768C133.925 123.772 134.017 123.757 134.103 123.726C134.188 123.694 134.265 123.646 134.329 123.585C134.393 123.524 134.442 123.45 134.473 123.37C134.504 123.29 134.516 123.205 134.509 123.12H134.483Z" fill="white"/>
<path d="M134.684 124.626L134.801 124.368C134.885 124.431 134.991 124.463 135.099 124.458C135.288 124.458 135.398 124.344 135.398 124.134V122.196H135.755V124.128C135.763 124.209 135.752 124.29 135.722 124.366C135.692 124.442 135.645 124.512 135.583 124.569C135.521 124.626 135.446 124.67 135.364 124.698C135.281 124.725 135.193 124.736 135.106 124.728C134.957 124.735 134.81 124.7 134.684 124.626ZM135.333 121.626C135.333 121.597 135.339 121.569 135.352 121.542C135.364 121.516 135.382 121.491 135.404 121.471C135.426 121.451 135.453 121.435 135.482 121.425C135.511 121.414 135.542 121.409 135.573 121.41C135.605 121.409 135.636 121.413 135.665 121.423C135.695 121.432 135.722 121.447 135.745 121.467C135.768 121.487 135.786 121.51 135.799 121.537C135.812 121.563 135.819 121.591 135.82 121.62C135.821 121.65 135.815 121.68 135.803 121.708C135.791 121.735 135.773 121.76 135.75 121.781C135.726 121.802 135.699 121.818 135.669 121.829C135.638 121.839 135.606 121.844 135.573 121.842C135.541 121.844 135.509 121.839 135.479 121.829C135.449 121.818 135.422 121.802 135.399 121.781C135.377 121.76 135.359 121.735 135.348 121.707C135.336 121.68 135.331 121.65 135.333 121.62V121.626Z" fill="white"/>
<path d="M138.249 123.228H136.625C136.633 123.308 136.659 123.386 136.7 123.457C136.741 123.528 136.797 123.59 136.865 123.641C136.933 123.691 137.011 123.728 137.095 123.75C137.179 123.772 137.266 123.778 137.353 123.768C137.461 123.772 137.568 123.754 137.668 123.715C137.767 123.677 137.857 123.619 137.931 123.546L138.132 123.762C137.983 123.899 137.795 123.994 137.59 124.036C137.385 124.077 137.171 124.063 136.974 123.996C136.777 123.928 136.605 123.81 136.479 123.654C136.353 123.499 136.277 123.314 136.262 123.12C136.256 122.996 136.279 122.872 136.327 122.757C136.376 122.641 136.449 122.536 136.544 122.447C136.638 122.359 136.751 122.29 136.876 122.243C137 122.197 137.134 122.175 137.268 122.178C137.402 122.175 137.536 122.197 137.66 122.244C137.784 122.291 137.896 122.361 137.989 122.45C138.082 122.54 138.154 122.646 138.2 122.762C138.245 122.879 138.264 123.003 138.255 123.126C138.256 123.16 138.254 123.194 138.249 123.228ZM136.625 122.988H137.924C137.924 122.829 137.856 122.676 137.734 122.564C137.612 122.451 137.447 122.388 137.275 122.388C137.103 122.388 136.937 122.451 136.816 122.564C136.694 122.676 136.625 122.829 136.625 122.988Z" fill="white"/>
<path d="M138.573 123.12C138.571 122.993 138.596 122.866 138.649 122.748C138.702 122.63 138.78 122.524 138.879 122.435C138.979 122.347 139.097 122.278 139.227 122.234C139.356 122.19 139.494 122.171 139.632 122.178C139.793 122.169 139.954 122.2 140.097 122.269C140.24 122.337 140.36 122.441 140.444 122.568L140.171 122.736C140.111 122.653 140.03 122.584 139.935 122.537C139.84 122.49 139.733 122.466 139.625 122.466C139.45 122.482 139.288 122.557 139.169 122.677C139.051 122.798 138.985 122.955 138.985 123.117C138.985 123.28 139.051 123.437 139.169 123.557C139.288 123.677 139.45 123.753 139.625 123.768C139.733 123.769 139.839 123.746 139.934 123.7C140.029 123.654 140.111 123.587 140.171 123.504L140.444 123.666C140.36 123.794 140.24 123.899 140.097 123.968C139.954 124.038 139.793 124.071 139.632 124.062C139.494 124.069 139.357 124.049 139.228 124.005C139.099 123.96 138.981 123.892 138.882 123.803C138.782 123.715 138.704 123.609 138.651 123.491C138.598 123.374 138.571 123.248 138.573 123.12Z" fill="white"/>
<path d="M142.067 123.936C141.939 124.022 141.784 124.067 141.625 124.062C141.537 124.076 141.446 124.069 141.361 124.044C141.275 124.019 141.197 123.975 141.134 123.916C141.07 123.858 141.023 123.786 140.996 123.707C140.968 123.628 140.961 123.544 140.976 123.462V122.442H140.632V122.172H140.976V121.764H141.34V122.172H141.911V122.442H141.34V123.444C141.333 123.485 141.336 123.526 141.348 123.565C141.361 123.604 141.383 123.64 141.413 123.67C141.443 123.7 141.48 123.724 141.522 123.738C141.563 123.753 141.607 123.759 141.651 123.756C141.752 123.758 141.85 123.728 141.931 123.672L142.067 123.936Z" fill="white"/>
<path d="M142.437 121.62C142.438 121.591 142.445 121.562 142.458 121.536C142.471 121.509 142.489 121.485 142.512 121.465C142.535 121.445 142.562 121.429 142.591 121.419C142.621 121.408 142.652 121.403 142.684 121.404C142.715 121.403 142.746 121.407 142.776 121.416C142.805 121.426 142.832 121.441 142.855 121.461C142.878 121.481 142.897 121.504 142.91 121.53C142.923 121.557 142.93 121.585 142.931 121.614C142.931 121.675 142.905 121.733 142.858 121.775C142.812 121.818 142.749 121.842 142.684 121.842C142.618 121.842 142.556 121.818 142.509 121.775C142.463 121.733 142.437 121.675 142.437 121.614V121.62ZM142.502 122.22H142.866V124.068H142.502V122.22Z" fill="white"/>
<path d="M145.327 122.196L144.45 124.044H144.08L143.203 122.196H143.586L144.236 123.678L144.937 122.196H145.327Z" fill="white"/>
<path d="M147.411 123.228H145.788C145.796 123.308 145.821 123.386 145.862 123.457C145.903 123.528 145.96 123.59 146.027 123.641C146.095 123.691 146.173 123.728 146.257 123.75C146.341 123.772 146.429 123.778 146.515 123.768C146.623 123.772 146.73 123.754 146.83 123.715C146.93 123.677 147.019 123.619 147.093 123.546L147.288 123.762C147.189 123.864 147.068 123.943 146.932 123.995C146.796 124.047 146.649 124.07 146.502 124.062C146.363 124.071 146.223 124.054 146.092 124.01C145.96 123.967 145.84 123.899 145.739 123.81C145.637 123.722 145.557 123.615 145.503 123.496C145.449 123.377 145.422 123.249 145.424 123.12C145.419 122.996 145.441 122.872 145.489 122.757C145.538 122.641 145.612 122.536 145.706 122.447C145.8 122.359 145.913 122.29 146.038 122.243C146.163 122.197 146.296 122.175 146.43 122.178C146.565 122.175 146.698 122.197 146.822 122.244C146.946 122.291 147.058 122.361 147.151 122.45C147.244 122.54 147.316 122.646 147.362 122.762C147.408 122.879 147.427 123.003 147.417 123.126C147.418 123.16 147.416 123.194 147.411 123.228ZM145.788 122.988H147.086C147.086 122.829 147.018 122.676 146.896 122.564C146.774 122.451 146.609 122.388 146.437 122.388C146.265 122.388 146.1 122.451 145.978 122.564C145.856 122.676 145.788 122.829 145.788 122.988Z" fill="white"/>
<path d="M141.924 66.3962C141.93 65.7034 141.762 65.0188 141.434 64.396C141.105 63.7732 140.626 63.2291 140.032 62.8063C139.438 62.3834 138.746 62.0934 138.011 61.9588C137.275 61.8242 136.516 61.8488 135.793 62.0306C135.069 62.2124 134.401 62.5464 133.841 63.0066C133.28 63.4668 132.843 64.0406 132.562 64.6831C132.282 65.3256 132.166 66.0194 132.225 66.7101C132.283 67.4007 132.513 68.0695 132.898 68.6642C133.087 68.9522 133.32 69.1622 133.548 69.4682L136.372 72.9182C136.454 73.0188 136.56 73.1004 136.681 73.1566C136.803 73.2129 136.937 73.2422 137.073 73.2422C137.21 73.2422 137.344 73.2129 137.465 73.1566C137.587 73.1004 137.693 73.0188 137.775 72.9182L140.547 69.5222C140.801 69.2467 141.037 68.9583 141.255 68.6582C141.692 67.9725 141.923 67.1917 141.924 66.3962ZM137.067 68.3282C136.643 68.3293 136.228 68.2142 135.875 67.9974C135.521 67.7805 135.246 67.4717 135.083 67.11C134.919 66.7483 134.876 66.35 134.958 65.9656C135.04 65.5811 135.244 65.2277 135.543 64.9502C135.842 64.6727 136.224 64.4835 136.64 64.4067C137.056 64.3298 137.487 64.3686 137.879 64.5183C138.271 64.668 138.606 64.9218 138.842 65.2475C139.077 65.5732 139.203 65.9563 139.203 66.3482C139.203 66.8722 138.978 67.375 138.578 67.7461C138.178 68.1173 137.634 68.3266 137.067 68.3282Z" fill="#EA1D2C"/>
<path d="M110.457 243.318H109.554V243.012H111.736V243.318H110.821V245.454H110.444L110.457 243.318Z" fill="#263238"/>
<path d="M111.704 244.53C111.701 244.34 111.76 244.154 111.872 243.994C111.984 243.835 112.145 243.71 112.334 243.635C112.524 243.561 112.733 243.54 112.935 243.575C113.137 243.61 113.323 243.7 113.47 243.833C113.617 243.966 113.718 244.137 113.76 244.323C113.802 244.509 113.783 244.702 113.706 244.879C113.628 245.055 113.496 245.206 113.326 245.313C113.156 245.419 112.955 245.477 112.749 245.478C112.612 245.485 112.474 245.465 112.345 245.42C112.216 245.375 112.099 245.306 112.001 245.217C111.902 245.128 111.825 245.02 111.774 244.902C111.723 244.784 111.699 244.657 111.704 244.53ZM113.418 244.53C113.418 244.366 113.347 244.208 113.221 244.091C113.095 243.975 112.924 243.909 112.746 243.909C112.568 243.909 112.397 243.975 112.271 244.091C112.145 244.208 112.074 244.366 112.074 244.53C112.074 244.695 112.145 244.853 112.271 244.969C112.397 245.086 112.568 245.151 112.746 245.151C112.924 245.151 113.095 245.086 113.221 244.969C113.347 244.853 113.418 244.695 113.418 244.53Z" fill="#263238"/>
<path d="M115.411 245.328C115.289 245.42 115.134 245.466 114.976 245.46C114.888 245.472 114.798 245.465 114.713 245.439C114.628 245.414 114.551 245.37 114.488 245.311C114.425 245.253 114.378 245.182 114.35 245.103C114.322 245.025 114.314 244.942 114.327 244.86V243.846H113.989V243.57H114.327V243.168H114.717V243.57H115.288V243.846H114.717V244.848C114.71 244.889 114.713 244.93 114.725 244.969C114.738 245.008 114.76 245.044 114.79 245.074C114.82 245.104 114.857 245.128 114.899 245.143C114.94 245.157 114.984 245.163 115.028 245.16C115.131 245.159 115.232 245.127 115.314 245.07L115.411 245.328Z" fill="#263238"/>
<path d="M117.437 244.338V245.454H117.093V245.214C117.016 245.304 116.917 245.375 116.804 245.421C116.691 245.467 116.567 245.486 116.444 245.478C115.989 245.478 115.704 245.256 115.704 244.932C115.704 244.608 115.911 244.392 116.502 244.392H117.08V244.326C117.08 244.044 116.905 243.876 116.541 243.876C116.305 243.869 116.074 243.942 115.892 244.08L115.736 243.828C115.975 243.662 116.269 243.577 116.567 243.588C116.681 243.57 116.797 243.576 116.908 243.607C117.018 243.637 117.12 243.691 117.204 243.764C117.288 243.836 117.353 243.926 117.394 244.026C117.434 244.125 117.449 244.232 117.437 244.338ZM117.074 244.89V244.632H116.515C116.158 244.632 116.054 244.764 116.054 244.92C116.054 245.076 116.217 245.22 116.496 245.22C116.618 245.229 116.739 245.201 116.843 245.142C116.947 245.083 117.027 244.995 117.074 244.89Z" fill="#263238"/>
<path d="M118.106 242.868H118.469V245.454H118.106V242.868Z" fill="#263238"/>
<path d="M122.061 242.868V245.454H121.717V245.16C121.634 245.263 121.526 245.345 121.402 245.401C121.277 245.456 121.14 245.483 121.002 245.478C120.745 245.459 120.505 245.351 120.33 245.176C120.155 245.001 120.058 244.772 120.058 244.533C120.058 244.295 120.155 244.065 120.33 243.89C120.505 243.715 120.745 243.607 121.002 243.588C121.137 243.583 121.27 243.607 121.392 243.66C121.514 243.712 121.621 243.79 121.704 243.888V242.868H122.061ZM121.704 244.53C121.692 244.414 121.645 244.304 121.567 244.213C121.489 244.121 121.384 244.053 121.265 244.016C121.146 243.979 121.017 243.974 120.895 244.003C120.774 244.032 120.663 244.093 120.578 244.179C120.493 244.264 120.437 244.371 120.416 244.486C120.396 244.6 120.411 244.718 120.462 244.825C120.512 244.931 120.595 245.022 120.7 245.086C120.805 245.149 120.928 245.184 121.054 245.184C121.145 245.185 121.234 245.167 121.317 245.134C121.4 245.1 121.474 245.051 121.535 244.99C121.596 244.928 121.643 244.856 121.672 244.776C121.701 244.697 121.712 244.613 121.704 244.53Z" fill="#263238"/>
<path d="M122.684 243.036C122.684 243.006 122.69 242.977 122.703 242.95C122.715 242.922 122.734 242.898 122.757 242.877C122.78 242.856 122.807 242.84 122.837 242.829C122.867 242.819 122.899 242.813 122.931 242.814C122.965 242.809 123 242.811 123.034 242.819C123.068 242.828 123.099 242.843 123.126 242.864C123.152 242.885 123.173 242.911 123.188 242.94C123.203 242.969 123.21 243.001 123.21 243.033C123.21 243.065 123.203 243.097 123.188 243.126C123.173 243.156 123.152 243.182 123.126 243.203C123.099 243.223 123.068 243.239 123.034 243.247C123 243.256 122.965 243.257 122.931 243.252C122.899 243.253 122.868 243.248 122.838 243.238C122.809 243.227 122.782 243.211 122.759 243.191C122.736 243.171 122.718 243.147 122.705 243.121C122.692 243.094 122.685 243.065 122.684 243.036ZM122.749 243.606H123.113V245.454H122.749V243.606Z" fill="#263238"/>
<path d="M123.548 245.262L123.704 244.992C123.912 245.119 124.156 245.186 124.405 245.184C124.742 245.184 124.879 245.094 124.879 244.938C124.879 244.518 123.58 244.878 123.58 244.146C123.58 243.81 123.905 243.588 124.418 243.588C124.672 243.586 124.922 243.644 125.145 243.756L124.989 244.02C124.816 243.922 124.615 243.871 124.411 243.876C124.093 243.876 123.944 243.984 123.944 244.128C123.944 244.566 125.242 244.212 125.242 244.926C125.242 245.262 124.911 245.478 124.379 245.478C124.085 245.484 123.796 245.409 123.548 245.262Z" fill="#263238"/>
<path d="M126.82 245.328C126.696 245.421 126.539 245.468 126.379 245.46C126.29 245.472 126.2 245.465 126.116 245.439C126.031 245.414 125.954 245.37 125.891 245.311C125.827 245.253 125.78 245.182 125.752 245.103C125.724 245.025 125.716 244.942 125.729 244.86V243.846H125.385V243.57H125.755V243.168H126.119V243.57H126.69V243.846H126.119V244.848C126.112 244.889 126.115 244.93 126.128 244.969C126.141 245.008 126.163 245.044 126.193 245.074C126.223 245.104 126.26 245.128 126.301 245.143C126.342 245.157 126.387 245.163 126.431 245.16C126.532 245.16 126.63 245.128 126.71 245.07L126.82 245.328Z" fill="#263238"/>
<path d="M128.846 244.338V245.454H128.502V245.214C128.425 245.303 128.326 245.374 128.213 245.42C128.099 245.466 127.976 245.486 127.853 245.478C127.405 245.478 127.113 245.256 127.113 244.932C127.113 244.608 127.32 244.392 127.918 244.392H128.496V244.326C128.496 244.044 128.314 243.876 127.957 243.876C127.721 243.872 127.491 243.944 127.307 244.08L127.158 243.828C127.397 243.662 127.69 243.577 127.989 243.588C128.102 243.572 128.217 243.58 128.326 243.611C128.434 243.643 128.534 243.697 128.617 243.769C128.699 243.841 128.763 243.93 128.803 244.029C128.843 244.128 128.858 244.233 128.846 244.338ZM128.483 244.89V244.632H127.924C127.561 244.632 127.463 244.764 127.463 244.92C127.463 245.076 127.626 245.22 127.905 245.22C128.026 245.229 128.148 245.201 128.252 245.142C128.356 245.083 128.436 244.995 128.483 244.89Z" fill="#263238"/>
<path d="M131.411 244.392V245.454H131.054V244.428C131.054 244.068 130.853 243.888 130.509 243.888C130.421 243.881 130.333 243.891 130.251 243.919C130.169 243.946 130.094 243.99 130.032 244.048C129.97 244.105 129.922 244.174 129.892 244.25C129.863 244.326 129.851 244.408 129.859 244.488V245.436H129.496V243.588H129.84V243.87C129.926 243.77 130.037 243.69 130.164 243.638C130.29 243.586 130.429 243.563 130.567 243.57C130.685 243.559 130.804 243.572 130.915 243.61C131.027 243.648 131.127 243.709 131.209 243.789C131.29 243.868 131.351 243.964 131.386 244.069C131.421 244.173 131.43 244.284 131.411 244.392Z" fill="#263238"/>
<path d="M131.911 244.53C131.908 244.403 131.934 244.276 131.987 244.158C132.039 244.04 132.118 243.934 132.217 243.845C132.317 243.757 132.435 243.688 132.564 243.644C132.694 243.6 132.832 243.581 132.97 243.588C133.132 243.58 133.294 243.613 133.438 243.682C133.582 243.752 133.703 243.856 133.788 243.984L133.509 244.146C133.448 244.064 133.367 243.997 133.272 243.951C133.177 243.905 133.071 243.881 132.963 243.882C132.788 243.898 132.625 243.973 132.507 244.093C132.389 244.214 132.323 244.371 132.323 244.533C132.323 244.696 132.389 244.853 132.507 244.973C132.625 245.093 132.788 245.169 132.963 245.184C133.071 245.185 133.177 245.162 133.272 245.116C133.367 245.07 133.448 245.003 133.509 244.92L133.788 245.076C133.703 245.205 133.582 245.31 133.438 245.381C133.294 245.452 133.132 245.485 132.97 245.478C132.831 245.485 132.693 245.465 132.564 245.42C132.434 245.375 132.316 245.306 132.217 245.217C132.118 245.128 132.039 245.021 131.987 244.903C131.934 244.785 131.908 244.658 131.911 244.53Z" fill="#263238"/>
<path d="M136.022 244.644H134.398C134.406 244.724 134.432 244.802 134.473 244.873C134.514 244.944 134.57 245.006 134.638 245.057C134.706 245.107 134.784 245.144 134.868 245.166C134.951 245.188 135.039 245.194 135.125 245.184C135.233 245.188 135.341 245.17 135.441 245.131C135.54 245.093 135.63 245.035 135.703 244.962L135.905 245.178C135.804 245.278 135.681 245.356 135.544 245.408C135.407 245.46 135.26 245.484 135.112 245.478C134.973 245.487 134.832 245.47 134.701 245.426C134.569 245.382 134.448 245.313 134.347 245.224C134.245 245.135 134.165 245.027 134.111 244.908C134.058 244.788 134.031 244.66 134.035 244.53C134.029 244.406 134.051 244.282 134.1 244.167C134.148 244.051 134.222 243.946 134.317 243.857C134.411 243.769 134.524 243.7 134.649 243.653C134.773 243.607 134.907 243.585 135.041 243.588C135.176 243.584 135.31 243.607 135.434 243.654C135.559 243.701 135.671 243.772 135.764 243.862C135.857 243.952 135.929 244.059 135.974 244.176C136.02 244.293 136.038 244.418 136.028 244.542C136.029 244.576 136.027 244.61 136.022 244.644ZM134.398 244.404H135.697C135.697 244.245 135.628 244.092 135.507 243.98C135.385 243.867 135.22 243.804 135.048 243.804C134.875 243.804 134.71 243.867 134.588 243.98C134.467 244.092 134.398 244.245 134.398 244.404Z" fill="#263238"/>
<path d="M112.834 248.196V254.016H111.373V249.276H110.113V248.196H112.834Z" fill="#263238"/>
<path d="M115.632 253.272C115.618 253.561 115.536 253.844 115.392 254.1L114.872 255.3H113.983L114.379 253.98C114.228 253.923 114.101 253.825 114.014 253.698C113.926 253.571 113.884 253.422 113.892 253.272C113.892 253.059 113.984 252.855 114.147 252.704C114.31 252.553 114.531 252.468 114.762 252.468C114.993 252.468 115.214 252.553 115.377 252.704C115.541 252.855 115.632 253.059 115.632 253.272Z" fill="#263238"/>
<path d="M118.613 248.196V254.016H117.119V249.276H115.859V248.196H118.613Z" fill="#263238"/>
<path d="M119.678 251.106C119.678 249.186 120.827 248.106 122.379 248.106C123.931 248.106 125.08 249.198 125.08 251.106C125.08 253.014 123.937 254.106 122.379 254.106C120.82 254.106 119.678 253.026 119.678 251.106ZM123.613 251.106C123.613 249.786 123.106 249.234 122.379 249.234C121.652 249.234 121.152 249.786 121.152 251.106C121.152 252.426 121.658 252.978 122.379 252.978C123.1 252.978 123.613 252.432 123.613 251.106Z" fill="#263238"/>
<path d="M125.788 251.106C125.788 249.186 126.944 248.106 128.496 248.106C130.048 248.106 131.197 249.198 131.197 251.106C131.197 253.014 130.054 254.106 128.496 254.106C126.937 254.106 125.788 253.026 125.788 251.106ZM129.729 251.106C129.729 249.786 129.223 249.234 128.496 249.234C127.768 249.234 127.268 249.786 127.268 251.106C127.268 252.426 127.775 252.978 128.496 252.978C129.216 252.978 129.729 252.432 129.729 251.106Z" fill="#263238"/>
<path d="M142.937 251.454V254.016H141.534V251.658C141.534 250.932 141.184 250.596 140.612 250.596C140.041 250.596 139.541 250.974 139.541 251.796V254.04H138.138V251.682C138.138 250.956 137.807 250.62 137.223 250.62C136.638 250.62 136.158 250.998 136.158 251.82V254.064H134.755V249.528H136.093V250.044C136.284 249.847 136.52 249.69 136.783 249.587C137.047 249.483 137.332 249.434 137.619 249.444C137.93 249.429 138.24 249.489 138.519 249.617C138.797 249.745 139.035 249.938 139.21 250.176C139.422 249.94 139.689 249.751 139.992 249.624C140.294 249.497 140.624 249.436 140.957 249.444C142.112 249.474 142.937 250.092 142.937 251.454Z" fill="#263238"/>
<path d="M106.239 248.875C106.926 246.175 105.114 243.472 102.192 242.837C99.2702 242.202 96.3446 243.877 95.6576 246.576C94.9706 249.276 96.7825 251.98 99.7045 252.615C102.626 253.249 105.552 251.575 106.239 248.875Z" fill="#EA1D2C"/>
<path d="M98.7558 248.652C99.218 248.591 99.685 248.565 100.152 248.574C101.041 248.574 102.314 248.532 103.834 248.52L103.723 248.742C103.288 248.286 102.827 247.782 102.334 247.26L102.249 247.17L102.334 247.068L103.704 245.49L103.834 245.742H103.184H98.7233L98.8792 245.604C98.8792 247.128 98.8402 248.412 98.8142 249.312C98.825 249.788 98.7946 250.263 98.7233 250.734C98.6561 250.263 98.6257 249.788 98.6324 249.312C98.6324 248.412 98.587 247.128 98.574 245.604V245.466H98.7233H103.184H104.152L103.931 245.718L102.548 247.296V247.104L103.912 248.604L104.119 248.826H103.801C102.282 248.826 101.009 248.79 100.119 248.772C99.662 248.768 99.2057 248.728 98.7558 248.652Z" fill="#FAFAFA"/>
<path d="M188.885 239.166H172.456C171.621 239.166 170.82 239.473 170.229 240.019C169.639 240.564 169.307 241.304 169.307 242.076V254.028C169.309 254.799 169.641 255.538 170.232 256.082C170.822 256.626 171.622 256.932 172.456 256.932H172.872V259.782L176.45 256.932H188.885C189.719 256.932 190.519 256.626 191.109 256.082C191.7 255.538 192.032 254.799 192.034 254.028V242.076C192.034 241.304 191.702 240.564 191.111 240.019C190.521 239.473 189.72 239.166 188.885 239.166Z" fill="#EA1D2C"/>
<path d="M174.021 244.65V250.782C174.021 250.846 174.048 250.907 174.097 250.952C174.146 250.997 174.212 251.022 174.281 251.022H188.19C188.224 251.021 188.257 251.014 188.289 251.002C188.32 250.989 188.348 250.971 188.372 250.948C188.395 250.925 188.413 250.898 188.426 250.869C188.438 250.839 188.444 250.808 188.443 250.776L188.41 248.532C188.411 248.483 188.396 248.435 188.365 248.394L186.365 245.928C186.342 245.899 186.312 245.874 186.277 245.858C186.242 245.841 186.203 245.832 186.164 245.832H183.865C183.797 245.832 183.732 245.808 183.684 245.764C183.635 245.72 183.607 245.661 183.605 245.598V244.668C183.606 244.637 183.6 244.606 183.588 244.577C183.576 244.548 183.557 244.521 183.534 244.499C183.51 244.476 183.482 244.459 183.451 244.447C183.419 244.434 183.386 244.428 183.352 244.428H174.261C174.199 244.432 174.141 244.457 174.096 244.498C174.052 244.539 174.026 244.593 174.021 244.65Z" fill="#FAFAFA"/>
<path d="M184.255 246.354V248.328C184.255 248.365 184.27 248.4 184.298 248.426C184.326 248.452 184.364 248.466 184.404 248.466L187.475 248.418C187.502 248.417 187.528 248.41 187.55 248.396C187.573 248.383 187.591 248.364 187.603 248.342C187.615 248.32 187.62 248.295 187.618 248.271C187.616 248.246 187.607 248.223 187.592 248.202L186.144 246.234C186.131 246.215 186.113 246.199 186.091 246.189C186.07 246.178 186.045 246.173 186.021 246.174L184.385 246.216C184.348 246.219 184.314 246.235 184.29 246.261C184.265 246.287 184.253 246.32 184.255 246.354Z" fill="#EA1D2C"/>
<path d="M188.722 251.208H173.742V251.634H188.722V251.208Z" fill="#FAFAFA"/>
<path d="M178.696 251.37C178.698 251.642 178.611 251.909 178.448 252.136C178.286 252.363 178.053 252.54 177.781 252.644C177.509 252.749 177.21 252.777 176.921 252.724C176.632 252.671 176.366 252.54 176.158 252.348C175.95 252.155 175.808 251.91 175.751 251.643C175.693 251.376 175.723 251.099 175.837 250.848C175.95 250.596 176.142 250.382 176.387 250.231C176.633 250.081 176.921 250.001 177.216 250.002C177.608 250.002 177.985 250.146 178.263 250.403C178.54 250.659 178.696 251.007 178.696 251.37Z" fill="#EA1D2C"/>
<path d="M178.086 251.37C178.087 251.531 178.037 251.688 177.941 251.822C177.845 251.957 177.708 252.061 177.548 252.123C177.387 252.185 177.211 252.202 177.04 252.171C176.869 252.14 176.712 252.063 176.59 251.949C176.467 251.835 176.383 251.69 176.349 251.533C176.316 251.375 176.334 251.212 176.401 251.063C176.468 250.915 176.581 250.789 176.726 250.7C176.872 250.612 177.042 250.565 177.216 250.566C177.447 250.566 177.668 250.651 177.831 250.802C177.994 250.952 178.086 251.157 178.086 251.37Z" fill="#FAFAFA"/>
<path d="M183.599 251.022C183.56 251.022 183.527 249.54 183.527 247.716C183.527 245.892 183.527 244.41 183.599 244.41C183.67 244.41 183.664 245.892 183.664 247.716C183.664 249.54 183.631 251.022 183.599 251.022Z" fill="#EA1D2C"/>
<path d="M186.794 251.37C186.794 251.641 186.707 251.905 186.544 252.13C186.381 252.355 186.15 252.531 185.88 252.634C185.609 252.738 185.311 252.765 185.024 252.712C184.737 252.659 184.473 252.529 184.266 252.338C184.059 252.146 183.918 251.902 183.861 251.637C183.804 251.372 183.833 251.097 183.945 250.847C184.057 250.597 184.247 250.383 184.491 250.233C184.734 250.082 185.02 250.002 185.313 250.002C185.706 250.002 186.082 250.146 186.36 250.403C186.638 250.659 186.794 251.007 186.794 251.37Z" fill="#EA1D2C"/>
<path d="M186.144 251.37C186.146 251.531 186.095 251.688 186 251.822C185.904 251.956 185.768 252.061 185.608 252.123C185.448 252.185 185.271 252.202 185.101 252.171C184.93 252.141 184.773 252.064 184.65 251.951C184.527 251.838 184.443 251.694 184.408 251.536C184.374 251.379 184.391 251.216 184.457 251.068C184.523 250.919 184.636 250.792 184.78 250.703C184.924 250.614 185.094 250.566 185.268 250.566C185.499 250.566 185.721 250.651 185.885 250.801C186.049 250.952 186.143 251.156 186.144 251.37Z" fill="#FAFAFA"/>
<path d="M185.294 248.844C185.294 248.88 185.079 248.904 184.82 248.904C184.56 248.904 184.346 248.904 184.346 248.844C184.346 248.784 184.56 248.778 184.82 248.778C185.079 248.778 185.294 248.808 185.294 248.844Z" fill="#EA1D2C"/>
<path d="M340.259 148.206C340.259 148.206 350.733 149.838 351.577 150.048C352.421 150.258 355.739 151.71 355.908 152.646C355.996 153.875 355.996 155.108 355.908 156.336C355.908 156.336 355.304 156.786 354.934 155.886C354.686 155.012 354.579 154.108 354.616 153.204L352.759 152.544L353.772 154.206L353.941 158.1C353.941 158.1 352.642 157.992 352.389 157.062C352.23 156.414 352.147 155.753 352.142 155.088L350.791 154.032L351.804 155.298L352.142 158.1C352.142 158.1 351.155 158.4 350.843 157.776C350.615 156.967 350.502 156.134 350.506 155.298L346.688 154.062L344.162 155.364L339.441 152.928L340.259 148.206Z" fill="#FFBE9D"/>
<path d="M303.584 124.284C303.636 124.476 316.207 140.484 316.207 140.484L341.467 147.744L340.318 156.51L309.363 150.75L298.377 139.098L303.584 124.284Z" fill="#EA1D2C"/>
<g opacity="0.2">
<path d="M303.584 124.284C303.636 124.476 316.207 140.484 316.207 140.484L341.467 147.744L340.318 156.51L309.363 150.75L298.377 139.098L303.584 124.284Z" fill="black"/>
</g>
<path d="M259.585 146.298H207.975C206.881 146.298 205.995 147.118 205.995 148.128V153.762C205.995 154.773 206.881 155.592 207.975 155.592H259.585C260.679 155.592 261.565 154.773 261.565 153.762V148.128C261.565 147.118 260.679 146.298 259.585 146.298Z" fill="#F5F5F5"/>
<path d="M259.591 155.592C259.591 155.592 259.702 155.592 259.916 155.55C260.329 155.48 260.706 155.289 260.992 155.004C261.277 154.72 261.456 154.358 261.5 153.972C261.5 153.408 261.5 152.736 261.5 151.992C261.5 151.248 261.5 150.414 261.5 149.508C261.5 149.052 261.5 148.578 261.5 148.086C261.492 147.843 261.43 147.603 261.318 147.383C261.207 147.162 261.048 146.965 260.851 146.802C260.638 146.636 260.387 146.515 260.117 146.448C259.83 146.39 259.534 146.372 259.241 146.394H257.345H253.221L208.021 146.442C207.768 146.442 207.518 146.49 207.286 146.584C207.055 146.678 206.847 146.816 206.676 146.988C206.508 147.163 206.379 147.367 206.299 147.589C206.219 147.811 206.188 148.045 206.209 148.278C206.209 149.286 206.209 150.288 206.209 151.278V153.528C206.197 153.758 206.218 153.988 206.274 154.212C206.371 154.537 206.57 154.827 206.847 155.046C207.123 155.265 207.464 155.403 207.826 155.442C208.053 155.442 208.332 155.442 208.592 155.442H220.592L240.91 155.478L254.611 155.526L258.338 155.556L254.611 155.586L240.91 155.634L220.592 155.67H208.547C208.28 155.67 208.034 155.67 207.741 155.67C207.459 155.639 207.185 155.557 206.936 155.43C206.688 155.303 206.469 155.131 206.293 154.925C206.117 154.719 205.987 154.483 205.91 154.23C205.84 153.98 205.814 153.72 205.832 153.462V151.236C205.832 150.246 205.832 149.244 205.832 148.236C205.815 147.964 205.856 147.692 205.953 147.434C206.05 147.177 206.201 146.94 206.397 146.736C206.598 146.531 206.844 146.367 207.118 146.255C207.392 146.144 207.689 146.087 207.988 146.088L253.189 146.136H259.208C259.52 146.124 259.832 146.149 260.137 146.208C260.434 146.283 260.709 146.418 260.942 146.604C261.162 146.78 261.339 146.996 261.463 147.239C261.587 147.482 261.655 147.746 261.663 148.014C261.663 148.506 261.663 148.986 261.663 149.442C261.663 150.348 261.663 151.176 261.663 151.926C261.663 152.676 261.663 153.33 261.63 153.918C261.558 154.416 261.276 154.867 260.845 155.172C260.582 155.354 260.274 155.472 259.949 155.514C259.835 155.558 259.714 155.584 259.591 155.592Z" fill="#263238"/>
<path d="M399.722 274.353C414.369 273.702 425.673 262.204 424.969 248.67C424.265 235.136 411.821 224.691 397.174 225.341C382.527 225.991 371.223 237.49 371.927 251.024C372.631 264.558 385.075 275.003 399.722 274.353Z" fill="#263238"/>
<path d="M371.908 249.432C371.908 249.432 371.908 249.474 371.908 249.498C371.849 255.979 374.568 262.218 379.471 266.853C384.374 271.488 391.062 274.142 398.076 274.236C405.089 274.329 411.858 271.855 416.903 267.352C421.949 262.85 424.861 256.686 425.005 250.206C425.005 250.206 425.005 250.164 425.005 250.14L371.908 249.432Z" fill="#263238"/>
<path d="M379.811 249.6C379.757 253.007 380.798 256.352 382.802 259.212C384.806 262.072 387.682 264.319 391.068 265.668C394.454 267.017 398.197 267.409 401.823 266.792C405.45 266.176 408.797 264.58 411.442 262.206C414.086 259.832 415.91 256.786 416.681 253.455C417.453 250.123 417.138 246.655 415.776 243.489C414.414 240.322 412.067 237.6 409.031 235.667C405.995 233.733 402.406 232.675 398.719 232.626C393.776 232.561 389.007 234.312 385.461 237.495C381.915 240.678 379.882 245.033 379.811 249.6Z" fill="#FAFAFA"/>
<path d="M398.719 232.626C393.776 232.561 389.007 234.312 385.461 237.495C381.915 240.678 379.882 245.033 379.811 249.6L417.089 250.098C417.16 245.531 415.265 241.124 411.82 237.847C408.375 234.571 403.663 232.693 398.719 232.626Z" fill="#E0E0E0"/>
<path d="M387.096 249.696C387.063 251.772 387.697 253.81 388.917 255.552C390.138 257.295 391.89 258.664 393.952 259.486C396.015 260.309 398.295 260.548 400.505 260.172C402.714 259.797 404.753 258.825 406.365 257.379C407.976 255.933 409.087 254.078 409.557 252.048C410.028 250.018 409.836 247.905 409.006 245.976C408.177 244.047 406.747 242.389 404.897 241.211C403.048 240.033 400.862 239.388 398.616 239.358C395.605 239.318 392.7 240.385 390.539 242.323C388.379 244.262 387.141 246.914 387.096 249.696Z" fill="#263238"/>
<path d="M385.85 213.876C385.85 213.876 413.031 206.28 424.271 233.568L367.389 249.852L385.85 213.876Z" fill="#EA1D2C"/>
<path d="M235.906 274.355C250.553 273.705 261.857 262.206 261.153 248.672C260.45 235.138 248.006 224.693 233.358 225.344C218.711 225.994 207.408 237.492 208.111 251.026C208.815 264.561 221.259 275.005 235.906 274.355Z" fill="#263238"/>
<path d="M208.086 249.432C208.086 249.432 208.086 249.474 208.086 249.498C208.027 255.979 210.745 262.218 215.648 266.853C220.551 271.488 227.24 274.142 234.253 274.236C241.267 274.329 248.035 271.855 253.081 267.352C258.126 262.85 261.039 256.686 261.182 250.206V250.128L208.086 249.432Z" fill="#263238"/>
<path d="M216.014 249.6C215.96 253.007 217.001 256.352 219.005 259.212C221.009 262.072 223.886 264.319 227.272 265.668C230.657 267.017 234.4 267.409 238.027 266.792C241.653 266.176 245 264.58 247.645 262.206C250.29 259.832 252.113 256.786 252.885 253.455C253.656 250.123 253.341 246.655 251.979 243.489C250.618 240.322 248.27 237.6 245.234 235.667C242.198 233.733 238.61 232.675 234.923 232.626C229.979 232.561 225.21 234.312 221.664 237.495C218.118 240.678 216.086 245.033 216.014 249.6Z" fill="#FAFAFA"/>
<path d="M234.897 232.626C229.958 232.567 225.195 234.321 221.655 237.504C218.115 240.686 216.086 245.037 216.014 249.6L253.293 250.098C253.328 247.835 252.88 245.587 251.974 243.483C251.068 241.379 249.723 239.461 248.014 237.839C246.306 236.216 244.268 234.92 242.017 234.026C239.766 233.132 237.347 232.656 234.897 232.626Z" fill="#E0E0E0"/>
<path d="M223.274 249.696C223.241 251.772 223.874 253.81 225.095 255.552C226.315 257.295 228.067 258.664 230.13 259.486C232.192 260.309 234.473 260.548 236.682 260.172C238.891 259.797 240.931 258.825 242.542 257.379C244.154 255.933 245.265 254.078 245.735 252.048C246.205 250.018 246.013 247.905 245.184 245.976C244.354 244.047 242.924 242.389 241.075 241.211C239.225 240.033 237.039 239.388 234.793 239.358C231.782 239.318 228.877 240.385 226.717 242.323C224.557 244.262 223.318 246.914 223.274 249.696Z" fill="#263238"/>
<path d="M272.396 240C272.247 240.072 258.423 238.026 258.423 238.026C257.675 238.928 256.724 239.668 255.635 240.194C254.545 240.721 253.345 241.021 252.117 241.074C246.143 241.338 240.306 241.584 235.235 241.794C232.969 241.888 230.835 242.807 229.302 244.351C227.768 245.895 226.959 247.938 227.053 250.032C227.144 252.02 228.041 253.903 229.565 255.308C231.089 256.713 233.129 257.537 235.28 257.616L264.715 258.69C269.552 258.864 275.981 256.152 279 252.654L272.396 240Z" fill="#455A64"/>
<path d="M200.157 229.128C200.157 229.128 198.897 205.218 223.215 200.238V197.172H308.396V204.528C308.396 204.528 295.896 218.442 299.954 229.992C304.013 241.542 305.312 242.724 305.312 242.724H353.791C357.617 237.756 359.749 231.846 359.915 225.75C360.174 215.61 355.616 198.276 352.207 187.194C349.129 177.084 347.181 168.66 347.181 168.66L361.726 164.178C361.726 164.178 388.642 196.728 389.739 198.528C390.836 200.328 394.577 204.624 393.7 213.972C392.823 223.32 368.609 252.156 362.259 255.408C355.908 258.66 350.168 258.864 344.447 259.674C339.486 260.382 302.786 259.914 293.182 259.776C289.845 259.757 286.573 258.918 283.701 257.346C280.831 255.738 278.676 253.074 276.292 248.706L271.208 239.562L200.157 229.128Z" fill="#EA1D2C"/>
<path d="M206.676 227.484L195.949 243.012C195.631 243.443 195.473 243.957 195.499 244.478C195.525 244.999 195.734 245.498 196.094 245.899C196.455 246.3 196.946 246.582 197.495 246.702C198.045 246.822 198.621 246.774 199.138 246.564C200.473 246.013 201.692 245.249 202.741 244.308C207.644 239.994 216.378 228.63 216.378 228.63L206.676 227.484Z" fill="#455A64"/>
<path d="M283.617 230.28C283.617 230.28 283.617 230.202 283.682 230.052L283.896 229.398C284.154 228.559 284.343 227.702 284.461 226.836C284.821 223.631 284.247 220.396 282.799 217.464C281.825 215.441 280.488 213.585 278.844 211.974C276.957 210.134 274.765 208.583 272.351 207.378C269.676 206.043 266.813 205.058 263.845 204.45C260.644 203.812 257.378 203.5 254.104 203.52C250.845 203.542 247.591 203.765 244.364 204.186C241.221 204.576 238.209 205.056 235.364 205.656C230.315 206.647 225.448 208.31 220.917 210.594C217.873 212.155 215.093 214.117 212.663 216.42C211.806 217.236 211.189 217.914 210.78 218.376L210.319 218.91C210.27 218.974 210.213 219.032 210.15 219.084C210.867 218.105 211.675 217.185 212.566 216.336C214.975 213.99 217.75 211.989 220.8 210.402C225.339 208.077 230.225 206.383 235.299 205.374C238.144 204.774 241.144 204.276 244.319 203.88C247.572 203.455 250.852 203.23 254.137 203.208C257.428 203.188 260.712 203.504 263.929 204.15C266.927 204.779 269.816 205.789 272.513 207.15C274.961 208.372 277.182 209.948 279.091 211.818C280.747 213.457 282.088 215.344 283.059 217.398C284.501 220.369 285.044 223.645 284.63 226.878C284.494 227.748 284.276 228.605 283.981 229.44C283.877 229.716 283.799 229.926 283.734 230.088C283.701 230.155 283.662 230.219 283.617 230.28Z" fill="#263238"/>
<path d="M278.714 224.928C278.676 224.928 278.851 224.55 279.033 223.866C279.276 222.882 279.309 221.863 279.13 220.866C278.877 219.401 278.341 217.991 277.546 216.702C277.096 215.931 276.57 215.2 275.974 214.518C275.351 213.777 274.643 213.099 273.864 212.496C272.345 211.34 270.635 210.417 268.799 209.76C267.297 209.216 265.739 208.814 264.15 208.56C263.075 208.393 261.991 208.278 260.903 208.218C260.503 208.213 260.104 208.185 259.708 208.134C259.812 208.12 259.917 208.12 260.02 208.134C260.221 208.134 260.52 208.134 260.91 208.134C261.997 208.149 263.081 208.231 264.156 208.38C265.771 208.594 267.357 208.971 268.883 209.502C270.766 210.157 272.521 211.092 274.078 212.268C274.873 212.887 275.596 213.581 276.234 214.338C276.831 215.039 277.359 215.788 277.812 216.576C278.616 217.897 279.14 219.347 279.357 220.848C279.519 221.862 279.45 222.896 279.156 223.884C279.079 224.151 278.975 224.41 278.844 224.658C278.815 224.753 278.771 224.844 278.714 224.928Z" fill="#F5F5F5"/>
<g opacity="0.4">
<path d="M262.033 203.964C266.618 204.738 270.982 206.372 274.857 208.764C278.754 211.155 281.754 214.6 283.448 218.628C285.149 222.672 284.896 228.03 283.104 231.378L289.123 231.84C291.149 225.594 288.948 217.932 284.078 213.042C281.291 210.191 277.891 207.908 274.095 206.341C270.299 204.774 266.191 203.956 262.033 203.94" fill="black"/>
</g>
<path d="M260.111 155.124H207.456C204.379 155.124 201.884 157.429 201.884 160.272V192.042C201.884 194.885 204.379 197.19 207.456 197.19H260.111C263.188 197.19 265.682 194.885 265.682 192.042V160.272C265.682 157.429 263.188 155.124 260.111 155.124Z" fill="#455A64"/>
<path d="M265.682 164.508C265.682 164.598 251.338 164.664 233.65 164.664C215.962 164.664 201.612 164.598 201.612 164.508C201.612 164.418 215.949 164.352 233.65 164.352C251.351 164.352 265.682 164.424 265.682 164.508Z" fill="#263238"/>
<path d="M308.357 199.974C308.357 200.058 289.208 200.13 265.598 200.13C241.988 200.13 222.839 200.058 222.839 199.974C222.839 199.89 241.981 199.818 265.598 199.818C289.214 199.818 308.357 199.89 308.357 199.974Z" fill="#263238"/>
<path d="M308.396 197.19C309.264 196.174 309.8 194.95 309.941 193.662C310.071 191.688 309.097 189.216 306.792 189.216H277.377C275.088 189.216 272.893 190.056 271.275 191.552C269.656 193.047 268.747 195.075 268.747 197.19H308.396Z" fill="#455A64"/>
<path d="M347.181 168.66L342.064 158.802C341.381 157.449 341.269 155.909 341.749 154.483C342.23 153.057 343.268 151.848 344.662 151.092L359.96 142.662C360.758 142.219 361.672 141.984 362.603 141.984H365.908L367.207 161.91L362.116 163.728L365.363 168.576L347.181 168.66Z" fill="#EA1D2C"/>
<path d="M365.954 142.728C365.954 142.728 371.187 143.838 371.843 151.29C372.499 158.742 367.226 161.07 367.226 161.07L365.954 142.728Z" fill="#EBEBEB"/>
<path d="M348.967 154.938C348.967 154.938 338.389 159.57 337.097 160.338C336.201 160.866 335.435 161.79 336.136 163.416C337.331 166.182 342.279 163.578 342.279 163.578L352.129 159.03C352.129 159.03 355.915 157.38 354.512 155.31C352.947 152.994 348.967 154.938 348.967 154.938Z" fill="#263238"/>
<path d="M333.993 153.252C333.993 153.252 343.934 154.824 344.779 155.052C345.623 155.28 348.934 156.714 349.103 157.65C349.191 158.879 349.191 160.112 349.103 161.34C349.103 161.34 348.506 161.79 348.129 160.89C347.884 160.013 347.777 159.108 347.811 158.202L345.954 157.542L346.967 159.204L347.136 163.104C347.136 163.104 345.837 162.996 345.59 162.06C345.431 161.414 345.348 160.755 345.344 160.092L343.986 159.03L344.999 160.296L345.344 163.104C345.344 163.104 344.357 163.398 344.045 162.774C343.816 161.965 343.703 161.132 343.707 160.296L339.889 159.066L337.363 160.368L333.389 158.328L333.993 153.252Z" fill="#FFBE9D"/>
<path d="M349.473 140.46C349.473 144.18 347.623 147.192 345.343 147.192C343.064 147.192 341.214 144.192 341.214 140.46C341.214 136.728 343.058 133.728 345.343 133.728C347.629 133.728 349.473 136.728 349.473 140.46Z" fill="#263238"/>
<path d="M346.019 145.086L348.292 152.358C348.706 152.165 349.037 151.847 349.23 151.456C349.422 151.066 349.465 150.626 349.35 150.21C348.779 147.72 348.454 145.95 347.831 143.766C347.753 143.55 346.019 145.086 346.019 145.086Z" fill="#263238"/>
<g opacity="0.4">
<path d="M301.078 233.07C300.857 232.47 300.623 231.87 300.429 231.228C300.234 230.586 299.987 230.028 299.818 229.428C299.556 228.528 299.365 227.612 299.247 226.686C295.416 241.086 301.266 251.244 311.305 251.958C325.98 253.002 343.869 253.758 351.103 252.006C364.291 248.808 369.129 238.644 370.285 236.97C371.441 235.296 381.927 217.578 375.48 200.52C369.032 183.462 357.85 165.348 357.85 165.348L347.181 168.66C347.181 168.66 349.129 177.06 352.227 187.164C355.636 198.246 360.194 215.58 359.934 225.72C359.769 231.816 357.637 237.726 353.811 242.694H305.338C305.338 242.694 304.299 241.734 301.097 233.094" fill="black"/>
</g>
<path d="M198.222 225.396L198.566 221.976L287.059 231.396C288.241 231.525 289.383 231.875 290.414 232.426C291.445 232.977 292.343 233.717 293.053 234.6C293.763 235.484 294.27 236.492 294.544 237.563C294.817 238.634 294.851 239.745 294.643 240.828L294.247 242.898L202.69 230.604C201.362 230.436 200.155 229.801 199.323 228.83C198.49 227.86 198.096 226.629 198.222 225.396Z" fill="#EA1D2C"/>
<g opacity="0.6">
<path d="M198.222 225.396L198.566 221.976L287.059 231.396C288.241 231.525 289.383 231.875 290.414 232.426C291.445 232.977 292.343 233.717 293.053 234.6C293.763 235.484 294.27 236.492 294.544 237.563C294.817 238.634 294.851 239.745 294.643 240.828L294.247 242.898L202.69 230.604C201.362 230.436 200.155 229.801 199.323 228.83C198.49 227.86 198.096 226.629 198.222 225.396Z" fill="black"/>
</g>
<g opacity="0.3">
<path d="M370.285 248.268C370.285 248.268 389.765 228.468 393.784 212.904C395.804 212.893 397.821 213.032 399.817 213.318C399.817 213.318 388.298 242.256 370.285 248.268Z" fill="black"/>
</g>
<path d="M393.499 205.932C393.549 206.095 393.584 206.262 393.603 206.43C393.655 206.76 393.758 207.246 393.823 207.876C394.013 209.675 393.963 211.489 393.674 213.276C393.216 215.916 392.341 218.48 391.077 220.884C389.534 223.812 387.812 226.656 385.921 229.404C382.527 234.419 378.714 239.181 374.518 243.648C372.934 245.382 371.622 246.762 370.713 247.71L369.661 248.796C369.542 248.925 369.414 249.048 369.278 249.162C369.375 249.019 369.486 248.884 369.609 248.76L370.616 247.632L374.337 243.51C378.466 239.009 382.242 234.241 385.635 229.242C387.529 226.504 389.263 223.674 390.83 220.764C392.078 218.383 392.953 215.85 393.427 213.24C393.726 211.478 393.811 209.691 393.681 207.912C393.635 207.282 393.551 206.796 393.525 206.46C393.497 206.285 393.488 206.109 393.499 205.932Z" fill="#263238"/>
<path d="M359.824 248.124C358.708 247.336 357.664 246.465 356.7 245.52C355.661 244.65 354.697 243.705 353.817 242.694C355.975 244.352 357.983 246.168 359.824 248.124Z" fill="#263238"/>
<path d="M302.006 247.518C302.32 246.594 302.806 245.727 303.441 244.956C303.983 244.127 304.675 243.39 305.487 242.778C305.558 242.844 304.669 243.828 303.721 245.13C302.773 246.432 302.097 247.554 302.006 247.518Z" fill="#263238"/>
<path d="M264.578 258.948C265.644 258.051 266.541 256.996 267.234 255.828C267.961 254.553 268.403 253.155 268.533 251.718C268.73 249.967 268.398 248.199 267.576 246.611C266.753 245.022 265.47 243.675 263.871 242.718C262.581 241.909 261.128 241.347 259.598 241.068C258.18 240.832 256.73 240.813 255.306 241.014C255.397 240.978 255.493 240.952 255.591 240.936C255.873 240.868 256.16 240.816 256.449 240.78C257.511 240.649 258.589 240.673 259.643 240.852C261.216 241.109 262.715 241.662 264.046 242.478C265.71 243.455 267.042 244.844 267.891 246.488C268.739 248.132 269.07 249.963 268.844 251.772C268.696 253.247 268.218 254.677 267.442 255.972C266.932 256.843 266.274 257.633 265.494 258.312C265.29 258.499 265.073 258.673 264.845 258.834C264.761 258.882 264.672 258.92 264.578 258.948Z" fill="#263238"/>
<path d="M232.247 252.678C232.024 251.732 231.918 250.766 231.929 249.798C231.817 248.833 231.817 247.86 231.929 246.894C232.253 248.807 232.353 250.746 232.227 252.678H232.247Z" fill="#263238"/>
<path d="M234.611 252.684C234.125 250.783 233.857 248.841 233.812 246.888C234.108 247.827 234.298 248.793 234.377 249.768C234.566 250.73 234.644 251.707 234.611 252.684Z" fill="#263238"/>
<path d="M271.111 197.19C271.111 197.274 260.351 197.346 247.085 197.346C233.819 197.346 223.059 197.274 223.059 197.19C223.059 197.106 233.819 197.034 247.085 197.034C260.351 197.034 271.111 197.1 271.111 197.19Z" fill="#263238"/>
<path d="M236.267 197.16C236.169 197.16 236.098 185.76 236.098 171.732C236.098 157.704 236.144 146.328 236.267 146.328C236.39 146.328 236.435 157.728 236.435 171.762C236.435 185.796 236.357 197.16 236.267 197.16Z" fill="#263238"/>
<path d="M229.65 197.118C229.559 197.118 230.02 185.718 230.683 171.702C231.345 157.686 231.981 146.292 232.046 146.298C232.111 146.304 231.683 157.698 231.02 171.714C230.358 185.73 229.774 197.124 229.65 197.118Z" fill="#263238"/>
<path d="M214.774 266.508C214.669 266.427 214.574 266.337 214.488 266.238C214.319 266.058 214.04 265.8 213.735 265.434C212.837 264.415 212.036 263.327 211.339 262.182C208.988 258.391 207.761 254.094 207.78 249.725C207.8 245.355 209.065 241.068 211.449 237.294C212.153 236.153 212.964 235.071 213.871 234.06C214.183 233.694 214.462 233.46 214.637 233.256C214.813 233.052 214.917 232.986 214.923 232.998C214.859 233.107 214.78 233.208 214.689 233.298C214.534 233.496 214.267 233.76 213.975 234.138C210.644 238.059 208.637 242.8 208.205 247.768C207.774 252.737 208.936 257.713 211.547 262.074C212.219 263.221 212.985 264.318 213.839 265.356C214.124 265.734 214.384 266.004 214.54 266.202C214.696 266.4 214.787 266.496 214.774 266.508Z" fill="#455A64"/>
<path d="M307.799 220.794L307.597 221.142L303.675 227.928L298.195 232.8L309.149 246.276L318.272 244.878C318.272 244.878 317.253 242.952 312.669 242.58L310.935 234.528L317.37 225.312" fill="#455A64"/>
<path d="M298.208 232.818L309.162 246.294L318.285 244.896L317.032 243.786L309.545 244.542L299.377 231.78L298.208 232.818Z" fill="#E0E0E0"/>
<path d="M311.954 238.896C311.902 238.992 311.305 238.794 310.656 238.926C310.006 239.058 309.48 239.4 309.396 239.328C309.311 239.256 309.721 238.692 310.578 238.554C311.435 238.416 312.026 238.818 311.954 238.896Z" fill="#263238"/>
<path d="M311.467 236.928C311.389 237 310.889 236.568 310.169 236.544C309.448 236.52 308.87 236.922 308.812 236.844C308.753 236.766 308.857 236.658 309.091 236.484C309.407 236.271 309.791 236.161 310.182 236.172C310.573 236.182 310.949 236.315 311.247 236.55C311.422 236.718 311.467 236.88 311.467 236.928Z" fill="#263238"/>
<path d="M311.045 234.318C310.954 234.384 310.552 233.946 309.883 233.838C309.214 233.73 308.675 234.012 308.584 233.922C308.493 233.832 308.643 233.748 308.883 233.622C309.2 233.467 309.564 233.415 309.917 233.473C310.271 233.532 310.592 233.699 310.831 233.946C311.052 234.138 311.091 234.294 311.045 234.318Z" fill="#263238"/>
<path d="M313.123 231.948C313.026 231.996 312.682 231.558 312.052 231.306C311.422 231.054 310.85 231.09 310.824 230.988C310.798 230.886 311.474 230.64 312.221 230.988C312.967 231.336 313.234 231.918 313.123 231.948Z" fill="#263238"/>
<path d="M314.006 230.034C313.961 230.064 313.604 229.776 313.052 229.272L312.117 228.378C311.905 228.203 311.721 228.001 311.571 227.778C311.528 227.698 311.502 227.61 311.495 227.521C311.488 227.431 311.501 227.341 311.532 227.256C311.569 227.159 311.636 227.074 311.725 227.012C311.814 226.95 311.921 226.914 312.032 226.908C312.365 226.912 312.688 227.008 312.961 227.184C313.199 227.325 313.417 227.492 313.61 227.682C313.933 228.011 314.17 228.402 314.305 228.828C314.476 229.213 314.476 229.644 314.305 230.028C314.239 229.657 314.148 229.291 314.032 228.93C313.874 228.561 313.638 228.224 313.337 227.94C313.16 227.778 312.962 227.637 312.747 227.52C312.54 227.395 312.304 227.319 312.058 227.298C312.024 227.299 311.991 227.309 311.963 227.327C311.935 227.345 311.914 227.371 311.902 227.4C311.867 227.479 311.867 227.567 311.902 227.646C312.029 227.839 312.182 228.017 312.357 228.174L313.247 229.128C313.551 229.391 313.807 229.697 314.006 230.034Z" fill="#263238"/>
<path d="M314.376 230.232C314.331 230.232 314.285 229.788 314.688 229.206C314.962 228.822 315.363 228.53 315.831 228.373C316.299 228.216 316.809 228.203 317.285 228.336C317.338 228.368 317.382 228.409 317.416 228.458C317.449 228.507 317.471 228.561 317.48 228.618C317.489 228.716 317.466 228.814 317.415 228.9C317.343 229.02 317.248 229.128 317.136 229.218C316.955 229.38 316.76 229.526 316.552 229.656C316.201 229.874 315.815 230.04 315.409 230.148C315.046 230.284 314.646 230.311 314.266 230.226C314.266 230.166 314.688 230.13 315.318 229.896C315.681 229.763 316.023 229.588 316.337 229.374C316.523 229.248 316.697 229.107 316.857 228.954C316.936 228.89 317.004 228.815 317.058 228.732C317.091 228.648 317.058 228.672 317.058 228.654C316.97 228.619 316.875 228.601 316.779 228.6C316.664 228.591 316.549 228.591 316.435 228.6C316.212 228.618 315.993 228.667 315.785 228.744C315.435 228.87 315.124 229.077 314.883 229.344C314.693 229.629 314.523 229.926 314.376 230.232Z" fill="#263238"/>
<path d="M305.441 231.444C305.477 231.642 305.448 231.845 305.359 232.028C305.27 232.211 305.124 232.365 304.939 232.472C304.755 232.578 304.541 232.631 304.324 232.624C304.106 232.618 303.896 232.552 303.72 232.435C303.543 232.318 303.408 232.156 303.332 231.968C303.255 231.78 303.241 231.575 303.29 231.38C303.34 231.185 303.451 231.007 303.61 230.87C303.768 230.733 303.967 230.643 304.182 230.61C304.468 230.568 304.761 230.633 304.997 230.789C305.232 230.945 305.392 231.18 305.441 231.444Z" fill="#E0E0E0"/>
<path d="M341.045 227.274L343.973 244.842L367.655 241.59C367.174 239.52 354.253 237.006 354.253 237.006L352.876 225.678L341.045 227.274Z" fill="#455A64"/>
<path d="M346.779 237.066C346.561 237.161 346.388 237.326 346.295 237.531C346.201 237.736 346.193 237.966 346.272 238.176C346.368 238.38 346.544 238.542 346.765 238.63C346.986 238.718 347.234 238.725 347.46 238.65C347.695 238.548 347.88 238.368 347.977 238.145C348.075 237.923 348.078 237.675 347.986 237.45C347.864 237.245 347.66 237.092 347.417 237.024C347.175 236.955 346.913 236.977 346.688 237.084" fill="#E0E0E0"/>
<path d="M343.973 244.842L343.753 243.042L366.538 240.588C366.538 240.588 367.661 240.87 367.655 241.572L343.973 244.842Z" fill="#E0E0E0"/>
<path d="M354.616 236.844C354.616 236.952 354.064 237.078 353.545 237.498C353.025 237.918 352.804 238.41 352.688 238.386C352.571 238.362 352.649 237.714 353.279 237.216C353.908 236.718 354.629 236.742 354.616 236.844Z" fill="#263238"/>
<path d="M357.252 237.45C357.298 237.552 356.824 237.798 356.506 238.308C356.188 238.818 356.149 239.304 356.032 239.316C355.915 239.328 355.746 238.716 356.155 238.116C356.564 237.516 357.233 237.348 357.252 237.45Z" fill="#263238"/>
<path d="M359.11 240C359.006 240.042 358.759 239.526 358.96 238.902C359.162 238.278 359.668 237.966 359.733 238.05C359.798 238.134 359.512 238.494 359.35 239.01C359.187 239.526 359.22 239.976 359.11 240Z" fill="#263238"/>
<path d="M353.993 234.294C353.993 234.396 353.408 234.324 352.759 234.45C352.11 234.576 351.636 234.846 351.558 234.762C351.48 234.678 351.915 234.228 352.675 234.084C353.434 233.94 354.038 234.198 353.993 234.294Z" fill="#263238"/>
<path d="M353.025 231.774C352.652 231.925 352.241 231.978 351.837 231.93C351.398 231.919 350.962 231.858 350.538 231.75C350.28 231.693 350.026 231.619 349.778 231.528C349.634 231.48 349.5 231.409 349.382 231.318C349.293 231.254 349.23 231.164 349.204 231.063C349.178 230.961 349.191 230.854 349.24 230.76C349.285 230.677 349.352 230.605 349.433 230.55C349.514 230.495 349.608 230.458 349.707 230.442C349.856 230.421 350.007 230.421 350.155 230.442C350.419 230.46 350.68 230.504 350.934 230.574C351.361 230.686 351.766 230.858 352.136 231.084C352.785 231.48 353.012 231.852 352.973 231.882C352.934 231.912 352.603 231.624 351.986 231.312C351.624 231.132 351.238 230.996 350.837 230.91C350.603 230.854 350.364 230.819 350.123 230.808C349.863 230.808 349.649 230.808 349.603 230.922C349.558 231.036 349.603 230.976 349.649 231.042C349.738 231.105 349.836 231.155 349.941 231.192C350.163 231.285 350.391 231.367 350.623 231.438C351.018 231.555 351.425 231.637 351.837 231.684C352.235 231.688 352.632 231.718 353.025 231.774Z" fill="#263238"/>
<path d="M352.889 231.948C352.85 231.948 352.558 231.618 352.402 230.934C352.331 230.537 352.331 230.132 352.402 229.734C352.444 229.493 352.509 229.256 352.597 229.026C352.636 228.875 352.716 228.736 352.829 228.621C352.943 228.507 353.087 228.421 353.246 228.372C353.352 228.36 353.459 228.375 353.555 228.417C353.652 228.458 353.734 228.524 353.791 228.606C353.873 228.728 353.937 228.859 353.98 228.996C354.059 229.235 354.099 229.484 354.097 229.734C354.097 230.153 353.985 230.565 353.772 230.934C353.402 231.534 352.941 231.756 352.928 231.72C352.915 231.684 353.246 231.414 353.512 230.82C353.667 230.479 353.738 230.11 353.72 229.74C353.714 229.526 353.672 229.313 353.597 229.11C353.525 228.882 353.402 228.708 353.311 228.744C353.22 228.78 353.019 228.96 352.954 229.158C352.866 229.364 352.799 229.577 352.753 229.794C352.679 230.164 352.661 230.542 352.701 230.916C352.759 231.528 352.947 231.924 352.889 231.948Z" fill="#263238"/>
<path d="M322.415 186.006L302.11 226.89L315.519 234.33L343.597 185.136" fill="#263238"/>
<path d="M355.902 235.26L341.337 237.42L332.616 189.336L289.533 192.222C288.393 192.295 287.248 192.196 286.143 191.928C274.046 188.862 275.682 174.606 276.851 172.32L336.467 170.742C339.59 170.658 342.637 171.642 345.024 173.506C347.411 175.369 348.97 177.981 349.402 180.84L355.902 235.26Z" fill="#263238"/>
<path d="M276.247 174.576L276.461 154.248C276.461 154.248 273.624 141.048 272.78 135.834C271.481 127.77 269.689 123.936 283.987 118.206L287.117 117.09L291.955 117.15C297.721 117.552 303.799 122.37 303.941 125.55L309.519 171.372L276.247 174.576Z" fill="#EA1D2C"/>
<path d="M277.143 122.928C277.143 122.928 273.104 130.956 273.896 138.27L288.942 151.614C292.312 155.082 296.532 156.558 301.928 156.858L333.058 160.002L333.922 152.478L304.325 144.726C303.143 144.522 302.552 143.388 301.649 142.656L277.143 122.928Z" fill="#EA1D2C"/>
<path d="M274.708 125.244C274.883 125.09 275.085 124.964 275.305 124.872C275.946 124.611 276.624 124.436 277.318 124.35C278.432 124.181 279.568 124.181 280.682 124.35C281.026 124.408 281.359 124.513 281.669 124.662C281.986 124.846 282.292 125.046 282.585 125.262C283.182 125.694 283.786 126.192 284.403 126.732C285.649 127.806 286.831 129.168 288.214 130.548C289.597 131.928 291.11 133.41 292.76 134.964C294.409 136.518 296.182 138.144 298.078 139.824C299.032 140.664 300.026 141.516 301.058 142.35C301.584 142.746 302.104 143.214 302.604 143.652C303.075 144.103 303.67 144.426 304.325 144.588L333.98 152.328L334.116 152.364V152.496C334.058 153.03 333.987 153.6 333.922 154.182C333.694 156.18 333.467 158.16 333.272 160.02V160.176H333.103L319.909 158.82L313.675 158.19L307.708 157.632C305.76 157.434 303.883 157.23 302.058 156.984C300.276 156.782 298.521 156.406 296.825 155.862C295.26 155.312 293.78 154.576 292.422 153.672C291.123 152.826 289.903 151.944 288.779 151.074C284.331 147.57 281.065 144.432 278.799 142.296C277.676 141.222 276.812 140.376 276.234 139.8L275.585 139.14L275.37 138.906C275.37 138.906 275.455 138.972 275.611 139.116C275.766 139.26 275.994 139.482 276.26 139.758L278.857 142.218C281.15 144.324 284.442 147.438 288.896 150.912C290.02 151.77 291.221 152.646 292.526 153.48C293.876 154.365 295.342 155.087 296.89 155.628C298.575 156.159 300.316 156.525 302.084 156.72C303.909 156.96 305.792 157.164 307.727 157.356L313.695 157.896L319.928 158.526L333.11 159.852L332.922 159.99C333.136 158.13 333.363 156.15 333.571 154.146C333.642 153.546 333.707 152.994 333.766 152.46L333.889 152.628L304.279 144.858C303.556 144.692 302.899 144.341 302.383 143.844C301.857 143.382 301.383 142.95 300.844 142.536C299.799 141.696 298.818 140.838 297.864 139.998C295.968 138.312 294.201 136.674 292.558 135.114C290.916 133.554 289.409 132.066 288.013 130.668C286.617 129.27 285.474 127.914 284.24 126.84C283.673 126.32 283.075 125.829 282.448 125.37C282.165 125.151 281.866 124.95 281.552 124.77C281.258 124.622 280.94 124.519 280.611 124.464C279.515 124.279 278.394 124.263 277.292 124.416C276.603 124.488 275.928 124.647 275.286 124.89C275.084 124.994 274.891 125.113 274.708 125.244Z" fill="#263238"/>
<path d="M282.481 99.4563L283.987 119.256C284.107 120.813 284.861 122.27 286.098 123.333C287.334 124.396 288.96 124.987 290.649 124.986C291.563 124.986 292.466 124.813 293.305 124.478C294.143 124.142 294.897 123.651 295.522 123.036C296.146 122.42 296.627 121.692 296.935 120.897C297.243 120.103 297.371 119.258 297.312 118.416C297.175 116.532 297.058 114.99 297.058 114.99C297.058 114.99 302.253 114.246 302.305 109.452C302.344 106.686 301.825 100.41 301.383 95.5983C301.238 94.0264 300.458 92.5625 299.198 91.4976C297.939 90.4326 296.292 89.8446 294.584 89.8503H291.448C290.171 89.9219 288.922 90.2292 287.775 90.7539C286.629 91.2787 285.607 92.0103 284.772 92.9056C283.936 93.8009 283.303 94.8417 282.909 95.9668C282.516 97.0919 282.37 98.2783 282.481 99.4563Z" fill="#FFBE9D"/>
<path d="M297.065 114.912C294.672 114.954 292.319 114.338 290.305 113.142C290.305 113.142 291.903 116.586 297.078 116.142L297.065 114.912Z" fill="#EB996E"/>
<path d="M300.221 101.748C300.223 101.927 300.149 102.099 300.015 102.227C299.882 102.356 299.699 102.432 299.506 102.438C299.413 102.447 299.319 102.437 299.23 102.412C299.141 102.386 299.058 102.343 298.986 102.288C298.915 102.232 298.856 102.163 298.814 102.086C298.772 102.009 298.747 101.925 298.74 101.838C298.738 101.659 298.812 101.487 298.945 101.357C299.078 101.227 299.261 101.15 299.454 101.142C299.643 101.129 299.829 101.185 299.973 101.299C300.117 101.413 300.206 101.574 300.221 101.748Z" fill="#263238"/>
<path d="M300.493 100.398C300.396 100.488 299.844 100.104 299.039 100.104C298.234 100.104 297.662 100.476 297.571 100.386C297.48 100.296 297.623 100.182 297.883 100.014C298.225 99.7921 298.634 99.6746 299.052 99.6782C299.467 99.6773 299.872 99.7992 300.208 100.026C300.428 100.194 300.532 100.356 300.493 100.398Z" fill="#263238"/>
<path d="M292.74 101.748C292.744 101.927 292.671 102.1 292.537 102.229C292.403 102.358 292.219 102.434 292.026 102.438C291.933 102.447 291.839 102.437 291.75 102.412C291.66 102.386 291.577 102.343 291.506 102.288C291.435 102.232 291.376 102.163 291.334 102.086C291.291 102.009 291.266 101.925 291.26 101.838C291.258 101.659 291.331 101.487 291.465 101.357C291.598 101.227 291.781 101.15 291.974 101.142C292.163 101.129 292.349 101.185 292.493 101.299C292.636 101.413 292.725 101.574 292.74 101.748Z" fill="#263238"/>
<path d="M292.636 100.536C292.545 100.626 291.987 100.242 291.182 100.242C290.377 100.242 289.805 100.614 289.721 100.524C289.636 100.434 289.766 100.32 290.026 100.152C290.368 99.9301 290.777 99.8126 291.195 99.8162C291.61 99.8136 292.015 99.9334 292.351 100.158C292.636 100.332 292.708 100.494 292.636 100.536Z" fill="#263238"/>
<path d="M295.552 105.996C295.973 105.875 296.41 105.802 296.851 105.78C297.052 105.78 297.247 105.72 297.279 105.594C297.301 105.4 297.253 105.204 297.143 105.036L296.532 103.608C295.973 102.396 295.521 101.144 295.182 99.8643C295.841 101.032 296.401 102.246 296.857 103.494L297.429 104.934C297.558 105.161 297.597 105.422 297.539 105.672C297.509 105.739 297.463 105.799 297.405 105.846C297.346 105.894 297.277 105.929 297.201 105.948C297.089 105.975 296.973 105.989 296.857 105.99C296.424 106.043 295.986 106.045 295.552 105.996Z" fill="#263238"/>
<path d="M293.208 106.506C293.338 106.506 293.338 107.298 294.078 107.862C294.818 108.426 295.74 108.342 295.747 108.462C295.753 108.582 295.539 108.612 295.149 108.624C294.643 108.63 294.151 108.47 293.76 108.174C293.392 107.886 293.16 107.477 293.11 107.034C293.052 106.728 293.149 106.5 293.208 106.506Z" fill="#263238"/>
<path d="M292.864 97.6502C292.786 97.8482 291.994 97.7582 291.059 97.8602C290.123 97.9622 289.364 98.2022 289.24 98.0222C289.117 97.8422 289.318 97.7462 289.623 97.5542C290.029 97.3151 290.489 97.1652 290.968 97.1164C291.446 97.0675 291.931 97.1208 292.383 97.2722C292.727 97.3982 292.903 97.5542 292.864 97.6502Z" fill="#263238"/>
<path d="M300.195 98.2683C300.058 98.4363 299.506 98.2683 298.851 98.2683C298.195 98.2683 297.63 98.3763 297.5 98.2023C297.37 98.0283 297.532 97.9503 297.779 97.7943C298.104 97.5974 298.488 97.5007 298.877 97.5183C299.263 97.5257 299.637 97.6431 299.948 97.8543C300.182 98.0163 300.26 98.1843 300.195 98.2683Z" fill="#263238"/>
<path d="M284.227 103.056C284.136 103.02 280.662 102.078 280.779 105.354C280.896 108.63 284.422 107.85 284.429 107.754C284.435 107.658 284.227 103.056 284.227 103.056Z" fill="#FFBE9D"/>
<path d="M283.299 106.548C283.299 106.548 283.24 106.59 283.137 106.638C282.988 106.69 282.824 106.69 282.675 106.638C282.443 106.511 282.252 106.329 282.12 106.11C281.989 105.892 281.923 105.646 281.929 105.396C281.91 105.116 281.959 104.835 282.072 104.574C282.101 104.47 282.157 104.375 282.235 104.295C282.313 104.216 282.411 104.155 282.52 104.118C282.591 104.1 282.666 104.105 282.734 104.132C282.801 104.159 282.856 104.207 282.89 104.268C282.942 104.358 282.922 104.424 282.942 104.43C282.961 104.436 283.013 104.37 282.981 104.238C282.959 104.156 282.906 104.083 282.831 104.034C282.782 104.002 282.726 103.979 282.667 103.967C282.608 103.954 282.547 103.953 282.487 103.962C282.338 103.989 282.199 104.052 282.085 104.145C281.971 104.238 281.886 104.357 281.838 104.49C281.696 104.777 281.633 105.093 281.656 105.408C281.647 105.7 281.733 105.988 281.901 106.235C282.07 106.482 282.315 106.676 282.604 106.794C282.699 106.818 282.799 106.82 282.896 106.803C282.993 106.785 283.084 106.747 283.163 106.692C283.299 106.626 283.312 106.554 283.299 106.548Z" fill="#EB996E"/>
<path d="M282.247 102.942C282.584 102.922 282.921 102.987 283.222 103.129C283.523 103.272 283.776 103.487 283.955 103.752C284.182 104.22 284.234 104.748 284.461 105.216C284.559 105.457 284.739 105.662 284.972 105.801C285.206 105.94 285.482 106.007 285.76 105.99C285.944 105.937 286.11 105.839 286.24 105.708C286.37 105.576 286.46 105.415 286.5 105.24C286.575 104.892 286.575 104.533 286.5 104.184C286.292 102.654 285.948 101.142 285.883 99.6002C285.744 98.0531 286.108 96.503 286.929 95.1482C287.344 94.4771 287.949 93.9225 288.679 93.5432C289.408 93.164 290.235 92.9743 291.071 92.9942C292.175 93.0782 293.182 93.5942 294.279 93.7502C294.931 93.829 295.593 93.77 296.216 93.5777C296.839 93.3854 297.407 93.0649 297.877 92.6402C298.084 92.479 298.3 92.3288 298.526 92.1902C298.512 91.828 298.383 91.4775 298.156 91.1822C295.98 89.3222 292.071 88.7822 289.201 89.4722C287.744 89.8041 286.382 90.4253 285.21 91.2925C284.038 92.1597 283.085 93.2522 282.416 94.4942C281.182 96.9782 281.546 100.428 282.227 102.942" fill="#263238"/>
<path d="M301.441 94.8542C301.441 94.8542 287.844 90.8102 281.961 101.682C281.507 100.315 281.211 98.9071 281.078 97.4822C281.078 96.5102 281.727 90.7082 288.169 88.8842C288.169 88.9082 297.903 85.4762 301.441 94.8542Z" fill="#EA1D2C"/>
<path d="M289.753 95.1242C289.995 95.485 290.324 95.789 290.714 96.0121C291.105 96.2352 291.546 96.3713 292.003 96.4097C292.461 96.4481 292.921 96.3878 293.349 96.2334C293.777 96.079 294.16 95.8349 294.468 95.5202C294.602 95.8327 294.839 96.0984 295.145 96.2801C295.451 96.4617 295.811 96.5501 296.174 96.5329C296.537 96.5157 296.886 96.3937 297.17 96.1841C297.455 95.9744 297.661 95.6877 297.76 95.3642C298.123 95.7403 298.565 96.0445 299.058 96.2582C299.313 96.3582 299.594 96.3836 299.865 96.331C300.135 96.2785 300.382 96.1504 300.571 95.9642C300.726 95.7469 300.801 95.4889 300.783 95.2292C300.765 94.9695 300.657 94.722 300.474 94.5242C300.106 94.1303 299.631 93.8341 299.097 93.6662C297.486 93.012 295.716 92.7636 293.968 92.9462C292.21 93.1413 290.6 93.9507 289.468 95.2082" fill="#263238"/>
<g opacity="0.4">
<path d="M301.441 94.8542C300.308 93.758 298.757 93.1125 297.117 93.0542C293.104 92.8922 285.598 94.9742 281.961 101.694C281.507 100.327 281.211 98.9191 281.078 97.4942C281.078 96.5222 281.727 90.7202 288.169 88.8962C288.169 88.9082 297.903 85.4762 301.441 94.8542Z" fill="black"/>
</g>
<path d="M282.526 100.41C284.588 97.5729 287.291 95.182 290.448 93.4022C293.578 91.6022 298.747 89.8022 302.305 88.9382C303.361 88.6158 304.479 88.5073 305.584 88.6202C306.135 88.6846 306.655 88.891 307.084 89.2157C307.514 89.5404 307.835 89.9703 308.013 90.4562C308.35 91.6982 305.967 93.6122 304.844 94.3622C303.748 95.0395 302.612 95.6605 301.441 96.2222C301.441 96.2222 301.474 93.9182 297.487 93.4442C292.065 92.8022 282.526 100.41 282.526 100.41Z" fill="#EA1D2C"/>
<g opacity="0.3">
<path d="M277.74 141.24C279.143 144.366 280.559 148.224 282.591 151.038C284.623 153.852 287.338 156.354 290.714 157.638C294.961 159.282 299.98 159.546 304.201 157.866C304.545 157.728 305.221 157.554 305.156 157.212C305.156 157.212 303.76 157.062 303.325 156.996C294.799 155.688 293.87 154.728 289.786 151.728C287.24 149.874 281.598 144.252 277.74 141.24Z" fill="black"/>
</g>
<path d="M304.857 164.004C304.771 164.261 304.651 164.507 304.5 164.736C304.121 165.385 303.659 165.99 303.123 166.536C301.317 168.287 299.044 169.567 296.532 170.25C294.03 170.909 291.446 171.266 288.844 171.312C287.851 171.348 287.046 171.354 286.494 171.354C286.205 171.365 285.916 171.353 285.63 171.318C285.911 171.258 286.199 171.228 286.487 171.228L288.831 171.09C291.405 170.981 293.956 170.598 296.435 169.95C298.903 169.272 301.149 168.034 302.967 166.35C303.677 165.625 304.309 164.84 304.857 164.004Z" fill="#263238"/>
<path d="M341.59 238.854C341.562 238.795 341.545 238.732 341.538 238.668C341.538 238.53 341.473 238.344 341.422 238.116C341.324 237.612 341.181 236.916 341.006 235.992C340.649 234.12 340.149 231.45 339.525 228.156C338.311 221.52 336.636 212.382 334.785 202.29C333.961 197.718 333.175 193.35 332.454 189.36L332.623 189.486L313.98 190.728L308.63 191.064L307.201 191.142H306.838H306.708H306.831L307.201 191.1L308.623 190.98L313.967 190.56L332.597 189.186H332.74V189.318C333.467 193.308 334.266 197.676 335.097 202.242C336.909 212.34 338.545 221.484 339.74 228.126C340.311 231.426 340.779 234.126 341.11 235.974L341.46 238.116C341.499 238.344 341.525 238.53 341.545 238.668C341.568 238.728 341.584 238.791 341.59 238.854Z" fill="#455A64"/>
<path d="M336.986 185.052C337.045 185.124 335.909 186.024 334.623 187.236C333.337 188.448 332.376 189.51 332.298 189.45C333.496 187.686 335.096 186.185 336.986 185.052Z" fill="#455A64"/>
<path d="M297.182 118.83C297.182 118.83 297.221 118.896 297.26 119.028C297.324 119.223 297.366 119.425 297.383 119.628C297.459 120.369 297.352 121.115 297.071 121.812C296.652 122.854 295.906 123.756 294.929 124.404C293.709 125.176 292.24 125.54 290.766 125.436C289.298 125.344 287.892 124.856 286.721 124.032C285.777 123.362 284.994 122.518 284.422 121.554C284.034 120.912 283.737 120.226 283.539 119.514C283.474 119.262 283.429 119.064 283.409 118.914C283.39 118.764 283.409 118.704 283.409 118.704C283.71 119.651 284.122 120.564 284.636 121.428C285.224 122.343 285.998 123.144 286.916 123.786C288.05 124.563 289.403 125.021 290.812 125.106C292.212 125.205 293.609 124.87 294.779 124.152C295.714 123.542 296.439 122.696 296.87 121.716C297.164 121.053 297.304 120.339 297.279 119.622C297.234 119.118 297.182 118.842 297.182 118.83Z" fill="#263238"/>
<path d="M306.344 145.032C306.27 144.838 306.222 144.637 306.201 144.432C306.13 143.958 306.045 143.382 305.941 142.716C305.727 141.186 305.448 139.218 305.143 137.04C304.838 134.862 304.617 132.84 304.493 131.352C304.422 130.626 304.377 130.032 304.351 129.624C304.319 129.413 304.319 129.199 304.351 128.988C304.418 129.183 304.464 129.384 304.487 129.588C304.558 130.062 304.643 130.632 304.74 131.304C304.948 132.834 305.214 134.802 305.506 136.98C305.799 139.158 306.052 141.18 306.208 142.662C306.279 143.394 306.331 143.982 306.364 144.396C306.384 144.608 306.377 144.822 306.344 145.032Z" fill="#263238"/>
<path d="M497 274.5C497 274.788 385.06 275 247.021 275C108.983 275 -3 274.788 -3 274.5C-3 274.212 108.919 274 247.021 274C385.124 274 497 274.231 497 274.5Z" fill="#263238"/>
</g>
<defs>
<clipPath id="clip0_417_511">
<rect width="500" height="276" fill="white"/>
</clipPath>
</defs>
</svg>
