<svg width="47" height="23" viewBox="0 0 47 23" fill="none" xmlns="http://www.w3.org/2000/svg">
<path d="M45.9128 13.2066C47.0575 12.321 47.0636 10.875 45.9265 9.97971L34.2827 0.812396C33.1456 -0.0828498 31.2929 -0.0906865 30.1483 0.794908C29.0037 1.6805 28.9975 3.12655 30.1346 4.02179L36.8116 9.27867L2.97846 9.13557C1.36301 9.12873 0.0535701 10.1419 0.048237 11.4027C0.042904 12.6635 1.34373 13.6877 2.95918 13.6945L36.7923 13.8376L30.0711 19.0378C28.9265 19.9234 28.9204 21.3695 30.0575 22.2647C31.1946 23.16 33.0473 23.1678 34.1919 22.2822L45.9128 13.2137L45.9128 13.2066Z" fill="#EC2937"/>
</svg>
