<svg width="63" height="50" viewBox="0 0 63 50" fill="none" xmlns="http://www.w3.org/2000/svg">
<path d="M10.5 36.375C10.5 35.8937 10.8916 35.5 11.375 35.5H20.125C20.6063 35.5 21 35.8937 21 36.375C21 36.8563 20.6063 37.25 20.125 37.25H11.375C10.8916 37.25 10.5 36.8563 10.5 36.375ZM24.5 36.375C24.5 35.8937 24.8937 35.5 25.375 35.5H41.125C41.6063 35.5 42 35.8937 42 36.375C42 36.8563 41.6063 37.25 41.125 37.25H25.375C24.8937 37.25 24.5 36.8563 24.5 36.375ZM0 7.5C0 3.63359 3.13359 0.5 7 0.5H56C59.8609 0.5 63 3.63359 63 7.5V42.5C63 46.3609 59.8609 49.5 56 49.5H7C3.13359 49.5 0 46.3609 0 42.5V7.5ZM1.75 7.5V11H61.25V7.5C61.25 4.60047 58.8984 2.25 56 2.25H7C4.10047 2.25 1.75 4.60047 1.75 7.5ZM1.75 12.75V23.25H61.25V12.75H1.75ZM1.75 42.5C1.75 45.3984 4.10047 47.75 7 47.75H56C58.8984 47.75 61.25 45.3984 61.25 42.5V25H1.75V42.5Z" fill="#EC2937"/>
</svg>
