<svg width="70" height="56" viewBox="0 0 70 56" fill="none" xmlns="http://www.w3.org/2000/svg">
<path d="M37.0781 6.0714L18.9984 0.0455244C18.6156 -0.0830787 18.1891 0.0707354 17.9813 0.417695C12.9828 8.59796 8.31907 17.9922 7.1061 21.6344C4.71735 28.7984 8.31032 36.4656 15.108 39.2109C15.0943 39.2408 15.0573 39.2494 15.0469 39.2814L10.2736 50.7062L1.15063 47.6656C0.692461 47.513 0.197211 47.7613 0.0448515 48.2185C-0.107289 48.6748 0.139483 49.1713 0.597961 49.3243L20.4058 55.959C20.8642 56.1119 21.3594 55.8633 21.5116 55.4061C21.6641 54.9498 21.4173 54.4533 20.9589 54.3003L11.8359 51.2597L16.609 39.83C16.6197 39.7984 16.5958 39.7685 16.6024 39.7369C23.6855 41.6225 31.1602 37.6456 33.5446 30.4805C34.7576 26.8426 36.6662 16.5351 37.5729 6.9867C37.7125 6.57671 37.4609 6.19937 37.0781 6.0714ZM31.9813 29.925C29.8058 36.4525 22.8266 40.0258 16.4281 37.8919C10.0275 35.7547 6.58876 28.7109 8.76423 22.1812C9.25554 20.7069 10.5033 17.8751 12.2533 14.3664C12.2661 14.3707 12.2693 14.3869 12.2826 14.3912L33.8404 21.5782C33.8534 21.5825 33.8656 21.5722 33.8788 21.5757C33.1734 25.4297 32.4734 28.4484 31.9813 29.925ZM34.1797 19.8516L13.0484 12.8078C14.7481 9.48937 16.8109 5.7214 19.1078 1.92718L35.8641 7.51296C35.4266 11.9219 34.8141 16.1766 34.1797 19.8516ZM68.8516 47.6656L59.7286 50.7062L54.9544 39.2766C54.9439 39.2445 54.907 39.236 54.8933 39.2061C61.6909 36.4651 65.1855 28.7979 62.8952 21.6295C61.6822 17.9917 57.0228 8.592 52.02 0.509187C51.808 0.162687 51.3844 0.0109838 50.9991 0.139171L40.9596 3.48495C40.436 3.6593 40.2148 4.2788 40.499 4.75261C40.496 4.74748 40.5022 4.75774 40.499 4.75261C40.707 5.1025 41.1301 5.27127 41.5163 5.14264L50.8908 2.0178C53.1877 5.81201 55.2505 9.57998 56.9502 12.8984L40.3143 18.4755C40.0096 18.5771 39.7854 18.854 39.7329 19.1705C39.7319 19.1774 39.734 19.1641 39.7329 19.1705C39.6265 19.8131 40.2404 20.343 40.8584 20.1374L57.8115 14.486C57.8248 14.4817 57.828 14.4655 57.8408 14.4612C59.5908 17.9689 60.8388 20.8017 61.3298 22.2761C63.5053 28.8036 60.0666 35.8495 53.6649 37.9823C47.8133 39.9325 41.4914 37.1107 38.7789 31.6265C38.4886 31.0382 37.683 30.9673 37.3199 31.5133C37.1538 31.7619 37.1265 32.085 37.2588 32.3533C40.2141 38.3514 46.9384 41.543 53.3916 39.8247C53.3982 39.8563 53.3743 39.8863 53.385 39.9179L58.1581 51.3475L49.0351 54.3882C48.5767 54.5411 48.33 55.0375 48.4824 55.494C48.6346 55.9511 49.1297 56.1998 49.5882 56.0469L69.396 49.4122C69.8544 49.2593 70.1012 48.7628 69.9491 48.3064C69.8031 47.7531 69.3109 47.5125 68.8516 47.6656Z" fill="#EC2937"/>
</svg>
