<svg width="49" height="56" viewBox="0 0 49 56" fill="none" xmlns="http://www.w3.org/2000/svg">
<path d="M0.520952 24.4234C0.410483 24.3797 0.311061 24.3031 0.229248 24.2156C0.147327 24.1281 0.084764 24.0297 0.0453562 23.9094C0.00594842 23.8 -0.00941877 23.6797 0.000239042 23.5594C0.212077 20.5406 1.39234 17.675 3.36547 15.3891C5.33859 13.0922 7.9975 11.5062 10.9484 10.85C11.6375 7.77 13.3547 5.01812 15.8156 3.045C18.2875 1.07308 21.35 -0.00170898 24.5 -0.00170898C27.6609 -0.00170898 30.7125 1.07308 33.1844 3.045C35.6453 5.01812 37.3625 7.77 38.0516 10.85C41.0047 11.5062 43.6625 13.0922 45.6313 15.3891C47.6109 17.675 48.7922 20.5406 49 23.5594C49.0109 23.6687 48.9891 23.7891 48.9563 23.8984C48.9125 24.0078 48.8578 24.1062 48.6828 24.1937C48.7047 24.2703 48.6172 24.3469 48.5078 24.3906C48.4094 24.4453 48.2891 24.4781 48.1797 24.4781C48.0594 24.4891 47.95 24.4781 47.8406 24.4344C47.7313 24.4016 47.6328 24.3359 47.5453 24.2594C47.4578 24.1828 47.3922 24.0953 47.3375 23.9859C47.2828 23.8875 47.2609 23.7781 47.25 23.6578C47.0313 20.4641 45.6531 17.6641 43.3781 15.5422C41.1031 13.4203 38.1172 12.1516 35.0109 12.1516C31.9047 12.1516 28.9188 13.4203 26.6438 15.5422C24.3688 17.6641 22.9906 20.4641 22.7719 23.6578C22.7609 23.8875 22.6625 24.0953 22.4984 24.2484C22.3344 24.4125 22.1266 24.4016 21.8969 24.4016C21.7766 24.4016 21.6562 24.4781 21.4484 24.4234C21.3391 24.3797 21.3391 24.3031 21.2516 24.2156C21.175 24.1281 21.1094 24.0187 21.0766 23.9094C21.0328 23.7891 21.0219 23.6687 21.0328 23.5484C21.1969 21.1203 21.9953 18.7687 23.3516 16.7453C21.8094 14.8422 19.7312 13.3547 17.3797 12.7531C15.0281 12.0531 12.5234 12.0859 10.1927 12.8297C7.85969 13.5734 5.80562 15.0062 4.29953 16.9422C2.79344 18.8781 1.90531 21.1203 1.75 23.6578C1.73797 23.8875 1.54219 24.0953 1.47656 24.2484C1.31359 24.4125 1.09703 24.4016 0.871717 24.4016C0.750967 24.4016 0.63153 24.4781 0.520952 24.4234ZM17.15 4.22625C15.0391 5.8275 13.4969 8.07406 12.7641 10.6258C13.1797 10.5875 13.5844 10.4016 14 10.4016C16.0016 10.5077 17.9703 10.9484 19.775 11.7797C21.5906 12.6219 23.1984 13.8359 24.5 15.3562C25.8016 13.8359 27.4094 12.6219 29.225 11.7797C31.0297 10.9484 33.0094 10.5098 35 10.4016C35.3391 10.4016 35.8313 10.5875 36.2469 10.6258C35.5141 8.07187 33.9828 5.82422 31.8609 4.22187C29.7391 2.62062 27.1578 1.75328 24.5 1.65156C21.8422 1.75656 19.2719 2.625 17.15 4.22625ZM47.8844 28.1641C48.1141 28.2734 48.3109 28.4266 48.475 28.6125C48.6391 28.8094 48.7703 29.0281 48.8359 29.2687C48.9125 29.5094 48.9344 29.7719 48.8906 30.0125C48.3984 34.2781 46.3531 38.2156 43.1484 41.0703C39.9438 43.925 35.7984 45.5 31.5 45.5L38.0516 53.0797C38.1828 53.3312 38.4234 53.6375 38.4781 53.9766C38.5328 54.3047 38.4891 54.6547 38.3469 54.9609C38.2156 55.2672 37.9859 55.5297 37.7016 55.7156C37.4172 55.9016 37.0891 56 36.75 56H12.25C11.9109 56 11.5828 55.9016 11.2984 55.7156C11.0141 55.5297 10.7866 55.2672 10.6487 54.9609C10.5109 54.6547 10.4661 54.3047 10.5186 53.9766C10.5722 53.6375 10.7209 53.3312 10.9484 53.0797L17.5 45.5C13.2016 45.5 9.05625 43.925 5.84719 41.0703C2.63703 38.2156 0.589639 34.2781 0.0947719 30.0125C0.060964 29.7609 0.0808812 29.5094 0.153123 29.2687C0.22542 29.0281 0.348467 28.7984 0.514061 28.6125C0.679655 28.4266 0.883967 28.2734 1.11344 28.1641C1.34312 28.0547 1.5925 28 1.84515 27.9016H47.1516C47.4031 28 47.6547 28.0547 47.8844 28.1641ZM29.1922 45.5H19.8078L12.25 54.25H36.75L29.1922 45.5ZM41.9891 39.7687C44.8875 37.1984 46.725 33.6547 47.1734 29.8156V29.6516H1.83422C2.26515 33.6 4.10156 37.1656 6.99125 39.7469C9.88203 42.2297 13.6281 43.75 17.5 43.75H31.5C35.3719 43.7609 39.1016 42.3391 41.9891 39.7687Z" fill="#EC2937"/>
</svg>
