<svg width="70" height="56" viewBox="0 0 70 56" fill="none" xmlns="http://www.w3.org/2000/svg">
<path d="M69.5518 19.3593C69.9783 19.5999 70.1205 20.1359 69.7924 20.5515C69.6502 20.9781 69.1143 21.1203 68.6987 20.7921L35.0002 1.8801L1.30506 20.7921C0.884405 21.1203 0.350655 20.9781 0.113311 20.5515C-0.124142 20.1359 0.024575 19.5999 0.445483 19.3593L34.5737 0.112822C34.8362 -0.0376888 35.1643 -0.0376888 35.4268 0.112822L69.5518 19.3593ZM26.2502 40.2499C26.2502 42.1859 24.6862 43.7499 22.7502 43.7499C20.8143 43.7499 19.2502 42.1859 19.2502 40.2499C19.2502 38.314 20.8143 36.7499 22.7502 36.7499C24.6862 36.7499 26.2502 38.314 26.2502 40.2499ZM22.7502 41.9999C23.7127 41.9999 24.5002 41.2124 24.5002 40.2499C24.5002 39.2874 23.7127 38.4999 22.7502 38.4999C21.7877 38.4999 21.0002 39.2874 21.0002 40.2499C21.0002 41.2124 21.7877 41.9999 22.7502 41.9999ZM43.7502 40.2499C43.7502 38.314 45.3143 36.7499 47.2502 36.7499C49.1862 36.7499 50.7502 38.314 50.7502 40.2499C50.7502 42.1859 49.1862 43.7499 47.2502 43.7499C45.3143 43.7499 43.7502 42.1859 43.7502 40.2499ZM47.2502 38.4999C46.2877 38.4999 45.5002 39.2874 45.5002 40.2499C45.5002 41.2124 46.2877 41.9999 47.2502 41.9999C48.2127 41.9999 49.0002 41.2124 49.0002 40.2499C49.0002 39.2874 48.2127 38.4999 47.2502 38.4999ZM21.7002 23.6906C22.444 21.0656 24.8502 19.2499 27.5846 19.2499H42.4158C45.1502 19.2499 47.5565 21.0656 48.3002 23.6906L50.7393 32.2218C53.8346 33.4796 56.0002 36.6624 56.0002 40.2499V55.1249C56.0002 55.6062 55.6065 55.9999 55.1252 55.9999C54.644 55.9999 54.2502 55.6062 54.2502 55.1249V48.9999H15.7502V55.1249C15.7502 55.6062 15.3565 55.9999 14.8752 55.9999C14.394 55.9999 14.0002 55.6062 14.0002 55.1249V40.2499C14.0002 36.6624 16.1658 33.4796 19.2612 32.2218L21.7002 23.6906ZM27.5846 20.9999C25.6268 20.9999 23.9205 22.2906 23.3737 24.1718L21.2518 31.6312C21.733 31.5437 22.2362 31.4999 22.7502 31.4999H47.2502C47.7643 31.4999 48.2674 31.5437 48.7487 31.6312L46.6268 24.1718C46.0908 22.2906 44.3737 20.9999 42.4158 20.9999H27.5846ZM54.2502 40.2499C54.2502 36.389 51.1112 33.2499 47.2502 33.2499H22.7502C18.8893 33.2499 15.7502 36.389 15.7502 40.2499V47.2499H54.2502V40.2499Z" fill="#EC2937"/>
</svg>
