<svg width="70" height="50" viewBox="0 0 70 50" fill="none" xmlns="http://www.w3.org/2000/svg">
<path d="M34.9016 35.4016C31.0362 35.4016 27.9016 38.5352 27.9016 42.4027C27.9016 46.2702 31.0362 49.4037 34.9016 49.4037C38.7669 49.4037 41.9016 46.2702 41.9016 42.4027C41.9016 38.6281 38.8609 35.4016 34.9016 35.4016ZM34.9016 47.6516C32.0064 47.6516 29.6516 45.2956 29.6516 42.3994C29.6516 39.5031 32.0075 37.2478 34.9027 37.2478C37.7978 37.2478 40.1516 39.6016 40.1516 42.3994C40.1516 45.3875 37.8984 47.6516 34.9016 47.6516ZM69.7484 14.8719C50.5969 -4.29063 19.4141 -4.29063 0.262497 14.8719C-0.0792999 15.2139 -0.0792999 15.7678 0.262497 16.11C0.604294 16.4522 1.15806 16.452 1.49953 16.11C19.973 -2.27594 50.0401 -2.27594 68.5136 16.11C68.6766 16.2828 68.8953 16.3703 69.125 16.3703C69.3547 16.3703 69.5728 16.2849 69.7436 16.1139C70.0875 15.7687 70.0875 15.2219 69.7484 14.8719ZM35 17.9016C26.787 17.9016 19.0641 21.0898 13.2562 26.9009C12.9144 27.2427 12.9144 27.7968 13.2562 28.1391C13.598 28.4811 14.1518 28.4811 14.4933 28.1391C19.9719 22.7578 27.2562 19.7391 35 19.7391C42.7437 19.7391 50.0281 22.7502 55.5078 28.2298C55.6787 28.4009 55.9009 28.4864 56.1264 28.4864C56.352 28.4864 56.5742 28.401 56.7451 28.2298C57.0869 27.888 57.0869 27.334 56.7451 26.9917C50.9359 21.1828 43.2141 17.9016 35 17.9016Z" fill="#EC2937"/>
</svg>
