<svg width="45" height="45" viewBox="0 0 45 45" fill="none" xmlns="http://www.w3.org/2000/svg">
<path d="M43.8936 39.254C45.2112 40.5681 45.2112 42.7002 43.8936 44.0144C42.5759 45.3286 40.4381 45.3285 39.1203 44.0144L22.5023 27.3179L5.76619 44.0088C4.44853 45.3229 2.31067 45.3229 0.99288 44.0088C-0.324912 42.6947 -0.324772 40.5626 0.99288 39.2484L17.7346 22.5631L0.988239 5.74602C-0.329413 4.43193 -0.329413 2.29985 0.988239 0.98562C2.30589 -0.32861 4.44375 -0.32847 5.76155 0.98562L22.5023 17.8083L39.2384 1.11746C40.5561 -0.196627 42.6939 -0.196627 44.0117 1.11746C45.3295 2.43155 45.3294 4.56363 44.0117 5.87786L27.27 22.5631L43.8936 39.254Z" fill="#656363"/>
</svg>
