<svg width="32" height="52" viewBox="0 0 32 52" fill="none" xmlns="http://www.w3.org/2000/svg">
<path d="M31.21 38.0859C32.1469 39.0375 32.1469 40.5813 31.21 41.533C30.2731 42.4846 28.753 42.4845 27.816 41.533L16 29.443L4.09998 41.5289C3.16308 42.4804 1.64298 42.4804 0.705975 41.5289C-0.231025 40.5774 -0.230925 39.0335 0.705975 38.0819L12.61 26L0.702675 13.8227C-0.234225 12.8711 -0.234225 11.3273 0.702675 10.3756C1.63958 9.42398 3.15968 9.42408 4.09668 10.3756L16 22.557L27.9 10.4711C28.8369 9.51955 30.357 9.51955 31.294 10.4711C32.231 11.4226 32.2309 12.9665 31.294 13.9181L19.39 26L31.21 38.0859Z" fill="#EA1D2C"/>
</svg>
