<svg width="28" height="23" viewBox="0 0 28 23" fill="none" xmlns="http://www.w3.org/2000/svg">
<path d="M0 1.5C0 0.671875 0.671875 0 1.5 0H26.5C27.3312 0 28 0.671875 28 1.5C28 2.33125 27.3312 3 26.5 3H1.5C0.671875 3 0 2.33125 0 1.5ZM0 11.5C0 10.6687 0.671875 10 1.5 10H26.5C27.3312 10 28 10.6687 28 11.5C28 12.3313 27.3312 13 26.5 13H1.5C0.671875 13 0 12.3313 0 11.5ZM26.5 23H1.5C0.671875 23 0 22.3312 0 21.5C0 20.6688 0.671875 20 1.5 20H26.5C27.3312 20 28 20.6688 28 21.5C28 22.3312 27.3312 23 26.5 23Z" fill="black"/>
</svg>
