<svg width="56" height="56" viewBox="0 0 56 56" fill="none" xmlns="http://www.w3.org/2000/svg">
<path d="M47.8395 8.13795C42.5751 2.89317 35.5752 0.00319996 28.1172 0C12.7488 0 0.242047 12.4477 0.235894 27.7478C0.234103 32.6385 1.51763 37.4126 3.95727 41.6208L0.0018158 56L14.782 52.1415C18.8542 54.3526 23.4393 55.5177 28.1052 55.5196H28.117H28.1172C43.483 55.5196 55.9917 43.0696 55.9982 27.7703C56.0008 20.3552 53.1031 13.3831 47.8395 8.13795ZM28.1172 50.8328H28.1081C23.9492 50.8307 19.8707 49.719 16.3134 47.6174L15.4668 47.1177L6.69591 49.4072L9.03762 40.8964L8.48603 40.0239C6.16614 36.3514 4.94143 32.1074 4.94317 27.7496C4.94827 15.0327 15.3434 4.68689 28.1259 4.68689C34.3159 4.68945 40.1338 7.09161 44.5093 11.4509C48.8846 15.8102 51.2923 21.6052 51.2905 27.7683C51.2851 40.4856 40.8896 50.8328 28.1172 50.8328Z" fill="#E0E0E0"/>
<path d="M1.28171 54.4045L5.05648 40.6822C2.72769 36.6661 1.50302 32.1098 1.50449 27.4434C1.5106 12.8425 13.4462 0.963745 28.1112 0.963745C35.2289 0.966945 41.9093 3.72476 46.932 8.73009C51.9558 13.7354 54.7208 20.3885 54.7179 27.4641C54.7118 42.0653 42.7755 53.9452 28.1123 53.9452C28.113 53.9452 28.1112 53.9452 28.1123 53.9452H28.1004C23.6477 53.9438 19.2724 52.8309 15.3865 50.7224L1.28171 54.4045Z" fill="url(#paint0_linear_214_176)"/>
<path fill-rule="evenodd" clip-rule="evenodd" d="M21.2274 15.9675C20.7116 14.8257 20.1685 14.8029 19.6778 14.7829C19.2764 14.7657 18.8168 14.7668 18.358 14.7668C17.8989 14.7668 17.1528 14.9386 16.5218 15.6247C15.8904 16.3107 14.1112 17.9693 14.1112 21.3424C14.1112 24.716 16.5792 27.9756 16.9232 28.4334C17.2675 28.8905 21.6873 36.034 28.6869 38.7822C34.5042 41.0661 35.688 40.6118 36.9507 40.4975C38.2134 40.3832 41.025 38.8393 41.5989 37.2383C42.1729 35.6376 42.1729 34.2655 42.0007 33.9787C41.8285 33.6929 41.3693 33.5215 40.6806 33.1787C39.9919 32.8358 36.6063 31.1769 35.975 30.9483C35.3436 30.7198 34.8845 30.6055 34.4253 31.2919C33.9662 31.9776 32.6472 33.5215 32.2454 33.9787C31.8436 34.4368 31.4419 34.494 30.7531 34.1511C30.0644 33.8072 27.8464 33.084 25.2153 30.7483C23.1681 28.9312 21.7859 26.6869 21.3842 26.0005C20.9824 25.3148 21.3411 24.9434 21.6866 24.6016C21.9958 24.2944 22.3753 23.8012 22.7197 23.4009C23.0633 23.0005 23.1781 22.7148 23.4077 22.2577C23.6372 21.7998 23.5225 21.3995 23.3503 21.0566C23.1781 20.7138 21.8397 17.3232 21.2274 15.9675Z" fill="white"/>
<path d="M47.6117 8.04978C42.4078 2.8652 35.4882 0.00846418 28.1159 0.00521851C12.9239 0.00521851 0.560703 12.3101 0.554596 27.4345C0.552805 32.2691 1.82159 36.9883 4.23323 41.1483L0.323227 55.3623L14.9337 51.5481C18.9593 53.7338 23.4917 54.8856 28.104 54.8873H28.1157H28.1159C43.3053 54.8873 55.6703 42.5803 55.6768 27.4566C55.6793 20.1267 52.8149 13.2347 47.6117 8.04978ZM28.1159 50.2546H28.1069C23.9957 50.2524 19.964 49.1535 16.4475 47.0761L15.6106 46.5821L6.94046 48.8453L9.25526 40.4322L8.71001 39.5697C6.41675 35.9394 5.20609 31.7441 5.20788 27.4363C5.21288 14.8654 15.4887 4.63839 28.1245 4.63839C34.2435 4.64091 39.9944 7.0155 44.3198 11.3248C48.6449 15.634 51.025 21.3625 51.0232 27.4549C51.0178 40.0261 40.7416 50.2546 28.1159 50.2546Z" fill="white"/>
<defs>
<linearGradient id="paint0_linear_214_176" x1="27.9998" y1="54.4045" x2="27.9998" y2="0.963834" gradientUnits="userSpaceOnUse">
<stop stop-color="#20B038"/>
<stop offset="1" stop-color="#60D66A"/>
</linearGradient>
</defs>
</svg>
