<svg width="145" height="44" viewBox="0 0 145 44" fill="none" xmlns="http://www.w3.org/2000/svg">
<path d="M0 5C0 2.23858 2.23858 0 5 0H140C142.761 0 145 2.23858 145 5V32C145 34.7614 142.761 37 140 37H124.351C122.748 37 121.243 37.7679 120.303 39.0652L117.609 42.7807C117.189 43.3597 116.315 43.3237 115.944 42.7121L113.941 39.4081C113.035 37.9131 111.414 37 109.666 37H4.99999C2.23857 37 0 34.7614 0 32V5Z" fill="#D9FDD3"/>
<path d="M24.5355 16.084C24.5355 16.78 24.2955 17.36 23.8155 17.824C23.3435 18.28 22.6195 18.508 21.6435 18.508H20.0355V22H18.9435V13.636H21.6435C22.5875 13.636 23.3035 13.864 23.7915 14.32C24.2875 14.776 24.5355 15.364 24.5355 16.084ZM21.6435 17.608C22.2515 17.608 22.6995 17.476 22.9875 17.212C23.2755 16.948 23.4195 16.572 23.4195 16.084C23.4195 15.052 22.8275 14.536 21.6435 14.536H20.0355V17.608H21.6435ZM31.8928 18.46C31.8928 18.668 31.8808 18.888 31.8568 19.12H26.6008C26.6408 19.768 26.8608 20.276 27.2608 20.644C27.6688 21.004 28.1608 21.184 28.7368 21.184C29.2088 21.184 29.6008 21.076 29.9128 20.86C30.2328 20.636 30.4568 20.34 30.5848 19.972H31.7608C31.5848 20.604 31.2328 21.12 30.7048 21.52C30.1768 21.912 29.5208 22.108 28.7368 22.108C28.1128 22.108 27.5528 21.968 27.0568 21.688C26.5688 21.408 26.1848 21.012 25.9048 20.5C25.6248 19.98 25.4848 19.38 25.4848 18.7C25.4848 18.02 25.6208 17.424 25.8928 16.912C26.1648 16.4 26.5448 16.008 27.0328 15.736C27.5288 15.456 28.0968 15.316 28.7368 15.316C29.3608 15.316 29.9128 15.452 30.3928 15.724C30.8728 15.996 31.2408 16.372 31.4968 16.852C31.7608 17.324 31.8928 17.86 31.8928 18.46ZM30.7648 18.232C30.7648 17.816 30.6728 17.46 30.4888 17.164C30.3048 16.86 30.0528 16.632 29.7328 16.48C29.4208 16.32 29.0728 16.24 28.6888 16.24C28.1368 16.24 27.6648 16.416 27.2728 16.768C26.8888 17.12 26.6688 17.608 26.6128 18.232H30.7648ZM36.1302 21.184C36.6102 21.184 37.0102 21.072 37.3302 20.848C37.6502 20.624 37.8702 20.304 37.9902 19.888H39.1662C39.0062 20.512 38.6902 21.024 38.2182 21.424C37.7542 21.816 37.1702 22.04 36.4662 22.096V22.696C36.9382 22.688 37.3142 22.788 37.5942 22.996C37.8742 23.204 38.0142 23.5 38.0142 23.884C38.0142 24.26 37.8782 24.56 37.6062 24.784C37.3342 25.008 36.9822 25.12 36.5502 25.12H35.1702V24.412H36.3342C36.5982 24.412 36.7902 24.372 36.9102 24.292C37.0382 24.212 37.1022 24.076 37.1022 23.884C37.1022 23.7 37.0382 23.568 36.9102 23.488C36.7902 23.408 36.5982 23.368 36.3342 23.368H35.7342V22.084C35.1822 22.028 34.6942 21.856 34.2702 21.568C33.8462 21.272 33.5142 20.88 33.2742 20.392C33.0422 19.896 32.9262 19.332 32.9262 18.7C32.9262 18.02 33.0622 17.428 33.3342 16.924C33.6062 16.412 33.9822 16.016 34.4622 15.736C34.9502 15.456 35.5062 15.316 36.1302 15.316C36.9382 15.316 37.6022 15.512 38.1222 15.904C38.6502 16.296 38.9982 16.84 39.1662 17.536H37.9902C37.8782 17.136 37.6582 16.82 37.3302 16.588C37.0102 16.356 36.6102 16.24 36.1302 16.24C35.5062 16.24 35.0022 16.456 34.6182 16.888C34.2342 17.312 34.0422 17.916 34.0422 18.7C34.0422 19.492 34.2342 20.104 34.6182 20.536C35.0022 20.968 35.5062 21.184 36.1302 21.184ZM40.2152 18.688C40.2152 18.016 40.3512 17.428 40.6232 16.924C40.8952 16.412 41.2672 16.016 41.7392 15.736C42.2192 15.456 42.7512 15.316 43.3352 15.316C43.9112 15.316 44.4112 15.44 44.8352 15.688C45.2592 15.936 45.5752 16.248 45.7832 16.624V15.424H46.8872V22H45.7832V20.776C45.5672 21.16 45.2432 21.48 44.8112 21.736C44.3872 21.984 43.8912 22.108 43.3232 22.108C42.7392 22.108 42.2112 21.964 41.7392 21.676C41.2672 21.388 40.8952 20.984 40.6232 20.464C40.3512 19.944 40.2152 19.352 40.2152 18.688ZM45.7832 18.7C45.7832 18.204 45.6832 17.772 45.4832 17.404C45.2832 17.036 45.0112 16.756 44.6672 16.564C44.3312 16.364 43.9592 16.264 43.5512 16.264C43.1432 16.264 42.7712 16.36 42.4352 16.552C42.0992 16.744 41.8312 17.024 41.6312 17.392C41.4312 17.76 41.3312 18.192 41.3312 18.688C41.3312 19.192 41.4312 19.632 41.6312 20.008C41.8312 20.376 42.0992 20.66 42.4352 20.86C42.7712 21.052 43.1432 21.148 43.5512 21.148C43.9592 21.148 44.3312 21.052 44.6672 20.86C45.0112 20.66 45.2832 20.376 45.4832 20.008C45.6832 19.632 45.7832 19.196 45.7832 18.7ZM54.2598 22.108C53.7558 22.108 53.3038 22.024 52.9038 21.856C52.5038 21.68 52.1878 21.44 51.9558 21.136C51.7238 20.824 51.5958 20.468 51.5718 20.068H52.6998C52.7318 20.396 52.8838 20.664 53.1558 20.872C53.4358 21.08 53.7998 21.184 54.2478 21.184C54.6638 21.184 54.9918 21.092 55.2318 20.908C55.4718 20.724 55.5918 20.492 55.5918 20.212C55.5918 19.924 55.4638 19.712 55.2078 19.576C54.9518 19.432 54.5558 19.292 54.0198 19.156C53.5318 19.028 53.1318 18.9 52.8198 18.772C52.5158 18.636 52.2518 18.44 52.0278 18.184C51.8118 17.92 51.7038 17.576 51.7038 17.152C51.7038 16.816 51.8038 16.508 52.0038 16.228C52.2038 15.948 52.4878 15.728 52.8558 15.568C53.2238 15.4 53.6438 15.316 54.1158 15.316C54.8438 15.316 55.4318 15.5 55.8798 15.868C56.3278 16.236 56.5678 16.74 56.5998 17.38H55.5078C55.4838 17.036 55.3438 16.76 55.0878 16.552C54.8398 16.344 54.5038 16.24 54.0798 16.24C53.6878 16.24 53.3758 16.324 53.1438 16.492C52.9118 16.66 52.7958 16.88 52.7958 17.152C52.7958 17.368 52.8638 17.548 52.9998 17.692C53.1438 17.828 53.3198 17.94 53.5278 18.028C53.7438 18.108 54.0398 18.2 54.4158 18.304C54.8878 18.432 55.2718 18.56 55.5678 18.688C55.8638 18.808 56.1158 18.992 56.3238 19.24C56.5398 19.488 56.6518 19.812 56.6598 20.212C56.6598 20.572 56.5598 20.896 56.3598 21.184C56.1598 21.472 55.8758 21.7 55.5078 21.868C55.1478 22.028 54.7318 22.108 54.2598 22.108ZM64.0333 15.424V22H62.9413V21.028C62.7333 21.364 62.4413 21.628 62.0653 21.82C61.6973 22.004 61.2893 22.096 60.8413 22.096C60.3293 22.096 59.8693 21.992 59.4613 21.784C59.0533 21.568 58.7293 21.248 58.4893 20.824C58.2573 20.4 58.1413 19.884 58.1413 19.276V15.424H59.2213V19.132C59.2213 19.78 59.3853 20.28 59.7133 20.632C60.0413 20.976 60.4893 21.148 61.0573 21.148C61.6413 21.148 62.1013 20.968 62.4373 20.608C62.7733 20.248 62.9413 19.724 62.9413 19.036V15.424H64.0333ZM65.4691 18.688C65.4691 18.016 65.6051 17.428 65.8771 16.924C66.1491 16.412 66.5211 16.016 66.9931 15.736C67.4731 15.456 68.0051 15.316 68.5891 15.316C69.1651 15.316 69.6651 15.44 70.0891 15.688C70.5131 15.936 70.8291 16.248 71.0371 16.624V15.424H72.1411V22H71.0371V20.776C70.8211 21.16 70.4971 21.48 70.0651 21.736C69.6411 21.984 69.1451 22.108 68.5771 22.108C67.9931 22.108 67.4651 21.964 66.9931 21.676C66.5211 21.388 66.1491 20.984 65.8771 20.464C65.6051 19.944 65.4691 19.352 65.4691 18.688ZM71.0371 18.7C71.0371 18.204 70.9371 17.772 70.7371 17.404C70.5371 17.036 70.2651 16.756 69.9211 16.564C69.5851 16.364 69.2131 16.264 68.8051 16.264C68.3971 16.264 68.0251 16.36 67.6891 16.552C67.3531 16.744 67.0851 17.024 66.8851 17.392C66.6851 17.76 66.5851 18.192 66.5851 18.688C66.5851 19.192 66.6851 19.632 66.8851 20.008C67.0851 20.376 67.3531 20.66 67.6891 20.86C68.0251 21.052 68.3971 21.148 68.8051 21.148C69.2131 21.148 69.5851 21.052 69.9211 20.86C70.2651 20.66 70.5371 20.376 70.7371 20.008C70.9371 19.632 71.0371 19.196 71.0371 18.7ZM85.6697 13.696V22H84.5777V15.808L81.8177 22H81.0497L78.2777 15.796V22H77.1857V13.696H78.3617L81.4337 20.56L84.5057 13.696H85.6697ZM87.1137 18.688C87.1137 18.016 87.2497 17.428 87.5217 16.924C87.7937 16.412 88.1657 16.016 88.6377 15.736C89.1177 15.456 89.6497 15.316 90.2337 15.316C90.8097 15.316 91.3097 15.44 91.7337 15.688C92.1577 15.936 92.4737 16.248 92.6817 16.624V15.424H93.7857V22H92.6817V20.776C92.4657 21.16 92.1417 21.48 91.7097 21.736C91.2857 21.984 90.7897 22.108 90.2217 22.108C89.6377 22.108 89.1097 21.964 88.6377 21.676C88.1657 21.388 87.7937 20.984 87.5217 20.464C87.2497 19.944 87.1137 19.352 87.1137 18.688ZM92.6817 18.7C92.6817 18.204 92.5817 17.772 92.3817 17.404C92.1817 17.036 91.9097 16.756 91.5657 16.564C91.2297 16.364 90.8577 16.264 90.4497 16.264C90.0417 16.264 89.6697 16.36 89.3337 16.552C88.9977 16.744 88.7297 17.024 88.5297 17.392C88.3297 17.76 88.2297 18.192 88.2297 18.688C88.2297 19.192 88.3297 19.632 88.5297 20.008C88.7297 20.376 88.9977 20.66 89.3337 20.86C89.6697 21.052 90.0417 21.148 90.4497 21.148C90.8577 21.148 91.2297 21.052 91.5657 20.86C91.9097 20.66 92.1817 20.376 92.3817 20.008C92.5817 19.632 92.6817 19.196 92.6817 18.7ZM96.723 16.492C96.915 16.116 97.187 15.824 97.539 15.616C97.899 15.408 98.335 15.304 98.847 15.304V16.432H98.559C97.335 16.432 96.723 17.096 96.723 18.424V22H95.631V15.424H96.723V16.492ZM108.016 15.304C108.528 15.304 108.984 15.412 109.384 15.628C109.784 15.836 110.1 16.152 110.332 16.576C110.564 17 110.68 17.516 110.68 18.124V22H109.6V18.28C109.6 17.624 109.436 17.124 109.108 16.78C108.788 16.428 108.352 16.252 107.8 16.252C107.232 16.252 106.78 16.436 106.444 16.804C106.108 17.164 105.94 17.688 105.94 18.376V22H104.86V18.28C104.86 17.624 104.696 17.124 104.368 16.78C104.048 16.428 103.612 16.252 103.06 16.252C102.492 16.252 102.04 16.436 101.704 16.804C101.368 17.164 101.2 17.688 101.2 18.376V22H100.108V15.424H101.2V16.372C101.416 16.028 101.704 15.764 102.064 15.58C102.432 15.396 102.836 15.304 103.276 15.304C103.828 15.304 104.316 15.428 104.74 15.676C105.164 15.924 105.48 16.288 105.688 16.768C105.872 16.304 106.176 15.944 106.6 15.688C107.024 15.432 107.496 15.304 108.016 15.304ZM113.035 14.356C112.827 14.356 112.651 14.284 112.507 14.14C112.363 13.996 112.291 13.82 112.291 13.612C112.291 13.404 112.363 13.228 112.507 13.084C112.651 12.94 112.827 12.868 113.035 12.868C113.235 12.868 113.403 12.94 113.539 13.084C113.683 13.228 113.755 13.404 113.755 13.612C113.755 13.82 113.683 13.996 113.539 14.14C113.403 14.284 113.235 14.356 113.035 14.356ZM113.563 15.424V22H112.471V15.424H113.563ZM116.756 16.324V20.2C116.756 20.52 116.824 20.748 116.96 20.884C117.096 21.012 117.332 21.076 117.668 21.076H118.472V22H117.488C116.88 22 116.424 21.86 116.12 21.58C115.816 21.3 115.664 20.84 115.664 20.2V16.324H114.812V15.424H115.664V13.768H116.756V15.424H118.472V16.324H116.756ZM119.387 18.688C119.387 18.016 119.523 17.428 119.795 16.924C120.067 16.412 120.439 16.016 120.911 15.736C121.391 15.456 121.923 15.316 122.507 15.316C123.083 15.316 123.583 15.44 124.007 15.688C124.431 15.936 124.747 16.248 124.955 16.624V15.424H126.059V22H124.955V20.776C124.739 21.16 124.415 21.48 123.983 21.736C123.559 21.984 123.063 22.108 122.495 22.108C121.911 22.108 121.383 21.964 120.911 21.676C120.439 21.388 120.067 20.984 119.795 20.464C119.523 19.944 119.387 19.352 119.387 18.688ZM124.955 18.7C124.955 18.204 124.855 17.772 124.655 17.404C124.455 17.036 124.183 16.756 123.839 16.564C123.503 16.364 123.131 16.264 122.723 16.264C122.315 16.264 121.943 16.36 121.607 16.552C121.271 16.744 121.003 17.024 120.803 17.392C120.603 17.76 120.503 18.192 120.503 18.688C120.503 19.192 120.603 19.632 120.803 20.008C121.003 20.376 121.271 20.66 121.607 20.86C121.943 21.052 122.315 21.148 122.723 21.148C123.131 21.148 123.503 21.052 123.839 20.86C124.183 20.66 124.455 20.376 124.655 20.008C124.855 19.632 124.955 19.196 124.955 18.7Z" fill="#333333"/>
</svg>
