<svg width="482" height="315" viewBox="0 0 482 315" fill="none" xmlns="http://www.w3.org/2000/svg">
<path d="M360.964 49.3004C360.964 49.3004 350.207 50.5834 349.513 68.1796C348.935 82.8431 347.754 91.0149 353.401 94.0741C355.419 95.1675 357.793 95.2635 359.948 94.5151L382.998 86.509C382.998 86.509 383.345 60.1147 375.364 53.6994C367.383 47.2841 360.964 49.3004 360.964 49.3004Z" fill="#36344E"/>
<path d="M374 89.8888L362 94V76H372.887L374 89.8888Z" fill="#FAAFB2"/>
<path d="M337.814 190.426C337.215 194.5 334.787 197.421 332.39 196.95C329.993 196.48 328.535 192.796 329.135 188.721C329.353 187.089 329.93 185.546 330.816 184.222L333.553 167L341 168.743L337.511 185.536C337.97 187.125 338.074 188.801 337.814 190.426Z" fill="#FAAFB2"/>
<path d="M365 304H353.607L347 243H364.609L365 304Z" fill="#FAAFB2"/>
<path d="M342.864 314C341.692 314 340.65 313.971 339.865 313.899C336.906 313.628 334.085 311.45 332.666 310.175C332.03 309.604 331.825 308.691 332.157 307.904C332.395 307.339 332.87 306.918 333.46 306.749L341.275 304.521L353.931 296L354.072 296.253C354.124 296.347 355.367 298.581 355.783 300.091C355.942 300.666 355.9 301.144 355.66 301.514C355.493 301.77 355.262 301.919 355.073 302.004C355.303 302.244 356.021 302.728 358.231 303.08C361.462 303.591 362.138 300.255 362.165 300.112L362.186 300L362.282 299.938C363.819 298.951 364.763 298.501 365.09 298.597C365.294 298.658 365.635 298.76 366.551 307.853C366.644 308.137 367.286 310.231 366.849 312.231C366.373 314.409 356.846 313.659 354.94 313.487C354.886 313.494 347.752 314 342.864 314Z" fill="#36344E"/>
<path d="M389 304H378.24L372 243H388.631L389 304Z" fill="#FAAFB2"/>
<path d="M367.553 314C366.415 314 365.403 313.971 364.64 313.899C361.766 313.628 359.025 311.45 357.647 310.175C357.029 309.604 356.83 308.691 357.152 307.904C357.383 307.339 357.845 306.918 358.418 306.749L366.011 304.521L378.304 296L378.441 296.253C378.492 296.347 379.7 298.581 380.104 300.091C380.258 300.666 380.217 301.144 379.984 301.514C379.822 301.77 379.597 301.919 379.414 302.004C379.637 302.244 380.334 302.728 382.482 303.08C385.62 303.591 386.277 300.255 386.303 300.112L386.324 300L386.417 299.938C387.91 298.95 388.829 298.503 389.145 298.597C389.343 298.658 389.674 298.76 390.564 307.853C390.654 308.137 391.278 310.231 390.853 312.231C390.391 314.409 381.135 313.659 379.285 313.487C379.232 313.494 372.302 314 367.553 314Z" fill="#36344E"/>
<path d="M392 153H339L358.052 87H379.183L392 153Z" fill="#EA1D2C"/>
<path d="M362 87.0102C362 87.0102 348.925 86.6444 347.548 90.3016C346.172 93.9588 330 181 330 181H340.667L362 87.0102Z" fill="#EA1D2C"/>
<path d="M363.5 81C369.851 81 375 75.4036 375 68.5C375 61.5964 369.851 56 363.5 56C357.149 56 352 61.5964 352 68.5C352 75.4036 357.149 81 363.5 81Z" fill="#FAAFB2"/>
<path d="M360.283 54C360.283 54 353.877 81.256 361 94L350.967 91.767C350.967 91.767 347.079 61.9345 354.897 56.5108L360.283 54Z" fill="#36344E"/>
<path d="M381.662 153H347.003L328.038 235.18C327.69 238.651 329.774 241.889 332.968 242.792C343.374 245.734 368.338 249.902 406.126 238.292C409.763 237.175 411.827 233.125 410.685 229.312L381.662 153Z" fill="#36344E"/>
<path d="M367.31 86.7318L378.114 86.2285C382.792 86.6023 387.022 89.2977 389.53 93.4943C397.162 106.265 411.447 133.189 398.693 136.877C381.886 141.737 373.743 114.685 373.743 114.685L367.31 86.7318Z" fill="#EA1D2C"/>
<path d="M363.603 94.7522C361.383 91.3749 361.302 87.4003 363.422 85.8749C365.542 84.3494 369.06 85.8508 371.279 89.2296C372.184 90.5662 372.76 92.1171 372.959 93.7527L382.185 108.191L375.415 112.728L367.038 98.0134C365.65 97.2337 364.471 96.1154 363.603 94.7522Z" fill="#FAAFB2"/>
<path d="M369.064 106.431L376.688 99.0034L391.763 113.859L377.744 124.004L369.064 106.431Z" fill="#EA1D2C"/>
<path d="M256.118 70H16.8816C7.55817 70 0 78.0589 0 88V88C0 97.9411 7.55817 106 16.8816 106H256.118C265.442 106 273 97.9411 273 88C273 78.0589 265.442 70 256.118 70Z" fill="#EA1D2C"/>
<path d="M140.096 160.166C131.638 160.166 124.757 152.883 124.757 143.93C124.757 134.977 131.638 127.693 140.096 127.693C148.554 127.693 155.435 134.977 155.435 143.93C155.435 152.883 148.554 160.166 140.096 160.166ZM140.096 132.105C133.936 132.105 128.925 137.409 128.925 143.93C128.925 150.45 133.936 155.754 140.096 155.754C146.256 155.754 151.267 150.45 151.267 143.93C151.267 137.409 146.256 132.105 140.096 132.105Z" fill="#484662"/>
<path d="M169.031 173.463C168.551 173.463 168.068 173.289 167.675 172.932L148.286 155.333C147.412 154.54 147.311 153.147 148.06 152.222C148.809 151.297 150.125 151.19 150.999 151.983L170.389 169.583C171.262 170.376 171.363 171.769 170.614 172.694C170.202 173.202 169.618 173.463 169.031 173.463Z" fill="#484662"/>
<path d="M45 314.5C45 314.777 45.2927 315 45.6571 315H448.343C448.707 315 449 314.777 449 314.5C449 314.223 448.707 314 448.343 314H45.6571C45.2927 314 45 314.223 45 314.5Z" fill="#484565"/>
<path d="M270.855 52H221.145C219.96 52 219 52.8954 219 54V54C219 55.1046 219.96 56 221.145 56H270.855C272.04 56 273 55.1046 273 54C273 52.8954 272.04 52 270.855 52Z" fill="#DFDFE0"/>
<path d="M51.8548 0H2.14518C0.960432 0 0 1.11929 0 2.49999V2.50001C0 3.88071 0.960432 5 2.14518 5H51.8548C53.0396 5 54 3.88071 54 2.49999C54 1.11929 53.0396 0 51.8548 0Z" fill="#DFDFE0"/>
<path d="M147.858 20H2.14245C0.959208 20 0 20.8954 0 22V22C0 23.1046 0.959208 24 2.14245 24H147.858C149.041 24 150 23.1046 150 22C150 20.8954 149.041 20 147.858 20Z" fill="#DFDFE0"/>
</svg>
